<?xml version="1.0" encoding="UTF-8" standalone="no"?>
<!-- Created with Inkscape (http://www.inkscape.org/) -->

<svg
   xmlns:dc="http://purl.org/dc/elements/1.1/"
   xmlns:cc="http://creativecommons.org/ns#"
   xmlns:rdf="http://www.w3.org/1999/02/22-rdf-syntax-ns#"
   xmlns:svg="http://www.w3.org/2000/svg"
   xmlns="http://www.w3.org/2000/svg"
   version="1.1"
   width="40"
   height="40"
   id="svg2"
   xml:space="preserve"><metadata
     id="metadata8"><rdf:RDF><cc:Work
         rdf:about=""><dc:format>image/svg+xml</dc:format><dc:type
           rdf:resource="http://purl.org/dc/dcmitype/StillImage" /><dc:title></dc:title></cc:Work></rdf:RDF></metadata><defs
     id="defs6"><clipPath
       id="clipPath20"><path
         d="M 0,55 55,55 55,0 0,0 0,55 z"
         id="path22" /></clipPath></defs><g
     transform="matrix(1.0078226,0,0,-1.0078226,-7.7020107,47.877523)"
     id="g10"><g
       transform="translate(23.9785,22.1074)"
       id="g12"><path
         d="M 0,0 8.633,5.355 0,10.713 0,0 z"
         id="path14"
         style="fill:#000000;fill-opacity:1;fill-rule:nonzero;stroke:none" /></g><g
       id="g16"><g
         clip-path="url(#clipPath20)"
         id="g18"><g
           transform="translate(37.5469,18.7148)"
           id="g24"><path
             d="m 0,0 0.008,-0.063 -19.813,0 0.007,0.034 c -2.746,0.175 -4.926,2.435 -4.926,5.229 0,2.905 2.355,5.258 5.257,5.258 0.013,0 0.025,-0.002 0.032,-0.002 -0.985,0.961 -1.607,2.294 -1.607,3.776 0,2.911 2.362,5.264 5.264,5.264 1.528,0 2.896,-0.661 3.858,-1.705 1.18,0.706 2.56,1.121 4.029,1.121 4.367,0 7.899,-3.534 7.899,-7.896 0,-0.207 -0.014,-0.412 -0.029,-0.617 C 2.594,10.094 4.631,7.895 4.631,5.2 4.631,2.512 2.604,0.318 0,0 m 4.563,13.889 c -1.306,5.665 -6.392,9.906 -12.454,9.906 -1.152,0 -2.302,-0.161 -3.413,-0.472 -1.381,0.686 -2.911,1.055 -4.474,1.055 -5.595,0 -10.145,-4.55 -10.145,-10.146 0,-0.388 0.022,-0.779 0.066,-1.164 -2.285,-1.861 -3.75,-4.697 -3.75,-7.868 0,-5.067 3.776,-9.331 8.73,-10.026 0.35,-0.08 0.706,-0.118 1.072,-0.118 l 19.813,0 c 0.566,0 1.125,0.1 1.65,0.286 4.547,1.054 7.854,5.115 7.854,9.858 0,3.663 -1.963,6.913 -4.949,8.689"
             id="path26"
             style="fill:#000000;fill-opacity:1;fill-rule:nonzero;stroke:none" /></g></g></g></g></svg>