<?xml version="1.0" encoding="UTF-8" standalone="no"?>
<!-- Created with Inkscape (http://www.inkscape.org/) -->

<svg
   xmlns:dc="http://purl.org/dc/elements/1.1/"
   xmlns:cc="http://creativecommons.org/ns#"
   xmlns:rdf="http://www.w3.org/1999/02/22-rdf-syntax-ns#"
   xmlns:svg="http://www.w3.org/2000/svg"
   xmlns="http://www.w3.org/2000/svg"
   version="1.1"
   width="40"
   height="40"
   id="svg2"
   xml:space="preserve"><metadata
     id="metadata8"><rdf:RDF><cc:Work
         rdf:about=""><dc:format>image/svg+xml</dc:format><dc:type
           rdf:resource="http://purl.org/dc/dcmitype/StillImage" /><dc:title></dc:title></cc:Work></rdf:RDF></metadata><defs
     id="defs6"><clipPath
       id="clipPath16"><path
         d="M 0,55 55,55 55,0 0,0 0,55 z"
         id="path18" /></clipPath></defs><g
     transform="matrix(0.99237746,0,0,-0.99237746,-5.5757114,47.35738)"
     id="g10"><g
       id="g12"><g
         clip-path="url(#clipPath16)"
         id="g14"><g
           transform="translate(27.4478,26.1152)"
           id="g20"><path
             d="m 0,0 -10.693,0 c -1.178,0 -2.133,-0.957 -2.133,-2.134 0,-1.179 0.955,-2.135 2.133,-2.135 l 10.693,0 c 1.178,0 2.133,0.956 2.133,2.135 C 2.133,-0.957 1.178,0 0,0"
             id="path22"
             style="fill:#000000;fill-opacity:1;fill-rule:nonzero;stroke:none" /></g><g
           transform="translate(27.4478,33.02)"
           id="g24"><path
             d="m 0,0 -10.693,0 c -1.178,0 -2.133,-0.956 -2.133,-2.133 0,-1.179 0.955,-2.134 2.133,-2.134 l 10.693,0 c 1.178,0 2.133,0.955 2.133,2.134 C 2.133,-0.956 1.178,0 0,0"
             id="path26"
             style="fill:#000000;fill-opacity:1;fill-rule:nonzero;stroke:none" /></g><g
           transform="translate(27.4478,39.9258)"
           id="g28"><path
             d="m 0,0 -10.693,0 c -1.178,0 -2.133,-0.956 -2.133,-2.134 0,-1.178 0.955,-2.133 2.133,-2.133 l 10.693,0 c 1.178,0 2.133,0.955 2.133,2.133 C 2.133,-0.956 1.178,0 0,0"
             id="path30"
             style="fill:#000000;fill-opacity:1;fill-rule:nonzero;stroke:none" /></g><g
           transform="translate(38.9609,12.7188)"
           id="g32"><path
             d="m 0,0 c 0,-0.498 -0.405,-0.903 -0.902,-0.903 l -16.956,0 c -0.498,0 -0.903,0.405 -0.903,0.903 l 0,1.809 10.347,0 c 2.851,0 5.17,2.318 5.17,5.169 l 0,16.449 2.342,0 C -0.405,23.427 0,23.021 0,22.523 L 0,0 z m -26.273,6.978 0,22.523 c 0,0.499 0.405,0.904 0.903,0.904 l 16.956,0 c 0.497,0 0.903,-0.405 0.903,-0.904 l 0,-22.523 c 0,-0.498 -0.406,-0.903 -0.903,-0.903 l -16.956,0 c -0.498,0 -0.903,0.405 -0.903,0.903 m 25.371,20.716 -2.342,0 0,1.807 c 0,2.852 -2.319,5.171 -5.17,5.171 l -16.956,0 c -2.851,0 -5.17,-2.319 -5.17,-5.171 l 0,-22.523 c 0,-2.851 2.319,-5.169 5.17,-5.169 l 2.343,0 0,-1.809 c 0,-2.851 2.318,-5.169 5.169,-5.169 l 16.956,0 c 2.851,0 5.17,2.318 5.17,5.169 l 0,22.523 c 0,2.851 -2.319,5.171 -5.17,5.171"
             id="path34"
             style="fill:#000000;fill-opacity:1;fill-rule:nonzero;stroke:none" /></g></g></g></g></svg>