<?xml version="1.0" encoding="UTF-8" standalone="no"?>
<!-- Created with Inkscape (http://www.inkscape.org/) -->

<svg
   xmlns:dc="http://purl.org/dc/elements/1.1/"
   xmlns:cc="http://creativecommons.org/ns#"
   xmlns:rdf="http://www.w3.org/1999/02/22-rdf-syntax-ns#"
   xmlns:svg="http://www.w3.org/2000/svg"
   xmlns="http://www.w3.org/2000/svg"
   xmlns:sodipodi="http://sodipodi.sourceforge.net/DTD/sodipodi-0.dtd"
   xmlns:inkscape="http://www.inkscape.org/namespaces/inkscape"
   version="1.1"
   width="40"
   height="40"
   id="svg2"
   xml:space="preserve"
   inkscape:version="0.48.4 r9939"
   sodipodi:docname="Add_40x40.svg"><sodipodi:namedview
     pagecolor="#ffffff"
     bordercolor="#666666"
     borderopacity="1"
     objecttolerance="10"
     gridtolerance="10"
     guidetolerance="10"
     inkscape:pageopacity="0"
     inkscape:pageshadow="2"
     inkscape:window-width="640"
     inkscape:window-height="480"
     id="namedview12"
     showgrid="false"
     inkscape:zoom="5.9"
     inkscape:cx="20"
     inkscape:cy="20"
     inkscape:window-x="787"
     inkscape:window-y="408"
     inkscape:window-maximized="0"
     inkscape:current-layer="svg2" /><metadata
     id="metadata8"><rdf:RDF><cc:Work
         rdf:about=""><dc:format>image/svg+xml</dc:format><dc:type
           rdf:resource="http://purl.org/dc/dcmitype/StillImage" /><dc:title /></cc:Work></rdf:RDF></metadata><defs
     id="defs6"><clipPath
       id="clipPath16"><path
         d="M 0,55 55,55 55,0 0,0 0,55 z"
         id="path18" /></clipPath></defs><g
     transform="matrix(1.25,0,0,-1.25,-12.99925,54.912748)"
     id="g10"><g
       id="g12"><g
         clip-path="url(#clipPath16)"
         id="g14"><g
           transform="translate(41.4824,31.7222)"
           id="g20"><path
             d="m -1.9515975,-1.2819788 -10.4758095,0 0,10.4767372 c 0,1.4522666 -1.178517,2.6307846 -2.630784,2.6307846 -1.453195,0 -2.630784,-1.178518 -2.630784,-2.6307846 l 0,-10.4767372 -10.475809,0 c -1.452267,0 -2.630785,-1.178517 -2.630785,-2.630784 0,-1.4522669 1.178518,-2.6298559 2.630785,-2.6298559 l 10.475809,0 0,-10.4758093 c 0,-1.454123 1.177589,-2.629856 2.630784,-2.629856 1.452267,0 2.630784,1.175733 2.630784,2.629856 l 0,10.4758093 10.4758095,0 c 1.45319489,0 2.62985589,1.177589 2.62985589,2.6298559 0,1.452267 -1.176661,2.630784 -2.62985589,2.630784"
             id="path22"
             style="fill:#000000;fill-opacity:1;fill-rule:nonzero;stroke:none" /></g></g></g></g></svg>