<?xml version="1.0" encoding="UTF-8" standalone="no"?>
<!-- Created with Inkscape (http://www.inkscape.org/) -->

<svg
   xmlns:dc="http://purl.org/dc/elements/1.1/"
   xmlns:cc="http://creativecommons.org/ns#"
   xmlns:rdf="http://www.w3.org/1999/02/22-rdf-syntax-ns#"
   xmlns:svg="http://www.w3.org/2000/svg"
   xmlns="http://www.w3.org/2000/svg"
   xmlns:sodipodi="http://sodipodi.sourceforge.net/DTD/sodipodi-0.dtd"
   xmlns:inkscape="http://www.inkscape.org/namespaces/inkscape"
   version="1.1"
   width="40"
   height="40"
   id="svg2"
   xml:space="preserve"
   inkscape:version="0.48.4 r9939"
   sodipodi:docname="Add_Ons_40x40.svg"><sodipodi:namedview
     pagecolor="#ffffff"
     bordercolor="#666666"
     borderopacity="1"
     objecttolerance="10"
     gridtolerance="10"
     guidetolerance="10"
     inkscape:pageopacity="0"
     inkscape:pageshadow="2"
     inkscape:window-width="759"
     inkscape:window-height="480"
     id="namedview14"
     showgrid="false"
     inkscape:zoom="5.9"
     inkscape:cx="20"
     inkscape:cy="20"
     inkscape:window-x="0"
     inkscape:window-y="0"
     inkscape:window-maximized="0"
     inkscape:current-layer="svg2" /><metadata
     id="metadata8"><rdf:RDF><cc:Work
         rdf:about=""><dc:format>image/svg+xml</dc:format><dc:type
           rdf:resource="http://purl.org/dc/dcmitype/StillImage" /><dc:title /></cc:Work></rdf:RDF></metadata><defs
     id="defs6"><clipPath
       id="clipPath16"><path
         d="M 0,55 55,55 55,0 0,0 0,55 z"
         id="path18" /></clipPath></defs><g
     transform="matrix(1.25,0,0,-1.25,-14.374875,49.360501)"
     id="g10"><g
       id="g12"><g
         clip-path="url(#clipPath16)"
         id="g14"><g
           transform="translate(39.5039,11.4844)"
           id="g20"><path
             d="m -2.8669491,-0.52440677 -18.8182619,0 0,19.25724677 3.137944,0 0,-4.280085 c 0,-0.865424 0.701589,-1.566229 1.567013,-1.566229 0.865424,0 1.567013,0.700805 1.567013,1.566229 l 0,4.280085 6.2743215,0 0,-4.280085 c 0,-0.865424 0.701589,-1.566229 1.5654449,-1.566229 0.8662076,0 1.5670127,0.700805 1.5670127,1.566229 l 0,4.280085 3.1395128,0 0,-19.25724677 z M -15.413241,24.579153 l 6.2743215,0 0,-2.713072 -6.2743215,0 0,2.713072 z m 14.1125207,-2.713072 -4.7057416,0 0,4.280085 c 0,0.865424 -0.7008051,1.567013 -1.5670127,1.567013 l -9.4067794,0 c -0.865424,0 -1.567013,-0.701589 -1.567013,-1.567013 l 0,-4.280085 -4.704957,0 c -0.865424,0 -1.567013,-0.701589 -1.567013,-1.567013 l 0,-22.3897036 c 0,-0.8654237 0.701589,-1.5662288 1.567013,-1.5662288 l 21.9515037,0 c 0.86542374,0 1.56622884,0.7008051 1.56622884,1.5662288 l 0,22.3897036 c 0,0.865424 -0.7008051,1.567013 -1.56622884,1.567013"
             id="path22"
             style="fill:#000000;fill-opacity:1;fill-rule:nonzero;stroke:none" /></g><g
           transform="translate(34.5176,25.3047)"
           id="g24"><path
             d="m -1.7894013,-3.510997 -4.0566737,0 0,4.05745768 c 0,0.66552962 -0.5393221,1.20563562 -1.2048517,1.20563562 -0.6663136,0 -1.2056356,-0.540106 -1.2056356,-1.20563562 l 0,-4.05745768 -4.0566737,0 c -0.666314,0 -1.204852,-0.539322 -1.204852,-1.2048517 0,-0.6663135 0.538538,-1.2064195 1.204852,-1.2064195 l 4.0566737,0 0,-4.0558902 c 0,-0.6663126 0.539322,-1.2064186 1.2056356,-1.2064186 0.6655296,0 1.2048517,0.540106 1.2048517,1.2064186 l 0,4.0558902 4.0566737,0 c 0.6663136,0 1.20641954,0.540106 1.20641954,1.2064195 0,0.6655297 -0.54010594,1.2048517 -1.20641954,1.2048517"
             id="path26"
             style="fill:#000000;fill-opacity:1;fill-rule:nonzero;stroke:none" /></g></g></g></g></svg>