<?xml version="1.0" encoding="UTF-8" standalone="no"?>
<!-- Created with Inkscape (http://www.inkscape.org/) -->

<svg
   xmlns:dc="http://purl.org/dc/elements/1.1/"
   xmlns:cc="http://creativecommons.org/ns#"
   xmlns:rdf="http://www.w3.org/1999/02/22-rdf-syntax-ns#"
   xmlns:svg="http://www.w3.org/2000/svg"
   xmlns="http://www.w3.org/2000/svg"
   version="1.1"
   width="40"
   height="40"
   id="svg2"
   xml:space="preserve"><metadata
     id="metadata8"><rdf:RDF><cc:Work
         rdf:about=""><dc:format>image/svg+xml</dc:format><dc:type
           rdf:resource="http://purl.org/dc/dcmitype/StillImage" /><dc:title></dc:title></cc:Work></rdf:RDF></metadata><defs
     id="defs6"><clipPath
       id="clipPath16"><path
         d="M 0,55 55,55 55,0 0,0 0,55 z"
         id="path18" /></clipPath></defs><g
     transform="matrix(1.25,0,0,-1.25,-11.10675,50.279625)"
     id="g10"><g
       id="g12"><g
         clip-path="url(#clipPath16)"
         id="g14"><g
           transform="translate(14.8804,42.2417)"
           id="g20"><path
             d="m -0.24690679,-6.0540508 c -0.6510508,0 -1.20016951,-0.4406102 -1.20016951,-0.9617797 l 0,-22.3132885 c 0,-0.521169 0.54911871,-0.960135 1.20016951,-0.960135 l 20.74731379,0 c 0.650229,0 1.199347,0.438966 1.199347,0.960135 l 0,22.3132885 c 0,0.5211695 -0.549118,0.9617797 -1.199347,0.9617797 l -20.74731379,0 z M 20.500407,-34.018 l -20.74731379,0 C -2.9645508,-34.018 -5.175,-31.914415 -5.175,-29.329119 l 0,22.3132885 c 0,2.5861187 2.2104492,4.6897034 4.92809321,4.6897034 l 20.74731379,0 c 2.716822,0 4.928915,-2.1035847 4.928915,-4.6897034 l 0,-22.3132885 c 0,-2.585296 -2.212093,-4.688881 -4.928915,-4.688881"
             id="path22"
             style="fill:#000000;fill-opacity:1;fill-rule:nonzero;stroke:none" /></g><g
           transform="translate(25.5142,26.8691)"
           id="g24"><path
             d="m -2.1393627,-3.3182491 3.2634746,0 -1.63173729,3.49035589 -1.63173731,-3.49035589 z m -5.2634831,-8.7193139 c -0.2646949,0 -0.5326779,0.0559 -0.7883305,0.174271 -0.9330084,0.4365 -1.3349827,1.546246 -0.8993051,2.4784327 l 2.3107373,4.9445339 c 0.013975,0.030415 0.028771,0.061653 0.043568,0.091246 l 4.5400933,9.7123306 c 0.3066186,0.655161 0.9650678,1.0743983 1.68845761,1.0743983 0.72503389,0 1.38266099,-0.4192373 1.68927969,-1.0752204 l 4.4143218,-9.4427037 c 0.073983,-0.1002881 0.1381017,-0.2087966 0.1898898,-0.3238813 l 2.2934746,-4.9913899 c 0.4299237,-0.9330082 0.022195,-2.0378222 -0.9083475,-2.4702122 -0.9330084,-0.432389 -2.0394661,-0.02795 -2.4735,0.901772 l -1.8306695,3.9169911 -6.7488983,0 -1.8314915,-3.9169911 c -0.315661,-0.677356 -0.9880847,-1.073577 -1.6892797,-1.073577"
             id="path26"
             style="fill:#000000;fill-opacity:1;fill-rule:nonzero;stroke:none" /></g></g></g></g></svg>