<?xml version="1.0" encoding="UTF-8" standalone="no"?>
<!-- Created with Inkscape (http://www.inkscape.org/) -->

<svg
   xmlns:dc="http://purl.org/dc/elements/1.1/"
   xmlns:cc="http://creativecommons.org/ns#"
   xmlns:rdf="http://www.w3.org/1999/02/22-rdf-syntax-ns#"
   xmlns:svg="http://www.w3.org/2000/svg"
   xmlns="http://www.w3.org/2000/svg"
   version="1.1"
   width="40"
   height="40"
   id="svg2"
   xml:space="preserve"><metadata
     id="metadata8"><rdf:RDF><cc:Work
         rdf:about=""><dc:format>image/svg+xml</dc:format><dc:type
           rdf:resource="http://purl.org/dc/dcmitype/StillImage" /><dc:title></dc:title></cc:Work></rdf:RDF></metadata><defs
     id="defs6"><clipPath
       id="clipPath16"><path
         d="M 0,55 55,55 55,0 0,0 0,55 z"
         id="path18" /></clipPath></defs><g
     transform="matrix(1.25,0,0,-1.25,-9.9877897,52.942499)"
     id="g10"><g
       id="g12"><g
         clip-path="url(#clipPath16)"
         id="g14"><g
           transform="translate(39.2832,24.084)"
           id="g20"><path
             d="m -5.3456198,-0.5060314 -4.1590948,0 0,4.737572 6.0389396,0 -1.8798448,-4.737572 z M -8.0721375,-7.37679 c -0.1089286,0.022281 -0.2195078,0.035484 -0.3342129,0.035484 l -1.0983642,0 0,4.9636815 3.4163993,0 -1.9838222,-4.9991659 z m -16.4259485,4.9991659 3.350381,0 0,-4.9636815 -1.033172,0 c -0.114705,0 -0.226109,-0.013204 -0.334212,-0.035484 l -1.982997,4.9991659 z m 3.350381,6.6091647 0,-4.737572 -4.092252,0 -1.88067,4.737572 5.972922,0 z m 4.310935,8.3124124 c 0.237663,0.239313 0.656048,0.557022 1.543156,0.557022 0.953126,0 1.387191,-0.328436 1.63063,-0.575176 1.019143,-1.031522 1.128897,-3.3784394 1.127246,-5.0189712 l -5.505849,0 c 0.0198,1.6430074 0.179072,4.0056042 1.204817,5.0371252 m -1.504371,-8.3124124 6.029037,0 0,-4.737572 -6.029037,0 0,4.737572 z m 0,-6.6091647 6.029037,0 0,-4.9645067 -6.029037,0 0,4.9645067 z M 0.30051639,6.7888888 c -0.30533037,0.4489181 -0.81283895,0.717939 -1.35500669,0.717939 l -8.20596,0 c 0.0066,2.2256108 -0.1592669,5.3828912 -2.0729457,7.3205012 -1.014192,1.027396 -2.347743,1.548933 -3.960218,1.548933 -1.560485,0 -2.861028,-0.513285 -3.865317,-1.523351 -1.907902,-1.91863 -2.138963,-5.1460541 -2.157943,-7.3460832 l -8.215037,0 c -0.542168,0 -1.049677,-0.2690209 -1.354182,-0.717939 -0.304505,-0.4489182 -0.368047,-1.0191433 -0.167519,-1.523351 l 6.374803,-16.0694548 c 0.247565,-0.623039 0.851624,-1.032347 1.522526,-1.032347 l 15.7261645,0 c 0.6709016,0 1.2741354,0.409308 1.5217006,1.032347 L 0.46803549,5.2655378 c 0.19970257,0.5042077 0.13698606,1.0744328 -0.1675191,1.523351"
             id="path22"
             style="fill:#000000;fill-opacity:1;fill-rule:nonzero;stroke:none" /></g></g></g></g></svg>