<?xml version="1.0" encoding="UTF-8" standalone="no"?>
<!-- Created with Inkscape (http://www.inkscape.org/) -->

<svg
   xmlns:dc="http://purl.org/dc/elements/1.1/"
   xmlns:cc="http://creativecommons.org/ns#"
   xmlns:rdf="http://www.w3.org/1999/02/22-rdf-syntax-ns#"
   xmlns:svg="http://www.w3.org/2000/svg"
   xmlns="http://www.w3.org/2000/svg"
   version="1.1"
   width="40"
   height="40"
   id="svg2"
   xml:space="preserve"><metadata
     id="metadata8"><rdf:RDF><cc:Work
         rdf:about=""><dc:format>image/svg+xml</dc:format><dc:type
           rdf:resource="http://purl.org/dc/dcmitype/StillImage" /><dc:title></dc:title></cc:Work></rdf:RDF></metadata><defs
     id="defs6"><clipPath
       id="clipPath16"><path
         d="M 0,55 55,55 55,0 0,0 0,55 z"
         id="path18" /></clipPath></defs><g
     transform="matrix(1.25,0,0,-1.25,-9.337875,60.724625)"
     id="g10"><g
       id="g12"><g
         clip-path="url(#clipPath16)"
         id="g14"><g
           transform="translate(23.4272,31.5923)"
           id="g20" /><g
           transform="translate(31.2891,32.3745)"
           id="g24" /><g
           transform="translate(39.8623,21.8457)"
           id="g28"><g
             transform="matrix(0.79192547,0,0,0.79192547,-6.6018214,6.1875559)"
             id="g2995"><path
               d="m 0,0 c -0.324,0.489 -0.872,0.782 -1.457,0.782 l -3.572,0 c -0.704,0 -1.338,-0.42 -1.612,-1.069 l -2.468,-5.848 c -0.228,-0.54 -0.17,-1.158 0.154,-1.647 0.325,-0.489 0.872,-0.782 1.457,-0.782 l 3.573,0 c 0.703,0 1.338,0.421 1.611,1.069 l 2.468,5.849 C 0.382,-1.106 0.324,-0.488 0,0"
               transform="translate(-16.4351,9.7466)"
               id="path22"
               style="fill:#000000;fill-opacity:1;fill-rule:nonzero;stroke:none" /><path
               d="M 0,0 -3.573,0 C -4.276,0 -4.91,-0.42 -5.184,-1.069 l -2.468,-5.848 c -0.228,-0.541 -0.17,-1.159 0.154,-1.647 0.325,-0.489 0.872,-0.782 1.457,-0.782 l 3.572,0 c 0.703,0 1.338,0.421 1.612,1.069 l 2.469,5.849 C 1.839,-1.889 1.781,-1.27 1.457,-0.782 1.133,-0.293 0.585,0 0,0"
               transform="translate(-8.5732,10.5288)"
               id="path26"
               style="fill:#000000;fill-opacity:1;fill-rule:nonzero;stroke:none" /><path
               d="M 0,0 C 0,-0.094 -0.022,-0.192 -0.056,-0.274 -0.095,-0.361 -0.149,-0.443 -0.208,-0.504 -0.274,-0.57 -0.356,-0.626 -0.461,-0.67 -0.538,-0.703 -0.626,-0.721 -0.726,-0.721 l -26.396,0 c -0.098,0 -0.187,0.018 -0.281,0.058 -0.088,0.039 -0.168,0.093 -0.226,0.15 -0.066,0.065 -0.121,0.15 -0.158,0.234 -0.037,0.089 -0.056,0.183 -0.056,0.279 l 0,11.479 c 0,0.097 0.019,0.191 0.054,0.275 0.037,0.087 0.089,0.165 0.164,0.24 0.062,0.063 0.132,0.111 0.232,0.152 0.082,0.035 0.174,0.053 0.271,0.053 l 26.396,0 c 0.1,0 0.191,-0.016 0.295,-0.061 0.077,-0.033 0.147,-0.08 0.227,-0.162 0.062,-0.06 0.113,-0.137 0.141,-0.205 C -0.022,11.673 0,11.575 0,11.479 L 0,0 z m 5.395,11.393 c -0.301,0 -0.586,-0.061 -0.849,-0.167 l 0,0.253 c 0,0.698 -0.137,1.384 -0.417,2.057 -0.271,0.633 -0.653,1.197 -1.118,1.656 -0.488,0.494 -1.057,0.878 -1.674,1.135 -0.65,0.278 -1.344,0.421 -2.063,0.421 l -26.396,0 c -0.715,0 -1.408,-0.142 -2.036,-0.41 -0.636,-0.264 -1.208,-0.649 -1.682,-1.128 -0.483,-0.478 -0.864,-1.042 -1.136,-1.679 -0.276,-0.653 -0.416,-1.343 -0.416,-2.052 l 0,-11.479 c 0,-0.708 0.14,-1.397 0.419,-2.054 0.267,-0.629 0.644,-1.19 1.136,-1.684 0.484,-0.477 1.046,-0.853 1.65,-1.106 0.649,-0.28 1.345,-0.422 2.065,-0.422 l 26.396,0 c 0.723,0 1.42,0.142 2.051,0.414 0.625,0.266 1.187,0.641 1.676,1.125 0.482,0.481 0.859,1.044 1.135,1.691 0.273,0.653 0.41,1.34 0.41,2.036 l 0,1.027 C 4.809,0.922 5.094,0.859 5.395,0.859 c 1.254,0 2.272,1.019 2.272,2.275 l 0,5.985 c 0,1.256 -1.018,2.274 -2.272,2.274"
               id="path30"
               style="fill:#000000;fill-opacity:1;fill-rule:nonzero;stroke:none" /></g></g></g></g></g></svg>