<?xml version="1.0" encoding="UTF-8" standalone="no"?>
<!-- Created with Inkscape (http://www.inkscape.org/) -->

<svg
   xmlns:dc="http://purl.org/dc/elements/1.1/"
   xmlns:cc="http://creativecommons.org/ns#"
   xmlns:rdf="http://www.w3.org/1999/02/22-rdf-syntax-ns#"
   xmlns:svg="http://www.w3.org/2000/svg"
   xmlns="http://www.w3.org/2000/svg"
   version="1.1"
   width="40"
   height="40"
   id="svg2"
   xml:space="preserve"><metadata
     id="metadata8"><rdf:RDF><cc:Work
         rdf:about=""><dc:format>image/svg+xml</dc:format><dc:type
           rdf:resource="http://purl.org/dc/dcmitype/StillImage" /><dc:title></dc:title></cc:Work></rdf:RDF></metadata><defs
     id="defs6"><clipPath
       id="clipPath16"><path
         d="M 0,55 55,55 55,0 0,0 0,55 z"
         id="path18" /></clipPath></defs><g
     transform="matrix(1.25,0,0,-1.25,-21.198187,49.927252)"
     id="g10"><g
       id="g12"><g
         clip-path="url(#clipPath16)"
         id="g14"><g
           transform="translate(29.7578,14.7168)"
           id="g20"><path
             d="m 4.7971319,-1.1417488 0,6.5115255 3.2549576,-3.2565678 -3.2549576,-3.2549577 z m 0,20.7341528 3.2549576,-3.255763 -3.2549576,-3.254957 0,6.51072 z M 5.4597167,9.2253276 11.441496,15.207107 c 0.623136,0.623941 0.623136,1.635127 0,2.259068 L 4.3293777,24.578294 C 3.8728946,25.035582 3.1861573,25.171641 2.5887844,24.92448 1.9914116,24.677319 1.6025556,24.094438 1.6025556,23.44876 l 0,-10.366271 -4.3828817,4.383686 c -0.62394,0.623941 -1.635127,0.623941 -2.259067,0 -0.623941,-0.623941 -0.623941,-1.635127 0,-2.259068 L 0.94158098,9.2253276 -5.0393931,3.2427428 c -0.623941,-0.6231356 -0.623941,-1.6351272 0,-2.25826277 0.62394,-0.62474577 1.635127,-0.62474577 2.259067,0 L 1.6025556,5.3681665 1.6033607,-4.9989099 c 0,-0.6456779 0.389661,-1.2277542 0.9862288,-1.4757203 0.1972458,-0.082119 0.4049577,-0.1215678 0.6110594,-0.1215678 0.4154237,0 0.8244067,0.1626271 1.1303389,0.4685593 l 7.1105082,7.11211873 c 0.623136,0.62313557 0.623136,1.63512717 0,2.25826277 L 5.4597167,9.2253276 z"
             id="path22"
             style="fill:#000000;fill-opacity:1;fill-rule:nonzero;stroke:none" /></g></g></g></g></svg>