<?xml version="1.0" encoding="UTF-8" standalone="no"?>
<!-- Created with Inkscape (http://www.inkscape.org/) -->

<svg
   xmlns:dc="http://purl.org/dc/elements/1.1/"
   xmlns:cc="http://creativecommons.org/ns#"
   xmlns:rdf="http://www.w3.org/1999/02/22-rdf-syntax-ns#"
   xmlns:svg="http://www.w3.org/2000/svg"
   xmlns="http://www.w3.org/2000/svg"
   version="1.1"
   width="40"
   height="40"
   id="svg2"
   xml:space="preserve"><metadata
     id="metadata8"><rdf:RDF><cc:Work
         rdf:about=""><dc:format>image/svg+xml</dc:format><dc:type
           rdf:resource="http://purl.org/dc/dcmitype/StillImage" /><dc:title></dc:title></cc:Work></rdf:RDF></metadata><defs
     id="defs6"><clipPath
       id="clipPath16"><path
         d="M 0,55 55,55 55,0 0,0 0,55 z"
         id="path18" /></clipPath></defs><g
     transform="matrix(1.25,0,0,-1.25,-11.452,53.051621)"
     id="g10"><g
       id="g12"><g
         clip-path="url(#clipPath16)"
         id="g14"><g
           transform="translate(18.373,18.3281)"
           id="g20" /><g
           transform="translate(42.2051,17.6943)"
           id="g24" /><g
           transform="translate(16.4146,40.1821)"
           id="g28"><g
             transform="matrix(0.86440678,0,0,0.86440678,-0.83516844,-2.4538973)"
             id="g2995"><path
               d="m 0,0 18.986,0 c 3.051,0 5.534,2.482 5.534,5.533 0,3.051 -2.483,5.531 -5.534,5.531 l -18.984,0 c -0.548,0 -0.995,0.447 -0.995,0.996 0,0.55 0.447,0.998 0.995,0.998 l 18.984,0 c 3.051,0 5.534,2.481 5.534,5.53 0,3.051 -2.483,5.534 -5.534,5.534 l -16.624,0 c -1.252,0 -2.267,-1.016 -2.267,-2.268 0,-1.252 1.015,-2.268 2.267,-2.268 l 16.624,0 c 0.551,0 0.998,-0.447 0.998,-0.998 0,-0.548 -0.447,-0.995 -0.998,-0.995 l -18.984,0 c -3.049,0 -5.53,-2.482 -5.53,-5.533 0,-3.05 2.481,-5.531 5.53,-5.531 l 18.984,0 c 0.551,0 0.998,-0.447 0.998,-0.996 0,-0.55 -0.447,-0.996 -0.998,-0.996 L 0,4.537 c -3.048,0 -5.528,-2.482 -5.528,-5.531 0,-3.051 2.48,-5.534 5.528,-5.534 l 15.754,0 c 1.252,0 2.267,1.015 2.267,2.268 0,1.252 -1.015,2.268 -2.267,2.268 L 0,-1.992 c -0.547,0 -0.993,0.447 -0.993,0.998 C -0.993,-0.445 -0.547,0 0,0"
               transform="translate(1.9584,-21.854)"
               id="path22"
               style="fill:#000000;fill-opacity:1;fill-rule:nonzero;stroke:none" /><path
               d="m 0,0 c -2,-0.001 -3.623,-1.624 -3.62,-3.629 0.003,-2.003 1.624,-3.626 3.624,-3.624 2.008,0.002 3.633,1.627 3.629,3.629 C 3.631,-1.62 2.006,0.003 0,0"
               transform="translate(25.7905,-22.4878)"
               id="path26"
               style="fill:#000000;fill-opacity:1;fill-rule:nonzero;stroke:none" /><path
               d="m 0,0 c 0,2.004 -1.625,3.626 -3.631,3.626 -2,0 -3.622,-1.622 -3.622,-3.626 0,-2.002 1.622,-3.627 3.622,-3.627 C -1.625,-3.627 0,-2.002 0,0"
               id="path30"
               style="fill:#000000;fill-opacity:1;fill-rule:nonzero;stroke:none" /></g></g></g></g></g></svg>