<?xml version="1.0" encoding="UTF-8" standalone="no"?>
<!-- Created with Inkscape (http://www.inkscape.org/) -->

<svg
   xmlns:dc="http://purl.org/dc/elements/1.1/"
   xmlns:cc="http://creativecommons.org/ns#"
   xmlns:rdf="http://www.w3.org/1999/02/22-rdf-syntax-ns#"
   xmlns:svg="http://www.w3.org/2000/svg"
   xmlns="http://www.w3.org/2000/svg"
   version="1.1"
   width="40"
   height="40"
   id="svg2"
   xml:space="preserve"><metadata
     id="metadata8"><rdf:RDF><cc:Work
         rdf:about=""><dc:format>image/svg+xml</dc:format><dc:type
           rdf:resource="http://purl.org/dc/dcmitype/StillImage" /><dc:title></dc:title></cc:Work></rdf:RDF></metadata><defs
     id="defs6"><clipPath
       id="clipPath16"><path
         d="M 0,55 55,55 55,0 0,0 0,55 z"
         id="path18" /></clipPath></defs><g
     transform="matrix(1.25,0,0,-1.25,-26.74975,48.887124)"
     id="g10"><g
       id="g12"><g
         clip-path="url(#clipPath16)"
         id="g14"><g
           transform="translate(33.1973,33.7607)"
           id="g20" /><g
           transform="translate(28.9258,47.4844)"
           id="g24"><g
             transform="translate(0,0.26070945)"
             id="g2992"><path
               d="m 7.5327652,-5.8722544 c 0.071729,0.5847458 -0.1083729,1.1554576 -0.5052203,1.6061017 l -5.7172542,-0.00468 C 0.91266351,-4.723034 0.73568051,-5.2960849 0.81130761,-5.8816103 1.1465618,-8.4856781 -0.27086189,-17.309881 -0.84625169,-20.490119 c -0.087322,-0.486508 0.039763,-0.986271 0.3500678,-1.370644 l 3.34162709,-4.154034 c 0.3188813,-0.397627 0.7991525,-0.630745 1.3082712,-0.636203 l 0.019491,0 c 0.501322,0 0.9776949,0.220644 1.3020339,0.605797 l 3.401661,4.032406 c 0.3290169,0.39139 0.4677966,0.912204 0.3711186,1.413526 -0.593322,3.143593 -2.0622033,11.9116607 -1.7152542,14.7270166"
               transform="translate(4.2715,-13.7237)"
               id="path22"
               style="fill:#000000;fill-opacity:1;fill-rule:nonzero;stroke:none" /><path
               d="m 8.4743898,-8.8961205 c -3.6223051,0 -5.8677288,-0.3968475 -5.8677288,-2.3693895 0,-0.04912 0.2619661,-4.903288 2.9018983,-4.903288 l 5.4771187,-0.0016 0.485729,0 c 1.676271,0 2.25322,1.906271 2.444237,2.533119 0.250271,0.826441 0.425695,1.801796 0.425695,2.371729 0,1.972542 -2.245424,2.3693895 -5.8669492,2.3693895"
               id="path26"
               style="fill:#000000;fill-opacity:1;fill-rule:nonzero;stroke:none" /></g></g></g></g></g></svg>