<?xml version="1.0" encoding="UTF-8" standalone="no"?>
<!-- Created with Inkscape (http://www.inkscape.org/) -->

<svg
   xmlns:dc="http://purl.org/dc/elements/1.1/"
   xmlns:cc="http://creativecommons.org/ns#"
   xmlns:rdf="http://www.w3.org/1999/02/22-rdf-syntax-ns#"
   xmlns:svg="http://www.w3.org/2000/svg"
   xmlns="http://www.w3.org/2000/svg"
   version="1.1"
   width="40"
   height="40"
   id="svg2"
   xml:space="preserve"><metadata
     id="metadata8"><rdf:RDF><cc:Work
         rdf:about=""><dc:format>image/svg+xml</dc:format><dc:type
           rdf:resource="http://purl.org/dc/dcmitype/StillImage" /><dc:title></dc:title></cc:Work></rdf:RDF></metadata><defs
     id="defs6"><clipPath
       id="clipPath16"><path
         d="M 0,55 55,55 55,0 0,0 0,55 z"
         id="path18" /></clipPath></defs><g
     transform="matrix(1.25,0,0,-1.25,-15.659875,51.203751)"
     id="g10"><g
       id="g12"><g
         clip-path="url(#clipPath16)"
         id="g14"><g
           transform="translate(37.0049,14.458)"
           id="g20" /><g
           transform="translate(22.9883,32.4185)"
           id="g24" /><g
           transform="translate(33.5029,23.1035)"
           id="g28"><g
             transform="matrix(0.83050848,0,0,0.83050848,0.39755936,-2.207084)"
             id="g2995"><path
               d="m 0,0 c 0,-0.529 -0.432,-0.96 -0.96,-0.96 l -18.022,0 c -0.53,0 -0.96,0.431 -0.96,0.96 l 0,23.94 c 0,0.529 0.43,0.96 0.96,0.96 l 1.095,0 0,-0.876 c 0,-1.252 1.015,-2.267 2.268,-2.267 1.252,0 2.267,1.015 2.267,2.267 l 0,0.876 1.114,0 0,-0.876 c 0,-1.252 1.015,-2.267 2.267,-2.267 1.252,0 2.268,1.015 2.268,2.267 l 0,0.876 1.181,0 0,-0.876 c 0,-1.252 1.015,-2.267 2.268,-2.267 1.252,0 2.268,1.015 2.268,2.267 l 0,0.876 1.026,0 C -0.432,24.9 0,24.469 0,23.94 L 0,0 z m -0.96,29.436 -1.026,0 0,0.875 c 0,1.252 -1.016,2.268 -2.268,2.268 -1.253,0 -2.268,-1.016 -2.268,-2.268 l 0,-0.875 -1.181,0 0,0.875 c 0,1.252 -1.016,2.268 -2.268,2.268 -1.252,0 -2.267,-1.016 -2.267,-2.268 l 0,-0.875 -1.114,0 0,0.875 c 0,1.252 -1.015,2.268 -2.267,2.268 -1.253,0 -2.268,-1.016 -2.268,-2.268 l 0,-0.875 -1.095,0 c -3.03,0 -5.495,-2.466 -5.495,-5.496 l 0,-23.94 c 0,-3.03 2.465,-5.495 5.495,-5.495 l 18.022,0 c 3.03,0 5.495,2.465 5.495,5.495 l 0,23.94 c 0,3.03 -2.465,5.496 -5.495,5.496"
               transform="translate(3.502,-8.6455)"
               id="path22"
               style="fill:#000000;fill-opacity:1;fill-rule:nonzero;stroke:none" /><path
               d="m 0,0 c -0.24,0 -0.49,-0.067 -0.696,-0.186 l -2.743,-1.535 c -0.316,-0.166 -0.557,-0.467 -0.66,-0.825 -0.104,-0.36 -0.06,-0.744 0.112,-1.039 0.353,-0.645 1.285,-0.853 1.86,-0.507 l 0.762,0.421 0,-7.008 c 0,-0.761 0.613,-1.38 1.365,-1.38 0.766,0 1.365,0.606 1.365,1.38 l 0,9.299 C 1.365,-0.619 0.753,0 0,0"
               transform="translate(-10.5146,9.315)"
               id="path26"
               style="fill:#000000;fill-opacity:1;fill-rule:nonzero;stroke:none" /><path
               d="m 0,0 -3.848,0 c 0.33,0.347 0.828,0.736 1.436,1.176 2.409,1.727 3.567,2.646 3.567,4.629 0,2.155 -1.702,3.66 -4.139,3.66 -2.193,0 -3.4,-1.339 -3.825,-1.925 -0.24,-0.343 -0.305,-0.777 -0.179,-1.185 0.163,-0.545 0.696,-0.927 1.295,-0.927 0.146,0 0.292,0.023 0.402,0.059 0.304,0.083 0.559,0.265 0.735,0.513 0.409,0.518 0.952,0.78 1.617,0.78 1.266,0 1.365,-0.746 1.365,-0.975 0,-0.735 -0.323,-1.012 -2.57,-2.601 L -4.395,3.026 c -1.85,-1.314 -2.64,-2.538 -2.64,-4.09 0,-0.939 0.688,-1.621 1.636,-1.621 l 5.399,0 c 0.773,0 1.38,0.6 1.38,1.366 C 1.38,-0.579 0.773,0 0,0"
               id="path30"
               style="fill:#000000;fill-opacity:1;fill-rule:nonzero;stroke:none" /></g></g></g></g></g></svg>