<?xml version="1.0" encoding="UTF-8" standalone="no"?>
<!-- Created with Inkscape (http://www.inkscape.org/) -->

<svg
   xmlns:dc="http://purl.org/dc/elements/1.1/"
   xmlns:cc="http://creativecommons.org/ns#"
   xmlns:rdf="http://www.w3.org/1999/02/22-rdf-syntax-ns#"
   xmlns:svg="http://www.w3.org/2000/svg"
   xmlns="http://www.w3.org/2000/svg"
   version="1.1"
   width="40"
   height="40"
   id="svg2"
   xml:space="preserve"><metadata
     id="metadata8"><rdf:RDF><cc:Work
         rdf:about=""><dc:format>image/svg+xml</dc:format><dc:type
           rdf:resource="http://purl.org/dc/dcmitype/StillImage" /><dc:title></dc:title></cc:Work></rdf:RDF></metadata><defs
     id="defs6"><clipPath
       id="clipPath16"><path
         d="M 0,55 55,55 55,0 0,0 0,55 z"
         id="path18" /></clipPath></defs><g
     transform="matrix(1.25,0,0,-1.25,-15.659875,51.203751)"
     id="g10"><g
       id="g12"><g
         clip-path="url(#clipPath16)"
         id="g14"><g
   transform="translate(37.0049,14.458)"
   id="g20" /><g
   transform="translate(22.5566,32.4868)"
   id="g24" /><g
   transform="translate(32.6963,29.082)"
   id="g28"><g
     transform="matrix(0.82627119,0,0,0.82627119,0.51027799,-3.2249738)"
     id="g3001"><path
       d="m 0,0 c 0,-0.529 -0.432,-0.96 -0.96,-0.96 l -18.022,0 c -0.53,0 -0.96,0.431 -0.96,0.96 l 0,23.94 c 0,0.529 0.43,0.96 0.96,0.96 l 1.095,0 0,-0.876 c 0,-1.252 1.015,-2.267 2.268,-2.267 1.252,0 2.267,1.015 2.267,2.267 l 0,0.876 1.114,0 0,-0.876 c 0,-1.252 1.015,-2.267 2.267,-2.267 1.252,0 2.268,1.015 2.268,2.267 l 0,0.876 1.181,0 0,-0.876 c 0,-1.252 1.015,-2.267 2.268,-2.267 1.252,0 2.268,1.015 2.268,2.267 l 0,0.876 1.026,0 C -0.432,24.9 0,24.469 0,23.94 L 0,0 z m -0.96,29.436 -1.026,0 0,0.875 c 0,1.252 -1.016,2.268 -2.268,2.268 -1.253,0 -2.268,-1.016 -2.268,-2.268 l 0,-0.875 -1.181,0 0,0.875 c 0,1.252 -1.016,2.268 -2.268,2.268 -1.252,0 -2.267,-1.016 -2.267,-2.268 l 0,-0.875 -1.114,0 0,0.875 c 0,1.252 -1.015,2.268 -2.267,2.268 -1.253,0 -2.268,-1.016 -2.268,-2.268 l 0,-0.875 -1.095,0 c -3.03,0 -5.495,-2.466 -5.495,-5.496 l 0,-23.94 c 0,-3.03 2.465,-5.495 5.495,-5.495 l 18.022,0 c 3.03,0 5.495,2.465 5.495,5.495 l 0,23.94 c 0,3.03 -2.465,5.496 -5.495,5.496"
       transform="translate(4.3086,-14.624)"
       id="path22"
       style="fill:#000000;fill-opacity:1;fill-rule:nonzero;stroke:none" /><path
       d="m 0,0 c -0.24,0 -0.49,-0.067 -0.696,-0.186 l -2.743,-1.535 c -0.316,-0.166 -0.557,-0.467 -0.66,-0.825 -0.104,-0.36 -0.06,-0.744 0.112,-1.039 0.353,-0.645 1.284,-0.853 1.86,-0.507 l 0.762,0.421 0,-7.008 c 0,-0.761 0.613,-1.38 1.365,-1.38 0.766,0 1.365,0.606 1.365,1.38 l 0,9.299 C 1.365,-0.619 0.753,0 0,0"
       transform="translate(-10.1397,3.4048)"
       id="path26"
       style="fill:#000000;fill-opacity:1;fill-rule:nonzero;stroke:none" /><path
       d="m 0,0 c 0,-0.901 -1.062,-1.035 -1.694,-1.035 -0.639,0 -1.71,0.13 -1.71,1.005 0,0.222 0,0.9 1.724,0.9 C 0,0.87 0,0.238 0,0 m -3.63,-4.92 c 0,0.98 1.02,1.186 1.875,1.186 0.476,0 2.026,-0.087 2.026,-1.201 0,-1.015 -1.385,-1.125 -1.981,-1.125 -1.274,0 -1.92,0.384 -1.92,1.14 m 5.469,2.648 c 0.582,0.58 0.891,1.361 0.891,2.287 0,1.711 -1.166,3.54 -4.44,3.54 -2.72,0 -4.41,-1.38 -4.41,-3.6 0,-0.876 0.333,-1.664 0.914,-2.245 -0.748,-0.634 -1.169,-1.569 -1.169,-2.675 0,-1.827 1.234,-3.78 4.695,-3.78 3.451,0 4.68,1.96 4.68,3.795 0,1.108 -0.418,2.045 -1.161,2.678"
       id="path30"
       style="fill:#000000;fill-opacity:1;fill-rule:nonzero;stroke:none" /></g></g><text
   transform="matrix(1,0,0,-1,-25.3335,21.1689)"
   id="text32"><tspan
     x="0 8.8199997"
     y="0"
     id="tspan34"
     style="font-size:15px;font-variant:normal;font-weight:normal;font-stretch:normal;writing-mode:lr-tb;fill:#373535;fill-opacity:1;fill-rule:nonzero;stroke:none;font-family:Rubrik;-inkscape-font-specification:Rubrik-Regular">24</tspan></text>


<g
   transform="translate(-24.4487,22.0391)"
   id="g36"><path
     d="m 0,0 c 0,-0.54 0.375,-0.87 0.885,-0.87 l 5.4,0 c 0.345,0 0.63,0.255 0.63,0.615 0,0.33 -0.285,0.569 -0.63,0.569 l -5.04,0 C 1.275,1.125 2.025,1.83 3.435,2.85 5.82,4.56 6.69,5.28 6.69,6.87 6.69,8.46 5.52,9.78 3.3,9.78 1.71,9.78 0.645,8.94 0.09,8.175 -0.015,8.025 -0.045,7.83 0.015,7.635 0.105,7.335 0.465,7.17 0.795,7.275 0.96,7.32 1.065,7.425 1.14,7.53 1.59,8.1 2.31,8.595 3.345,8.595 4.89,8.595 5.46,7.665 5.46,6.87 5.46,5.655 4.74,5.19 2.325,3.48 0.72,2.34 0,1.32 0,0 z"
     id="path38"
     style="fill:none;stroke:#373535;stroke-width:1.5;stroke-linecap:round;stroke-linejoin:round;stroke-miterlimit:10;stroke-opacity:1;stroke-dasharray:none" /></g><g
   transform="translate(-7.9033,23.7344)"
   id="g40"><path
     d="M 0,0 C 0.314,0 0.6,0.27 0.6,0.585 0.6,0.944 0.33,1.199 0,1.199 l -1.11,0 0,5.476 c 0,0.405 -0.076,1.26 -1.005,1.26 -0.571,0 -0.915,-0.435 -1.351,-1.02 L -7.456,1.71 C -7.65,1.454 -7.726,1.215 -7.726,1.005 -7.771,0.404 -7.305,0 -6.69,0 l 4.365,0 0,-1.95 c 0,-0.346 0.255,-0.615 0.599,-0.615 0.33,0 0.616,0.285 0.616,0.615 L -1.11,0 0,0 z m -6.405,1.199 4.08,5.311 0,-5.311 -4.08,0 z"
     id="path42"
     style="fill:none;stroke:#373535;stroke-width:1.5;stroke-linecap:round;stroke-linejoin:round;stroke-miterlimit:10;stroke-opacity:1;stroke-dasharray:none" /></g></g></g></g></svg>