<?xml version="1.0" encoding="UTF-8" standalone="no"?>
<!-- Created with Inkscape (http://www.inkscape.org/) -->

<svg
   xmlns:dc="http://purl.org/dc/elements/1.1/"
   xmlns:cc="http://creativecommons.org/ns#"
   xmlns:rdf="http://www.w3.org/1999/02/22-rdf-syntax-ns#"
   xmlns:svg="http://www.w3.org/2000/svg"
   xmlns="http://www.w3.org/2000/svg"
   version="1.1"
   width="40"
   height="40"
   id="svg2"
   xml:space="preserve"><metadata
     id="metadata8"><rdf:RDF><cc:Work
         rdf:about=""><dc:format>image/svg+xml</dc:format><dc:type
           rdf:resource="http://purl.org/dc/dcmitype/StillImage" /><dc:title></dc:title></cc:Work></rdf:RDF></metadata><defs
     id="defs6"><clipPath
       id="clipPath16"><path
         d="M 0,55 55,55 55,0 0,0 0,55 z"
         id="path18" /></clipPath></defs><g
     transform="matrix(1.25,0,0,-1.25,-15.659875,51.203751)"
     id="g10"><g
       id="g12"><g
         clip-path="url(#clipPath16)"
         id="g14"><g
   transform="translate(37.0049,14.458)"
   id="g20" /><g
   transform="translate(24.9204,23.1035)"
   id="g24" /><g
   transform="translate(30.2979,25.6836)"
   id="g28"><g
     transform="matrix(0.82627119,0,0,0.82627119,0.92694916,-2.6345738)"
     id="g3001"><path
       d="m 0,0 c 0,-0.529 -0.432,-0.96 -0.96,-0.96 l -18.022,0 c -0.53,0 -0.96,0.431 -0.96,0.96 l 0,23.94 c 0,0.529 0.43,0.96 0.96,0.96 l 1.095,0 0,-0.876 c 0,-1.252 1.015,-2.267 2.268,-2.267 1.252,0 2.267,1.015 2.267,2.267 l 0,0.876 1.114,0 0,-0.876 c 0,-1.252 1.015,-2.267 2.267,-2.267 1.252,0 2.268,1.015 2.268,2.267 l 0,0.876 1.181,0 0,-0.876 c 0,-1.252 1.015,-2.267 2.268,-2.267 1.252,0 2.268,1.015 2.268,2.267 l 0,0.876 1.026,0 C -0.432,24.9 0,24.469 0,23.94 L 0,0 z m -0.96,29.436 -1.026,0 0,0.875 c 0,1.252 -1.016,2.268 -2.268,2.268 -1.253,0 -2.268,-1.016 -2.268,-2.268 l 0,-0.875 -1.181,0 0,0.875 c 0,1.252 -1.016,2.268 -2.268,2.268 -1.252,0 -2.267,-1.016 -2.267,-2.268 l 0,-0.875 -1.114,0 0,0.875 c 0,1.252 -1.015,2.268 -2.267,2.268 -1.253,0 -2.268,-1.016 -2.268,-2.268 l 0,-0.875 -1.095,0 c -3.03,0 -5.495,-2.466 -5.495,-5.496 l 0,-23.94 c 0,-3.03 2.465,-5.495 5.495,-5.495 l 18.022,0 c 3.03,0 5.495,2.465 5.495,5.495 l 0,23.94 c 0,3.03 -2.465,5.496 -5.495,5.496"
       transform="translate(6.707,-11.2256)"
       id="path22"
       style="fill:#000000;fill-opacity:1;fill-rule:nonzero;stroke:none" /><path
       d="m 0,0 -3.849,0 c 0.331,0.347 0.829,0.736 1.436,1.176 2.41,1.727 3.568,2.646 3.568,4.629 0,2.155 -1.702,3.66 -4.14,3.66 -2.192,0 -3.4,-1.339 -3.824,-1.925 -0.24,-0.343 -0.305,-0.777 -0.18,-1.185 0.164,-0.545 0.696,-0.927 1.295,-0.927 0.147,0 0.292,0.023 0.402,0.058 0.304,0.083 0.559,0.266 0.736,0.514 0.409,0.518 0.952,0.78 1.616,0.78 1.266,0 1.365,-0.746 1.365,-0.975 0,-0.736 -0.323,-1.013 -2.572,-2.604 L -4.394,3.026 c -1.851,-1.314 -2.641,-2.538 -2.641,-4.09 0,-0.939 0.687,-1.621 1.635,-1.621 l 5.4,0 c 0.774,0 1.38,0.6 1.38,1.366 C 1.38,-0.579 0.774,0 0,0"
       transform="translate(-5.3775,-2.5801)"
       id="path26"
       style="fill:#000000;fill-opacity:1;fill-rule:nonzero;stroke:none" /><path
       d="M 0,0 1.808,2.353 1.808,0 0,0 z m 4.882,0 -0.36,0 0,4.725 c 0,1.482 -0.906,2.01 -1.754,2.01 C 1.8,6.735 1.254,6.002 0.821,5.421 L -3.168,0.215 c -0.278,-0.362 -0.425,-0.764 -0.423,-1.104 -0.035,-0.472 0.116,-0.917 0.426,-1.251 0.335,-0.361 0.817,-0.56 1.357,-0.56 l 3.616,0 0,-1.199 c 0,-0.766 0.592,-1.366 1.349,-1.366 0.74,0 1.365,0.625 1.365,1.366 l 0,1.199 0.36,0 c 0.732,0 1.35,0.611 1.35,1.335 C 6.232,-0.6 5.64,0 4.882,0"
       id="path30"
       style="fill:#000000;fill-opacity:1;fill-rule:nonzero;stroke:none" /></g></g><text
   transform="matrix(1,0,0,-1,-25.3335,21.1689)"
   id="text32"><tspan
     x="0 8.8199997"
     y="0"
     id="tspan34"
     style="font-size:15px;font-variant:normal;font-weight:normal;font-stretch:normal;writing-mode:lr-tb;fill:#373535;fill-opacity:1;fill-rule:nonzero;stroke:none;font-family:Rubrik;-inkscape-font-specification:Rubrik-Regular">24</tspan></text>


<g
   transform="translate(-24.4487,22.0391)"
   id="g36"><path
     d="m 0,0 c 0,-0.54 0.375,-0.87 0.885,-0.87 l 5.4,0 c 0.345,0 0.63,0.255 0.63,0.615 0,0.33 -0.285,0.569 -0.63,0.569 l -5.04,0 C 1.275,1.125 2.025,1.83 3.435,2.85 5.82,4.56 6.69,5.28 6.69,6.87 6.69,8.46 5.52,9.78 3.3,9.78 1.71,9.78 0.645,8.94 0.09,8.175 -0.015,8.025 -0.045,7.83 0.015,7.635 0.105,7.335 0.465,7.17 0.795,7.275 0.96,7.32 1.065,7.425 1.14,7.53 1.59,8.1 2.31,8.595 3.345,8.595 4.89,8.595 5.46,7.665 5.46,6.87 5.46,5.655 4.74,5.19 2.325,3.48 0.72,2.34 0,1.32 0,0 z"
     id="path38"
     style="fill:none;stroke:#373535;stroke-width:1.5;stroke-linecap:round;stroke-linejoin:round;stroke-miterlimit:10;stroke-opacity:1;stroke-dasharray:none" /></g><g
   transform="translate(-7.9033,23.7344)"
   id="g40"><path
     d="M 0,0 C 0.314,0 0.6,0.27 0.6,0.585 0.6,0.944 0.33,1.199 0,1.199 l -1.11,0 0,5.476 c 0,0.405 -0.076,1.26 -1.005,1.26 -0.571,0 -0.915,-0.435 -1.351,-1.02 L -7.456,1.71 C -7.65,1.454 -7.726,1.215 -7.726,1.005 -7.771,0.404 -7.305,0 -6.69,0 l 4.365,0 0,-1.95 c 0,-0.346 0.255,-0.615 0.599,-0.615 0.33,0 0.616,0.285 0.616,0.615 L -1.11,0 0,0 z m -6.405,1.199 4.08,5.311 0,-5.311 -4.08,0 z"
     id="path42"
     style="fill:none;stroke:#373535;stroke-width:1.5;stroke-linecap:round;stroke-linejoin:round;stroke-miterlimit:10;stroke-opacity:1;stroke-dasharray:none" /></g></g></g></g></svg>