<?xml version="1.0" encoding="UTF-8" standalone="no"?>
<!-- Created with Inkscape (http://www.inkscape.org/) -->

<svg
   xmlns:dc="http://purl.org/dc/elements/1.1/"
   xmlns:cc="http://creativecommons.org/ns#"
   xmlns:rdf="http://www.w3.org/1999/02/22-rdf-syntax-ns#"
   xmlns:svg="http://www.w3.org/2000/svg"
   xmlns="http://www.w3.org/2000/svg"
   version="1.1"
   width="40"
   height="40"
   id="svg2"
   xml:space="preserve"><metadata
     id="metadata8"><rdf:RDF><cc:Work
         rdf:about=""><dc:format>image/svg+xml</dc:format><dc:type
           rdf:resource="http://purl.org/dc/dcmitype/StillImage" /><dc:title></dc:title></cc:Work></rdf:RDF></metadata><defs
     id="defs6"><clipPath
       id="clipPath16"><path
         d="M 0,55 55,55 55,0 0,0 0,55 z"
         id="path18" /></clipPath></defs><g
     transform="matrix(1.2144687,0,0,-1.2144687,-11.250402,54.307784)"
     id="g10"><g
       id="g12"><g
         clip-path="url(#clipPath16)"
         id="g14"><g
           transform="translate(40.7344,20.8721)"
           id="g20"><path
             d="m -3.1896588,1.424921 c -0.6955847,0 -1.3911695,0 -2.0867542,0 1.1947952,4.5845384 -1.4431252,9.740077 -5.832004,11.500395 -4.175417,1.854812 -9.479145,0.348357 -12.056531,-3.4244464 -1.648435,-2.2995549 -2.250263,-5.3266536 -1.570856,-8.0759486 -0.695287,0 -1.390573,0 -2.08586,0 0,3.5267993 0,7.0535987 0,10.580398 0.681649,0.346286 1.334552,0.803639 2.033826,1.081823 1.160221,0.04386 2.340643,-0.101009 3.48456,0.100756 1.083082,0.474942 1.684366,1.583091 2.513909,2.383593 0.446673,0.434138 0.819387,1.034371 1.312323,1.364613 1.675245,0 3.350489,0 5.025734,0 1.065941,-1.145174 2.056633,-2.367774 3.1747367,-3.45933 1.033053,-0.655399 2.3093216,-0.297 3.4651711,-0.389632 0.8761689,0.146294 1.5304254,-0.565517 2.2836968,-0.894451 0.6062894,-0.163061 0.2382841,-0.900038 0.3380435,-1.361474 3.4e-6,-3.1354305 -6.8e-6,-6.2708743 5.1e-6,-9.406296 z m -8.5079492,-2.6133602 c -2.740538,-1.9746444 -6.989603,-0.9272459 -8.510073,2.08541314 -1.691027,2.91912306 -0.241892,7.04254696 2.90248,8.26342166 2.976801,1.3538494 6.815056,-0.3224954 7.8538126,-3.4210107 0.9453268,-2.4796757 -0.025273,-5.47491733 -2.2462196,-6.9278241 z M -0.15340458,14.996871 c -1.32065812,0.692434 -2.57983782,1.52006 -3.94440352,2.116146 -1.0131454,0.13172 -2.0446461,0.03643 -3.0659821,0.06538 -1.0668482,1.145151 -2.0585766,2.367648 -3.1775448,3.45919 -1.033218,0.654465 -2.309288,0.296222 -3.465045,0.388878 -1.696724,-0.02679 -3.400691,0.05567 -5.092539,-0.04514 -1.178628,-0.328055 -1.765719,-1.516987 -2.607667,-2.313896 -0.483903,-0.475541 -0.89372,-1.117424 -1.423911,-1.489035 -1.154291,-0.07669 -2.375829,0.202279 -3.464691,-0.257491 -1.291926,-0.766103 -2.683545,-1.385784 -3.903151,-2.258332 -0.951143,-1.030437 -0.512502,-2.498308 -0.61368,-3.763775 0.007,-3.9097838 -0.01407,-7.8202775 0.01057,-11.72961661 0.08931,-1.29636649 1.433051,-2.01845269 2.62211,-1.83730279 1.8565,0 3.713,0 5.5695,0 2.886649,-3.6268086 8.405988,-4.7038018 12.445424,-2.429741 1.2738961,0.5072899 2.1438272,1.8225754 3.2136396,2.429741 2.1048872,0.025991 4.2164338,-0.053099 6.31698482,0.041585 1.20207968,0.2054774 1.78599468,1.4751894 1.63181173,2.59198777 -0.0122103,4.50600273 0.0245099,9.01364913 -0.0185187,13.51861663 -0.0812483,0.630021 -0.47551035,1.207893 -1.032905,1.512803 z"
             id="path22"
             style="fill:#000000;fill-opacity:1;fill-rule:nonzero;stroke:none" /></g></g></g></g></svg>