<?xml version="1.0" encoding="UTF-8" standalone="no"?>
<!-- Created with Inkscape (http://www.inkscape.org/) -->

<svg
   xmlns:dc="http://purl.org/dc/elements/1.1/"
   xmlns:cc="http://creativecommons.org/ns#"
   xmlns:rdf="http://www.w3.org/1999/02/22-rdf-syntax-ns#"
   xmlns:svg="http://www.w3.org/2000/svg"
   xmlns="http://www.w3.org/2000/svg"
   version="1.1"
   width="40"
   height="40"
   id="svg3039">
  <metadata
     id="metadata3045">
    <rdf:RDF>
      <cc:Work
         rdf:about="">
        <dc:format>image/svg+xml</dc:format>
        <dc:type
           rdf:resource="http://purl.org/dc/dcmitype/StillImage" />
        <dc:title></dc:title>
      </cc:Work>
    </rdf:RDF>
  </metadata>
  <defs
     id="defs3043" />
  <g
     transform="matrix(0.9635173,0,0,0.9635173,-3.2674684,-7.7518834)"
     id="g3026">
    <g
       id="g2994">
      <g
         id="g2998">
        <g
           transform="matrix(0.08636157,0,0,0.08636157,3.1801734,36.545538)"
           id="g3022">
          <path
             d="m 10.40625,9.21875 0,4.3125 21.375,0 0,4.59375 -2.9375,0 c -0.366379,-7.49e-4 -0.733614,0.224499 -0.875,0.5625 -0.141386,0.338 -0.07028,0.770898 0.1875,1.03125 l 2.5625,2.5625 2.53125,2.5625 c 0.173195,0.175228 0.409873,0.28125 0.65625,0.28125 0.246377,0 0.483055,-0.106022 0.65625,-0.28125 l 2.53125,-2.5625 2.5625,-2.5625 c 0.257781,-0.260352 0.328886,-0.69325 0.1875,-1.03125 -0.141386,-0.338001 -0.508621,-0.563236 -0.875,-0.5625 l -2.875,0 0,-6.75 A 2.1636989,2.1636989 0 0 0 33.9375,9.21875 l -23.53125,0 z m -4.3125,5.625 C 5.8494368,14.845677 5.6090412,14.951029 5.4375,15.125 L 2.875,17.6875 0.34375,20.25 c -0.25748989,0.260039 -0.3282508,0.693448 -0.1875,1.03125 0.1407508,0.337801 0.50904783,0.562228 0.875,0.5625 l 2.875,0 0,6.78125 a 2.1636989,2.1636989 0 0 0 2.1875,2.15625 l 23.53125,0 0,-4.3125 -21.375,0 0,-4.625 2.90625,0 c 0.366386,7.49e-4 0.733613,-0.224493 0.875,-0.5625 0.141388,-0.338007 0.0703,-0.770904 -0.1875,-1.03125 L 9.28125,17.6875 6.75,15.125 C 6.5748094,14.947322 6.3432627,14.84153 6.09375,14.84375 z"
             transform="matrix(12.017661,0,0,12.017661,2.4433865,-330.00948)"
             id="path3821"
             style="font-size:medium;font-style:normal;font-variant:normal;font-weight:normal;font-stretch:normal;text-indent:0;text-align:start;text-decoration:none;line-height:normal;letter-spacing:normal;word-spacing:normal;text-transform:none;direction:ltr;block-progression:tb;writing-mode:lr-tb;text-anchor:start;baseline-shift:baseline;color:#000000;fill:#000000;fill-opacity:1;fill-rule:nonzero;stroke:none;stroke-width:22.45035744;marker:none;visibility:visible;display:inline;overflow:visible;enable-background:accumulate;font-family:Sans;-inkscape-font-specification:Sans" />
        </g>
      </g>
    </g>
    <g
       id="g3010">
      <g
         id="g3014">
        <g
           id="g3018" />
      </g>
    </g>
  </g>
</svg>
