<?xml version="1.0" encoding="UTF-8" standalone="no"?>
<!-- Created with Inkscape (http://www.inkscape.org/) -->

<svg
   xmlns:dc="http://purl.org/dc/elements/1.1/"
   xmlns:cc="http://creativecommons.org/ns#"
   xmlns:rdf="http://www.w3.org/1999/02/22-rdf-syntax-ns#"
   xmlns:svg="http://www.w3.org/2000/svg"
   xmlns="http://www.w3.org/2000/svg"
   version="1.1"
   width="40"
   height="40"
   id="svg2"
   xml:space="preserve"><metadata
     id="metadata8"><rdf:RDF><cc:Work
         rdf:about=""><dc:format>image/svg+xml</dc:format><dc:type
           rdf:resource="http://purl.org/dc/dcmitype/StillImage" /><dc:title></dc:title></cc:Work></rdf:RDF></metadata><defs
     id="defs6"><clipPath
       id="clipPath16"><path
         d="M 0,55 55,55 55,0 0,0 0,55 z"
         id="path18" /></clipPath></defs><g
     transform="matrix(1.25,0,0,-1.25,-7.632375,55.63225)"
     id="g10"><g
       id="g12"><g
         clip-path="url(#clipPath16)"
         id="g14"><g
           transform="translate(45.2539,24.8018)"
           id="g20"><path
             d="m -10.248325,2.3415026 c -0.962997,-1.80380602 -3.099813,-2.47141694 -5.00207,-2.65809498 -0.915664,-0.57751726 -1.713282,-1.33562472 -2.579222,-1.98909262 -0.206111,0.8581289 -0.156264,1.80736206 -0.587113,2.58826995 -0.553033,0.55909327 -1.793372,0.6851458 -0.752353,1.51128645 0.937747,1.5472844 1.18414,3.4614422 0.878111,5.2284516 2.600082,1.1528215 6.200632,0.7070637 7.902642,-1.7456186 0.5690266,-0.8642263 0.639474,-2.0232133 0.140005,-2.9352018 z m -13.36103,-1.0367703 c -0.953358,-0.44621821 -0.759991,-1.63677667 -0.991772,-2.4940131 -0.107368,-0.6407103 -0.214736,-1.2814207 -0.322104,-1.9221311 -1.266223,0.9996599 -2.509443,2.030558 -3.790314,3.01032604 -1.115686,0.32279512 -2.344273,0.29073728 -3.428327,0.79238352 -2.317583,0.84205984 -4.557075,3.00605614 -4.207447,5.65925864 0.452154,2.8896399 3.339216,4.6160947 6.015379,5.0662077 3.236823,0.559671 7.067045,-0.369705 8.969551,-3.229354 1.030937,-1.6582143 0.987314,-4.061784 -0.294441,-5.5790378 -0.532886,-0.5846812 -1.232763,-0.9886171 -1.950525,-1.3036399 z m 15.5025667,4.996677 c -1.8509101,3.2477998 -6.0950727,4.3847237 -9.5725167,3.5462475 -0.960017,-0.3429794 -1.739002,-0.7188807 -2.169627,0.4737062 -3.151604,3.755989 -8.836599,4.609592 -13.274245,2.883923 -3.127922,-1.159939 -5.885725,-4.1081253 -5.745114,-7.6075065 0.08761,-3.528121 3.021404,-6.32471403 6.216361,-7.3678659 0.981071,-0.4957013 2.228805,-0.297225 3.13141,-0.8511093 1.628252,-1.2863295 3.228371,-2.6111265 4.87452,-3.8729832 0.936709,-0.5480074 1.945854,0.362269 1.901671,1.330033 0.250272,1.4938711 0.500543,2.9877422 0.750815,4.48161326 0.703517,0.21703485 1.711792,-0.62901086 1.625505,-1.52950086 0.215742,-1.0099746 0.245021,-2.0770005 0.604909,-3.0434263 0.533169,-0.9014538 1.711485,-0.6067986 2.301709,0.061297 1.04856,0.8380423 2.09712,1.6760846 3.14568,2.5141269 2.97481,0.2835047 6.089041,2.17720079 6.7729967,5.2493636 0.2753266,1.2592282 0.064308,2.6083864 -0.564074,3.7320793 z"
             id="path22"
             style="fill:#000000;fill-opacity:1;fill-rule:nonzero;stroke:none" /></g></g></g></g></svg>