<?xml version="1.0" encoding="UTF-8" standalone="no"?>
<!-- Created with Inkscape (http://www.inkscape.org/) -->

<svg
   xmlns:dc="http://purl.org/dc/elements/1.1/"
   xmlns:cc="http://creativecommons.org/ns#"
   xmlns:rdf="http://www.w3.org/1999/02/22-rdf-syntax-ns#"
   xmlns:svg="http://www.w3.org/2000/svg"
   xmlns="http://www.w3.org/2000/svg"
   version="1.1"
   width="40"
   height="40"
   id="svg2"
   xml:space="preserve"><metadata
     id="metadata8"><rdf:RDF><cc:Work
         rdf:about=""><dc:format>image/svg+xml</dc:format><dc:type
           rdf:resource="http://purl.org/dc/dcmitype/StillImage" /><dc:title></dc:title></cc:Work></rdf:RDF></metadata><defs
     id="defs6"><clipPath
       id="clipPath16"><path
         d="M 0,55 55,55 55,0 0,0 0,55 z"
         id="path18" /></clipPath></defs><g
     transform="matrix(1.25,0,0,-1.25,-9.411757,50.66125)"
     id="g10"><g
       id="g12"><g
         clip-path="url(#clipPath16)"
         id="g14"><g
           transform="translate(22.3555,31.582)"
           id="g20" /><g
           transform="translate(32.2402,34.0547)"
           id="g24" /><g
           transform="translate(26.9009,25.5908)"
           id="g28"><g
             transform="matrix(0.7838983,0,0,0.7838983,-3.8403145,-3.3399381)"
             id="g2995"><path
               d="M 12.03125,0.4375 C 11.727489,0.43541777 11.412103,0.47665519 11.125,0.59375 10.551774,0.82695974 10.083819,1.3037341 9.84375,1.875 l -1.625,3.90625 C 7.8414989,6.6778337 8.0425318,7.7057468 8.75,8.375 8.9420551,8.5572564 9.0805614,8.8806939 8.9375,9.21875 8.7895392,9.5715042 8.4490201,9.6972987 8.21875,9.6875 7.2447564,9.6463453 6.3469809,10.224497 5.96875,11.125 L 4.3125,15.03125 c -0.4977754,1.186626 0.064354,2.531515 1.25,3.03125 l 2.625,1.125 -6.40625,2.96875 c -0.5614672,0.260646 -1.00611759,0.730456 -1.21875,1.3125 -0.21263241,0.581065 -0.16787606,1.252013 0.09375,1.8125 L 2.4375,29.125 c 0.4095869,0.881886 1.341446,1.41822 2.3125,1.34375 0.2557468,-0.02156 0.5932203,0.09846 0.75,0.4375 C 5.6518803,31.230588 5.526006,31.566764 5.34375,31.75 4.6558792,32.44277 4.4634534,33.489195 4.875,34.375 l 1.78125,3.84375 C 6.9168962,38.779237 7.4189354,39.224868 8,39.4375 c 0.2586864,0.09407 0.5108051,0.125 0.78125,0.125 0.3360964,0 0.6884004,-0.07275 1,-0.21875 L 32.6875,28.6875 c 0.01862,-0.0088 0.01263,-0.02341 0.03125,-0.03125 0.525212,-0.259666 0.915307,-0.682865 1.125,-1.1875 L 35.5,23.5625 c 0.378231,-0.896584 0.143988,-1.925477 -0.5625,-2.59375 -0.193035,-0.183236 -0.327622,-0.511573 -0.1875,-0.84375 0.15286,-0.361573 0.500132,-0.482468 0.75,-0.46875 0.971054,0.04311 1.871769,-0.538957 2.25,-1.4375 L 39.375,14.3125 C 39.874735,13.125874 39.31163,11.749735 38.125,11.25 L 12.90625,0.625 C 12.621107,0.50447564 12.335011,0.43958223 12.03125,0.4375 z m 1.21875,5.375 20.9375,8.84375 -0.25,0.5625 c -1.5384,0.451721 -2.825953,1.568088 -3.46875,3.09375 -0.643776,1.522722 -0.538692,3.236414 0.21875,4.65625 L 30.46875,23.5 l -15.5,-6.53125 c -0.05487,-0.02548 -0.131647,-0.04094 -0.1875,-0.0625 L 9.53125,14.6875 9.75,14.125 c 1.54232,-0.448782 2.861123,-1.570048 3.5,-3.09375 C 13.894756,9.5065678 13.788692,7.7948358 13.03125,6.375 L 13.25,5.8125 z m 9.40625,6 c -0.0986,0.01543 -0.17161,0.05641 -0.25,0.125 l -1.125,0.96875 -1.4375,-0.375 c -0.198914,-0.05781 -0.397987,0.02386 -0.53125,0.1875 -0.139142,0.15482 -0.166261,0.372405 -0.09375,0.5625 L 19.78125,14.625 19,15.875 c -0.118565,0.176377 -0.133157,0.412474 -0.03125,0.59375 0.112685,0.181276 0.323517,0.264698 0.53125,0.25 l 1.46875,-0.125 0.9375,1.125 c 0.05977,0.07349 0.137421,0.119015 0.21875,0.15625 0.103867,0.04899 0.195895,0.06065 0.3125,0.03125 0.200874,-0.04997 0.361176,-0.202436 0.40625,-0.40625 l 0.34375,-1.4375 1.375,-0.53125 c 0.194015,-0.07055 0.328072,-0.261997 0.34375,-0.46875 0.0196,-0.207733 -0.0697,-0.395154 -0.25,-0.5 L 23.375,13.78125 23.3125,12.34375 c -0.01274,-0.212632 -0.151695,-0.416711 -0.34375,-0.5 -0.09652,-0.04017 -0.2139,-0.04668 -0.3125,-0.03125 z M 14,21.65625 16.15625,22.5625 c -0.02591,0.05977 -0.05891,0.121195 -0.0625,0.1875 l -0.0625,1.40625 -1.1875,0.78125 c -0.172458,0.106806 -0.275477,0.296186 -0.25,0.5 0.01764,0.199894 0.156594,0.368909 0.34375,0.4375 l 1.34375,0.46875 0.375,1.375 c 0.05193,0.196954 0.213215,0.364115 0.40625,0.40625 0.202834,0.04213 0.404846,-0.06197 0.53125,-0.21875 L 18.4375,26.8125 19.875,26.875 c 0.09113,0.01078 0.17161,1.06e-4 0.25,-0.03125 0.105826,-0.04311 0.192188,-0.123702 0.25,-0.21875 0.09211,-0.178337 0.08242,-0.393962 -0.03125,-0.5625 l -0.8125,-1.1875 0.3125,-0.75 6.09375,2.5625 -16.03125,7.4375 -0.25,-0.53125 C 10.360779,32.146478 10.421319,30.431806 9.71875,28.9375 9.0240201,27.433395 7.6829979,26.363639 6.125,25.96875 l -0.25,-0.5625 8.125,-3.75 z"
               transform="matrix(1.0205405,0,0,-1.0205405,-19.812749,23.316976)"
               id="path22"
               style="fill:#000000;fill-opacity:1;fill-rule:nonzero;stroke:none" /></g></g></g></g></g></svg>