<?xml version="1.0" encoding="UTF-8" standalone="no"?>
<!-- Created with Inkscape (http://www.inkscape.org/) -->

<svg
   xmlns:dc="http://purl.org/dc/elements/1.1/"
   xmlns:cc="http://creativecommons.org/ns#"
   xmlns:rdf="http://www.w3.org/1999/02/22-rdf-syntax-ns#"
   xmlns:svg="http://www.w3.org/2000/svg"
   xmlns="http://www.w3.org/2000/svg"
   version="1.1"
   width="40"
   height="40"
   id="svg2"
   xml:space="preserve"><metadata
     id="metadata8"><rdf:RDF><cc:Work
         rdf:about=""><dc:format>image/svg+xml</dc:format><dc:type
           rdf:resource="http://purl.org/dc/dcmitype/StillImage" /><dc:title></dc:title></cc:Work></rdf:RDF></metadata><defs
     id="defs6"><clipPath
       id="clipPath16"><path
         d="M 0,55 55,55 55,0 0,0 0,55 z"
         id="path18" /></clipPath></defs><g
     transform="matrix(1.25,0,0,-1.25,-17.203627,52.446377)"
     id="g10"><g
       id="g12"><g
         clip-path="url(#clipPath16)"
         id="g14"><g
           transform="translate(37.5742,25.9961)"
           id="g20" /><g
           transform="translate(28.2988,18.2051)"
           id="g24"><g
             transform="matrix(0.89830509,0,0,0.89830509,1.5826673,-0.59774421)"
             id="g2992"><path
               d="M 20.15625,0.3125 C 13.953453,0.3125 9.0503602,1.4807203 8.84375,1.53125 7.7051483,1.8097246 6.90625,2.826589 6.90625,4 l 0,8.3125 c 0,1.40697 1.1242797,2.53125 2.53125,2.53125 1.404725,0 2.53125,-1.12428 2.53125,-2.53125 l 0,-6.21875 c 1.838157,-0.3144068 4.83233,-0.6875 8.1875,-0.6875 3.360784,0 6.318093,0.3742161 8.15625,0.6875 l 0,7.4375 -0.8125,0 c -1.029682,0 -1.949619,0.611419 -2.34375,1.5625 -0.395254,0.948835 -0.194131,2.051377 0.53125,2.78125 l 3.0625,3.0625 c 0.477225,0.47947 1.13428,0.75 1.8125,0.75 0.677097,0 1.335275,-0.27053 1.8125,-0.75 l 3.0625,-3.0625 c 0.724258,-0.729873 0.926504,-1.832415 0.53125,-2.78125 -0.394131,-0.951081 -1.315191,-1.5625 -2.34375,-1.5625 l -0.21875,0 0,-9.53125 c 0,-1.173411 -0.798898,-2.1902754 -1.9375,-2.46875 C 31.26214,1.4807203 26.365784,0.3125 20.15625,0.3125 z M 9.4375,18.34375 c -0.6782203,0 -1.3341525,0.269407 -1.8125,0.75 l -3.0625,3.0625 C 3.8371186,22.885 3.6371186,23.987542 4.03125,24.9375 4.4265042,25.887458 5.3464407,26.5 6.375,26.5 l 0.53125,0 0,8.96875 c 0,1.073475 0.6467797,2.041314 1.65625,2.40625 0.2054873,0.07411 5.136653,1.8125 11.3125,1.8125 6.132055,0 11.553305,-1.708263 11.78125,-1.78125 1.05214,-0.33911 1.75,-1.331462 1.75,-2.4375 l 0,-7.8125 c 0,-1.405847 -1.126525,-2.53125 -2.53125,-2.53125 -1.40697,0 -2.5625,1.125403 -2.5625,2.53125 l 0,5.875 c -1.892055,0.45589 -5.069979,1.0625 -8.4375,1.0625 -3.266462,0 -6.178136,-0.586589 -7.90625,-1.03125 l 0,-7.0625 0.53125,0 c 1.028559,0 1.948496,-0.612542 2.34375,-1.5625 0.395254,-0.948835 0.194131,-2.053623 -0.53125,-2.78125 L 11.25,19.09375 c -0.477225,-0.480593 -1.135403,-0.75 -1.8125,-0.75 z m 10.71875,6.5625 c -1.520381,0 -2.78125,1.305593 -2.78125,2.8125 0,1.50803 1.260869,2.71875 2.78125,2.71875 1.52375,0 2.75,-1.21072 2.75,-2.71875 l 0,-0.15625 c 0,-1.502415 -1.22625,-2.65625 -2.75,-2.65625 z"
               transform="matrix(0.89056603,0,0,-0.89056603,-17.943309,27.106321)"
               id="path22"
               style="fill:#000000;fill-opacity:1;fill-rule:nonzero;stroke:none" /></g></g></g></g></g></svg>