<?xml version="1.0" encoding="UTF-8" standalone="no"?>
<!-- Created with Inkscape (http://www.inkscape.org/) -->

<svg
   xmlns:dc="http://purl.org/dc/elements/1.1/"
   xmlns:cc="http://creativecommons.org/ns#"
   xmlns:rdf="http://www.w3.org/1999/02/22-rdf-syntax-ns#"
   xmlns:svg="http://www.w3.org/2000/svg"
   xmlns="http://www.w3.org/2000/svg"
   version="1.1"
   width="40"
   height="40"
   id="svg3052">
  <metadata
     id="metadata3058">
    <rdf:RDF>
      <cc:Work
         rdf:about="">
        <dc:format>image/svg+xml</dc:format>
        <dc:type
           rdf:resource="http://purl.org/dc/dcmitype/StillImage" />
        <dc:title></dc:title>
      </cc:Work>
    </rdf:RDF>
  </metadata>
  <defs
     id="defs3056" />
  <g
     transform="matrix(0.09785292,0,0,0.09666817,7.7577371,0.47463)"
     id="g2988">
    <path
       d="M 9.5625,0.46875 C 8.5107497,0.51724306 7.5984684,1.5067236 7.6475557,2.5457399 7.6966431,3.5847562 8.6982497,4.4859931 9.75,4.4375 l 0.03125,0 0,9.125 c -0.00332,0.449479 0.1538504,0.898544 0.4375,1.25 l 4.1875,5.1875 -4.1875,5.125 c -0.2836496,0.351456 -0.4408227,0.800521 -0.4375,1.25 l 0,9.15625 -0.03125,0 c -1.0517503,0 -2.0086943,0.945359 -2.0086943,1.984375 C 7.7413057,38.554641 8.6982497,39.5 9.75,39.5 l 20.5,0 c 1.05175,0.0081 2.016138,-0.929923 2.024319,-1.968939 0.0082,-1.039016 -0.941319,-1.991729 -1.993069,-1.999811 l 0,-9.15625 c -0.0054,-0.453141 -0.174014,-0.902744 -0.46875,-1.25 L 25.625,20 29.84375,14.8125 c 0.28365,-0.351456 0.440823,-0.800521 0.4375,-1.25 l 0,-9.125 C 31.333,4.4294178 32.2825,3.4767055 32.274319,2.4376892 32.266138,1.3986729 31.30175,0.46066782 30.25,0.46875 l -20.5,0 c -0.062454,-0.002893 -0.1250458,-0.002893 -0.1875,0 z m 4.21875,3.96875 12.46875,0 0,8.4375 -4.78125,5.90625 c -0.566998,0.70675 -0.553241,1.807298 0.03125,2.5 l 4.75,5.78125 0,8.46875 -12.46875,0 0,-8.46875 4.78125,-5.78125 c 0.575693,-0.699751 0.575693,-1.800249 0,-2.5 L 13.78125,12.875 z m 2.34375,6.09375 c -1.073554,0.09956 -1.70607,1.575426 -1.03125,2.40625 l 3.65625,4.625 c 0.551173,0.698193 1.773703,0.714493 2.34375,0.03125 l 3.84375,-4.625 c 0.730977,-0.861206 -0.01859,-2.441366 -1.15625,-2.4375 l -7.5,0 c -0.05204,-0.0027 -0.104214,-0.0027 -0.15625,0 z M 20,24.5625 c -0.396587,0.0332 -0.776681,0.229005 -1.03125,0.53125 l -3.875,4.625 C 14.868888,29.988379 14.744762,30.338188 14.75,30.6875 l 0.03125,2.5 c -0.0059,0.780939 0.709477,1.49635 1.5,1.5 l 7.53125,0 c 0.790523,-0.0037 1.505935,-0.719061 1.5,-1.5 L 25.28125,30.65625 C 25.280926,30.331349 25.169264,30.007531 24.96875,29.75 L 21.3125,25.125 c -0.28266,-0.351361 -0.733198,-0.564774 -1.1875,-0.5625 -0.04164,-0.0017 -0.08336,-0.0017 -0.125,0 z"
       transform="matrix(10.219419,0,0,10.344667,-79.279567,-4.9098892)"
       id="path3110"
       style="font-size:medium;font-style:normal;font-variant:normal;font-weight:normal;font-stretch:normal;text-indent:0;text-align:start;text-decoration:none;line-height:normal;letter-spacing:normal;word-spacing:normal;text-transform:none;direction:ltr;block-progression:tb;writing-mode:lr-tb;text-anchor:start;baseline-shift:baseline;color:#000000;fill:#000000;fill-opacity:1;stroke:none;stroke-width:41;marker:none;visibility:visible;display:inline;overflow:visible;enable-background:accumulate;font-family:Sans;-inkscape-font-specification:Sans" />
  </g>
</svg>
