<?xml version="1.0" encoding="UTF-8" standalone="no"?>
<!-- Created with Inkscape (http://www.inkscape.org/) -->

<svg
   xmlns:dc="http://purl.org/dc/elements/1.1/"
   xmlns:cc="http://creativecommons.org/ns#"
   xmlns:rdf="http://www.w3.org/1999/02/22-rdf-syntax-ns#"
   xmlns:svg="http://www.w3.org/2000/svg"
   xmlns="http://www.w3.org/2000/svg"
   version="1.1"
   width="40"
   height="40"
   id="svg2"
   xml:space="preserve"><metadata
     id="metadata8"><rdf:RDF><cc:Work
         rdf:about=""><dc:format>image/svg+xml</dc:format><dc:type
           rdf:resource="http://purl.org/dc/dcmitype/StillImage" /><dc:title></dc:title></cc:Work></rdf:RDF></metadata><defs
     id="defs6"><clipPath
       id="clipPath16"><path
         d="M 0,55 55,55 55,0 0,0 0,55 z"
         id="path18" /></clipPath></defs><path
     d="M 11.9375,2.5 C 11.22065,2.5 10.507858,2.6567029 9.84375,2.9375 9.2009375,3.2078972 8.6192426,3.5995074 8.125,4.09375 7.6287765,4.5870021 7.2411282,5.1677066 6.96875,5.8125 6.6874576,6.4790837 6.5625,7.1792479 6.5625,7.90625 c 0,0.7260116 0.1239672,1.4251854 0.40625,2.09375 0.048533,0.116875 0.1260911,0.279571 0.1875,0.46875 0.189179,0.57447 0.3440519,1.079942 0.53125,1.4375 -0.4793856,0.274359 -0.9143326,0.613819 -1.3125,1.0625 -0.5140519,0.579423 -0.4524417,1.483967 0.125,2 0.5823941,0.512071 1.4556886,0.450461 1.96875,-0.125 0.4665095,-0.524947 0.9756992,-0.78125 1.59375,-0.78125 0.536833,0 1.01625,-0.298893 1.25,-0.78125 0.23474,-0.485328 0.175556,-1.047802 -0.15625,-1.46875 L 10.1875,10.59375 c -0.102018,-0.157484 -0.287839,-0.7335646 -0.375,-1 C 9.722368,9.31741 9.634804,9.0756197 9.5625,8.90625 9.4277966,8.585339 9.375,8.256875 9.375,7.90625 c 0,-0.3496345 0.052797,-0.6810699 0.1875,-1 0.1307415,-0.3100159 0.3237977,-0.6060381 0.5625,-0.84375 0.238702,-0.2387023 0.502484,-0.4005085 0.8125,-0.53125 0.635879,-0.2703972 1.390418,-0.2723782 2.03125,0 0.307044,0.1287606 0.571817,0.2905667 0.8125,0.53125 0.236721,0.2357309 0.432749,0.5367055 0.5625,0.84375 0.134703,0.320911 0.1875,0.6503655 0.1875,1 0,0.350625 -0.05478,0.6840413 -0.1875,1 -0.0723,0.1723411 -0.158877,0.4394386 -0.25,0.71875 -0.08815,0.2654449 -0.258671,0.795964 -0.40625,1 L 12.75,11.8125 c -0.332797,0.420948 -0.39099,0.983422 -0.15625,1.46875 0.23474,0.482357 0.713167,0.78125 1.25,0.78125 0.61607,0 1.12625,0.255313 1.59375,0.78125 0.448681,0.505138 0.846234,1.265922 1.15625,2.21875 0.193141,0.590318 0.753432,0.96875 1.34375,0.96875 0.142627,0 0.293882,-0.01694 0.4375,-0.0625 0.735916,-0.239693 1.114693,-1.045334 0.875,-1.78125 -0.434815,-1.336139 -1.006605,-2.419444 -1.71875,-3.21875 -0.401139,-0.452643 -0.861393,-0.81741 -1.34375,-1.09375 0.205026,-0.38232 0.381245,-0.82232 0.5625,-1.375 0.06339,-0.190169 0.135005,-0.376192 0.1875,-0.5 0.279311,-0.6665837 0.40625,-1.3697193 0.40625,-2.09375 0,-0.7250212 -0.156208,-1.4241949 -0.4375,-2.09375 C 16.632881,5.1667161 16.242262,4.5850212 15.75,4.09375 15.252786,3.596536 14.702341,3.2069068 14.0625,2.9375 13.397402,2.6567029 12.65435,2.5 11.9375,2.5 z m 15.25,0 C 26.470403,2.4997524 25.758353,2.6562076 25.09375,2.9375 24.453909,3.2059163 23.873204,3.596536 23.375,4.09375 22.879767,4.588983 22.486176,5.1726589 22.21875,5.8125 c -0.283273,0.6665837 -0.4375,1.364767 -0.4375,2.09375 0,0.7279926 0.155217,1.4301377 0.4375,2.09375 0.05051,0.117865 0.09583,0.280561 0.15625,0.46875 0.189179,0.576451 0.373321,1.078951 0.5625,1.4375 -0.480376,0.274359 -0.946573,0.6158 -1.34375,1.0625 -0.712145,0.802278 -1.281954,1.883602 -1.71875,3.21875 -0.239693,0.735916 0.170334,1.541557 0.90625,1.78125 0.144608,0.04556 0.293882,0.0625 0.4375,0.0625 0.590318,0 1.122331,-0.378432 1.3125,-0.96875 0.316949,-0.967685 0.731886,-1.706679 1.1875,-2.21875 0.465519,-0.524947 0.94544,-0.78125 1.5625,-0.78125 0.535842,0 1.04849,-0.298893 1.28125,-0.78125 0.23375,-0.484338 0.144306,-1.046811 -0.1875,-1.46875 l -0.96875,-1.21875 c -0.101028,-0.155503 -0.255599,-0.7325742 -0.34375,-1 -0.08914,-0.2743591 -0.175715,-0.5151589 -0.25,-0.6875 -0.134703,-0.3189301 -0.21875,-0.649375 -0.21875,-1 0,-0.3496345 0.08207,-0.6780985 0.21875,-1 0.129751,-0.308035 0.295519,-0.6090095 0.53125,-0.84375 0.241674,-0.2416737 0.533734,-0.4014989 0.84375,-0.53125 0.63786,-0.2713877 1.358178,-0.2703972 2,0 0.307044,0.1287606 0.600095,0.2875953 0.84375,0.53125 0.23375,0.2307786 0.430768,0.535715 0.5625,0.84375 0.133713,0.320911 0.1875,0.6503655 0.1875,1 0,0.350625 -0.05676,0.6889936 -0.1875,1 -0.07627,0.174322 -0.187156,0.4354767 -0.28125,0.71875 -0.0931,0.2832733 -0.258671,0.795964 -0.40625,1 L 28,11.8125 c -0.332797,0.421939 -0.39,0.984412 -0.15625,1.46875 0.23375,0.482357 0.713167,0.78125 1.25,0.78125 0.615079,0 1.128231,0.256303 1.59375,0.78125 0.519004,0.577442 1.391308,0.633109 1.96875,0.125 0.579423,-0.516033 0.639052,-1.420577 0.125,-2 C 32.381102,12.516107 31.918867,12.15134 31.4375,11.875 31.640546,11.494661 31.818745,11.048718 32,10.5 c 0.0624,-0.19116 0.101774,-0.37223 0.15625,-0.5 0.279311,-0.6675741 0.4375,-1.3697193 0.4375,-2.09375 0,-0.7250212 -0.154227,-1.4192426 -0.4375,-2.09375 C 31.877929,5.1647352 31.483347,4.5731356 31,4.09375 30.505757,3.5945551 29.921091,3.2059163 29.28125,2.9375 28.615657,2.6571981 27.904597,2.5002476 27.1875,2.5 z M 8.5,15.875 c -0.7180879,0 -1.4336044,0.156703 -2.09375,0.4375 C 5.7693803,16.578935 5.1946186,16.966584 4.6875,17.46875 4.1932574,17.966954 3.7996663,18.552611 3.53125,19.1875 3.2489672,19.851112 3.125,20.550286 3.125,21.28125 c 0,0.727993 0.1249576,1.432119 0.40625,2.09375 0.1772934,0.421939 0.407643,0.828406 0.65625,1.15625 -0.4615572,0.271388 -0.8666896,0.601388 -1.25,1.03125 -0.714126,0.801287 -1.3151854,1.91188 -1.75,3.25 -0.29317796,0.900334 -0.50867055,1.869778 -0.65625,2.9375 -0.11291313,0.822087 -0.125,1.375 -0.125,1.375 -0.0168379,0.381329 0.11054555,0.753919 0.375,1.03125 0.2644544,0.27535 0.6176801,0.4375 1,0.4375 l 8.3125,0 c 0.774544,0 1.40625,-0.631706 1.40625,-1.40625 0,-0.773554 -0.631706,-1.40625 -1.40625,-1.40625 l -6.75,0 c 0.1228178,-0.763649 0.2939831,-1.491102 0.5,-2.125 0.3149682,-0.965704 0.7308951,-1.705689 1.1875,-2.21875 0.4645286,-0.523957 0.9444492,-0.75 1.5625,-0.75 0.5368326,0 1.0465095,-0.328162 1.28125,-0.8125 0.2357309,-0.483347 0.1755561,-1.047802 -0.15625,-1.46875 L 6.6875,23.125 C 6.4478072,22.883326 6.2557415,22.593247 6.125,22.28125 c -0.1347034,-0.314968 -0.21875,-0.649375 -0.21875,-1 0,-0.347654 0.086028,-0.683051 0.21875,-1 C 6.2547511,19.976186 6.4234905,19.673231 6.65625,19.4375 6.8989142,19.195826 7.1899841,19.035011 7.5,18.90625 c 0.6338983,-0.271388 1.3884375,-0.274359 2.03125,0 0.3050636,0.12678 0.57875,0.299481 0.8125,0.53125 0.243655,0.245636 0.432749,0.534725 0.5625,0.84375 0.132722,0.311997 0.1875,0.652346 0.1875,1 0,0.350625 -0.05181,0.68206 -0.1875,1 -0.128761,0.305064 -0.339846,0.57598 -0.6875,0.9375 l -0.90625,1.1875 c -0.3327966,0.419958 -0.3909905,0.987383 -0.15625,1.46875 0.23375,0.486319 0.7131674,0.8125 1.25,0.8125 0.61706,0 1.130212,0.226043 1.59375,0.75 0.515042,0.578432 1.390318,0.640042 1.96875,0.125 0.580413,-0.514052 0.640042,-1.390318 0.125,-1.96875 -0.38331,-0.434815 -0.819693,-0.791112 -1.28125,-1.0625 0.267426,-0.355577 0.484899,-0.749168 0.65625,-1.15625 0.282283,-0.664603 0.4375,-1.365757 0.4375,-2.09375 0,-0.730964 -0.156208,-1.4341 -0.4375,-2.09375 C 13.200334,18.552611 12.816647,17.97884 12.3125,17.46875 11.814296,16.974507 11.257908,16.578935 10.625,16.3125 9.9589116,16.029722 9.2180879,15.875 8.5,15.875 z m 23,0 c -0.71784,0 -1.430633,0.157693 -2.09375,0.4375 -0.640832,0.271388 -1.214603,0.654084 -1.71875,1.15625 -0.493252,0.498204 -0.888824,1.083861 -1.15625,1.71875 -0.282283,0.666584 -0.4375,1.366748 -0.4375,2.09375 0,0.727002 0.155217,1.428157 0.4375,2.09375 0.176303,0.420948 0.406653,0.826425 0.65625,1.15625 -0.460567,0.271388 -0.89893,0.627685 -1.28125,1.0625 -0.514052,0.579423 -0.455413,1.454698 0.125,1.96875 0.578432,0.515042 1.455689,0.457394 1.96875,-0.125 0.462548,-0.523957 0.97669,-0.75 1.59375,-0.75 0.537823,0 1.01526,-0.327172 1.25,-0.8125 0.23375,-0.482357 0.178528,-1.048792 -0.15625,-1.46875 L 29.65625,23.125 c -0.244645,-0.245636 -0.433739,-0.538686 -0.5625,-0.84375 -0.133713,-0.31794 -0.1875,-0.648385 -0.1875,-1 0,-0.347654 0.05577,-0.687013 0.1875,-1 0.128761,-0.308035 0.324788,-0.605048 0.5625,-0.84375 0.23474,-0.23474 0.535715,-0.402489 0.84375,-0.53125 0.635879,-0.272378 1.357188,-0.273369 2,0 0.305064,0.12678 0.572807,0.293538 0.8125,0.53125 0.237712,0.240683 0.429778,0.529772 0.5625,0.84375 0.131732,0.310016 0.21875,0.652346 0.21875,1 0,0.351615 -0.08107,0.676118 -0.21875,1 -0.128761,0.306054 -0.308596,0.605249 -0.65625,0.96875 l -0.9375,1.15625 c -0.331806,0.421939 -0.39099,0.986393 -0.15625,1.46875 0.235731,0.483347 0.743427,0.8125 1.28125,0.8125 0.61706,0 1.097971,0.221091 1.5625,0.75 0.456605,0.508109 0.873522,1.253046 1.1875,2.21875 0.251578,0.76563 0.403925,1.532701 0.5,2.125 l -6.75,0 c -0.773554,0 -1.40625,0.632696 -1.40625,1.40625 0,0.775535 0.632696,1.40625 1.40625,1.40625 l 8.3125,0 c 0.381329,0 0.737526,-0.164131 1,-0.4375 0.265445,-0.277331 0.389857,-0.650911 0.375,-1.03125 0,0 -0.01209,-0.549942 -0.125,-1.375 -0.145599,-1.065742 -0.361091,-2.037166 -0.65625,-2.9375 -0.433824,-1.335148 -1.037855,-2.419444 -1.75,-3.21875 -0.384301,-0.434815 -0.787452,-0.791112 -1.25,-1.0625 0.266435,-0.353596 0.48589,-0.751149 0.65625,-1.15625 0.283273,-0.663612 0.40625,-1.363776 0.40625,-2.09375 0,-0.731954 -0.126939,-1.437071 -0.40625,-2.09375 C 36.199343,18.544688 35.812685,17.967945 35.3125,17.46875 34.812315,16.970546 34.226658,16.577945 33.59375,16.3125 32.929642,16.030712 32.21784,15.875 31.5,15.875 z m -11.75,2.90625 c -0.715364,0 -1.429642,0.125948 -2.09375,0.40625 -0.644793,0.270397 -1.227479,0.662998 -1.71875,1.15625 -0.497214,0.492262 -0.884862,1.077918 -1.15625,1.71875 -0.281292,0.663612 -0.40625,1.364767 -0.40625,2.09375 0,0.727002 0.122977,1.451483 0.40625,2.125 0.180265,0.422929 0.411605,0.800127 0.65625,1.125 -0.459576,0.271388 -0.86768,0.631647 -1.25,1.0625 -0.713136,0.800297 -1.314195,1.882611 -1.75,3.21875 -0.295159,0.905286 -0.509661,1.903999 -0.65625,2.96875 -0.113904,0.818125 -0.15625,1.375 -0.15625,1.375 -0.01585,0.381329 0.141796,0.752929 0.40625,1.03125 0.264454,0.27535 0.618671,0.4375 1,0.4375 l 13.4375,0 c 0.381329,0 0.737526,-0.165122 1,-0.4375 0.264454,-0.277331 0.421107,-0.649921 0.40625,-1.03125 0,0 -0.04433,-0.549942 -0.15625,-1.375 -0.150551,-1.066732 -0.365053,-2.069407 -0.65625,-2.96875 -0.436796,-1.334158 -1.004624,-2.421425 -1.71875,-3.21875 -0.384301,-0.433824 -0.819693,-0.791112 -1.28125,-1.0625 0.261483,-0.349635 0.479947,-0.710985 0.65625,-1.125 0.280302,-0.668565 0.4375,-1.400969 0.4375,-2.125 0,-0.727993 -0.155217,-1.428157 -0.4375,-2.09375 C 24.446372,21.417707 24.05179,20.83304 23.5625,20.34375 23.063305,19.844555 22.484582,19.455916 21.84375,19.1875 21.177662,18.907198 20.465364,18.78125 19.75,18.78125 z m 0,2.8125 c 0.344558,0 0.707863,0.0523 1.03125,0.1875 0.303083,0.12678 0.567855,0.317855 0.8125,0.5625 0.23474,0.23276 0.431758,0.505456 0.5625,0.8125 0.132722,0.316949 0.1875,0.648385 0.1875,1 0,0.350625 -0.05577,0.717272 -0.1875,1.03125 -0.131732,0.310016 -0.343808,0.579942 -0.6875,0.9375 l -0.90625,1.15625 c -0.332797,0.420948 -0.39099,1.015662 -0.15625,1.5 0.23375,0.483347 0.713167,0.78125 1.25,0.78125 0.619041,0 1.128231,0.255313 1.59375,0.78125 0.447691,0.504147 0.845244,1.268893 1.15625,2.21875 0.207998,0.644793 0.377182,1.358379 0.5,2.125 l -4.84375,0 -5.46875,0 c 0.09409,-0.593289 0.250403,-1.358379 0.5,-2.125 0.315959,-0.967685 0.730895,-1.705689 1.1875,-2.21875 0.464529,-0.521976 0.944449,-0.78125 1.5625,-0.78125 0.536833,0 1.04651,-0.297903 1.28125,-0.78125 0.23375,-0.484338 0.175556,-1.079052 -0.15625,-1.5 L 17.90625,26 c -0.230779,-0.229788 -0.402489,-0.509417 -0.53125,-0.8125 -0.135694,-0.320911 -0.21875,-0.680625 -0.21875,-1.03125 0,-0.351615 0.08306,-0.68206 0.21875,-1 0.129751,-0.306054 0.319836,-0.568845 0.5625,-0.8125 0.237712,-0.237712 0.507436,-0.43572 0.8125,-0.5625 0.320911,-0.135199 0.655442,-0.1875 1,-0.1875 z"
     id="path22"
     style="fill:#000000;fill-opacity:1;fill-rule:nonzero;stroke:none" /></svg>