<?xml version="1.0" encoding="UTF-8" standalone="no"?>
<!-- Created with Inkscape (http://www.inkscape.org/) -->

<svg
   xmlns:dc="http://purl.org/dc/elements/1.1/"
   xmlns:cc="http://creativecommons.org/ns#"
   xmlns:rdf="http://www.w3.org/1999/02/22-rdf-syntax-ns#"
   xmlns:svg="http://www.w3.org/2000/svg"
   xmlns="http://www.w3.org/2000/svg"
   version="1.1"
   width="40"
   height="40"
   id="svg2"
   xml:space="preserve"><metadata
     id="metadata8"><rdf:RDF><cc:Work
         rdf:about=""><dc:format>image/svg+xml</dc:format><dc:type
           rdf:resource="http://purl.org/dc/dcmitype/StillImage" /><dc:title></dc:title></cc:Work></rdf:RDF></metadata><defs
     id="defs6"><clipPath
       id="clipPath16"><path
         d="M 0,55 55,55 55,0 0,0 0,55 z"
         id="path18" /></clipPath></defs><g
     transform="matrix(1.25,0,0,-1.25,-16.639625,51.21)"
     id="g10"><g
       id="g12"><g
         clip-path="url(#clipPath16)"
         id="g14"><g
           transform="translate(29.7773,11.127)"
           id="g20" /><g
           transform="translate(24.917,16.8867)"
           id="g24" /><g
           transform="translate(19.7119,32.0425)"
           id="g28" /><g
           transform="translate(16.0347,24.5039)"
           id="g32"><g
             transform="matrix(0.86016949,0,0,0.86016949,3.8159528,-1.8771523)"
             id="g2998"><g
               id="g3008"><path
                 d="m 25.15625,0.34375 c -1.68222,0.0364531 -2.854679,2.2061699 -1.8125,3.625 1.437122,1.544144 2.817113,3.1416501 3.84375,5 4.410451,7.510986 3.756551,17.610694 -1.625,24.46875 -0.780133,1.346447 -2.57439,2.179455 -2.625,3.875 -0.05276,1.805104 2.151198,2.971823 3.625,1.9375 2.192916,-1.974927 3.920655,-4.45133 5.28125,-7.0625 4.619121,-8.853062 3.683796,-20.270715 -2.375,-28.21875 C 28.280293,2.6908241 27.35382,0.72931349 25.5,0.375 25.383903,0.35774345 25.268398,0.3413198 25.15625,0.34375 z M 20.0625,6.5625 c -1.285374,0.024615 -2.554903,1.1728172 -2.34375,2.5625 0.25312,1.437255 1.612871,2.316837 2.1875,3.625 2.668594,4.440372 2.636667,10.287307 -0.09375,14.6875 -0.577632,1.29358 -2.048121,2.184664 -2.09375,3.6875 -0.0011,0.505711 0.160522,1.004856 0.46875,1.40625 0.984325,1.391711 3.234516,1.086247 4,-0.375 C 26.296454,27.114448 27.744777,19.935077 25.5,13.78125 24.569568,11.268933 23.253595,8.8050667 21.3125,6.9375 20.932942,6.6630769 20.490958,6.5542949 20.0625,6.5625 z M 14.78125,12.5 c -1.298808,-0.140777 -2.73302,0.874341 -2.65625,2.3125 -0.04883,0.84817 0.538377,1.469555 0.96875,2.125 1.451088,2.062791 1.158957,4.9468 -0.46875,6.8125 -1.160501,1.362716 -0.103158,3.726618 1.6875,3.75 1.753901,0.121513 2.59396,-1.712961 3.3125,-3 1.950683,-3.673664 1.138423,-8.422524 -1.65625,-11.4375 -0.345005,-0.330539 -0.754564,-0.515574 -1.1875,-0.5625 z m -6.875,4.59375 c -1.0398842,0.100954 -2.0514137,0.73161 -2.4375,1.78125 -0.8445855,1.858139 0.6764202,4.118468 2.71875,4.0625 2.251869,0.111182 3.759091,-2.756241 2.40625,-4.5625 -0.580384,-0.956372 -1.6476158,-1.382204 -2.6875,-1.28125 z"
                 transform="matrix(0.93004926,0,0,-0.93004926,-7.6019353,21.322835)"
                 id="path22"
                 style="fill:#000000;fill-opacity:1;fill-rule:nonzero;stroke:none" /></g></g></g></g></g></g></svg>