<?xml version="1.0" encoding="UTF-8" standalone="no"?>
<!-- Created with Inkscape (http://www.inkscape.org/) -->

<svg
   xmlns:dc="http://purl.org/dc/elements/1.1/"
   xmlns:cc="http://creativecommons.org/ns#"
   xmlns:rdf="http://www.w3.org/1999/02/22-rdf-syntax-ns#"
   xmlns:svg="http://www.w3.org/2000/svg"
   xmlns="http://www.w3.org/2000/svg"
   version="1.1"
   width="40"
   height="40"
   id="svg2"
   xml:space="preserve"><metadata
     id="metadata8"><rdf:RDF><cc:Work
         rdf:about=""><dc:format>image/svg+xml</dc:format><dc:type
           rdf:resource="http://purl.org/dc/dcmitype/StillImage" /><dc:title></dc:title></cc:Work></rdf:RDF></metadata><defs
     id="defs6"><clipPath
       id="clipPath16"><path
         d="M 0,55 55,55 55,0 0,0 0,55 z"
         id="path18" /></clipPath></defs><g
     transform="matrix(1.25,0,0,-1.25,-20.560796,48.869625)"
     id="g10"><g
       id="g12"><g
         clip-path="url(#clipPath16)"
         id="g14"><g
           transform="translate(30.6182,16.9297)"
           id="g20"><path
             d="m 3.1805237,-2.0045624 0.1271695,-0.1364746 2.2960297,1.0026229 2.439483,-3.742195 -3.9980847,-1.4221271 C -5.3840316,4.1034503 -4.5775906,15.680527 -4.4287096,17.168565 l 4.10741975,1.40972 0.086848,-4.209775 -2.14947465,-0.527288 -0.013958,-0.19153 C -3.0329466,4.7679884 3.1184898,-1.937876 3.1805237,-2.0045624 M 10.975858,-3.3693082 8.2316339,0.83969182 C 7.6733288,1.6996367 6.7273119,2.2121918 5.7006509,2.2121918 c -0.4140764,0 -0.8203984,-0.085297 -1.205784,-0.2535636 L 4.3234983,1.8849632 C 3.1022059,3.6839462 1.1745025,7.1291539 0.87906615,11.263713 2.1926339,11.644446 3.080494,12.843252 3.0533542,14.223506 l -0.098479,4.782813 c -0.020936,0.961526 -0.5016992,1.864119 -1.2895297,2.413894 -0.78317785,0.546674 -1.80286005,0.690903 -2.7093305,0.381509 l -4.6083428,-1.581089 c -1.084043,-0.372204 -1.854039,-1.30814 -2.010674,-2.442585 -0.07987,-0.572263 -1.828449,-14.1514831 9.4035634,-26.4264408 0.5714873,-0.6242161 1.383356,-0.9816864 2.2277924,-0.9816864 0.3427373,0 0.6823729,0.058932 1.0111525,0.1752458 l 4.4772967,1.5919449 c 0.8785548,0.3124957 1.5523988,0.9964195 1.8501608,1.8788517 0.298538,0.8808813 0.177572,1.8331017 -0.331106,2.6147288"
             id="path22"
             style="fill:#000000;fill-opacity:1;fill-rule:nonzero;stroke:none" /></g></g></g></g></svg>