<?xml version="1.0" encoding="UTF-8" standalone="no"?>
<!-- Created with Inkscape (http://www.inkscape.org/) -->

<svg
   xmlns:dc="http://purl.org/dc/elements/1.1/"
   xmlns:cc="http://creativecommons.org/ns#"
   xmlns:rdf="http://www.w3.org/1999/02/22-rdf-syntax-ns#"
   xmlns:svg="http://www.w3.org/2000/svg"
   xmlns="http://www.w3.org/2000/svg"
   version="1.1"
   width="40"
   height="40"
   id="svg2"
   xml:space="preserve"><metadata
     id="metadata8"><rdf:RDF><cc:Work
         rdf:about=""><dc:format>image/svg+xml</dc:format><dc:type
           rdf:resource="http://purl.org/dc/dcmitype/StillImage" /><dc:title></dc:title></cc:Work></rdf:RDF></metadata><defs
     id="defs6"><clipPath
       id="clipPath16"><path
         d="M 0,55 55,55 55,0 0,0 0,55 z"
         id="path18" /></clipPath></defs><g
     transform="matrix(1.25,0,0,-1.25,-9.352,49.4685)"
     id="g10"><g
       id="g12"><g
         clip-path="url(#clipPath16)"
         id="g14"><g
           transform="translate(36.4277,36.5205)"
           id="g20" /><g
           transform="translate(27.4106,11.9648)"
           id="g24"><g
             transform="matrix(0.78389831,0,0,0.78389831,-3.9286081,-0.57138779)"
             id="g2992"><path
               d="M 20,0.46875 C 9.2321768,0.46875 0.46875,9.231197 0.46875,20 0.46875,30.767823 9.2321768,39.53125 20,39.53125 30.766843,39.53125 39.53125,30.767823 39.53125,20 39.53125,9.231197 30.766843,0.46875 20,0.46875 z m 0,4.3125 c 8.396531,0 15.21875,6.822219 15.21875,15.21875 0,8.396531 -6.822219,15.21875 -15.21875,15.21875 C 11.603469,35.21875 4.78125,28.396531 4.78125,20 4.78125,11.603469 11.603469,4.78125 20,4.78125 z m -7,5.625 c -0.660312,-2.45e-4 -1.339605,0.245855 -1.84375,0.75 -1.008289,1.007309 -1.009269,2.648941 0,3.65625 l 5.1875,5.1875 -5.1875,5.1875 c -1.008289,1.007309 -1.008289,2.647961 0,3.65625 0.502675,0.503655 1.183316,0.75 1.84375,0.75 0.660434,0 1.308845,-0.246345 1.8125,-0.75 L 20,23.65625 l 5.1875,5.1875 c 0.503655,0.504635 1.152066,0.75 1.8125,0.75 0.659454,0 1.339115,-0.245365 1.84375,-0.75 1.007309,-1.007309 1.007309,-2.647961 0,-3.65625 L 23.65625,20 l 5.1875,-5.1875 c 1.007309,-1.007309 1.007309,-2.648941 0,-3.65625 -1.008289,-1.007309 -2.647961,-1.007309 -3.65625,0 L 20,16.34375 14.8125,11.15625 C 14.309825,10.653085 13.660312,10.406495 13,10.40625 z"
               transform="matrix(1.0205405,0,0,-1.0205405,-20.411311,35.950311)"
               id="path22"
               style="fill:#000000;fill-opacity:1;fill-rule:nonzero;stroke:none" /></g></g></g></g></g></svg>