<?xml version="1.0" encoding="UTF-8" standalone="no"?>
<!-- Created with Inkscape (http://www.inkscape.org/) -->

<svg
   xmlns:dc="http://purl.org/dc/elements/1.1/"
   xmlns:cc="http://creativecommons.org/ns#"
   xmlns:rdf="http://www.w3.org/1999/02/22-rdf-syntax-ns#"
   xmlns:svg="http://www.w3.org/2000/svg"
   xmlns="http://www.w3.org/2000/svg"
   version="1.1"
   width="40"
   height="40"
   id="svg2"
   xml:space="preserve"><metadata
     id="metadata8"><rdf:RDF><cc:Work
         rdf:about=""><dc:format>image/svg+xml</dc:format><dc:type
           rdf:resource="http://purl.org/dc/dcmitype/StillImage" /><dc:title></dc:title></cc:Work></rdf:RDF></metadata><defs
     id="defs6"><clipPath
       id="clipPath16"><path
         d="M 0,55 55,55 55,0 0,0 0,55 z"
         id="path18" /></clipPath></defs><g
     transform="matrix(1.25,0,0,-1.25,-13.250127,51.568027)"
     id="g10"><g
       id="g12"><g
         clip-path="url(#clipPath16)"
         id="g14"><g
           transform="translate(24.6699,22.8516)"
           id="g20" /><g
           transform="translate(30.5469,23.9746)"
           id="g24" /><g
           transform="translate(27.7627,21.2061)"
           id="g28"><g
             id="g2995"><path
               d="m -5.5856984,19.940004 c -0.4878902,-0.02626 -1.0632987,-0.22059 -1.6871062,-0.695932 l -5.7994274,-4.112321 c -1.732658,-1.451755 -2.056583,-2.615014 -2.256505,-3.880344 -0.03458,-0.219324 -0.06242,-0.440335 -0.126533,-0.674842 -0.02784,-0.09532 -0.03374,-0.196548 -0.04218,-0.295244 -0.09701,-1.2788261 -0.05821,-2.9355644 1.223152,-4.4497421 0.504444,-0.596392 1.171695,-1.1818178 1.961261,-1.7292838 L -14.42192,0.05324044 c -0.385504,-0.74570091 -0.09026,-1.66011244 0.653754,-2.04561614 L 4.8954453,-11.672147 c 0.3728505,-0.19233 0.7895657,-0.222698 1.1598855,-0.105445 0.3711633,0.118098 0.6934006,0.387191 0.8857307,0.759198 L 13.035735,0.74917171 c 0.385504,0.74570089 0.0911,1.65926889 -0.653754,2.04561619 L -2.0638644,10.281321 c 0.1644928,0.271624 0.2454739,0.587956 0.2108882,0.927908 -0.024463,0.235352 -0.03796,0.565181 -0.063266,0.948998 -0.2294465,3.610407 -0.587113,6.661538 -2.5306592,7.549799 -0.2598144,0.118098 -0.6509065,0.258233 -1.1387966,0.231978 z m -0.042178,-3.24768 c 0.2977742,-0.716176 0.5204722,-2.295308 0.6748425,-4.723897 0.00422,-0.0717 0.016027,-0.122315 0.021089,-0.189799 l -1.3496849,0.674842 c -0.7448574,0.386347 -1.6584253,0.113036 -2.0456162,-0.632665 l -2.572837,-4.9980513 c -0.417559,0.3146453 -0.783661,0.6503795 -1.054441,0.9700861 -0.441179,0.5221593 -0.587957,1.1075851 -0.527221,2.1088826 0.07339,0.2943996 0.124846,0.5854256 0.168711,0.8646416 0.122315,0.76679 0.169554,1.194471 1.07553,1.961261 z M -6.3238074,9.0581694 9.6404343,0.79134937 4.937626,-8.276846 -11.026616,-0.01002604 -9.6769307,2.6049884 c 0.254753,-0.1180974 0.51288,-0.231977 0.759198,-0.3374212 0.0084,-0.4108103 0.05989,-0.8131851 0.189799,-1.2231519 0.3542924,-1.11686427 1.1337354,-2.0329629 2.1721492,-2.5728368 1.040101,-0.539874 2.2151704,-0.6503795 3.3320346,-0.2952436 -0.6994769,2.28423639 -1.0462467,3.3500677 0.021089,0 2.30374336,0.7305169 3.57750846,3.1987532 2.84699146,5.5041837 C -1.0870299,5.984262 -3.553579,7.2808031 -5.8598531,6.548599 -6.6941271,6.2837233 -7.407773,5.7877141 -7.9265581,5.1567365 c -0.118941,0.0523 -0.2378819,0.092791 -0.35851,0.1476217 z M 1.6266802,2.4784555 C 1.3039638,2.4411772 1.0071957,2.2622954 0.8463936,1.9512348 0.58910996,1.4543821 0.7924062,0.83774479 1.289259,0.5804611 l 4.4497424,-2.3197709 c 0.2488481,-0.1273765 0.5128802,-0.1417169 0.7591977,-0.063266 0.2488482,0.077607 0.4808253,0.2581272 0.611576,0.5061318 0.254753,0.4968528 0.053144,1.11180298 -0.4428653,1.37077377 L 2.2171673,2.3730114 C 2.0317969,2.4694929 1.82031,2.5008211 1.6266802,2.4784555 z m -1.89799444,-3.6905447 c -0.322634,-0.037764 -0.6194844,-0.2367219 -0.78028646,-0.5483094 -0.2589708,-0.4951657 -0.075076,-1.1134901 0.42177646,-1.3707738 L 3.8199182,-5.4298545 c 0.2480046,-0.12822 0.5111931,-0.1417169 0.7591977,-0.063266 0.2480046,0.079294 0.4833559,0.2555965 0.611576,0.5061318 0.2572837,0.4943221 0.054831,1.0915577 -0.4428654,1.3496849 l -4.44974234,2.3197709 c -0.1860035,0.095849 -0.3758178,0.1281013 -0.5693984,0.1054441 z"
               id="path22"
               style="fill:#000000;fill-opacity:1;fill-rule:nonzero;stroke:none" /></g></g></g></g></g></svg>