<?xml version="1.0" encoding="UTF-8" standalone="no"?>
<!-- Created with Inkscape (http://www.inkscape.org/) -->

<svg
   xmlns:dc="http://purl.org/dc/elements/1.1/"
   xmlns:cc="http://creativecommons.org/ns#"
   xmlns:rdf="http://www.w3.org/1999/02/22-rdf-syntax-ns#"
   xmlns:svg="http://www.w3.org/2000/svg"
   xmlns="http://www.w3.org/2000/svg"
   version="1.1"
   width="40"
   height="40"
   id="svg3020">
  <metadata
     id="metadata3026">
    <rdf:RDF>
      <cc:Work
         rdf:about="">
        <dc:format>image/svg+xml</dc:format>
        <dc:type
           rdf:resource="http://purl.org/dc/dcmitype/StillImage" />
        <dc:title></dc:title>
      </cc:Work>
    </rdf:RDF>
  </metadata>
  <defs
     id="defs3024" />
  <g
     id="g2987">
    <g
       id="g2990" />
  </g>
  <g
     transform="translate(0.46046502,-0.52048729)"
     id="g2994">
    <path
       d="m 11.96875,0.5 a 2.4294015,2.4294015 0 0 0 -1.8125,0.71875 l -9,9 A 2.4294015,2.4294015 0 0 0 0.5,12.28125 l 1.21875,8.5625 A 2.4294015,2.4294015 0 0 0 2.40625,22.25 L 19.1875,38.78125 a 2.4294015,2.4294015 0 0 0 3.40625,0 l 16.25,-16.25 A 2.4294015,2.4294015 0 0 0 38.8125,19.125 L 22.125,2.40625 A 2.4294015,2.4294015 0 0 0 20.75,1.71875 L 12.21875,0.53125 A 2.4294015,2.4294015 0 0 0 11.96875,0.5 z M 12.75,5.53125 19.25,6.4375 33.6875,20.84375 20.875,33.625 6.40625,19.34375 5.46875,12.78125 12.75,5.53125 z M 13.125,10 A 3.0260043,3.0260043 0 0 0 10,13.03125 a 3.03125,3.03125 0 0 0 6.0625,0 A 3.0260043,3.0260043 0 0 0 13.125,10 z"
       transform="translate(-0.46046502,0.52048729)"
       id="path3030"
       style="font-size:medium;font-style:normal;font-variant:normal;font-weight:normal;font-stretch:normal;text-indent:0;text-align:start;text-decoration:none;line-height:normal;letter-spacing:normal;word-spacing:normal;text-transform:none;direction:ltr;block-progression:tb;writing-mode:lr-tb;text-anchor:start;baseline-shift:baseline;color:#000000;fill:#000000;fill-opacity:1;stroke:none;stroke-width:49.29999924;marker:none;visibility:visible;display:inline;overflow:visible;enable-background:accumulate;font-family:Sans;-inkscape-font-specification:Sans" />
  </g>
</svg>
