<?xml version="1.0" encoding="UTF-8" standalone="no"?>
<!-- Created with Inkscape (http://www.inkscape.org/) -->

<svg
   xmlns:dc="http://purl.org/dc/elements/1.1/"
   xmlns:cc="http://creativecommons.org/ns#"
   xmlns:rdf="http://www.w3.org/1999/02/22-rdf-syntax-ns#"
   xmlns:svg="http://www.w3.org/2000/svg"
   xmlns="http://www.w3.org/2000/svg"
   version="1.1"
   width="40"
   height="40"
   id="svg2"
   xml:space="preserve"><metadata
     id="metadata8"><rdf:RDF><cc:Work
         rdf:about=""><dc:format>image/svg+xml</dc:format><dc:type
           rdf:resource="http://purl.org/dc/dcmitype/StillImage" /><dc:title></dc:title></cc:Work></rdf:RDF></metadata><defs
     id="defs6"><clipPath
       id="clipPath16"><path
         d="M 0,55 55,55 55,0 0,0 0,55 z"
         id="path18" /></clipPath></defs><g
     transform="matrix(1.25,0,0,-1.25,-16.726,49.370248)"
     id="g10"><g
       id="g12"><g
         clip-path="url(#clipPath16)"
         id="g14"><g
           transform="translate(36.2598,13.4502)"
           id="g20" /><g
           transform="translate(31.2422,18.3047)"
           id="g24" /><g
           transform="translate(24.3438,36.6875)"
           id="g28" /><g
           transform="translate(26.8911,24.5684)"
           id="g32"><g
             transform="translate(5.2648052,0.2798459)"
             id="g3007"><path
               d="m 11.6875,0.34375 c -2.8234963,0 -5.09375,2.6387175 -5.09375,5.875 l 0,27.5625 c 0,3.235297 2.2702537,5.875 5.09375,5.875 l 16.59375,0 c 2.827436,0 5.125,-2.639703 5.125,-5.875 l 0,-27.5625 c 0,-3.2362825 -2.297564,-5.875 -5.125,-5.875 l -16.59375,0 z m 0,4.3125 16.59375,0 c 0.293581,0 0.84375,0.5891525 0.84375,1.5625 l 0,27.5625 c 0,0.969407 -0.550169,1.5625 -0.84375,1.5625 l -16.59375,0 c -0.28964,0 -0.8125,-0.593093 -0.8125,-1.5625 l 0,-27.5625 c 0,-0.9733475 0.52286,-1.5625 0.8125,-1.5625 z m 8.625,2.15625 c -1.594989,0 -3.308062,0.4973305 -4.375,1.25 L 15.5,8.34375 16.6875,11.4375 17.375,10.90625 c 0.572384,-0.437415 1.567595,-0.75 2.4375,-0.75 1.330964,0.02069 2,0.612129 2,1.75 0,1.075805 -0.668718,2.059523 -1.8125,3.40625 -1.433422,1.721091 -2.075975,3.562839 -1.875,5.3125 l 0.09375,1.34375 3.53125,0 -0.09375,-1.40625 c -0.07684,-1.291558 0.351843,-2.372575 1.4375,-3.65625 1.45411,-1.723062 2.5625,-3.220985 2.5625,-5.3125 0,-2.377214 -1.659216,-4.78125 -5.34375,-4.78125 z m -0.40625,16.03125 c -1.320127,0 -2.34375,1.023072 -2.34375,2.40625 0,1.3684 1.011091,2.40625 2.3125,2.40625 1.358549,0 2.34375,-1.016176 2.34375,-2.40625 0,-1.427511 -0.950011,-2.40625 -2.3125,-2.40625 z M 15.75,29 c -0.913252,0 -1.65625,0.740042 -1.65625,1.65625 0,0.911282 0.742997,1.65625 1.65625,1.65625 l 8.4375,0 c 0.916208,0 1.65625,-0.744968 1.65625,-1.65625 C 25.84375,29.740042 25.103708,29 24.1875,29 L 15.75,29 z"
               transform="matrix(0.8,0,0,-0.8,-18.775105,14.647952)"
               id="path22"
               style="fill:#000000;fill-opacity:1;fill-rule:nonzero;stroke:none" /></g></g></g></g></g></svg>