<?xml version="1.0" encoding="UTF-8" standalone="no"?>
<!-- Created with Inkscape (http://www.inkscape.org/) -->

<svg
   xmlns:dc="http://purl.org/dc/elements/1.1/"
   xmlns:cc="http://creativecommons.org/ns#"
   xmlns:rdf="http://www.w3.org/1999/02/22-rdf-syntax-ns#"
   xmlns:svg="http://www.w3.org/2000/svg"
   xmlns="http://www.w3.org/2000/svg"
   version="1.1"
   width="40"
   height="40"
   id="svg2"
   xml:space="preserve"><metadata
     id="metadata8"><rdf:RDF><cc:Work
         rdf:about=""><dc:format>image/svg+xml</dc:format><dc:type
           rdf:resource="http://purl.org/dc/dcmitype/StillImage" /><dc:title></dc:title></cc:Work></rdf:RDF></metadata><defs
     id="defs6"><clipPath
       id="clipPath16"><path
         d="M 0,55 55,55 55,0 0,0 0,55 z"
         id="path18" /></clipPath></defs><g
     transform="matrix(1.25,0,0,-1.25,-11.65625,53.012501)"
     id="g10"><g
       id="g12"><g
         clip-path="url(#clipPath16)"
         id="g14"><g
           transform="translate(27.7744,14.834)"
           id="g20" /><g
           transform="translate(46.582,28.2358)"
           id="g24"><g
             transform="matrix(0.84322034,0,0,0.84322034,-5.6148411,-1.5261187)"
             id="g2992"><path
               d="m 19.625,1.59375 c -0.113571,0 -0.233077,-0.00248 -0.34375,0.03125 L 1.125,7.09375 c -0.4975,0.1496716 -0.84375,0.6064195 -0.84375,1.125 0,0.5185805 0.34625,0.9753284 0.84375,1.125 l 18.15625,5.46875 c 0.110673,0.03373 0.228861,0.03125 0.34375,0.03125 0.113835,0 0.234131,0.0025 0.34375,-0.03125 l 15,-4.5 0,4.71875 c -0.356261,0.434258 -0.5625,0.988739 -0.5625,1.59375 0,0.683008 0.273951,1.296769 0.71875,1.75 -0.111727,0.08854 -0.237664,0.187071 -0.3125,0.3125 l -0.53125,0.9375 c -0.106457,0.181292 -0.1875,0.382945 -0.1875,0.59375 l 0,0.3125 c 0,0.648226 0.537166,1.1875 1.1875,1.1875 l 3.25,0 c 0.650334,0 1.1875,-0.539274 1.1875,-1.1875 l 0,-0.3125 c 0,-0.210805 -0.04874,-0.412458 -0.15625,-0.59375 L 39,18.6875 c -0.07484,-0.125429 -0.168469,-0.225016 -0.28125,-0.3125 0.444799,-0.454285 0.71875,-1.065937 0.71875,-1.75 0,-0.605011 -0.237489,-1.159492 -0.59375,-1.59375 l 0,-6.3125 c 0.06957,-0.1507256 0.125,-0.3260858 0.125,-0.5 0,-0.5185805 -0.345196,-0.9753284 -0.84375,-1.125 L 19.96875,1.625 C 19.859131,1.5912712 19.738571,1.59375 19.625,1.59375 z m 8.5,12.71875 c -0.223898,0.0096 -0.438594,0.04911 -0.65625,0.125 l -7.90625,2.71875 -7.90625,-2.4375 c -0.889597,-0.270885 -1.8616314,0.01466 -2.46875,0.71875 -2.1712924,2.518067 -3.375,5.730726 -3.375,9.0625 0,7.673305 6.236107,13.90625 13.90625,13.90625 7.669089,0 13.90625,-6.232945 13.90625,-13.90625 0,-3.518337 -1.300132,-6.887442 -3.6875,-9.46875 -0.473521,-0.510675 -1.140806,-0.747604 -1.8125,-0.71875 z m -0.6875,5.0625 c 1.004486,1.509364 1.53125,3.280456 1.53125,5.125 0,5.100429 -4.149571,9.25 -9.25,9.25 -5.099375,0 -9.25,-4.149571 -9.25,-9.25 0,-1.717007 0.487511,-3.396573 1.375,-4.84375 l 7.09375,2.1875 c 0.474311,0.145456 0.967405,0.134232 1.4375,-0.03125 l 7.0625,-2.4375 z"
               transform="matrix(0.94874372,0,0,-0.94874372,-37.525374,18.619474)"
               id="path22"
               style="fill:#000000;fill-opacity:1;fill-rule:nonzero;stroke:none" /></g></g></g></g></g></svg>