<?xml version="1.0" encoding="UTF-8" standalone="no"?>
<!-- Created with Inkscape (http://www.inkscape.org/) -->

<svg
   xmlns:dc="http://purl.org/dc/elements/1.1/"
   xmlns:cc="http://creativecommons.org/ns#"
   xmlns:rdf="http://www.w3.org/1999/02/22-rdf-syntax-ns#"
   xmlns:svg="http://www.w3.org/2000/svg"
   xmlns="http://www.w3.org/2000/svg"
   version="1.1"
   width="40"
   height="40"
   id="svg2"
   xml:space="preserve"><metadata
     id="metadata8"><rdf:RDF><cc:Work
         rdf:about=""><dc:format>image/svg+xml</dc:format><dc:type
           rdf:resource="http://purl.org/dc/dcmitype/StillImage" /><dc:title></dc:title></cc:Work></rdf:RDF></metadata><defs
     id="defs6"><clipPath
       id="clipPath16"><path
         d="M 0,55 55,55 55,0 0,0 0,55 z"
         id="path18" /></clipPath></defs><g
     transform="matrix(1.25,0,0,-1.25,-9.223375,54.603249)"
     id="g10"><g
       id="g12"><g
         clip-path="url(#clipPath16)"
         id="g14"><g
           transform="translate(43.4707,18.7686)"
           id="g20"><path
             d="m -7.4909149,3.2909926 -6.7914781,6.7922674 6.7914781,5.121222 0,-11.9134894 z m -22.8841571,-2.3172131 7.116535,7.1173238 2.182299,-1.6442193 c 0.291131,-0.2193345 0.638279,-0.3305797 0.985427,-0.3305797 0.347148,0 0.694296,0.1112452 0.987005,0.3313686 l 2.180721,1.6450084 7.114957,-7.1189018 -20.566944,0 z m -2.314846,14.2291245 6.790689,-5.120433 -6.790689,-6.7914784 0,11.9119114 z m 21.942912,1.648953 -9.343805,-7.0463157 -9.344594,7.0463157 18.688399,0 z m 6.4987695,1.94324 c -0.00473,0.02762 -0.012624,0.05444 -0.018935,0.08205 -0.011835,0.04418 -0.018146,0.08836 -0.033926,0.132547 -0.00868,0.02525 -0.020513,0.04734 -0.03077,0.0718 -0.011046,0.03077 -0.024458,0.06154 -0.03866,0.09073 -0.029192,0.06312 -0.062329,0.123869 -0.098622,0.182253 -0.01499,0.02446 -0.029192,0.0497 -0.044971,0.07337 -0.052072,0.07259 -0.1073003,0.142015 -0.1704181,0.205133 -0.00473,0.0055 -0.00789,0.01183 -0.014201,0.01657 -0.067852,0.06864 -0.145171,0.129392 -0.2232793,0.18462 -0.022091,0.01578 -0.047338,0.0284 -0.071008,0.0426 -0.056806,0.03629 -0.1175569,0.07022 -0.1798858,0.09862 -0.033137,0.01499 -0.065485,0.02761 -0.097833,0.03945 -0.06154,0.02446 -0.1246577,0.04339 -0.1909314,0.05996 -0.031559,0.0079 -0.062329,0.01657 -0.093099,0.02288 -0.098622,0.01815 -0.1972432,0.02998 -0.2998097,0.02998 l -28.4740292,0 c -0.101778,0 -0.201188,-0.01183 -0.299021,-0.02998 -0.03235,-0.0063 -0.06391,-0.01499 -0.09547,-0.02367 -0.06391,-0.01578 -0.127024,-0.03392 -0.187775,-0.05838 -0.03393,-0.01262 -0.06706,-0.02604 -0.09941,-0.04103 -0.06075,-0.02761 -0.118346,-0.05996 -0.174363,-0.09468 -0.02604,-0.01578 -0.05286,-0.02998 -0.07811,-0.04734 -0.07732,-0.05444 -0.151483,-0.113612 -0.219335,-0.180675 -0.01105,-0.01105 -0.01893,-0.02367 -0.02998,-0.03472 -0.05523,-0.05838 -0.106511,-0.119924 -0.15306,-0.185408 -0.01972,-0.0284 -0.03629,-0.05838 -0.05444,-0.08758 -0.03235,-0.05207 -0.06233,-0.106512 -0.08915,-0.163318 -0.01657,-0.0355 -0.03235,-0.0718 -0.04655,-0.108878 -0.0071,-0.0213 -0.01893,-0.04103 -0.02604,-0.06233 -0.01262,-0.03866 -0.01893,-0.07811 -0.02919,-0.117557 -0.0087,-0.03393 -0.01893,-0.06785 -0.02604,-0.101777 -0.01815,-0.09862 -0.02919,-0.197244 -0.02919,-0.295865 0,-0.0016 -7.89e-4,-0.0032 -7.89e-4,-0.0047 l 0,-19.1523152 c 0,-0.9049518 0.733745,-1.6371186 1.637908,-1.6371186 l 28.4740292,0 c 0.9049518,0 1.6371186,0.7321668 1.6371186,1.6371186 l 0,19.1523152 0,0.0024 c 0,0.100988 -0.011046,0.201977 -0.03077,0.302965"
             id="path22"
             style="fill:#000000;fill-opacity:1;fill-rule:nonzero;stroke:none" /></g></g></g></g></svg>