<?xml version="1.0" encoding="UTF-8" standalone="no"?>
<!-- Created with Inkscape (http://www.inkscape.org/) -->

<svg
   xmlns:dc="http://purl.org/dc/elements/1.1/"
   xmlns:cc="http://creativecommons.org/ns#"
   xmlns:rdf="http://www.w3.org/1999/02/22-rdf-syntax-ns#"
   xmlns:svg="http://www.w3.org/2000/svg"
   xmlns="http://www.w3.org/2000/svg"
   version="1.1"
   width="40"
   height="40"
   id="svg3858">
  <metadata
     id="metadata3864">
    <rdf:RDF>
      <cc:Work
         rdf:about="">
        <dc:format>image/svg+xml</dc:format>
        <dc:type
           rdf:resource="http://purl.org/dc/dcmitype/StillImage" />
        <dc:title></dc:title>
      </cc:Work>
    </rdf:RDF>
  </metadata>
  <defs
     id="defs3862" />
  <path
     d="M 12.969361,39.476273 C 11.067814,39.076216 9.6744831,37.737621 9.2670024,35.919359 9.2222708,35.719758 8.9783838,33.483481 8.7250311,30.949853 8.2169546,25.868886 8.2134943,25.629689 8.6303376,24.404116 c 0.2923523,-0.859549 0.4329563,-1.091462 1.0697011,-1.764369 0.4345083,-0.459183 0.6625333,-0.792306 0.9118693,-1.332145 0.182861,-0.395918 0.360177,-0.776048 0.394035,-0.844737 0.178818,-0.362768 2.035846,-1.158608 3.023939,-1.295926 0.387807,-0.05389 0.402525,-0.04742 0.87422,0.384227 0.527752,0.482949 1.519809,0.999125 2.308153,1.200951 0.634523,0.162449 1.86586,0.1631 2.504417,0.0013 0.272929,-0.06915 0.8147,-0.280562 1.203936,-0.46982 0.93514,-0.45469 1.872801,-1.381052 2.402356,-2.373405 0.289007,-0.541582 0.457816,-0.750139 0.832589,-1.028623 1.218015,-0.905075 2.771969,-1.427321 4.258378,-1.431137 1.082701,-0.0028 1.768854,0.19453 2.469089,0.710015 0.267726,0.197089 0.75777,0.500748 1.088989,0.674798 0.7956,0.418075 1.627887,1.127489 2.12868,1.814407 0.390633,0.535822 1.520502,2.860606 3.470972,7.14177 1.010657,2.218331 1.090789,2.451597 1.144034,3.330366 0.08433,1.391717 -0.367135,2.492569 -1.46822,3.580143 -1.263606,1.248095 -2.774529,1.911918 -4.506217,1.979795 -1.606707,0.06298 -2.766433,-0.360091 -3.875834,-1.413913 l -0.611956,-0.5813 -0.523399,0.128624 c -1.155095,0.283861 -2.311127,0.24227 -3.259307,-0.117261 l -0.404653,-0.153437 -0.218348,0.266078 c -0.752242,0.916684 -1.815367,1.588696 -2.987068,1.888158 -0.319163,0.08156 -0.35959,0.12195 -0.441614,0.441113 -0.23719,0.922913 -0.349013,1.223305 -0.640719,1.721169 -0.59765,1.020022 -1.600775,1.840457 -2.804052,2.293369 -1.162693,0.437636 -2.821254,0.570953 -4.004947,0.321921 z m 2.726955,-3.210218 c 0.59731,-0.1822 1.221431,-0.644027 1.425806,-1.055043 0.06001,-0.120687 0.307291,-1.011593 0.549513,-1.979792 l 0.440403,-1.760362 0.259473,0.108073 c 0.653864,0.272334 1.620635,0.218033 2.304999,-0.129468 0.53165,-0.269957 1.243208,-1.217236 1.243208,-1.65505 0,-0.125867 0.08655,-0.189483 0.353851,-0.260068 0.194617,-0.0514 0.746272,-0.201922 1.225899,-0.334508 l 0.872051,-0.241066 0.251949,0.243531 c 0.13857,0.133943 0.470261,0.343294 0.737089,0.465222 0.409031,0.186911 0.572305,0.216506 1.040739,0.188648 0.710349,-0.04225 1.387108,-0.348576 1.871742,-0.847225 l 0.363601,-0.374121 1.283236,1.290102 c 0.705778,0.709556 1.426298,1.364463 1.601151,1.455349 0.681888,0.35443 1.597464,0.264907 2.632071,-0.25736 0.939509,-0.474263 1.451349,-1.113528 1.441468,-1.800327 -0.0037,-0.258827 -0.353927,-1.096879 -1.461265,-3.496883 -2.438871,-5.285911 -2.384631,-5.180268 -2.915291,-5.678046 -0.451773,-0.423779 -1.194688,-0.84792 -1.488163,-0.84961 -0.07762,-4.13e-4 -0.302417,-0.173735 -0.499554,-0.385083 l -0.358436,-0.38427 -0.624444,0.04319 c -0.709612,0.04908 -1.397881,0.281883 -1.976374,0.668502 -0.360671,0.241042 -0.40363,0.305111 -0.475258,0.708796 l -0.07874,0.443801 -0.870174,0.416585 c -0.686648,0.328724 -1.441544,0.573012 -3.579289,1.15828 -2.613069,0.715397 -3.567789,0.909527 -4.472988,0.909527 -0.398316,0 -0.442916,-0.02184 -0.701462,-0.34357 l -0.276101,-0.343571 -0.799389,0.04114 c -0.609444,0.03135 -0.931833,0.09488 -1.356801,0.26733 -0.714385,0.289899 -0.941516,0.50288 -1.012994,0.949882 -0.03712,0.232109 -0.174957,0.502757 -0.400508,0.786392 -0.189152,0.237865 -0.435662,0.631375 -0.547797,0.874471 -0.363526,0.788075 -0.368179,0.678169 0.314359,7.425997 0.13664,1.350879 0.287441,2.597264 0.335116,2.769747 0.294255,1.064599 1.691938,1.465815 3.347307,0.96087 z m -0.546915,-6.760241 c -0.739112,-0.275399 -1.217373,-0.973268 -1.220731,-1.781265 -0.0045,-1.078128 0.786726,-1.873355 1.871502,-1.881008 1.469814,-0.01032 2.362039,1.549198 1.623253,2.83737 -0.437852,0.763453 -1.451811,1.131267 -2.274024,0.824903 z m 6.97951,-1.166348 c -0.109743,-0.109742 -0.262496,-0.418842 -0.339448,-0.686887 -0.07695,-0.268046 -0.154016,-0.511802 -0.171245,-0.541681 -0.01724,-0.02988 -0.205931,-0.0018 -0.419332,0.06244 -0.618034,0.186001 -0.984748,0.152721 -1.286319,-0.116733 -0.208653,-0.186431 -0.263163,-0.303101 -0.270389,-0.57874 -0.01316,-0.501931 0.223499,-0.775247 0.828832,-0.957201 0.270176,-0.08121 0.535091,-0.163592 0.588701,-0.18307 0.07278,-0.02644 0.0675,-0.135018 -0.02082,-0.428457 -0.187506,-0.623037 -0.154844,-0.989112 0.115216,-1.291362 0.186432,-0.208652 0.303102,-0.263162 0.57874,-0.270388 0.501931,-0.01316 0.775247,0.2235 0.9572,0.828832 0.08121,0.270176 0.163591,0.535091 0.18307,0.588702 0.02645,0.07278 0.135018,0.06749 0.428459,-0.02082 0.595495,-0.179218 0.979268,-0.152458 1.265308,0.08823 0.302156,0.254247 0.387666,0.624911 0.230781,1.000388 -0.129294,0.309442 -0.401562,0.481628 -0.99976,0.632256 -0.382307,0.09627 -0.393399,0.107738 -0.346335,0.358216 0.02675,0.142321 0.07268,0.47207 0.102116,0.732776 0.05076,0.449844 0.04051,0.486985 -0.201022,0.728517 -0.337133,0.337133 -0.915608,0.36312 -1.223752,0.05497 z m 6.199796,-2.42595 c -1.07232,-0.330589 -1.585511,-1.683805 -1.027424,-2.70919 0.568689,-1.044872 1.951913,-1.293999 2.861551,-0.515383 0.195358,0.167218 0.424214,0.455989 0.508572,0.641715 0.199281,0.438734 0.199281,1.152482 0,1.591217 -0.283862,0.624955 -1.094894,1.134054 -1.773976,1.113553 -0.105653,-0.0032 -0.361576,-0.05805 -0.568723,-0.121912 z M 4.2967046,22.758934 C 2.1904391,22.248118 0.85238603,20.025279 1.395648,17.939555 1.9297721,15.888913 3.9140208,14.621624 5.9964086,15.001164 l 0.3538514,0.06449 0,-4.922282 c 0,-5.370124 -0.011783,-5.2315098 0.4842978,-5.6978644 0.2239963,-0.2105703 1.0585461,-0.47124 6.8583192,-2.1421821 3.631807,-1.0463411 6.734421,-1.90316196 6.894694,-1.9040456 0.394836,-0.002191 0.810214,0.22425999 1.118078,0.6095085 l 0.255698,0.3199668 0,7.2982434 0,7.2982414 -0.184457,0.586273 c -0.579201,1.840905 -2.212576,2.985195 -4.061948,2.845668 -2.099338,-0.158385 -3.694382,-1.853371 -3.702806,-3.934817 -0.0079,-1.946569 1.462093,-3.66452 3.384324,-3.955249 0.424923,-0.06427 0.73554,-0.06474 1.076846,-0.0016 0.263816,0.04877 0.510251,0.08867 0.547633,0.08867 0.03738,-2e-6 0.06797,-1.7421983 0.06797,-3.8715509 0,-2.129352 -0.02809,-3.871664 -0.06244,-3.871807 -0.03435,-1.668e-4 -2.244874,0.6265805 -4.912289,1.3927131 l -4.8498447,1.3929686 0,6.1873792 c 0,6.823384 -0.00859,6.956222 -0.5152964,7.959985 -0.7974128,1.579665 -2.699014,2.440322 -4.4523283,2.015106 z"
     id="path3868"
     style="fill:#000000;fill-opacity:1" />
</svg>
