<?xml version="1.0" encoding="UTF-8" standalone="no"?>
<!-- Created with Inkscape (http://www.inkscape.org/) -->

<svg
   xmlns:dc="http://purl.org/dc/elements/1.1/"
   xmlns:cc="http://creativecommons.org/ns#"
   xmlns:rdf="http://www.w3.org/1999/02/22-rdf-syntax-ns#"
   xmlns:svg="http://www.w3.org/2000/svg"
   xmlns="http://www.w3.org/2000/svg"
   version="1.1"
   width="40"
   height="40"
   id="svg2"
   xml:space="preserve"><metadata
     id="metadata8"><rdf:RDF><cc:Work
         rdf:about=""><dc:format>image/svg+xml</dc:format><dc:type
           rdf:resource="http://purl.org/dc/dcmitype/StillImage" /><dc:title></dc:title></cc:Work></rdf:RDF></metadata><defs
     id="defs6"><clipPath
       id="clipPath16"><path
         d="M 0,55 55,55 55,0 0,0 0,55 z"
         id="path18" /></clipPath></defs><g
     transform="matrix(1.25,0,0,-1.25,-10.591588,58.932875)"
     id="g10"><g
       id="g12"><g
         clip-path="url(#clipPath16)"
         id="g14"><g
           transform="translate(27.4985,19.9473)"
           id="g20" /><g
           transform="translate(27.4985,32.7534)"
           id="g24"><g
             transform="matrix(0.82862213,0,0,0.82862213,-3.0258877,2.1263399)"
             id="g2992"><path
               d="M 20,6.4375 C 9.3449552,6.4375 1.0959497,17.617292 0.75,18.09375 0.44237403,18.518419 0.29160778,19.012149 0.28125,19.5 l 0,0.03125 c -0.002072,0.157438 0.034534,0.313383 0.0625,0.46875 -0.027966,0.156402 -0.0645716,0.30924 -0.0625,0.46875 l 0,0.03125 C 0.29160778,20.986816 0.44237403,21.481581 0.75,21.90625 1.0959497,22.383744 9.3418479,33.5625 20,33.5625 c 10.657116,0 18.874872,-11.178756 19.21875,-11.65625 0.41224,-0.570713 0.5504,-1.264068 0.4375,-1.90625 0.1129,-0.640111 -0.02526,-1.337608 -0.4375,-1.90625 C 38.874872,17.617292 30.657116,6.4375 20,6.4375 z m 0,4.96875 c 6.505719,0 12.326408,6.122384 14.40625,8.59375 C 31.829235,23.100083 26.009582,28.59375 20,28.59375 13.503603,28.59375 7.7110562,22.480688 5.625,20 7.7110562,17.520348 13.505674,11.40625 20,11.40625 z m -0.5,3.9375 c -2.508758,0.254276 -4.46875,2.389664 -4.46875,4.96875 0,2.74999 2.220832,4.96875 4.96875,4.96875 2.748954,0 4.96875,-2.21876 4.96875,-4.96875 0,-2.751025 -2.219796,-4.96875 -4.96875,-4.96875 -0.171745,0 -0.332749,-0.01695 -0.5,0 z"
               transform="matrix(0.96545816,0,0,-0.96545816,-19.308369,14.803563)"
               id="path22"
               style="fill:#000000;fill-opacity:1;fill-rule:nonzero;stroke:none" /></g></g></g></g></g></svg>