<?xml version="1.0" encoding="UTF-8" standalone="no"?>
<!-- Created with Inkscape (http://www.inkscape.org/) -->

<svg
   xmlns:dc="http://purl.org/dc/elements/1.1/"
   xmlns:cc="http://creativecommons.org/ns#"
   xmlns:rdf="http://www.w3.org/1999/02/22-rdf-syntax-ns#"
   xmlns:svg="http://www.w3.org/2000/svg"
   xmlns="http://www.w3.org/2000/svg"
   version="1.1"
   width="40"
   height="40"
   id="svg2"
   xml:space="preserve"><metadata
     id="metadata8"><rdf:RDF><cc:Work
         rdf:about=""><dc:format>image/svg+xml</dc:format><dc:type
           rdf:resource="http://purl.org/dc/dcmitype/StillImage" /><dc:title></dc:title></cc:Work></rdf:RDF></metadata><defs
     id="defs6"><clipPath
       id="clipPath16"><path
         d="M 0,55 55,55 55,0 0,0 0,55 z"
         id="path18" /></clipPath></defs><g
     transform="matrix(1.25,0,0,-1.25,-15.617125,51.203751)"
     id="g10"><g
       id="g12"><g
         clip-path="url(#clipPath16)"
         id="g14"><g
           transform="translate(36.9707,14.458)"
           id="g20" /><g
           transform="translate(32.7168,20.4102)"
           id="g24" /><g
           transform="translate(32.7168,27.2676)"
           id="g28" /><g
           transform="translate(32.7168,34.126)"
           id="g32"><g
             transform="matrix(0.83050848,0,0,0.83050848,0.52500003,-4.0753043)"
             id="g2998"><path
               d="m 14.125,0.25 c -1.300784,0 -2.34375,1.0440042 -2.34375,2.34375 l 0,0.90625 -1.125,0 C 7.5106991,3.5 4.9375,6.0731991 4.9375,9.21875 l 0,24.84375 c 0,3.145551 2.5731991,5.6875 5.71875,5.6875 l 18.6875,0 c 3.145551,0 5.71875,-2.541949 5.71875,-5.6875 l 0,-24.84375 C 35.0625,6.0731991 32.489301,3.5 29.34375,3.5 l -1.0625,0 0,-0.90625 C 28.28125,1.2940042 27.237246,0.25 25.9375,0.25 c -1.300784,0 -2.34375,1.0440042 -2.34375,2.34375 l 0,0.90625 -1.25,0 0,-0.90625 C 22.34375,1.2940042 21.299746,0.25 20,0.25 c -1.299746,0 -2.34375,1.0440042 -2.34375,2.34375 l 0,0.90625 -1.15625,0 0,-0.90625 C 16.5,1.2940042 15.424746,0.25 14.125,0.25 z m -3.46875,7.96875 1.125,0 0,0.90625 c 0,1.299746 1.042966,2.34375 2.34375,2.34375 1.299746,0 2.375,-1.044004 2.375,-2.34375 l 0,-0.90625 1.15625,0 0,0.90625 c 0,1.299746 1.044004,2.34375 2.34375,2.34375 1.299746,0 2.34375,-1.044004 2.34375,-2.34375 l 0,-0.90625 1.25,0 0,0.90625 c 0,1.299746 1.042966,2.34375 2.34375,2.34375 1.299746,0 2.34375,-1.044004 2.34375,-2.34375 l 0,-0.90625 1.0625,0 c 0.548136,0 1,0.4508263 1,1 l 0,24.84375 c 0,0.549174 -0.451864,1 -1,1 l -18.6875,0 c -0.550212,0 -1,-0.450826 -1,-1 l 0,-24.84375 c 0,-0.5491737 0.449788,-1 1,-1 z M 14.125,13.625 c -1.300784,0 -2.34375,1.074216 -2.34375,2.375 0,1.299746 1.042966,2.34375 2.34375,2.34375 l 11.8125,0 c 1.299746,0 2.34375,-1.044004 2.34375,-2.34375 0,-1.300784 -1.044004,-2.375 -2.34375,-2.375 l -11.8125,0 z m 0,7.125 c -1.300784,0 -2.34375,1.075254 -2.34375,2.375 0,1.299746 1.042966,2.34375 2.34375,2.34375 l 11.8125,0 c 1.299746,0 2.34375,-1.044004 2.34375,-2.34375 0,-1.299746 -1.044004,-2.375 -2.34375,-2.375 l -11.8125,0 z m 0,7.125 c -1.300784,0 -2.34375,1.044004 -2.34375,2.34375 0,1.300784 1.042966,2.375 2.34375,2.375 l 11.8125,0 c 1.299746,0 2.34375,-1.074216 2.34375,-2.375 0,-1.299746 -1.044004,-2.34375 -2.34375,-2.34375 l -11.8125,0 z"
               transform="matrix(0.9632653,0,0,-0.9632653,-24.982406,13.139306)"
               id="path22"
               style="fill:#000000;fill-opacity:1;fill-rule:nonzero;stroke:none" /></g></g></g></g></g></svg>