<?xml version="1.0" encoding="UTF-8" standalone="no"?>
<!-- Created with Inkscape (http://www.inkscape.org/) -->

<svg
   xmlns:dc="http://purl.org/dc/elements/1.1/"
   xmlns:cc="http://creativecommons.org/ns#"
   xmlns:rdf="http://www.w3.org/1999/02/22-rdf-syntax-ns#"
   xmlns:svg="http://www.w3.org/2000/svg"
   xmlns="http://www.w3.org/2000/svg"
   version="1.1"
   width="40"
   height="40"
   id="svg3020">
  <metadata
     id="metadata3026">
    <rdf:RDF>
      <cc:Work
         rdf:about="">
        <dc:format>image/svg+xml</dc:format>
        <dc:type
           rdf:resource="http://purl.org/dc/dcmitype/StillImage" />
        <dc:title></dc:title>
      </cc:Work>
    </rdf:RDF>
  </metadata>
  <defs
     id="defs3024" />
  <path
     d="m 19.287311,39.609962 c -0.592682,-0.221859 -0.988035,-0.559476 -1.30758,-1.116625 l -0.299783,-0.522692 -9.11e-4,-5.961358 -9.12e-4,-5.961357 -3.430622,-5.081074 c -1.88692,-2.79459 -3.513188,-5.240631 -3.614007,-5.435647 -0.267358,-0.517154 -0.247176,-1.453839 0.0443,-2.055946 0.63347,-1.308574 2.282717,-1.787311 3.525992,-1.023511 0.412302,0.253296 0.707728,0.626771 1.954659,2.47107 l 1.468948,2.172674 0.05065,-3.086871 c 0.05574,-3.39694 0.05118,-3.371682 0.72583,-4.0188245 0.45844,-0.4397467 1.037878,-0.667158 1.705531,-0.6693685 0.999856,-0.00331 1.841228,0.5341395 2.268958,1.449362 0.196283,0.419989 0.217044,0.681771 0.263709,3.325083 l 0.05065,2.869202 1.418294,-2.105231 c 1.199465,-1.780417 1.493234,-2.151539 1.904006,-2.405362 1.380672,-0.853139 3.222943,-0.153043 3.66999,1.394664 0.141881,0.491203 0.152872,0.692833 0.06234,1.143634 -0.117848,0.586808 -0.178284,0.681197 -4.914333,7.67527 l -2.190949,3.235536 0,5.6403 c 0,3.357868 -0.04128,5.86112 -0.102023,6.185987 -0.209458,1.120306 -1.099301,1.90289 -2.247941,1.97698 -0.388875,0.02508 -0.781786,-0.01241 -1.0048,-0.09589 z M 8.2895899,10.362993 C 7.4147713,10.183971 6.5909453,9.5438852 6.1484979,8.6994351 5.7786417,7.993531 5.7661708,6.8222897 6.1200824,6.0307237 6.5926654,4.9737351 7.707807,4.2716918 8.9141704,4.2716918 c 2.7013436,0 4.0846876,3.1368304 2.2625636,5.1305241 -0.73758,0.8070301 -1.8421814,1.1746161 -2.8871441,0.9607771 z m 22.1879261,3.04e-4 C 29.819634,10.228575 29.295484,9.9133115 28.784529,9.345007 27.68839,8.1258375 27.779079,6.2446753 28.990318,5.076295 c 1.457977,-1.4063873 3.958598,-0.9369807 4.867414,0.9136902 0.234527,0.4775801 0.282119,0.7049549 0.279508,1.3353845 -0.004,0.955458 -0.291968,1.6495264 -0.927619,2.23545 -0.759886,0.7004393 -1.774748,0.9985253 -2.732105,0.8024773 z M 19.298954,6.324891 C 18.746437,6.1430809 18.203797,5.8009398 17.854154,5.4139259 17.377167,4.8859579 17.21318,4.5574527 17.08788,3.8788943 16.840784,2.5407603 17.504788,1.201976 18.735338,0.55723182 c 0.429229,-0.22489278 0.645258,-0.2690848 1.323416,-0.27072293 0.683594,-0.001651 0.900217,0.0421213 1.383905,0.27965109 1.112434,0.54629432 1.738863,1.53972212 1.738863,2.75759082 0,1.6873959 -1.232645,2.9758348 -2.920154,3.0523325 -0.390031,0.017681 -0.823117,-0.00536 -0.962414,-0.051192 z"
     id="path3030"
     style="fill:#000000;fill-opacity:1" />
</svg>
