<?xml version="1.0" encoding="UTF-8" standalone="no"?>
<!-- Created with Inkscape (http://www.inkscape.org/) -->

<svg
   xmlns:dc="http://purl.org/dc/elements/1.1/"
   xmlns:cc="http://creativecommons.org/ns#"
   xmlns:rdf="http://www.w3.org/1999/02/22-rdf-syntax-ns#"
   xmlns:svg="http://www.w3.org/2000/svg"
   xmlns="http://www.w3.org/2000/svg"
   version="1.1"
   width="40"
   height="40"
   id="svg2"
   xml:space="preserve"><metadata
     id="metadata8"><rdf:RDF><cc:Work
         rdf:about=""><dc:format>image/svg+xml</dc:format><dc:type
           rdf:resource="http://purl.org/dc/dcmitype/StillImage" /><dc:title></dc:title></cc:Work></rdf:RDF></metadata><defs
     id="defs6"><clipPath
       id="clipPath16"><path
         d="M 0,55 55,55 55,0 0,0 0,55 z"
         id="path18" /></clipPath></defs><g
     transform="matrix(1.25,0,0,-1.25,-11.38375,51.84875)"
     id="g10"><g
       id="g12"><g
         clip-path="url(#clipPath16)"
         id="g14"><g
           transform="translate(34.2061,39.0762)"
           id="g22" /><g
           transform="translate(26.6519,36.5176)"
           id="g26" /><g
           transform="translate(41.7305,41.6353)"
           id="g30" /><g
           transform="translate(23.939,25.0449)"
           id="g34"><g
             transform="matrix(0.84322034,0,0,0.84322034,-1.8347076,-2.0583663)"
             id="g3000"><path
               d="m 35.03125,0.46875 c -0.673654,0.003162 -1.368541,0.25724311 -1.875,0.75 -0.465879,0.4669333 -0.75,1.1379237 -0.75,1.8125 0,0.6745763 0.290074,1.3515201 0.78125,1.84375 0.466933,0.4932839 1.138978,0.75 1.8125,0.75 0.704089,0 1.377871,-0.2567161 1.84375,-0.75 C 37.33598,4.4091208 37.625,3.7311229 37.625,3.03125 37.625,2.3566737 37.33598,1.6797299 36.84375,1.1875 36.36206,0.70739142 35.704904,0.46558792 35.03125,0.46875 z M 27.25,3.125 c -0.334999,-0.026153 -0.663502,0.040044 -1,0.15625 -1.377611,0.4679873 -2.121075,1.9331515 -1.65625,3.28125 0.364693,1.0909163 1.378888,1.75 2.46875,1.75 0.258236,0 0.556001,-0.047002 0.84375,-0.125 C 29.253294,7.7205667 29.964825,6.2554025 29.5,4.90625 29.169563,3.8951761 28.254997,3.203459 27.25,3.125 z m -8.46875,2.71875 c -0.172063,0.022071 -0.328326,0.066765 -0.5,0.125 C 16.934206,6.4356833 16.183363,7.8766049 16.625,9.25 c 0.389989,1.064566 1.405238,1.78125 2.46875,1.78125 0.283533,0 0.580244,-0.047 0.84375,-0.125 1.372341,-0.466933 2.091933,-1.9644015 1.625,-3.3125 -0.407644,-1.2035653 -1.576806,-1.904495 -2.78125,-1.75 z m -7.9375,2.6875 c -0.170674,0.022122 -0.330829,0.066765 -0.5,0.125 -1.3723411,0.4679873 -2.0908792,1.938051 -1.625,3.3125 0.1517797,0.445853 0.4158739,0.799677 0.75,1.09375 l -3.8125,0 C 5.5339831,12.659862 5.3502489,12.259661 5.0625,11.96875 c -0.9623252,-0.960217 -2.7051483,-0.986568 -3.6875,0 -0.46587924,0.465879 -0.75,1.170228 -0.75,1.84375 0,0.316208 0.0705032,0.609015 0.1875,0.90625 -0.1117267,0.288803 -0.1875,0.609698 -0.1875,0.9375 l 0,21.28125 c 0,1.433475 1.1592214,2.59375 2.59375,2.59375 l 33.5625,0 c 1.433475,0 2.59375,-1.160275 2.59375,-2.59375 l 0,-21.28125 c 0,-1.431367 -1.160275,-2.59375 -2.59375,-2.59375 l -23.90625,0 c 0.750466,-0.666144 1.073957,-1.750413 0.71875,-2.78125 -0.38551,-1.1805085 -1.555283,-1.9048553 -2.75,-1.75 z M 5.8125,18.25 l 28.375,0 0,16.09375 -28.375,0 0,-16.09375 z m 11.96875,3.09375 C 16.887766,21.267959 16.25,21.940012 16.25,23.125 l 0,6.3125 c 0,1.576822 1.129767,2.230127 2.5,1.4375 l 5.46875,-3.15625 c 1.372341,-0.791573 1.372341,-2.084481 0,-2.875 L 18.75,21.6875 c -0.342558,-0.196312 -0.670922,-0.318486 -0.96875,-0.34375 z"
               transform="matrix(0.94874372,0,0,-0.94874372,-15.413874,21.930764)"
               id="path20"
               style="fill:#000000;fill-opacity:1;fill-rule:nonzero;stroke:none" /></g></g></g></g></g></svg>