<?xml version="1.0" encoding="UTF-8" standalone="no"?>
<!-- Created with Inkscape (http://www.inkscape.org/) -->

<svg
   xmlns:dc="http://purl.org/dc/elements/1.1/"
   xmlns:cc="http://creativecommons.org/ns#"
   xmlns:rdf="http://www.w3.org/1999/02/22-rdf-syntax-ns#"
   xmlns:svg="http://www.w3.org/2000/svg"
   xmlns="http://www.w3.org/2000/svg"
   version="1.1"
   width="40"
   height="40"
   id="svg2"
   xml:space="preserve"><metadata
     id="metadata8"><rdf:RDF><cc:Work
         rdf:about=""><dc:format>image/svg+xml</dc:format><dc:type
           rdf:resource="http://purl.org/dc/dcmitype/StillImage" /><dc:title></dc:title></cc:Work></rdf:RDF></metadata><defs
     id="defs6"><clipPath
       id="clipPath16"><path
         d="M 0,55 55,55 55,0 0,0 0,55 z"
         id="path18" /></clipPath></defs><g
     transform="matrix(1.25,0,0,-1.25,-10.534625,50.77675)"
     id="g10"><g
       id="g12"><g
         clip-path="url(#clipPath16)"
         id="g14"><g
           transform="translate(31.7773,29.939)"
           id="g20" /><g
           transform="translate(10.8657,46.3804)"
           id="g24" /><g
           transform="translate(18.0361,42.269)"
           id="g28" /><g
           transform="translate(18.0361,34.0396)"
           id="g32" /><g
           transform="translate(18.0361,25.8105)"
           id="g36" /><g
           transform="translate(18.0361,17.582)"
           id="g40" /><g
           transform="translate(44.1465,46.3804)"
           id="g44" /><g
           transform="translate(36.9629,17.583)"
           id="g48" /><g
           transform="translate(36.9629,25.8125)"
           id="g52" /><g
           transform="translate(36.9629,34.042)"
           id="g56" /><g
           transform="translate(36.9629,42.2715)"
           id="g60"><g
             transform="matrix(0.83050848,0,0,0.83050848,-4.6762644,-5.3829914)"
             id="g3019"><path
               d="m 2.71875,0.40625 c -1.3848729,0.007267 -2.53125,1.1130508 -2.53125,2.5 l 0,34.1875 c 0,1.391102 1.1401483,2.5 2.53125,2.5 1.3911017,0 2.53125,-1.108898 2.53125,-2.5 l 0,-34.1875 c 0,-1.3869492 -1.1463771,-2.49273305 -2.53125,-2.5 z m 34.5625,0 c -1.393178,0 -2.53125,1.1088983 -2.53125,2.5 l 0,34.1875 c 0,1.391102 1.138072,2.5 2.53125,2.5 1.391102,0 2.53125,-1.108898 2.53125,-2.5 l 0,-34.1875 c 0,-1.3911017 -1.140148,-2.5 -2.53125,-2.5 z m -27.09375,4.25 c -1.393178,0 -2.53125,1.138072 -2.53125,2.53125 0,1.3921398 1.138072,2.53125 2.53125,2.53125 1.386949,0 2.5,-1.1391102 2.5,-2.53125 0,-1.393178 -1.113051,-2.53125 -2.5,-2.53125 z m 19.625,0 c -1.386949,0 -2.5,1.1391102 -2.5,2.53125 0,1.393178 1.113051,2.53125 2.5,2.53125 1.393178,0 2.53125,-1.138072 2.53125,-2.53125 0,-1.3921398 -1.138072,-2.53125 -2.53125,-2.53125 z m -19.625,8.5625 c -1.393178,0 -2.53125,1.106822 -2.53125,2.5 0,1.393178 1.138072,2.53125 2.53125,2.53125 1.386949,0 2.5,-1.138072 2.5,-2.53125 0,-1.393178 -1.113051,-2.5 -2.5,-2.5 z m 19.625,0 c -1.386949,0 -2.5,1.106822 -2.5,2.5 0,1.393178 1.113051,2.53125 2.5,2.53125 1.393178,0 2.53125,-1.138072 2.53125,-2.53125 0,-1.393178 -1.138072,-2.5 -2.53125,-2.5 z M 20,14.3125 c -0.355042,0 -0.682839,0.213581 -0.84375,0.53125 l -1.125,2.25 -2.46875,0.375 c -0.355042,0.05087 -0.673284,0.286568 -0.78125,0.625 -0.110042,0.341547 -0.0085,0.722712 0.25,0.96875 l 1.8125,1.75 -0.4375,2.5 c -0.06021,0.351928 0.08536,0.696547 0.375,0.90625 0.28964,0.207627 0.685445,0.226525 1,0.0625 L 20,23.125 l 2.21875,1.15625 c 0.138072,0.06644 0.289047,0.125 0.4375,0.125 0.197246,0 0.400551,-0.06708 0.5625,-0.1875 0.290678,-0.209703 0.433136,-0.554322 0.375,-0.90625 l -0.4375,-2.5 1.8125,-1.75 c 0.255381,-0.246038 0.329831,-0.627203 0.21875,-0.96875 -0.110042,-0.338432 -0.397034,-0.574131 -0.75,-0.625 l -2.5,-0.375 -1.09375,-2.25 C 20.685953,14.526081 20.357119,14.3125 20,14.3125 z M 10.1875,21.75 c -1.393178,0 -2.53125,1.140148 -2.53125,2.53125 0,1.39214 1.138072,2.5 2.53125,2.5 1.386949,0 2.5,-1.10786 2.5,-2.5 0,-1.391102 -1.113051,-2.53125 -2.5,-2.53125 z m 19.625,0 c -1.386949,0 -2.5,1.13911 -2.5,2.53125 0,1.39214 1.113051,2.5 2.5,2.5 1.393178,0 2.53125,-1.10786 2.53125,-2.5 0,-1.39214 -1.138072,-2.53125 -2.53125,-2.53125 z m 0,8.53125 c -1.386949,0 -2.5,1.140148 -2.5,2.53125 0,1.39214 1.113051,2.53125 2.5,2.53125 1.393178,0 2.53125,-1.13911 2.53125,-2.53125 0,-1.391102 -1.138072,-2.53125 -2.53125,-2.53125 z m -19.625,0.03125 c -1.393178,0 -2.53125,1.106822 -2.53125,2.5 0,1.391102 1.138072,2.53125 2.53125,2.53125 1.386949,0 2.5,-1.140148 2.5,-2.53125 0,-1.393178 -1.113051,-2.5 -2.5,-2.5 z"
               transform="matrix(0.9632653,0,0,-0.9632653,-28.728106,4.4947059)"
               id="path22"
               style="fill:#000000;fill-opacity:1;fill-rule:nonzero;stroke:none" /></g></g></g></g></g></svg>