<?xml version="1.0" encoding="UTF-8" standalone="no"?>
<!-- Created with Inkscape (http://www.inkscape.org/) -->

<svg
   xmlns:dc="http://purl.org/dc/elements/1.1/"
   xmlns:cc="http://creativecommons.org/ns#"
   xmlns:rdf="http://www.w3.org/1999/02/22-rdf-syntax-ns#"
   xmlns:svg="http://www.w3.org/2000/svg"
   xmlns="http://www.w3.org/2000/svg"
   version="1.1"
   width="40"
   height="40"
   id="svg2"
   xml:space="preserve"><metadata
     id="metadata8"><rdf:RDF><cc:Work
         rdf:about=""><dc:format>image/svg+xml</dc:format><dc:type
           rdf:resource="http://purl.org/dc/dcmitype/StillImage" /><dc:title></dc:title></cc:Work></rdf:RDF></metadata><defs
     id="defs6"><clipPath
       id="clipPath16"><path
         d="M 0,55 55,55 55,0 0,0 0,55 z"
         id="path18" /></clipPath></defs><g
     transform="matrix(1.25,0,0,-1.25,-10.444,51.601874)"
     id="g10"><g
       id="g12"><g
         clip-path="url(#clipPath16)"
         id="g14"><g
           transform="translate(24.2085,25.168)"
           id="g20" /><g
           transform="translate(44.7832,33.2915)"
           id="g24"><g
             transform="matrix(0.83898305,0,0,0.83898305,-5.5087839,-3.5709415)"
             id="g2992"><path
               d="m 20,0.375 c -0.521087,0 -1.036674,0.15811441 -1.46875,0.5 L 1.34375,14.4375 C 0.77324153,14.888453 0.4375,15.584682 0.4375,16.3125 l 0,20.9375 c 0,1.313008 1.0609428,2.375 2.375,2.375 1.3130085,0 2.375,-1.061992 2.375,-2.375 l 0,-19.78125 L 20,5.78125 l 14.8125,11.6875 0,17.40625 -11.125,0 c -1.314057,0 -2.40625,1.060943 -2.40625,2.375 0,1.313008 1.092193,2.375 2.40625,2.375 l 13.5,0 c 1.313008,0 2.375,-1.061992 2.375,-2.375 l 0,-20.9375 c 0,-0.727818 -0.334693,-1.424047 -0.90625,-1.875 L 21.46875,0.875 C 21.037198,0.53311441 20.521087,0.375 20,0.375 z m 1.3125,13.5 c -0.290438,-0.0065 -0.581094,0.0091 -0.875,0.03125 -2.34286,0.174089 -4.467807,1.250508 -6,3.03125 -1.533242,1.78179 -2.270985,4.062341 -2.09375,6.40625 0.116409,1.557362 0.626833,2.970975 1.4375,4.1875 l -4.34375,5.0625 c -0.8568114,0.995244 -0.7452436,2.487987 0.25,3.34375 0.448856,0.386981 0.981716,0.59375 1.53125,0.59375 0.669089,0 1.342669,-0.297362 1.8125,-0.84375 L 17.375,30.65625 c 1.323496,0.620847 2.810297,0.897659 4.375,0.78125 C 26.585689,31.070445 30.23786,26.833591 29.875,22 29.698814,19.656091 28.623443,17.532193 26.84375,16 25.286519,14.659331 23.345569,13.920538 21.3125,13.875 z m -0.21875,4.75 c 0.965879,0 1.916896,0.33322 2.65625,0.96875 0.815911,0.703697 1.295297,1.703157 1.375,2.78125 0.165699,2.222256 -1.500689,4.174905 -3.71875,4.34375 -2.213867,0.161504 -4.177002,-1.525646 -4.34375,-3.75 -0.0818,-1.074947 0.264004,-2.119492 0.96875,-2.9375 0.702648,-0.818008 1.703157,-1.295297 2.78125,-1.375 0.102775,-0.0084 0.178475,-0.03125 0.28125,-0.03125 z"
               transform="matrix(0.95353535,0,0,-0.95353535,-36.853207,13.779707)"
               id="path22"
               style="fill:#000000;fill-opacity:1;fill-rule:nonzero;stroke:none" /></g></g></g></g></g></svg>