<?xml version="1.0" encoding="UTF-8" standalone="no"?>
<!-- Created with Inkscape (http://www.inkscape.org/) -->

<svg
   xmlns:dc="http://purl.org/dc/elements/1.1/"
   xmlns:cc="http://creativecommons.org/ns#"
   xmlns:rdf="http://www.w3.org/1999/02/22-rdf-syntax-ns#"
   xmlns:svg="http://www.w3.org/2000/svg"
   xmlns="http://www.w3.org/2000/svg"
   version="1.1"
   width="40"
   height="40"
   id="svg2"
   xml:space="preserve"><metadata
     id="metadata8"><rdf:RDF><cc:Work
         rdf:about=""><dc:format>image/svg+xml</dc:format><dc:type
           rdf:resource="http://purl.org/dc/dcmitype/StillImage" /><dc:title></dc:title></cc:Work></rdf:RDF></metadata><defs
     id="defs6"><clipPath
       id="clipPath16"><path
         d="M 0,55 55,55 55,0 0,0 0,55 z"
         id="path18" /></clipPath></defs><g
     transform="matrix(1.25,0,0,-1.25,-10.542685,51.154751)"
     id="g10"><g
       id="g12"><g
         clip-path="url(#clipPath16)"
         id="g14"><g
           transform="translate(34.9512,8.9238)"
           id="g20"><path
             d="m -2.9977084,0.3822853 c -0.073906,0 -0.1478125,0.008695 -0.2199798,0.0243456 -0.3573585,0.0756452 -0.6495055,0.33301289 -0.7738419,0.6773291 l -4.661311,12.929247 -1.9893829,-1.474647 c -0.107816,-0.145204 -0.194765,-0.86166 -0.237369,-1.205976 -0.03304,-0.272149 -0.06521,-0.521692 -0.106947,-0.723412 -0.111294,-0.522561 -0.195634,-1.032079 -0.278235,-1.5215993 -0.356489,-2.1328476 -0.694719,-4.1457062 -2.682363,-5.8003368 -0.278235,-0.2312831 -0.661678,-0.3060589 -1.005994,-0.1912868 -0.346055,0.1139026 -0.609509,0.3956158 -0.696458,0.7486269 l -0.669504,2.7075774 c -0.55647,-0.4330037 -1.183369,-0.7981876 -1.85722,-0.7981876 -0.503432,0 -0.962521,0.2034596 -1.309445,0.5808163 -0.62603,0.4912592 -0.817317,1.0494688 -0.866008,1.4416067 -0.09999,0.7860147 0.273888,1.4885589 0.725151,2.0989376 l -2.71975,0.6077696 c -0.356489,0.07999 -0.646028,0.337361 -0.766886,0.682546 -0.120859,0.343447 -0.05565,0.725151 0.171288,1.009473 1.664195,2.082417 3.930944,2.478903 6.122047,2.861476 0.545167,0.09477 1.103377,0.191287 1.665934,0.317362 1.562465,0.350403 1.988513,0.932958 2.881474,2.303267 l -13.062278,4.429159 c -0.347795,0.11738 -0.607771,0.406049 -0.691241,0.761669 -0.08347,0.356489 0.02348,0.729498 0.281713,0.987735 0.132162,0.131292 0.25389,0.273888 0.373879,0.413875 0.503432,0.581686 1.192064,1.379004 2.385867,1.379004 l 16.1098254,-0.0017 c 1.725059,0 1.7920093,0 3.3275205,1.603331 l 3.35969145,3.510112 c 0.69645777,0.72776 2.72583655,0.877311 3.22926855,0.877311 0.508649,0 1.1407648,-0.05913 1.5468145,-0.521691 0.9155681,-1.044252 0.1956342,-4.101363 -0.5182133,-4.812602 L 0.35763567,22.589811 c -1.25118942,-1.244234 -1.23814712,-1.55464 -1.17032732,-3.280569 0.013912,-0.318231 0.027824,-0.671242 0.036518,-1.067728 l 0.2138938,-11.1911455 c 0.007825,-0.4303952 0.0252151,-0.8147078 0.0417353,-1.1642409 C -0.43011806,3.9350025 -0.37099306,2.6464252 -2.2351697,0.70660334 -2.4368903,0.49966582 -2.7125172,0.3822853 -2.9977084,0.3822853"
             id="path22"
             style="fill:#000000;fill-opacity:1;fill-rule:nonzero;stroke:none" /></g></g></g></g></svg>