<?xml version="1.0" encoding="UTF-8" standalone="no"?>
<!-- Created with Inkscape (http://www.inkscape.org/) -->

<svg
   xmlns:dc="http://purl.org/dc/elements/1.1/"
   xmlns:cc="http://creativecommons.org/ns#"
   xmlns:rdf="http://www.w3.org/1999/02/22-rdf-syntax-ns#"
   xmlns:svg="http://www.w3.org/2000/svg"
   xmlns="http://www.w3.org/2000/svg"
   version="1.1"
   width="40"
   height="40"
   id="svg2"
   xml:space="preserve"><metadata
     id="metadata8"><rdf:RDF><cc:Work
         rdf:about=""><dc:format>image/svg+xml</dc:format><dc:type
           rdf:resource="http://purl.org/dc/dcmitype/StillImage" /><dc:title></dc:title></cc:Work></rdf:RDF></metadata><defs
     id="defs6"><clipPath
       id="clipPath16"><path
         d="M 0,55 55,55 55,0 0,0 0,55 z"
         id="path18" /></clipPath></defs><g
     transform="matrix(1.25,0,0,-1.25,-13.498,52.852749)"
     id="g10"><g
       id="g12"><g
         clip-path="url(#clipPath16)"
         id="g14"><g
           transform="translate(28.1943,10.2822)"
           id="g20" /><g
           transform="translate(13.0664,10.2822)"
           id="g24"><g
             transform="matrix(0.91525423,0,0,0.91525423,-0.03280573,0.24138068)"
             id="g2992"><path
               d="m 2.78125,0.3125 c -0.6639883,0 -1.305678,0.24317797 -1.8125,0.75 -1.01249999,1.0136441 -1.01364406,2.6426059 0,3.65625 L 16.21875,20 0.96875,35.28125 c -1.01364406,1.0125 -1.01364406,2.642606 0,3.65625 0.505678,0.506822 1.1477966,0.75 1.8125,0.75 0.6635593,0 1.336928,-0.244322 1.84375,-0.75 L 21.71875,21.84375 C 22.204979,21.356377 22.5,20.687585 22.5,20 c 0,-0.688729 -0.295021,-1.357521 -0.78125,-1.84375 L 4.625,1.0625 C 4.11875,0.55567797 3.4452383,0.3125 2.78125,0.3125 z m 17.3125,0 c -0.663988,0 -1.305678,0.24317797 -1.8125,0.75 -1.0125,1.0136441 -1.013644,2.6426059 0,3.65625 L 33.53125,20 l -15.25,15.28125 c -1.013644,1.0125 -1.0125,2.642606 0,3.65625 0.506822,0.506822 1.147797,0.75 1.8125,0.75 0.662415,0 1.336928,-0.244322 1.84375,-0.75 L 39.03125,21.84375 c 1.0125,-1.0125 1.0125,-2.675 0,-3.6875 L 21.9375,1.0625 c -0.50625,-0.50682203 -1.179762,-0.75 -1.84375,-0.75 z"
               transform="matrix(0.87407408,0,0,-0.87407408,-2.4421567,34.699232)"
               id="path22"
               style="fill:#000000;fill-opacity:1;fill-rule:nonzero;stroke:none" /></g></g></g></g></g></svg>