<?xml version="1.0" encoding="UTF-8" standalone="no"?>
<!-- Created with Inkscape (http://www.inkscape.org/) -->

<svg
   xmlns:dc="http://purl.org/dc/elements/1.1/"
   xmlns:cc="http://creativecommons.org/ns#"
   xmlns:rdf="http://www.w3.org/1999/02/22-rdf-syntax-ns#"
   xmlns:svg="http://www.w3.org/2000/svg"
   xmlns="http://www.w3.org/2000/svg"
   version="1.1"
   width="40"
   height="40"
   id="svg2"
   xml:space="preserve"><metadata
     id="metadata8"><rdf:RDF><cc:Work
         rdf:about=""><dc:format>image/svg+xml</dc:format><dc:type
           rdf:resource="http://purl.org/dc/dcmitype/StillImage" /><dc:title></dc:title></cc:Work></rdf:RDF></metadata><defs
     id="defs6"><clipPath
       id="clipPath16"><path
         d="M 0,55 55,55 55,0 0,0 0,55 z"
         id="path18" /></clipPath></defs><g
     transform="matrix(1.25,0,0,-1.25,-22.195344,52.852749)"
     id="g10"><g
       id="g12"><g
         clip-path="url(#clipPath16)"
         id="g14"><g
           transform="translate(20.0239,10.2822)"
           id="g20"><path
             d="m 6.8906781,0.24138057 c -0.5308475,0 -1.0626102,0.20318644 -1.4680678,0.60864407 -0.81,0.81091526 -0.81,2.12522036 9.152e-4,2.93522036 L 17.639424,15.999313 5.4235255,28.214296 c -0.8109152,0.810915 -0.8109152,2.125221 -9.152e-4,2.936136 0.8109153,0.810915 2.1252203,0.810915 2.9361356,0 L 22.041797,17.467381 c 0.389898,-0.388983 0.607729,-0.917085 0.607729,-1.468068 0,-0.550068 -0.217831,-1.078169 -0.607729,-1.468068 L 8.3587459,0.84910938 C 7.952373,0.44456701 7.4215256,0.24138057 6.8906781,0.24138057"
             id="path22"
             style="fill:#000000;fill-opacity:1;fill-rule:nonzero;stroke:none" /></g></g></g></g></svg>