<?xml version="1.0" encoding="UTF-8" standalone="no"?>
<!-- Created with Inkscape (http://www.inkscape.org/) -->

<svg
   xmlns:dc="http://purl.org/dc/elements/1.1/"
   xmlns:cc="http://creativecommons.org/ns#"
   xmlns:rdf="http://www.w3.org/1999/02/22-rdf-syntax-ns#"
   xmlns:svg="http://www.w3.org/2000/svg"
   xmlns="http://www.w3.org/2000/svg"
   version="1.1"
   width="40"
   height="40"
   id="svg2"
   xml:space="preserve"><metadata
     id="metadata8"><rdf:RDF><cc:Work
         rdf:about=""><dc:format>image/svg+xml</dc:format><dc:type
           rdf:resource="http://purl.org/dc/dcmitype/StillImage" /><dc:title></dc:title></cc:Work></rdf:RDF></metadata><defs
     id="defs6"><clipPath
       id="clipPath16"><path
         d="M 0,55 55,55 55,0 0,0 0,55 z"
         id="path18" /></clipPath></defs><g
     transform="matrix(1.25,0,0,-1.25,-9.06875,49.141252)"
     id="g10"><g
       id="g12"><g
         clip-path="url(#clipPath16)"
         id="g14"><g
           transform="translate(28.7686,36.6162)"
           id="g20" /><g
           transform="translate(14.4873,12.3613)"
           id="g24" /><g
           transform="matrix(0.78389831,0,0,0.78389831,1.5678177,1.5803516)"
           id="g2994"><path
             d="m 3.125,0.28125 c -1.5841521,0 -2.875,1.2898626 -2.875,2.875 l 0,33.71875 c 0,1.584152 1.2908479,2.84375 2.875,2.84375 l 33.75,0 c 1.583168,0 2.875,-1.259598 2.875,-2.84375 l 0,-33.71875 c 0,-1.5851374 -1.291832,-2.875 -2.875,-2.875 l -33.75,0 z m 0.71875,3.59375 32.3125,0 0,32.25 -32.3125,0 0,-32.25 z m 27.84375,2.1875 -11,1.03125 c -1.160169,0.1087659 -2.015016,1.1210805 -1.90625,2.28125 0.108766,1.160169 1.140572,2.015016 2.3125,1.90625 l 4.34375,-0.40625 -5,5.03125 c -1.031806,1.029846 -1.029846,2.687924 0,3.71875 0.515413,0.515413 1.168618,0.78125 1.84375,0.78125 0.676112,0 1.359587,-0.265837 1.875,-0.78125 l 5.03125,-5.03125 -0.40625,4.375 c -0.109746,1.161149 0.744121,2.203734 1.90625,2.3125 0.06467,0.0059 0.122828,0 0.1875,0 1.07884,0 1.990863,-0.812712 2.09375,-1.90625 L 34,8.34375 C 34.058792,7.7176112 33.851112,7.1001324 33.40625,6.65625 32.962368,6.2123676 32.317558,6.0046875 31.6875,6.0625 z M 7.875,19.84375 C 6.8972955,19.948994 6.0951702,20.733994 6,21.75 l -1,11 c -0.058792,0.625159 0.1488877,1.243618 0.59375,1.6875 0.3968485,0.397828 0.9424523,0.625 1.5,0.625 0.065652,0 0.1218485,-0.02537 0.1875,-0.03125 L 18.3125,34 c 1.161149,-0.108766 2.014036,-1.12206 1.90625,-2.28125 -0.109746,-1.162129 -1.149391,-2.019915 -2.3125,-1.90625 l -4.375,0.40625 L 19.25,24.5 c 1.030826,-1.030826 1.029846,-2.686944 0,-3.71875 -1.030826,-1.030826 -2.687924,-1.029846 -3.71875,0 L 9.8125,26.5 10.21875,22.125 c 0.108766,-1.160169 -0.7451006,-2.172484 -1.90625,-2.28125 -0.1455111,-0.01384 -0.2978279,-0.01504 -0.4375,0 z"
             transform="matrix(1.0205405,0,0,-1.0205405,7.2550001,48.134623)"
             id="path22"
             style="fill:#000000;fill-opacity:1;fill-rule:nonzero;stroke:none" /></g></g></g></g></svg>