<?xml version="1.0" encoding="UTF-8" standalone="no"?>
<!-- Created with Inkscape (http://www.inkscape.org/) -->

<svg
   xmlns:dc="http://purl.org/dc/elements/1.1/"
   xmlns:cc="http://creativecommons.org/ns#"
   xmlns:rdf="http://www.w3.org/1999/02/22-rdf-syntax-ns#"
   xmlns:svg="http://www.w3.org/2000/svg"
   xmlns="http://www.w3.org/2000/svg"
   version="1.1"
   width="40"
   height="40"
   id="svg2"
   xml:space="preserve"><metadata
     id="metadata8"><rdf:RDF><cc:Work
         rdf:about=""><dc:format>image/svg+xml</dc:format><dc:type
           rdf:resource="http://purl.org/dc/dcmitype/StillImage" /><dc:title></dc:title></cc:Work></rdf:RDF></metadata><defs
     id="defs6"><clipPath
       id="clipPath16"><path
         d="M 0,55 55,55 55,0 0,0 0,55 z"
         id="path18" /></clipPath></defs><g
     transform="matrix(1.25,0,0,-1.25,-8.385055,57.106749)"
     id="g10"><g
       id="g12"><g
         clip-path="url(#clipPath16)"
         id="g14"><g
           transform="translate(41.2598,18.0684)"
           id="g20" /><g
           transform="translate(18.3857,31.9683)"
           id="g24" /><g
           transform="translate(37.1592,31.9683)"
           id="g28" /><g
           transform="translate(30.0781,30.5786)"
           id="g32"><g
             transform="matrix(0.76276693,0,0,0.76276693,-5.4782535,1.4158473)"
             id="g2998"><path
               d="m 10.9375,6.78125 c -1.4902559,0 -4.1892085,0.3136224 -5.46875,2.375 -0.061975,0.1010666 -0.1321994,0.1801834 -0.1875,0.28125 -1.6809476,1.258565 -2.9019876,3.150387 -3.25,5.125 -0.017162,0.09821 -1.76799849,10.278405 -1.90625,11.53125 -0.32798978,2.899468 1.4356762,6.203862 6.15625,7 0.5463318,0.09439 1.1223131,0.125 1.65625,0.125 2.830819,0 5.20606,-1.354815 6.375,-3.625 0.07246,-0.141112 0.219372,-0.416289 0.40625,-0.75 0.221202,0.01812 0.432187,0.03125 0.65625,0.03125 0.602586,0 1.212989,-0.04925 1.78125,-0.1875 C 18.247007,28.417671 19.202909,27.897398 20,27.25 c 0.797091,0.649305 1.756807,1.141188 2.84375,1.40625 0.573982,0.140158 1.177711,0.21875 1.78125,0.21875 0.222156,0 0.434094,-0.01313 0.65625,-0.03125 0.185924,0.329897 0.335694,0.613655 0.40625,0.75 1.16894,2.28258 3.571617,3.625 6.40625,3.625 0.535844,0 1.075808,-0.03156 1.625,-0.125 4.71676,-0.796138 6.485193,-4.119387 6.15625,-7.03125 -0.137298,-1.24045 -1.890041,-11.401794 -1.90625,-11.5 -0.348966,-1.970799 -1.570006,-3.832324 -3.25,-5.09375 -0.05149,-0.095346 -0.09904,-0.2171541 -0.15625,-0.3125 -1.312913,-2.0852141 -4.017372,-2.375 -5.5,-2.375 l -0.28125,0 c -1.975566,0.064835 -3.461005,0.7655664 -3.625,0.84375 -0.621655,0.3146414 -1.079953,0.7140593 -1.4375,1.125 -0.14874,0.02193 -0.283468,0.020762 -0.375,0.03125 l -6.6875,0 C 16.572346,8.7736223 16.445031,8.7690692 16.3125,8.75 15.958767,8.3400128 15.48712,7.9594499 14.875,7.65625 14.286716,7.3616313 12.87014,6.8346437 11.21875,6.78125 c -0.09248,-0.00286 -0.180183,0 -0.28125,0 z m 0,4.09375 c 0.05435,0 0.101903,-0.0019 0.15625,0 0.988737,0.03242 1.83908,0.373618 1.96875,0.4375 0.257434,0.12967 0.308141,0.359801 0.53125,1.0625 0.25362,0.09439 2.353769,0.5 2.96875,0.5 l 6.875,0 c 0.562541,0 2.713223,-0.405608 2.96875,-0.5 0.225016,-0.702699 0.278583,-0.93283 0.53125,-1.0625 0.134438,-0.06388 0.978106,-0.405082 1.96875,-0.4375 0.05244,-0.0019 0.102856,0 0.15625,0 0.901972,0 1.880818,0.248715 2,0.4375 0.25362,0.414755 0.4375,0.96875 0.4375,0.96875 1.307192,0.608307 2.245855,1.914964 2.4375,3 0.191645,1.085036 1.766306,10.266984 1.875,11.25 0.161135,1.42256 -1.206136,2.235892 -2.78125,2.5 -0.320362,0.05625 -0.626672,0.09375 -0.9375,0.09375 -1.188009,0 -2.243713,-0.41942 -2.75,-1.40625 C 28.94139,26.929286 27.125,23.8125 27.125,23.8125 c -0.417615,0.512007 -1.440707,0.96875 -2.5,0.96875 -0.270782,0 -0.551252,-0.02701 -0.8125,-0.09375 -1.154638,-0.282224 -2.002743,-1.305046 -2.15625,-1.84375 l -3.3125,0 c -0.1516,0.538704 -1.001612,1.560573 -2.15625,1.84375 -0.262201,0.06674 -0.544578,0.09375 -0.8125,0.09375 -1.060246,0 -2.084292,-0.456743 -2.5,-0.96875 0,0 -1.815437,3.116786 -2.21875,3.90625 -0.506287,0.98683 -1.5307405,1.40625 -2.71875,1.40625 -0.3098741,0 -0.6474344,-0.0375 -0.96875,-0.09375 -1.5732068,-0.264108 -2.9423845,-1.07744 -2.78125,-2.5 0.1096477,-0.983016 1.6843083,-10.164964 1.875,-11.25 0.1916452,-1.085036 1.1303082,-2.392647 2.4375,-3 0,0 0.18388,-0.553995 0.4375,-0.96875 0.1182289,-0.188785 1.101842,-0.4375 2,-0.4375 z M 20,14.75 c -0.646445,0 -1.15625,0.507898 -1.15625,1.15625 l 0,1.21875 -1.21875,0 c -0.646445,0 -1.15625,0.508852 -1.15625,1.15625 0,0.646445 0.509805,1.1875 1.15625,1.1875 l 1.21875,0 0,1.1875 c 0,0.645492 0.509805,1.15625 1.15625,1.15625 0.645492,0 1.15625,-0.510758 1.15625,-1.15625 l 0,-1.1875 1.21875,0 c 0.646445,0 1.15625,-0.541055 1.15625,-1.1875 0,-0.647398 -0.509805,-1.15625 -1.15625,-1.15625 l -1.21875,0 0,-1.21875 C 21.15625,15.257898 20.645492,14.75 20,14.75 z m -8.78125,1.03125 c -1.3758408,0 -2.5,1.123206 -2.5,2.5 0,1.379655 1.1241592,2.5 2.5,2.5 1.376794,0 2.5,-1.120345 2.5,-2.5 0,-1.376794 -1.123206,-2.5 -2.5,-2.5 z m 17.90625,0 c -1.376794,0 -2.5,1.123206 -2.5,2.5 0,1.379655 1.123206,2.5 2.5,2.5 1.374887,0 2.46875,-1.120345 2.46875,-2.5 0,-1.376794 -1.093863,-2.5 -2.46875,-2.5 z"
               transform="matrix(1.0488132,0,0,-1.0488132,-23.456448,17.949063)"
               id="path22"
               style="fill:#000000;fill-opacity:1;fill-rule:nonzero;stroke:none" /></g></g></g></g></g></svg>