<?xml version="1.0" encoding="UTF-8" standalone="no"?>
<!-- Created with Inkscape (http://www.inkscape.org/) -->

<svg
   xmlns:dc="http://purl.org/dc/elements/1.1/"
   xmlns:cc="http://creativecommons.org/ns#"
   xmlns:rdf="http://www.w3.org/1999/02/22-rdf-syntax-ns#"
   xmlns:svg="http://www.w3.org/2000/svg"
   xmlns="http://www.w3.org/2000/svg"
   version="1.1"
   width="40"
   height="40"
   id="svg2"
   xml:space="preserve"><metadata
     id="metadata8"><rdf:RDF><cc:Work
         rdf:about=""><dc:format>image/svg+xml</dc:format><dc:type
           rdf:resource="http://purl.org/dc/dcmitype/StillImage" /><dc:title></dc:title></cc:Work></rdf:RDF></metadata><defs
     id="defs6"><clipPath
       id="clipPath16"><path
         d="M 0,55 55,55 55,0 0,0 0,55 z"
         id="path18" /></clipPath></defs><g
     transform="matrix(1.25,0,0,-1.25,25.809807,-4.388751)"
     id="g20" /><g
     transform="matrix(1.25,0,0,-1.25,30.904932,2.867749)"
     id="g24" /><path
     d="m 21.125,0.40625 c -2.452278,0 -4.4375,2.1300371 -4.4375,4.75 l 0,1.78125 c -1.828061,-0.3596028 -3.741997,-0.172447 -5.40625,0.53125 -1.104979,0.4671928 -2.0932574,1.1547881 -2.9375,2 C 7.4927225,10.312993 6.8412235,11.299333 6.375,12.40625 5.8913294,13.547092 5.625,14.751568 5.625,16 c 0,1.249401 0.2663294,2.453877 0.75,3.59375 0.3731727,0.883983 0.8777225,1.713448 1.5,2.4375 C 6.8931197,22.51589 5.9675371,23.214846 5.15625,24.125 3.9116949,25.527548 2.8897617,27.435593 2.125,29.78125 1.4736441,31.778935 1.1480667,33.755911 0.96875,35.0625 c -0.19870233,1.434534 -0.24903072,2.397526 -0.25,2.40625 -0.0232627,0.549582 0.18351165,1.103565 0.5625,1.5 0.3809269,0.396435 0.8908263,0.625 1.4375,0.625 l 24.3125,0 c 0.544735,0 1.085885,-0.229534 1.46875,-0.625 0.378988,-0.397405 0.584793,-0.956234 0.5625,-1.5 0,-0.0097 -0.04936,-0.995212 -0.25,-2.4375 C 28.542071,33.114984 28.140657,31.336711 27.625,29.75 26.8583,27.405312 25.839274,25.531425 24.59375,24.125 24.375662,23.880742 24.151245,23.64857 23.875,23.40625 l 10.96875,0 c 2.453247,0 4.4375,-2.160318 4.4375,-4.78125 l 0,-13.46875 c 0,-2.6199629 -1.984253,-4.75 -4.4375,-4.75 l -13.71875,0 z m 0,4.0625 13.71875,0 c 0.145392,0 0.40625,0.2464778 0.40625,0.6875 l 0,13.46875 c 0,0.440053 -0.260858,0.71875 -0.40625,0.71875 l -13.71875,0 c -0.16187,0 -0.40625,-0.292267 -0.40625,-0.71875 l 0,-13.46875 c 0,-0.4264831 0.24438,-0.6875 0.40625,-0.6875 z m 3.5625,1.8125 c -1.242617,0 -2.25,1.0064142 -2.25,2.25 0,1.2435858 1.007383,2.25 2.25,2.25 l 6.9375,0 c 1.243586,0 2.25,-1.0064142 2.25,-2.25 0,-1.2435858 -1.006414,-2.25 -2.25,-2.25 l -6.9375,0 z M 14.75,10.8125 c 0.652446,-0.01333 1.322977,0.08617 1.9375,0.3125 l 0,7.5 c 0,0.90143 0.236785,1.803554 0.6875,2.5625 l -0.625,0.78125 c -0.476886,0.603861 -0.585371,1.433904 -0.25,2.125 0.335371,0.690127 1.042892,1.15625 1.8125,1.15625 1.254248,0 2.344926,0.513739 3.28125,1.5625 0.868475,0.98188 1.592362,2.403289 2.1875,4.21875 0.441022,1.357961 0.798623,2.853194 1.03125,4.5 l -19.84375,0 c 0.1618697,-1.150535 0.4533263,-2.826054 1,-4.5 0.5912606,-1.817399 1.3483369,-3.237839 2.21875,-4.21875 0.9363242,-1.050699 1.993814,-1.5625 3.25,-1.5625 0.78027,0 1.471314,-0.45643 1.8125,-1.15625 0.335371,-0.690127 0.258136,-1.5192 -0.21875,-2.125 l -1.65625,-2.125 c -0.0504,-0.06397 -0.127405,-0.127405 -0.1875,-0.1875 -0.475916,-0.473008 -0.832044,-1.007569 -1.09375,-1.625 C 9.823321,17.388618 9.6875,16.704666 9.6875,16 c 0,-0.705636 0.135821,-1.392495 0.40625,-2.03125 0.259767,-0.6184 0.644237,-1.175487 1.125,-1.65625 0.477855,-0.476886 1.033972,-0.861356 1.65625,-1.125 0.595622,-0.251528 1.222554,-0.361672 1.875,-0.375 z m 9.9375,2.15625 c -1.242617,0 -2.25,1.006414 -2.25,2.25 0,1.242617 1.007383,2.25 2.25,2.25 l 6.9375,0 c 1.243586,0 2.25,-1.007383 2.25,-2.25 0,-1.243586 -1.006414,-2.25 -2.25,-2.25 l -6.9375,0 z"
     id="path22"
     style="fill:#000000;fill-opacity:1;fill-rule:nonzero;stroke:none" /></svg>