<?xml version="1.0" encoding="UTF-8" standalone="no"?>
<!-- Created with Inkscape (http://www.inkscape.org/) -->

<svg
   xmlns:dc="http://purl.org/dc/elements/1.1/"
   xmlns:cc="http://creativecommons.org/ns#"
   xmlns:rdf="http://www.w3.org/1999/02/22-rdf-syntax-ns#"
   xmlns:svg="http://www.w3.org/2000/svg"
   xmlns="http://www.w3.org/2000/svg"
   version="1.1"
   width="40"
   height="40"
   id="svg2"
   xml:space="preserve"><metadata
     id="metadata8"><rdf:RDF><cc:Work
         rdf:about=""><dc:format>image/svg+xml</dc:format><dc:type
           rdf:resource="http://purl.org/dc/dcmitype/StillImage" /><dc:title></dc:title></cc:Work></rdf:RDF></metadata><defs
     id="defs6"><clipPath
       id="clipPath16"><path
         d="M 0,55 55,55 55,0 0,0 0,55 z"
         id="path18" /></clipPath></defs><g
     transform="matrix(1.25,0,0,-1.25,-6.937125,46.259624)"
     id="g10"><g
       id="g12"><g
         clip-path="url(#clipPath16)"
         id="g14"><g
           transform="translate(28.0977,48.6807)"
           id="g20"><path
             d="m -6.124839,-12.220901 -0.8434915,0 c -8.3330165,0 -15.1120845,-6.77836 -15.1120845,-15.11067 l 0,-4.471495 c 0,-0.350983 0.102606,-0.69489 0.295081,-0.988555 2.870843,-4.385873 3.255084,-4.77153 3.381042,-4.897488 0.122419,-0.122419 0.261114,-0.215826 0.404763,-0.295788 l 0,-1.206504 c 0,-0.623419 0.32197,-1.202258 0.850567,-1.532013 l 3.415009,-2.128542 c 0.291542,-0.18186 0.622712,-0.273144 0.954589,-0.273144 0.301449,0 0.603606,0.07572 0.876042,0.226441 0.573886,0.318432 0.929115,0.922745 0.929115,1.578716 l 0,11.423932 c 0,0.65597 -0.355229,1.260991 -0.929115,1.578716 -0.573178,0.317017 -1.273729,0.300741 -1.830631,-0.0467 l -3.415009,-2.127835 c -0.517275,-0.321971 -0.830754,-0.883826 -0.844906,-1.491678 -0.159217,0.240593 -0.318433,0.481186 -0.475526,0.720364 l 0,3.931576 c 0,6.341047 5.159309,11.499649 11.5010635,11.499649 l 0.8434915,0 c 6.34033892,0 11.4989406,-5.158602 11.4989406,-11.499649 l 0,-3.931576 c -0.1210043,-0.183983 -0.2441314,-0.370089 -0.3665509,-0.554779 -0.062271,0.541334 -0.3545212,1.033843 -0.8236779,1.326093 l -3.4128856,2.127835 c -0.5561949,0.348152 -1.25745337,0.364428 -1.831339,0.0467 -0.5731779,-0.317725 -0.9284067,-0.922746 -0.9284067,-1.578716 l 0,-11.423932 c 0,-0.655971 0.3552288,-1.260284 0.9284067,-1.578716 0.2731441,-0.150725 0.57530088,-0.226441 0.87675003,-0.226441 0.33116949,0 0.66304661,0.09128 0.95458897,0.273144 l 3.4128856,2.128542 c 0.5285974,0.329755 0.8505678,0.908594 0.8505678,1.532013 l 0,1.276559 c 0.097653,0.06581 0.1910593,0.141526 0.2773898,0.228564 0.1259576,0.125958 0.5080762,0.510199 3.3782118,4.894657 0.191767,0.294373 0.2943729,0.637572 0.2943729,0.988555 l 0,4.471495 c 0,8.33231 -6.7783601,15.11067 -15.1092541,15.11067"
             id="path22"
             style="fill:#000000;fill-opacity:1;fill-rule:nonzero;stroke:none" /></g></g></g></g></svg>