<?xml version="1.0" encoding="UTF-8" standalone="no"?>
<!-- Created with Inkscape (http://www.inkscape.org/) -->

<svg
   xmlns:dc="http://purl.org/dc/elements/1.1/"
   xmlns:cc="http://creativecommons.org/ns#"
   xmlns:rdf="http://www.w3.org/1999/02/22-rdf-syntax-ns#"
   xmlns:svg="http://www.w3.org/2000/svg"
   xmlns="http://www.w3.org/2000/svg"
   version="1.1"
   width="40"
   height="40"
   id="svg3020">
  <metadata
     id="metadata3026">
    <rdf:RDF>
      <cc:Work
         rdf:about="">
        <dc:format>image/svg+xml</dc:format>
        <dc:type
           rdf:resource="http://purl.org/dc/dcmitype/StillImage" />
        <dc:title></dc:title>
      </cc:Work>
    </rdf:RDF>
  </metadata>
  <defs
     id="defs3024" />
  <path
     d="M 5.4225778,37.801614 C 4.9611258,37.63777 4.5465383,37.267784 4.3286794,36.825397 L 4.1407992,36.443885 4.1006502,27.950749 4.0605013,19.457613 3.6427514,19.771518 C 2.9055987,20.32543 2.132345,20.389711 1.3471462,19.962352 0.18164116,19.328004 -0.00473084,17.692225 0.98207204,16.75811 1.4900295,16.277274 18.675373,2.5071522 19.036051,2.2919756 19.342152,2.1093599 19.489459,2.076404 19.999626,2.076404 c 0.510542,0 0.657248,0.032873 0.963574,0.2159113 0.361296,0.215884 17.547693,13.9865207 18.053978,14.4657877 0.989904,0.937076 0.800547,2.569839 -0.372046,3.208044 -0.797637,0.434128 -1.626769,0.344034 -2.382702,-0.258905 -0.219449,-0.175036 -0.408691,-0.308555 -0.420536,-0.296711 -0.01184,0.01185 -0.02296,3.764576 -0.0247,8.3394 -0.0035,9.249932 0.01939,8.848257 -0.539954,9.467383 -0.16011,0.177222 -0.438109,0.400907 -0.617777,0.497078 l -0.326669,0.174855 -5.741296,0 c -5.732444,0 -5.741792,-2.41e-4 -6.062488,-0.173634 -0.415459,-0.224594 -0.797721,-0.626857 -0.979579,-1.030834 -0.133268,-0.296039 -0.146394,-0.703196 -0.16761,-5.199286 l -0.02302,-4.878095 -1.399902,0 -1.399902,0 -0.02244,4.918244 -0.02244,4.918243 -0.237864,0.429433 c -0.246473,0.444978 -0.668906,0.795911 -1.159256,0.963044 -0.197256,0.06723 -1.811698,0.09128 -5.821594,0.08669 -4.6013947,-0.0053 -5.6039877,-0.02599 -5.8728232,-0.121442 z M 14.4768,28.956111 c 0.02236,-4.944701 0.02291,-4.959312 0.200323,-5.291031 0.225008,-0.42072 0.732885,-0.858714 1.135647,-0.979384 0.21751,-0.06517 1.482593,-0.09319 4.207077,-0.09319 l 3.896035,0 0.430733,0.223769 c 0.514524,0.2673 0.897106,0.783668 1.026033,1.384833 0.05709,0.266223 0.08723,2.014404 0.08723,5.060072 l 0,4.653323 3.131616,0 3.131616,0 -0.0023,-8.933136 -0.0023,-8.933136 -5.812328,-4.657276 c -3.196723,-2.5615014 -5.861397,-4.6536268 -5.92144,-4.6491687 -0.06004,0.00446 -2.755176,2.1322863 -5.989187,4.7285047 l -5.8800122,4.720398 0,8.808374 c 0,4.844607 0.024089,8.832466 0.053532,8.861908 0.029443,0.02944 1.4556802,0.05353 3.1694162,0.05353 l 3.115885,0 0.02242,-4.958392 z"
     id="path3030"
     style="fill:#000000;fill-opacity:1" />
</svg>
