<?xml version="1.0" encoding="UTF-8" standalone="no"?>
<!-- Created with Inkscape (http://www.inkscape.org/) -->

<svg
   xmlns:dc="http://purl.org/dc/elements/1.1/"
   xmlns:cc="http://creativecommons.org/ns#"
   xmlns:rdf="http://www.w3.org/1999/02/22-rdf-syntax-ns#"
   xmlns:svg="http://www.w3.org/2000/svg"
   xmlns="http://www.w3.org/2000/svg"
   version="1.1"
   width="40"
   height="40"
   id="svg2"
   xml:space="preserve"><metadata
     id="metadata8"><rdf:RDF><cc:Work
         rdf:about=""><dc:format>image/svg+xml</dc:format><dc:type
           rdf:resource="http://purl.org/dc/dcmitype/StillImage" /><dc:title></dc:title></cc:Work></rdf:RDF></metadata><defs
     id="defs6"><clipPath
       id="clipPath16"><path
         d="M 0,55 55,55 55,0 0,0 0,55 z"
         id="path18" /></clipPath></defs><g
     transform="matrix(1.25,0,0,-1.25,-10.301875,50.851251)"
     id="g10"><g
       id="g12"><g
         clip-path="url(#clipPath16)"
         id="g14"><g
           transform="translate(45.8945,33.437)"
           id="g20"><path
             d="M -6.6096313,-4.3219059 -20.503178,6.655378 c -0.673864,0.5332034 -1.624962,0.5332034 -2.299644,0 L -36.698004,-4.3219059 c -0.444064,-0.3516526 -0.704123,-0.8873094 -0.704123,-1.4548602 l 0,-16.9365679 c 0,-1.023881 0.830064,-1.853945 1.853945,-1.853945 1.024699,0 1.854763,0.830064 1.854763,1.853945 l 0,16.0386272 12.040419,9.5117924 12.0396017,-9.5117924 0,-14.1830472 -9.0669107,0 c -1.023881,0 -1.853945,-0.830881 -1.853945,-1.85558 0,-1.023881 0.830064,-1.853945 1.853945,-1.853945 l 10.9224912,0 c 1.0238814,0 1.853945,0.830064 1.853945,1.853945 l 0,16.9365679 c 0,0.5675508 -0.2600594,1.1032076 -0.7057585,1.4548602"
             id="path22"
             style="fill:#000000;fill-opacity:1;fill-rule:nonzero;stroke:none" /></g></g></g></g></svg>