<?xml version="1.0" encoding="UTF-8" standalone="no"?>
<!-- Created with Inkscape (http://www.inkscape.org/) -->

<svg
   xmlns:dc="http://purl.org/dc/elements/1.1/"
   xmlns:cc="http://creativecommons.org/ns#"
   xmlns:rdf="http://www.w3.org/1999/02/22-rdf-syntax-ns#"
   xmlns:svg="http://www.w3.org/2000/svg"
   xmlns="http://www.w3.org/2000/svg"
   version="1.1"
   width="40"
   height="40"
   id="svg3105">
  <metadata
     id="metadata3111">
    <rdf:RDF>
      <cc:Work
         rdf:about="">
        <dc:format>image/svg+xml</dc:format>
        <dc:type
           rdf:resource="http://purl.org/dc/dcmitype/StillImage" />
        <dc:title></dc:title>
      </cc:Work>
    </rdf:RDF>
  </metadata>
  <defs
     id="defs3109" />
  <path
     d="M 19.525674,39.552564 C 18.924545,39.357424 5.6320831,33.357691 5.4694508,33.208096 5.3625306,33.109747 5.2093758,32.886983 5.1291069,32.713063 4.9905444,32.412839 4.9830755,32.021889 4.9814271,24.98297 c -0.00153,-6.515521 0.01309,-7.449359 0.1206183,-7.706711 0.1627958,-0.389625 0.3961629,-0.628714 0.8262966,-0.846553 0.5167055,-0.261685 5.362113,-2.412975 5.434806,-2.412975 0.03379,0 0.586916,0.526352 1.229163,1.169672 l 1.167722,1.169672 -1.662863,0.740742 c -0.914574,0.407408 -1.650404,0.753201 -1.635177,0.768428 0.08014,0.08014 9.436799,4.21502 9.538007,4.21502 0.101208,0 9.457866,-4.134879 9.538007,-4.21502 0.01523,-0.01523 -0.720603,-0.36102 -1.635177,-0.768428 l -1.662863,-0.740742 1.167721,-1.169672 c 0.642247,-0.64332 1.195371,-1.169672 1.229164,-1.169672 0.07269,0 4.9181,2.15129 5.434806,2.412975 0.430133,0.217839 0.663501,0.456928 0.826296,0.846553 0.107529,0.257352 0.122145,1.19119 0.120619,7.706711 -0.0016,7.038919 -0.0091,7.429869 -0.14768,7.730093 -0.08027,0.17392 -0.233424,0.396684 -0.340344,0.495033 -0.166249,0.152921 -13.290664,6.065554 -14.048256,6.328829 -0.302419,0.105095 -0.662894,0.110989 -0.956619,0.01564 z m -1.106759,-9.319845 0,-5.365824 -1.600849,-0.716909 c -0.880467,-0.3943 -3.192804,-1.427175 -5.138527,-2.295277 l -3.5376778,-1.578368 0,5.390444 0,5.390443 5.0792358,2.268142 c 2.79358,1.247478 5.105917,2.269274 5.138527,2.270658 0.03261,0.0014 0.05929,-2.412105 0.05929,-5.363309 z m 8.439042,3.052412 5.000182,-2.228139 0,-5.390325 0,-5.390326 -3.537678,1.578368 c -1.945723,0.868102 -4.25806,1.900977 -5.138527,2.295277 l -1.600849,0.716909 0,5.374282 c 0,5.085126 0.0074,5.371533 0.138345,5.323188 0.07609,-0.0281 2.388427,-1.053757 5.138527,-2.279234 z m -7.490391,-15.91465 c -0.365479,-0.156458 -6.669996,-6.439517 -6.894354,-6.870889 -0.674175,-1.2962297 0.76847,-2.7709781 2.05543,-2.1011688 0.161317,0.083959 1.093729,0.9558474 2.072025,1.9375308 l 1.778721,1.784877 0.03953,-5.3170998 c 0.03865,-5.1995265 0.04318,-5.3240916 0.204676,-5.633317 0.09083,-0.17391938 0.316236,-0.42294028 0.500899,-0.5533798 0.293862,-0.20757356 0.40309,-0.23716277 0.87551,-0.23716277 0.47242,0 0.581648,0.0295892 0.87551,0.23716277 0.184663,0.13043952 0.410067,0.37946042 0.500899,0.5533798 0.161498,0.3092254 0.166023,0.4337905 0.204676,5.633317 l 0.03953,5.3170998 1.778721,-1.784877 c 0.978297,-0.9816834 1.910707,-1.853572 2.072025,-1.9375308 1.28696,-0.6698093 2.729604,0.8049391 2.055429,2.1011688 -0.23755,0.456736 -6.532516,6.717616 -6.911577,6.874152 -0.368658,0.15224 -0.887566,0.150883 -1.247644,-0.0033 z"
     id="path3115"
     style="fill:#000000;fill-opacity:1" />
</svg>
