<?xml version="1.0" encoding="UTF-8" standalone="no"?>
<!-- Created with Inkscape (http://www.inkscape.org/) -->

<svg
   xmlns:dc="http://purl.org/dc/elements/1.1/"
   xmlns:cc="http://creativecommons.org/ns#"
   xmlns:rdf="http://www.w3.org/1999/02/22-rdf-syntax-ns#"
   xmlns:svg="http://www.w3.org/2000/svg"
   xmlns="http://www.w3.org/2000/svg"
   version="1.1"
   width="40"
   height="40"
   id="svg2"
   xml:space="preserve"><metadata
     id="metadata8"><rdf:RDF><cc:Work
         rdf:about=""><dc:format>image/svg+xml</dc:format><dc:type
           rdf:resource="http://purl.org/dc/dcmitype/StillImage" /><dc:title></dc:title></cc:Work></rdf:RDF></metadata><defs
     id="defs6"><clipPath
       id="clipPath16"><path
         d="M 0,55 55,55 55,0 0,0 0,55 z"
         id="path18" /></clipPath></defs><g
     transform="matrix(1.25,0,0,-1.25,43.2125,16.994998)"
     id="g20" /><path
     d="m 37.621838,15.6746 c -1.366059,0 -2.474619,1.107468 -2.474619,2.474619 l 0,12.655688 -30.2966206,0 0,-12.655688 c 0,-1.367151 -1.1074682,-2.474619 -2.4746186,-2.474619 -1.3660593,0 -2.47352757,1.107468 -2.47352757,2.474619 l 0,15.130307 c 0,1.36715 1.10746827,2.47571 2.47352757,2.47571 l 35.2458582,0 c 1.36715,0 2.47571,-1.10856 2.47571,-2.47571 l 0,-15.130307 c 0,-1.367151 -1.10856,-2.474619 -2.47571,-2.474619"
     id="path22"
     style="fill:#000000;fill-opacity:1;fill-rule:nonzero;stroke:none" /><path
     d="m 18.248345,26.086438 c 0,0 0.0011,0.0022 0.0022,0.0022 0.0022,0.0022 0.0044,0.0044 0.0065,0.0055 0.112383,0.111292 0.23786,0.213856 0.370974,0.303326 0.05892,0.03819 0.122204,0.06656 0.184397,0.100381 0.07965,0.04255 0.156027,0.09165 0.241133,0.125477 0.0055,0.0033 0.0098,0.0065 0.01418,0.0087 0.07529,0.02946 0.154937,0.04583 0.231314,0.06874 0.07201,0.02073 0.140752,0.04801 0.216038,0.06328 0.160392,0.03164 0.321875,0.0491 0.484449,0.0491 0.162574,0 0.324057,-0.01746 0.483358,-0.0491 0.07747,-0.01528 0.149481,-0.04364 0.222585,-0.06547 0.04583,-0.01309 0.08947,-0.024 0.134206,-0.03928 0.02946,-0.01091 0.0611,-0.01527 0.09056,-0.02728 0.0055,-0.0022 0.0098,-0.0055 0.01527,-0.0087 0.08729,-0.03491 0.165848,-0.08511 0.24768,-0.129841 0.05892,-0.03164 0.121113,-0.05892 0.17785,-0.09602 0.126568,-0.08511 0.241134,-0.181123 0.350244,-0.285869 0.0076,-0.0076 0.01855,-0.01418 0.02728,-0.02291 l 0.0044,-0.0044 7.098707,-7.10089 c 0.965625,-0.966716 0.965625,-2.533538 -0.0011,-3.499163 -0.966716,-0.965625 -2.532447,-0.965625 -3.499163,0.0011 l -2.878326,2.878326 0,-11.6442372 c 0,-1.3671504 -1.107468,-2.4746186 -2.473528,-2.4746186 -1.366059,0 -2.474618,1.1074682 -2.474618,2.4746186 l 0,11.6453282 -2.879418,-2.879417 c -0.965625,-0.966716 -2.532447,-0.967807 -3.499163,0 -0.966716,0.965625 -0.966716,2.531356 0,3.499163 l 7.101981,7.101981 z"
     id="path26"
     style="fill:#000000;fill-opacity:1;fill-rule:nonzero;stroke:none" /></svg>