<?xml version="1.0" encoding="UTF-8" standalone="no"?>
<!-- Created with Inkscape (http://www.inkscape.org/) -->

<svg
   xmlns:dc="http://purl.org/dc/elements/1.1/"
   xmlns:cc="http://creativecommons.org/ns#"
   xmlns:rdf="http://www.w3.org/1999/02/22-rdf-syntax-ns#"
   xmlns:svg="http://www.w3.org/2000/svg"
   xmlns="http://www.w3.org/2000/svg"
   xmlns:sodipodi="http://sodipodi.sourceforge.net/DTD/sodipodi-0.dtd"
   xmlns:inkscape="http://www.inkscape.org/namespaces/inkscape"
   version="1.1"
   width="40"
   height="40"
   id="svg2"
   xml:space="preserve"
   inkscape:version="0.48.4 r9939"
   sodipodi:docname="Information_Circle_40x40.svg"><sodipodi:namedview
     pagecolor="#ffffff"
     bordercolor="#666666"
     borderopacity="1"
     objecttolerance="10"
     gridtolerance="10"
     guidetolerance="10"
     inkscape:pageopacity="0"
     inkscape:pageshadow="2"
     inkscape:window-width="856"
     inkscape:window-height="908"
     id="namedview17"
     showgrid="false"
     inkscape:zoom="5.9"
     inkscape:cx="20"
     inkscape:cy="20"
     inkscape:window-x="0"
     inkscape:window-y="0"
     inkscape:window-maximized="0"
     inkscape:current-layer="svg2" /><metadata
     id="metadata8"><rdf:RDF><cc:Work
         rdf:about=""><dc:format>image/svg+xml</dc:format><dc:type
           rdf:resource="http://purl.org/dc/dcmitype/StillImage" /><dc:title></dc:title></cc:Work></rdf:RDF></metadata><defs
     id="defs6"><clipPath
       id="clipPath16"><path
         d="M 0,55 55,55 55,0 0,0 0,55 z"
         id="path18" /></clipPath></defs><g
     id="g20"
     transform="matrix(1.25,0,0,-1.25,24.911875,10.382249)" /><g
     id="g24"
     transform="matrix(1.25,0,0,-1.25,24.911875,-0.925126)" /><path
     style="fill:#000000;fill-opacity:1.0;fill-rule:nonzero;stroke:none"
     d="M 20 0.25 C 9.1147776 0.25 0.25 9.1147778 0.25 20 C 0.25 30.884232 9.1147776 39.75 20 39.75 C 30.882251 39.75 39.75 30.884232 39.75 20 C 39.75 9.1147778 30.882251 0.25 20 0.25 z M 20 4.59375 C 28.486314 4.59375 35.40625 11.512696 35.40625 20 C 35.40625 28.487304 28.486314 35.40625 20 35.40625 C 11.512696 35.40625 4.59375 28.487304 4.59375 20 C 4.59375 11.512696 11.512696 4.59375 20 4.59375 z M 20 7.3125 C 18.199333 7.3125 16.75 8.7598516 16.75 10.5625 C 16.75 12.362177 18.199333 13.84375 20 13.84375 C 21.800667 13.84375 23.25 12.362177 23.25 10.5625 C 23.25 8.7598516 21.800667 7.3125 20 7.3125 z M 20 16.28125 C 18.260742 16.28125 16.84375 17.666001 16.84375 19.40625 L 16.84375 30.96875 C 16.84375 32.706028 18.260742 34.09375 20 34.09375 C 21.738268 34.09375 23.15625 32.706028 23.15625 30.96875 L 23.15625 19.40625 C 23.15625 17.666001 21.738268 16.28125 20 16.28125 z "
     id="path22" /></svg>