<?xml version="1.0" encoding="UTF-8" standalone="no"?>
<!-- Created with Inkscape (http://www.inkscape.org/) -->

<svg
   xmlns:dc="http://purl.org/dc/elements/1.1/"
   xmlns:cc="http://creativecommons.org/ns#"
   xmlns:rdf="http://www.w3.org/1999/02/22-rdf-syntax-ns#"
   xmlns:svg="http://www.w3.org/2000/svg"
   xmlns="http://www.w3.org/2000/svg"
   version="1.1"
   width="40"
   height="40"
   id="svg2"
   xml:space="preserve"><metadata
     id="metadata8"><rdf:RDF><cc:Work
         rdf:about=""><dc:format>image/svg+xml</dc:format><dc:type
           rdf:resource="http://purl.org/dc/dcmitype/StillImage" /><dc:title></dc:title></cc:Work></rdf:RDF></metadata><defs
     id="defs6"><clipPath
       id="clipPath16"><path
         d="M 0,55 55,55 55,0 0,0 0,55 z"
         id="path18" /></clipPath></defs><g
     transform="matrix(1.25,0,0,-1.25,12.05625,20.423501)"
     id="g20" /><g
     transform="matrix(1.25,0,0,-1.25,20.783,33.005376)"
     id="g24" /><path
     d="m 20,0.28125 c -1.683544,2.4497e-4 -3.375583,0.33858581 -4.9375,1 C 13.553495,1.9201271 12.193379,2.8398305 11.03125,4 9.8701004,5.1611494 8.983607,6.5193061 8.34375,8.03125 c -0.6604343,1.5619174 -1,3.198331 -1,4.90625 0,1.705958 0.3385858,3.370683 1,4.9375 0.6408369,1.511944 1.5489941,2.869332 2.65625,3.96875 0.199895,0.263585 0.627966,1.265308 0.90625,1.9375 0.887765,2.139063 1.630588,4.011494 3.15625,4.65625 l 0.40625,0.15625 9.0625,0 0.40625,-0.15625 c 1.522722,-0.645736 2.269465,-2.518167 3.15625,-4.65625 0.278284,-0.672193 0.72508,-1.667267 0.875,-1.875 1.16017,-1.161149 2.045684,-2.520286 2.6875,-4.03125 0.659455,-1.565836 1,-3.232521 1,-4.9375 0,-1.706939 -0.339566,-3.3716631 -1,-4.9375 C 31.018352,6.4939354 30.101589,5.1660488 28.9375,4 27.77635,2.8408104 26.446504,1.9220869 24.9375,1.28125 23.373133,0.61983583 21.683544,0.28100503 20,0.28125 z M 20,4.5 c 1.122934,0 2.243565,0.2177569 3.28125,0.65625 1.00633,0.4272246 1.913401,1.0393803 2.6875,1.8125 0.777039,0.7780191 1.387235,1.6850901 1.8125,2.6875 0.438983,1.041605 0.65625,2.141658 0.65625,3.28125 0,1.137632 -0.218247,2.242585 -0.65625,3.28125 -0.427225,1.007309 -1.039381,1.9134 -1.8125,2.6875 -0.668274,0.667293 -1.090546,1.690916 -1.75,3.28125 -0.250848,0.604582 -0.678602,1.613294 -1,2.1875 l -6.4375,0 c -0.322378,-0.575185 -0.748173,-1.581938 -1,-2.1875 -0.658475,-1.588374 -1.082707,-2.614937 -1.75,-3.28125 -0.77312,-0.77214 -1.386255,-1.681171 -1.8125,-2.6875 -0.438983,-1.040625 -0.65625,-2.142638 -0.65625,-3.28125 0,-1.140572 0.218247,-2.243565 0.65625,-3.28125 0.427225,-1.0073093 1.0384,-1.9134004 1.8125,-2.6875 0.776059,-0.7750795 1.681171,-1.3852754 2.6875,-1.8125 C 17.756436,4.716777 18.877066,4.5 20,4.5 z M 16.375,30 c -1.166049,0 -2.125,0.958951 -2.125,2.125 0,1.166049 0.958951,2.09375 2.125,2.09375 l 7.25,0 c 1.165069,0 2.125,-0.927701 2.125,-2.09375 C 25.75,30.958951 24.790069,30 23.625,30 l -7.25,0 z m 1.8125,5.5 c -1.166049,0 -2.09375,0.926721 -2.09375,2.09375 0,1.165069 0.927701,2.125 2.09375,2.125 l 3.625,0 c 1.165069,0 2.09375,-0.959931 2.09375,-2.125 0,-1.167029 -0.928681,-2.09375 -2.09375,-2.09375 l -3.625,0 z"
     id="path22"
     style="fill:#000000;fill-opacity:1;fill-rule:nonzero;stroke:none" /></svg>