<?xml version="1.0" encoding="UTF-8" standalone="no"?>
<!-- Created with Inkscape (http://www.inkscape.org/) -->

<svg
   xmlns:dc="http://purl.org/dc/elements/1.1/"
   xmlns:cc="http://creativecommons.org/ns#"
   xmlns:rdf="http://www.w3.org/1999/02/22-rdf-syntax-ns#"
   xmlns:svg="http://www.w3.org/2000/svg"
   xmlns="http://www.w3.org/2000/svg"
   version="1.1"
   width="40"
   height="40"
   id="svg2"
   xml:space="preserve"><metadata
     id="metadata8"><rdf:RDF><cc:Work
         rdf:about=""><dc:format>image/svg+xml</dc:format><dc:type
           rdf:resource="http://purl.org/dc/dcmitype/StillImage" /><dc:title></dc:title></cc:Work></rdf:RDF></metadata><defs
     id="defs6"><clipPath
       id="clipPath16"><path
         d="M 0,55 55,55 55,0 0,0 0,55 z"
         id="path18" /></clipPath></defs><path
     d="M 29.03125,0.46875 C 27.49089,0.46875 26.25,1.8876854 26.25,3.625 l 0,13.25 c 0,1.737315 1.24089,3.15625 2.78125,3.15625 l 2.5625,0 c -0.142131,2.02434 1.279562,5.24561 3.46875,9.90625 0.356674,0.758422 0.715731,1.49375 1.03125,2.1875 0.362553,0.797617 0.131091,1.115863 0.0625,1.21875 -0.634958,0.951457 -3.501139,1.410064 -5.1875,1.4375 -0.657192,0.01105 -0.918855,-0.09219 -1,-0.125 L 29.4375,33.8125 c 0.0068,-0.06134 0.03125,-0.124337 0.03125,-0.1875 l 0,-11.71875 -3.34375,0 0,10.0625 -20.09375,0 0,-12.21875 18.125,0 0,-3.34375 -19.78125,0 c -0.9201006,0 -1.6875,0.766419 -1.6875,1.6875 l 0,15.53125 c 0,0.05185 -0.00463,0.105604 0,0.15625 L 0.375,37.5 c -0.2567267,0.411547 -0.26641949,0.920445 -0.03125,1.34375 0.23418962,0.424285 0.6712129,0.6875 1.15625,0.6875 l 29.15625,0 C 31.393114,39.53125 32,38.924364 32,38.1875 32,37.861202 31.882495,37.575 31.6875,37.34375 l -0.3125,-0.5 c 0.01279,2.9e-5 0.01809,0 0.03125,0 1.46197,0 5.224868,-0.228416 6.59375,-2.28125 0.439963,-0.658475 0.816896,-1.754396 0.09375,-3.34375 C 37.775291,30.517161 37.424073,29.76724 37.0625,29 c -1.286488,-2.740654 -3.667505,-7.805701 -3.25,-8.96875 l 3.21875,0 c 1.54134,0 2.78125,-1.418935 2.78125,-3.15625 l 0,-13.25 c 0,-1.7373146 -1.23991,-3.15625 -2.78125,-3.15625 l -8,0 z m 0.0625,2.71875 7.875,0 c 0.04507,0.050953 0.125,0.2023305 0.125,0.4375 l 0,13.25 c 0,0.235169 -0.07993,0.386547 -0.125,0.4375 l -7.875,0 c -0.04507,-0.05095 -0.125,-0.20429 -0.125,-0.4375 l 0,-13.25 c 0,-0.2351695 0.07895,-0.3865466 0.125,-0.4375 z m 2.21875,10.625 c -0.557548,0 -1.03125,0.544597 -1.03125,1.21875 0,0.675132 0.473702,1.21875 1.03125,1.21875 l 3.46875,0 c 0.558528,0 1,-0.543618 1,-1.21875 0,-0.674153 -0.441472,-1.21875 -1,-1.21875 l -3.46875,0 z m -26.4375,21.5 22.40625,0 0.96875,1.5625 -8.75,0 0,0.5 -6.84375,0 0,-0.5 -8.75,0 0.96875,-1.5625 z"
     id="path22"
     style="fill:#000000;fill-opacity:1;fill-rule:nonzero;stroke:none" /></svg>