<?xml version="1.0" encoding="UTF-8" standalone="no"?>
<!-- Created with Inkscape (http://www.inkscape.org/) -->

<svg
   xmlns:dc="http://purl.org/dc/elements/1.1/"
   xmlns:cc="http://creativecommons.org/ns#"
   xmlns:rdf="http://www.w3.org/1999/02/22-rdf-syntax-ns#"
   xmlns:svg="http://www.w3.org/2000/svg"
   xmlns="http://www.w3.org/2000/svg"
   version="1.1"
   width="40"
   height="40"
   id="svg2"
   xml:space="preserve"><metadata
     id="metadata8"><rdf:RDF><cc:Work
         rdf:about=""><dc:format>image/svg+xml</dc:format><dc:type
           rdf:resource="http://purl.org/dc/dcmitype/StillImage" /><dc:title></dc:title></cc:Work></rdf:RDF></metadata><defs
     id="defs6"><clipPath
       id="clipPath16"><path
         d="M 0,55 55,55 55,0 0,0 0,55 z"
         id="path18" /></clipPath></defs><path
     d="m 35.207813,31.780709 c 0.0022,0.553581 -0.181906,1.514767 -0.538983,1.871844 -0.0539,0.0539 -0.144851,0.144851 -0.478347,0.144851 l -6.642966,0 -0.134746,0 c -1.557436,0 -3.578622,-0.273983 -4.576865,-0.89269 -2.528729,-1.567543 -4.903622,-2.296293 -7.471652,-2.296293 l -1.957181,0 0,-9.008877 c 0.14822,0.0023 0.284088,0.01347 0.4368,0.01347 5.422393,0 7.654682,-2.078453 8.5732,-3.821165 1.068982,-2.03017 1.630423,-4.640869 2.125613,-6.945022 0.348094,-1.6270545 0.87697,-4.0861645 1.304789,-4.5431783 0.126885,-0.08085 0.218961,-0.1021875 0.218961,-0.1122875 0.130254,0.071862 0.602988,0.7085375 0.602988,2.5163775 l 0,6.8888763 c 0,1.256505 1.018453,2.274957 2.274957,2.274957 l 5.038369,0 c 0.18303,-0.0011 0.0786,0.02583 0.24928,-0.01347 0.903919,0 0.975784,1.893179 0.975784,2.474831 l 0,11.447776 z m 4.54767,-0.02919 0,-11.418581 c 0,-5.184343 -2.975636,-7.023623 -5.523454,-7.023623 -0.147097,0 -0.270614,0.0056 -0.363813,0.01348 l -2.65,0 0,-4.6150423 c 0,-5.2079237 -2.75892,-7.0561862 -5.118094,-7.0561862 -0.929745,0 -1.86286,0.282965 -2.701652,0.81858 -1.981885,1.2643637 -2.594979,4.1176062 -3.302394,7.4211225 -0.45589,2.115509 -0.926377,4.304005 -1.704534,5.780594 -0.459258,0.871356 -2.158178,1.392372 -4.54767,1.392372 -0.805106,0 -1.548453,-0.05839 -2.139088,-0.124637 -1.06,-0.829809 -2.5253603,-1.342967 -4.1468015,-1.342967 l -1.46536,0 c -3.2316525,0 -5.84908875,2.040277 -5.84908875,4.557777 l 0,11.772288 c 0,2.517499 2.61743625,4.556652 5.84908875,4.556652 l 1.46536,0 c 1.611335,0 3.0699575,-0.506419 4.1277125,-1.328369 l 3.678559,0 c 1.707902,0 3.275445,0.49856 5.075423,1.615827 2.298539,1.421565 5.642479,1.577645 6.973094,1.577645 l 6.777712,-0.0011 c 1.467606,0 2.757796,-0.525509 3.730212,-1.517013 1.84714,-1.881949 1.842648,-4.798072 1.834788,-5.078792"
     id="path22"
     style="fill:#000000;fill-opacity:1;fill-rule:nonzero;stroke:none" /></svg>