<?xml version="1.0" encoding="UTF-8" standalone="no"?>
<!-- Created with Inkscape (http://www.inkscape.org/) -->

<svg
   xmlns:dc="http://purl.org/dc/elements/1.1/"
   xmlns:cc="http://creativecommons.org/ns#"
   xmlns:rdf="http://www.w3.org/1999/02/22-rdf-syntax-ns#"
   xmlns:svg="http://www.w3.org/2000/svg"
   xmlns="http://www.w3.org/2000/svg"
   version="1.1"
   width="40"
   height="40"
   id="svg3171">
  <metadata
     id="metadata3177">
    <rdf:RDF>
      <cc:Work
         rdf:about="">
        <dc:format>image/svg+xml</dc:format>
        <dc:type
           rdf:resource="http://purl.org/dc/dcmitype/StillImage" />
        <dc:title></dc:title>
      </cc:Work>
    </rdf:RDF>
  </metadata>
  <defs
     id="defs3175" />
  <path
     d="M 8.7973793,29.711689 C 4.5491499,29.170429 0.88370429,25.611513 0.34848017,21.342432 0.11968073,19.020568 0.48827916,16.595614 1.8559223,14.650616 3.757379,11.758563 7.2238691,9.9160695 10.705057,10.277322 c 2.06498,0.172617 4.035278,1.164465 5.624302,2.461329 1.192062,1.05841 1.12691,3.328185 -0.437014,4.016467 -1.363141,0.683145 -2.663345,-0.28746 -3.764981,-0.996777 -2.3931801,-1.525465 -5.7699645,-0.02853 -6.6460338,2.566044 -1.1077146,2.744273 0.8925743,6.056728 3.7931626,6.472253 2.2229922,0.300383 4.0857282,-1.329697 5.6019582,-2.737591 3.488804,-3.296877 5.826103,-7.83524 10.118159,-10.243544 1.646004,-0.976917 3.50562,-1.740689 5.457889,-1.547092 5.162265,0.03291 9.684595,5.00097 9.236476,10.149206 -0.0016,5.140839 -4.913844,9.710488 -10.052103,9.293127 -2.125397,-0.03688 -4.144415,-1.058919 -5.80318,-2.32883 -1.230462,-0.905858 -1.377681,-3.11608 -0.01357,-3.962933 1.188523,-0.861614 2.678005,-0.21496 3.695915,0.595399 1.954421,1.455609 4.897169,0.862002 6.290784,-1.082748 1.96224,-2.347806 0.885348,-6.293733 -1.938227,-7.402021 -1.955772,-0.980073 -4.141858,0.04712 -5.622615,1.396272 -4.049947,3.37578 -6.496323,8.439329 -11.107937,11.173322 -1.743738,1.045188 -3.723322,1.805096 -5.7900001,1.632728 l -0.3389267,-0.0066 -0.2117349,-0.01362 -3e-6,2e-6 z"
     id="path3181"
     style="fill:#000000;fill-opacity:1" />
</svg>
