<?xml version="1.0" encoding="UTF-8" standalone="no"?>
<!-- Created with Inkscape (http://www.inkscape.org/) -->

<svg
   xmlns:dc="http://purl.org/dc/elements/1.1/"
   xmlns:cc="http://creativecommons.org/ns#"
   xmlns:rdf="http://www.w3.org/1999/02/22-rdf-syntax-ns#"
   xmlns:svg="http://www.w3.org/2000/svg"
   xmlns="http://www.w3.org/2000/svg"
   version="1.1"
   width="40"
   height="40"
   id="svg2"
   xml:space="preserve"><metadata
     id="metadata8"><rdf:RDF><cc:Work
         rdf:about=""><dc:format>image/svg+xml</dc:format><dc:type
           rdf:resource="http://purl.org/dc/dcmitype/StillImage" /><dc:title></dc:title></cc:Work></rdf:RDF></metadata><defs
     id="defs6"><clipPath
       id="clipPath16"><path
         d="M 0,55 55,55 55,0 0,0 0,55 z"
         id="path18" /></clipPath></defs><path
     d="M 5.96875,0.28125 C 4.3405105,0.28125 2.925378,1.1333633 2,2.3125 1.0746221,3.4916368 0.53125,5.0204988 0.53125,6.65625 l 0,26.6875 c 0,1.635751 0.5433721,3.164613 1.46875,4.34375 0.925378,1.179137 2.3405105,2.03125 3.96875,2.03125 l 28.09375,0 c 1.6281,0 3.043309,-0.852246 3.96875,-2.03125 0.92544,-1.179004 1.4375,-2.707759 1.4375,-4.34375 l 0,-26.6875 c 0,-1.6359908 -0.51206,-3.1647453 -1.4375,-4.34375 C 37.105809,1.1334954 35.6906,0.28125 34.0625,0.28125 l -28.09375,0 z M 5.75,4.15625 c 0.075725,-0.020071 0.1452216,0 0.21875,0 l 28.09375,0 c 0.293342,0 0.602706,0.1359754 0.9375,0.5625 0.334794,0.4265246 0.59375,1.1236295 0.59375,1.9375 l 0,26.6875 c 0,0.81387 -0.258956,1.510975 -0.59375,1.9375 -0.334794,0.426525 -0.644158,0.5625 -0.9375,0.5625 l -28.09375,0 c -0.2941137,0 -0.6028712,-0.136108 -0.9375,-0.5625 -0.3346288,-0.426392 -0.625,-1.12339 -0.625,-1.9375 l 0,-26.6875 c 0,-0.8141101 0.2903712,-1.5111075 0.625,-1.9375 C 5.2822216,4.3989556 5.5228236,4.2164629 5.75,4.15625 z M 10.5,7.625 c -1.8585789,0 -3.375,1.3512409 -3.375,3.03125 0,1.68092 1.5164211,3.0625 3.375,3.0625 1.858578,0 3.375,-1.38158 3.375,-3.0625 C 13.875,8.9762409 12.358578,7.625 10.5,7.625 z m -2.71875,7.78125 0,16.15625 5.4375,0 0,-16.15625 -5.4375,0 z m 8.3125,0 0,16.15625 5.4375,0 0,-10.4375 c 0.618615,-0.789896 1.474412,-1.5 2.53125,-1.5 2.375154,0 2.9375,1.112913 2.9375,3.59375 0,2.481749 0.03125,8.34375 0.03125,8.34375 l 5.15625,0 0,-10.75 c 0,0 -0.499692,-5.40625 -5.25,-5.40625 -3.114941,0 -4.338478,0.716857 -5.40625,2.375 l 0,-2.375 -5.4375,0 z"
     id="path22"
     style="font-size:medium;font-style:normal;font-variant:normal;font-weight:normal;font-stretch:normal;text-indent:0;text-align:start;text-decoration:none;line-height:normal;letter-spacing:normal;word-spacing:normal;text-transform:none;direction:ltr;block-progression:tb;writing-mode:lr-tb;text-anchor:start;baseline-shift:baseline;color:#000000;fill:#000000;fill-opacity:1;stroke:none;stroke-width:4.25199986;marker:none;visibility:visible;display:inline;overflow:visible;enable-background:accumulate;font-family:Sans;-inkscape-font-specification:Sans" /></svg>