<?xml version="1.0" encoding="UTF-8" standalone="no"?>
<!-- Created with Inkscape (http://www.inkscape.org/) -->

<svg
   xmlns:dc="http://purl.org/dc/elements/1.1/"
   xmlns:cc="http://creativecommons.org/ns#"
   xmlns:rdf="http://www.w3.org/1999/02/22-rdf-syntax-ns#"
   xmlns:svg="http://www.w3.org/2000/svg"
   xmlns="http://www.w3.org/2000/svg"
   version="1.1"
   width="40"
   height="40"
   id="svg2"
   xml:space="preserve"><metadata
     id="metadata8"><rdf:RDF><cc:Work
         rdf:about=""><dc:format>image/svg+xml</dc:format><dc:type
           rdf:resource="http://purl.org/dc/dcmitype/StillImage" /><dc:title></dc:title></cc:Work></rdf:RDF></metadata><defs
     id="defs6"><clipPath
       id="clipPath16"><path
         d="M 0,55 55,55 55,0 0,0 0,55 z"
         id="path18" /></clipPath></defs><path
     d="m 20.661269,35.323142 11.711695,0 c -0.0089,-0.0798 -0.02069,-0.157627 -0.03251,-0.237426 -0.28767,-2.052108 -0.710308,-3.941663 -1.255107,-5.618422 -0.732966,-2.244216 -1.654099,-3.998803 -2.739756,-5.224354 -1.1891,-1.33786 -2.55356,-1.988072 -4.162341,-1.988072 -0.83838,0 -1.604842,-0.478792 -1.971325,-1.235402 -0.366483,-0.757596 -0.268951,-1.653115 0.251219,-2.312193 l 2.032404,-2.573263 c 0.05517,-0.06995 0.111324,-0.134967 0.172405,-0.195064 0.602924,-0.603908 1.077775,-1.304363 1.414703,-2.099396 0.342839,-0.807839 0.515244,-1.675772 0.515244,-2.568336 0,-0.891579 -0.172405,-1.7545877 -0.517214,-2.5673515 -0.334958,-0.7901062 -0.807839,-1.4935175 -1.412733,-2.0925 -0.60982,-0.6127762 -1.316187,-1.0895975 -2.098411,-1.418645 -1.630455,-0.6876475 -3.515085,-0.6876475 -5.135689,0 -0.790106,0.3320025 -1.495487,0.80784 -2.099396,1.4137188 -0.607849,0.6039087 -1.084671,1.30732 -1.418644,2.1013662 -0.343824,0.8088238 -0.518199,1.6718325 -0.518199,2.5634115 0,0.892564 0.174375,1.760497 0.52017,2.578189 0.332002,0.78518 0.808824,1.485635 1.409777,2.084618 0.06305,0.06503 0.120191,0.130043 0.176345,0.199989 l 2.032405,2.573263 c 0.519184,0.659078 0.617701,1.554597 0.250233,2.312193 -0.367468,0.75661 -1.132945,1.235402 -1.971324,1.235402 -1.613708,0 -2.977182,0.650212 -4.165297,1.988073 -1.082701,1.220625 -2.0048205,2.980137 -2.7358155,5.224353 -0.6876488,2.103337 -1.0610275,4.216526 -1.2541212,5.618422 -0.010875,0.0798 -0.022663,0.157627 -0.032513,0.237426 l 13.0337927,0 z m 14.122404,4.379078 -29.568878,0 c -0.5960275,0 -1.169395,-0.241366 -1.5811962,-0.672871 -0.4137713,-0.432489 -0.6324788,-1.01768 -0.606865,-1.611737 0,0 0.051225,-1.174322 0.2925962,-2.930879 C 3.5380375,32.907506 3.960675,30.5165 4.747825,28.106775 5.6679738,25.28722 6.8895837,23.011479 8.3732488,21.335705 9.42738,20.146606 10.606629,19.263894 11.898186,18.688555 11.052911,17.768406 10.375114,16.714275 9.8825294,15.553745 9.306205,14.1883 9.018535,12.752909 9.018535,11.271214 9.018535,9.7905038 9.30916,8.3551125 9.8795744,6.9995188 10.440136,5.6803763 11.234182,4.50507 12.239054,3.5051225 13.241957,2.501235 14.417264,1.7091588 15.72754,1.1574638 c 2.70232,-1.14476755 5.839099,-1.14772255 8.546345,0 1.30535,0.549725 2.480657,1.3418012 3.492426,2.35357 1.000932,0.9969912 1.793009,2.1722987 2.350614,3.488485 0.570414,1.3555937 0.861039,2.790985 0.861039,4.2716952 0,1.481695 -0.28767,2.917086 -0.858083,4.277606 -0.498496,1.165455 -1.174322,2.219586 -2.018612,3.139735 1.287616,0.575339 2.462923,1.458051 3.517055,2.642224 1.493517,1.6807 2.712171,3.960382 3.63232,6.775996 0.623612,1.922066 1.10536,4.063824 1.430466,6.376017 0.243336,1.764439 0.292595,2.938761 0.292595,2.938761 0.02266,0.595042 -0.199004,1.175307 -0.608835,1.607796 -0.412786,0.431505 -0.985169,0.672871 -1.581197,0.672871"
     id="path22"
     style="fill:#000000;fill-opacity:1;fill-rule:nonzero;stroke:none" /></svg>