<?xml version="1.0" encoding="UTF-8" standalone="no"?>
<!-- Created with Inkscape (http://www.inkscape.org/) -->

<svg
   xmlns:dc="http://purl.org/dc/elements/1.1/"
   xmlns:cc="http://creativecommons.org/ns#"
   xmlns:rdf="http://www.w3.org/1999/02/22-rdf-syntax-ns#"
   xmlns:svg="http://www.w3.org/2000/svg"
   xmlns="http://www.w3.org/2000/svg"
   version="1.1"
   width="40"
   height="40"
   id="svg2"
   xml:space="preserve"><metadata
     id="metadata8"><rdf:RDF><cc:Work
         rdf:about=""><dc:format>image/svg+xml</dc:format><dc:type
           rdf:resource="http://purl.org/dc/dcmitype/StillImage" /><dc:title></dc:title></cc:Work></rdf:RDF></metadata><defs
     id="defs6"><clipPath
       id="clipPath16"><path
         d="M 0,55 55,55 55,0 0,0 0,55 z"
         id="path18" /></clipPath></defs><path
     d="M 19.15625,0.375 C 12.65626,0.375 7.375,5.6562605 7.375,12.15625 l 0,1.6875 c 0,6.495143 5.28126,11.78125 11.78125,11.78125 l 1.6875,0 c 6.499989,0 11.78125,-5.286107 11.78125,-11.78125 l 0,-1.6875 C 32.625,5.6562605 27.343739,0.375 20.84375,0.375 l -1.6875,0 z m 0,3.375 1.6875,0 c 3.061954,0 5.747384,1.6424417 7.21875,4.09375 l -16.125,0 C 13.408866,5.3924417 16.095265,3.75 19.15625,3.75 z m -4.53125,6 c 1.639052,0 2.96875,0.670297 2.96875,1.5 0,0.828734 -1.329698,1.5 -2.96875,1.5 -1.639052,0 -2.96875,-0.671266 -2.96875,-1.5 0,-0.829703 1.329698,-1.5 2.96875,-1.5 z m 9.96875,0 c 1.639052,0 2.96875,0.670297 2.96875,1.5 0,0.828734 -1.329698,1.5 -2.96875,1.5 -1.639052,0 -2.96875,-0.671266 -2.96875,-1.5 0,-0.829703 1.329698,-1.5 2.96875,-1.5 z m -13.8125,4.65625 18.4375,0 C 28.925058,18.776732 25.290805,22.25 20.84375,22.25 l -1.6875,0 c -4.448024,0 -8.081308,-3.473268 -8.375,-7.84375 z m -0.9375,10.5 c -3.8073305,0 -6.90625,2.851668 -6.90625,6.375 l 0,8.34375 34.125,0 0,-8.34375 c 0,-3.523332 -3.069608,-6.375 -6.875,-6.375 l -0.09375,0 C 27.584285,27.107484 24.371462,28.5 20.78125,28.5 l -1.5625,0 c -3.577611,0 -6.804005,-1.392516 -9.3125,-3.59375 l -0.0625,0 z"
     id="path22"
     style="fill:#000000;fill-opacity:1;fill-rule:nonzero;stroke:none" /></svg>