<?xml version="1.0" encoding="UTF-8" standalone="no"?>
<!-- Created with Inkscape (http://www.inkscape.org/) -->

<svg
   xmlns:dc="http://purl.org/dc/elements/1.1/"
   xmlns:cc="http://creativecommons.org/ns#"
   xmlns:rdf="http://www.w3.org/1999/02/22-rdf-syntax-ns#"
   xmlns:svg="http://www.w3.org/2000/svg"
   xmlns="http://www.w3.org/2000/svg"
   version="1.1"
   width="40"
   height="40"
   id="svg2"
   xml:space="preserve"><metadata
     id="metadata8"><rdf:RDF><cc:Work
         rdf:about=""><dc:format>image/svg+xml</dc:format><dc:type
           rdf:resource="http://purl.org/dc/dcmitype/StillImage" /><dc:title></dc:title></cc:Work></rdf:RDF></metadata><defs
     id="defs6"><clipPath
       id="clipPath16"><path
         d="M 0,55 55,55 55,0 0,0 0,55 z"
         id="path18" /></clipPath></defs><path
     d="m 2.5,4.84375 c -1.2690466,0 -2.3125,1.0111494 -2.3125,2.28125 l 0,25.75 c 0,1.270101 1.0434534,2.28125 2.3125,2.28125 l 35,0 c 1.269047,0 2.3125,-1.011149 2.3125,-2.28125 l 0,-25.75 c 0,-1.2701006 -1.043453,-2.28125 -2.3125,-2.28125 l -35,0 z m 2.28125,4.59375 30.4375,0 0,21.125 -14.34375,0 0,-6.09375 c 0,-1.425042 -1.242373,-2.5625 -2.78125,-2.5625 l -0.03125,0 c -1.011865,0.889597 -2.331965,1.4375 -3.78125,1.4375 l -0.625,0 c -1.449285,0 -2.738136,-0.547903 -3.75,-1.4375 l -0.03125,0 c -1.5399312,0 -2.78125,1.137458 -2.78125,2.5625 l 0,6.09375 -2.3125,0 0,-21.125 z m 8.875,3.8125 C 11.587198,13.25 9.9375,14.932002 9.9375,17 l 0,0.625 c 0,2.067998 1.649698,3.71875 3.71875,3.71875 l 0.625,0 c 2.069052,0 3.75,-1.650752 3.75,-3.71875 l 0,-0.625 c 0,-2.067998 -1.680948,-3.75 -3.75,-3.75 l -0.625,0 z m 9.9375,0.09375 c -0.646118,0 -1.1875,0.656467 -1.1875,1.4375 0,0.781033 0.541382,1.40625 1.1875,1.40625 l 8.75,0 c 0.647172,0 1.1875,-0.625217 1.1875,-1.40625 0,-0.781033 -0.540328,-1.4375 -1.1875,-1.4375 l -8.75,0 z m 0,4.375 c -0.646118,0 -1.1875,0.656467 -1.1875,1.4375 0,0.781033 0.541382,1.40625 1.1875,1.40625 l 8.75,0 c 0.647172,0 1.1875,-0.625217 1.1875,-1.40625 0,-0.781033 -0.540328,-1.4375 -1.1875,-1.4375 l -8.75,0 z m 0,4.65625 c -0.646118,0 -1.1875,0.624163 -1.1875,1.40625 0,0.784195 0.541382,1.40625 1.1875,1.40625 l 8.75,0 c 0.647172,0 1.1875,-0.622055 1.1875,-1.40625 0,-0.782087 -0.540328,-1.40625 -1.1875,-1.40625 l -8.75,0 z"
     id="path22"
     style="fill:#000000;fill-opacity:1;fill-rule:nonzero;stroke:none" /></svg>