<?xml version="1.0" encoding="UTF-8" standalone="no"?>
<!-- Created with Inkscape (http://www.inkscape.org/) -->

<svg
   xmlns:dc="http://purl.org/dc/elements/1.1/"
   xmlns:cc="http://creativecommons.org/ns#"
   xmlns:rdf="http://www.w3.org/1999/02/22-rdf-syntax-ns#"
   xmlns:svg="http://www.w3.org/2000/svg"
   xmlns="http://www.w3.org/2000/svg"
   version="1.1"
   width="40"
   height="40"
   id="svg3237">
  <metadata
     id="metadata3243">
    <rdf:RDF>
      <cc:Work
         rdf:about="">
        <dc:format>image/svg+xml</dc:format>
        <dc:type
           rdf:resource="http://purl.org/dc/dcmitype/StillImage" />
        <dc:title></dc:title>
      </cc:Work>
    </rdf:RDF>
  </metadata>
  <defs
     id="defs3241" />
  <path
     d="M 4.6150325,39.570959 C 3.9147375,39.328107 3.3733878,38.930147 3.0222996,38.400101 2.3999197,37.460477 2.4355529,38.64635 2.4635042,19.803383 L 2.4889597,2.6429004 C 2.6342783,1.682701 2.724289,1.4444836 3.1379749,0.95472365 3.5516608,0.46496458 4.8296077,0.30225162 4.8296077,0.30225162 L 17.361828,0.27430075 c 9.449136,-0.0210737 12.640188,6.0869e-4 12.971092,0.088016 0.391451,0.10343606 0.779909,0.4541965 3.595229,3.24634135 2.44144,2.4213443 3.20885,3.2408266 3.38811,3.6180111 0.229106,0.4820663 0.231763,0.5237075 0.232706,3.6459478 7.1e-4,2.141279 -0.03598,3.281587 -0.113741,3.541127 -0.204175,0.681473 -0.758612,1.191929 -1.692105,1.557873 l -0.829217,0.325065 0.02578,1.889719 0.02577,1.889716 0.700625,0.269029 c 1.297531,0.529044 1.87235,0.859306 1.835078,1.608103 l 0,7.704634 0,7.704633 c -0.02517,0.957406 -0.413071,2.14904 -1.575277,2.261577 l -0.765371,0.07907 -15.019158,0.02183 C 5.888385,39.745719 5.0963165,39.737861 4.6150325,39.570959 z m 28.3998795,-9.86101 0,-5.506976 -0.757916,-0.295882 c -0.904447,-0.353088 -1.360154,-0.697354 -1.656111,-1.251116 -0.214795,-0.401896 -0.219799,-0.486264 -0.248875,-4.194923 -0.0331,-4.222594 -0.0015,-4.500452 0.58744,-5.1714 0.224956,-0.256261 0.580629,-0.475945 1.197719,-0.739776 l 0.877743,-0.375273 0.02622,-1.498697 0.02622,-1.4986959 -2.22178,-2.2191683 -2.221781,-2.2191682 -10.82429,0.02481 -10.8242901,0.024811 -0.025049,15.1166864 c -0.013777,8.314178 -0.00412,15.171707 0.021458,15.238952 0.037021,0.09733 2.6975323,0.11722 13.0449041,0.09753 l 12.998397,-0.02474 z M 11.558971,17.626398 c -0.501659,-0.228473 -1.079861,-0.871143 -1.212053,-1.347195 -0.153141,-0.551491 -0.140396,-7.7389109 0.01465,-8.2610024 0.156749,-0.5278323 0.875942,-1.2470254 1.403774,-1.4037743 0.83871,-0.2490693 1.604558,-0.093461 2.205189,0.448061 0.762126,0.6871235 0.753786,0.6308139 0.753786,5.0892967 0,4.361737 -0.0015,4.373676 -0.640065,5.012218 -0.626776,0.626775 -1.723438,0.827582 -2.525279,0.462396 z m 6.046674,-0.002 C 17.079959,17.382252 16.70833,17.015966 16.48164,16.51655 c -0.176153,-0.38808 -0.188326,-0.670193 -0.188326,-4.364741 0,-4.4584828 -0.0083,-4.4021733 0.753787,-5.0892967 1.112654,-1.0031544 2.855503,-0.6330296 3.495983,0.7424337 0.229618,0.493117 0.230286,0.5055707 0.231236,4.310219 0.0011,4.221122 -0.01732,4.371015 -0.612739,4.997686 -0.64162,0.6753 -1.728284,0.892786 -2.555936,0.511547 z m 6.277247,-0.08846 c -0.626351,-0.358423 -1.025153,-0.829377 -1.157079,-1.54867 l 0,-3.81065 c 0,-3.7784586 0.01169,-4.0538749 0.186507,-4.3930307 0.589191,-1.1430802 1.851498,-1.5901317 2.98312,-1.0564844 0.581097,0.2740315 0.845968,0.5436967 1.113365,1.1335156 0.189434,0.4178438 0.199024,0.6234488 0.200156,4.2911885 0.0012,3.848553 0.001,3.852794 -0.229341,4.339952 -0.583743,1.234781 -1.886918,1.674195 -3.096728,1.044179 z"
     id="path3249"
     style="fill:#000000;fill-opacity:1" />
</svg>
