<?xml version="1.0" encoding="UTF-8" standalone="no"?>
<!-- Created with Inkscape (http://www.inkscape.org/) -->

<svg
   xmlns:dc="http://purl.org/dc/elements/1.1/"
   xmlns:cc="http://creativecommons.org/ns#"
   xmlns:rdf="http://www.w3.org/1999/02/22-rdf-syntax-ns#"
   xmlns:svg="http://www.w3.org/2000/svg"
   xmlns="http://www.w3.org/2000/svg"
   version="1.1"
   width="40"
   height="40"
   id="svg2"
   xml:space="preserve"><metadata
     id="metadata8"><rdf:RDF><cc:Work
         rdf:about=""><dc:format>image/svg+xml</dc:format><dc:type
           rdf:resource="http://purl.org/dc/dcmitype/StillImage" /><dc:title></dc:title></cc:Work></rdf:RDF></metadata><defs
     id="defs6"><clipPath
       id="clipPath16"><path
         d="M 0,55 55,55 55,0 0,0 0,55 z"
         id="path18" /></clipPath></defs><path
     d="m 22.33098,34.973348 0,-5.167511 c 0,-1.286483 -1.043983,-2.330466 -2.331494,-2.330466 -1.286483,0 -2.329439,1.043983 -2.329439,2.330466 l 0,5.167511 C 11.170841,33.964301 6.0341588,28.828644 5.02511,22.329439 l 5.168539,0 c 1.28751,0 2.330466,-1.042955 2.330466,-2.330465 0,-1.286484 -1.042956,-2.329439 -2.330466,-2.329439 l -5.168539,0 C 6.1523237,10.40892 12.428554,4.8273098 19.999486,4.8273098 l 0,15.1716642 10.72446,10.723431 c -2.225657,2.224629 -5.143877,3.746419 -8.392966,4.250943 M 19.999486,0.16740475 c -10.935106,0 -19.83156725,8.89646245 -19.83156725,19.83156825 0,10.936133 8.89646125,19.833623 19.83156725,19.833623 10.936134,0 19.832596,-8.89749 19.832596,-19.833623 0,-10.9351058 -8.896462,-19.83156825 -19.832596,-19.83156825"
     id="path22"
     style="fill:#000000;fill-opacity:1;fill-rule:nonzero;stroke:none" /></svg>