<?xml version="1.0" encoding="UTF-8" standalone="no"?>
<!-- Created with Inkscape (http://www.inkscape.org/) -->

<svg
   xmlns:dc="http://purl.org/dc/elements/1.1/"
   xmlns:cc="http://creativecommons.org/ns#"
   xmlns:rdf="http://www.w3.org/1999/02/22-rdf-syntax-ns#"
   xmlns:svg="http://www.w3.org/2000/svg"
   xmlns="http://www.w3.org/2000/svg"
   version="1.1"
   width="40"
   height="40"
   id="svg2"
   xml:space="preserve"><metadata
     id="metadata8"><rdf:RDF><cc:Work
         rdf:about=""><dc:format>image/svg+xml</dc:format><dc:type
           rdf:resource="http://purl.org/dc/dcmitype/StillImage" /><dc:title></dc:title></cc:Work></rdf:RDF></metadata><defs
     id="defs6"><clipPath
       id="clipPath16"><path
         d="M 0,55 55,55 55,0 0,0 0,55 z"
         id="path18" /></clipPath></defs><path
     d="m 20,0.25 c -0.512167,0 -1.01305,0.16464513 -1.4375,0.5 L 1.1875,14.4375 c -0.55959211,0.442469 -0.875,1.129995 -0.875,1.84375 l 0,21.15625 c 0,1.291366 1.0533846,2.3125 2.34375,2.3125 C 3.9456144,39.75 5,38.728866 5,37.4375 L 5,17.40625 20,5.5625 l 15,11.84375 0,17.6875 -11.28125,0 c -1.291366,0 -2.34375,1.052383 -2.34375,2.34375 0,1.291366 1.052384,2.3125 2.34375,2.3125 l 13.625,0 c 1.290365,0 2.34375,-1.021134 2.34375,-2.3125 l 0,-21.15625 c 0,-0.713755 -0.313406,-1.399279 -0.875,-1.84375 L 21.4375,0.75 C 21.013551,0.41464513 20.512167,0.25 20,0.25 z m 6.3125,13.96875 c -0.102921,0.0052 -0.180644,0.03347 -0.28125,0.0625 L 14.25,17.65625 c -0.574608,0.167177 -0.96875,0.684619 -0.96875,1.28125 l 0,8.875 c -0.325344,-0.0941 -0.645625,-0.15625 -1,-0.15625 -2.025143,0 -3.6875,1.630106 -3.6875,3.65625 0,2.025143 1.662357,3.65625 3.6875,3.65625 1.905015,0 3.44581,-1.454534 3.625,-3.3125 0.03203,-0.11312 0.0625,-0.22062 0.0625,-0.34375 l 0,-11.34375 9.09375,-2.625 0,7.21875 c -0.326346,-0.0961 -0.673872,-0.15625 -1.03125,-0.15625 -2.026144,0 -3.65625,1.66536 -3.65625,3.6875 0,2.025143 1.630106,3.65625 3.65625,3.65625 1.943056,0 3.53312,-1.522474 3.65625,-3.4375 0.03003,-0.111118 0.03125,-0.22162 0.03125,-0.34375 l 0,-12.40625 c 0,-0.419444 -0.196897,-0.806228 -0.53125,-1.0625 -0.250765,-0.188449 -0.566236,-0.296782 -0.875,-0.28125 z"
     id="path22"
     style="fill:#000000;fill-opacity:1;fill-rule:nonzero;stroke:none" /></svg>