<?xml version="1.0" encoding="UTF-8" standalone="no"?>
<!-- Created with Inkscape (http://www.inkscape.org/) -->

<svg
   xmlns:dc="http://purl.org/dc/elements/1.1/"
   xmlns:cc="http://creativecommons.org/ns#"
   xmlns:rdf="http://www.w3.org/1999/02/22-rdf-syntax-ns#"
   xmlns:svg="http://www.w3.org/2000/svg"
   xmlns="http://www.w3.org/2000/svg"
   version="1.1"
   width="40"
   height="40"
   id="svg2"
   xml:space="preserve"><metadata
     id="metadata8"><rdf:RDF><cc:Work
         rdf:about=""><dc:format>image/svg+xml</dc:format><dc:type
           rdf:resource="http://purl.org/dc/dcmitype/StillImage" /><dc:title></dc:title></cc:Work></rdf:RDF></metadata><defs
     id="defs6"><clipPath
       id="clipPath16"><path
         d="M 0,55 55,55 55,0 0,0 0,55 z"
         id="path18" /></clipPath></defs><path
     d="M 38.256317,2.7392646 C 38.256317,1.9394182 37.88092,1.1846195 37.241243,0.70311 36.599564,0.21859725 35.770687,0.06543512 35.002875,0.2896725 l -22.46277,6.4648402 c -1.093157,0.3133325 -1.844952,1.3133901 -1.844952,2.4495925 l 0,16.8668488 C 10.0785,25.892765 9.4298138,25.790658 8.7561,25.790658 c -3.8670912,0 -7.01242,3.144326 -7.01242,7.010417 0,3.867093 3.1453288,7.010419 7.01242,7.010419 3.683899,0 6.706096,-2.860026 6.980388,-6.476854 0.03604,-0.172182 0.05706,-0.348369 0.05706,-0.530561 l 0,-21.680942 17.365376,-4.9982902 0,13.7775802 c -0.621658,-0.182193 -1.276351,-0.2833 -1.957071,-0.2833 -3.867092,0 -7.014422,3.143326 -7.014422,7.008416 0,3.867092 3.14733,7.010419 7.014422,7.010419 3.747966,0 6.808204,-2.961134 6.988395,-6.666054 0.04104,-0.182194 0.06607,-0.36839 0.06607,-0.562596 l 0,-23.6700474 z"
     id="path22"
     style="fill:#000000;fill-opacity:1;fill-rule:nonzero;stroke:none" /></svg>