<?xml version="1.0" encoding="UTF-8" standalone="no"?>
<!-- Created with Inkscape (http://www.inkscape.org/) -->

<svg
   xmlns:dc="http://purl.org/dc/elements/1.1/"
   xmlns:cc="http://creativecommons.org/ns#"
   xmlns:rdf="http://www.w3.org/1999/02/22-rdf-syntax-ns#"
   xmlns:svg="http://www.w3.org/2000/svg"
   xmlns="http://www.w3.org/2000/svg"
   version="1.1"
   width="40"
   height="40"
   id="svg2"
   xml:space="preserve"><metadata
     id="metadata8"><rdf:RDF><cc:Work
         rdf:about=""><dc:format>image/svg+xml</dc:format><dc:type
           rdf:resource="http://purl.org/dc/dcmitype/StillImage" /><dc:title></dc:title></cc:Work></rdf:RDF></metadata><defs
     id="defs6"><clipPath
       id="clipPath16"><path
         d="M 0,55 55,55 55,0 0,0 0,55 z"
         id="path18" /></clipPath></defs><path
     d="m 33.59375,1.0625 c -1.598446,-0.04912 -3.286856,1.6564838 -1.875,3.375 4.814761,5.648105 5.314961,14.407296 1.21875,20.59375 -1.68903,1.34537 -2.684205,4.881603 0.375,5.125 0.300829,1.8e-4 0.601571,-0.06198 0.875,-0.1875 C 35.607039,29.014283 36.363921,27.359347 37.25,25.9375 41.323853,18.618607 40.5817,8.9633525 35.40625,2.375 35.032117,1.4635449 34.320316,1.0848274 33.59375,1.0625 z M 6.875,1.09375 c -1.1547624,0.00884 -2.4914245,0.8878002 -2.90625,2.125 -4.90919505,6.900504 -5.1282575,16.713032 -0.5625,23.84375 0.8986487,1.162693 1.5749175,3.039375 3.28125,3.09375 C 8.4060187,30.207316 9.4542537,28.041996 8.3125,26.75 4.4714412,22.184713 3.2731413,15.59932 5.21875,9.96875 5.7457175,7.2892575 8.2383437,5.4489613 8.78125,2.90625 8.5745706,1.6148468 7.7731486,1.086874 6.875,1.09375 z M 11.78125,5.875 C 11.346694,5.893779 10.857333,6.0885263 10.375,6.5 7.0975172,10.842103 6.4823924,16.973432 8.78125,21.90625 c 0.7201487,1.302107 1.27418,3.3351 3.0625,3.375 1.614692,0.04648 2.688822,-1.92387 1.75,-3.25 C 11.225811,18.645449 10.881662,13.950907 12.875,10.3125 14.807263,8.8444998 13.664325,5.7936245 11.78125,5.875 z M 28.03125,6 c -1.2735,0.1164983 -2.445333,1.1789104 -1.8125,2.78125 2.307815,3.288792 2.949024,7.755827 1.1875,11.4375 -1.321462,1.537294 -2.188688,4.857463 0.75,5.0625 0.990941,0.03384 1.706038,-0.714223 2.125,-1.53125 C 33.33434,18.941409 33.362144,12.476361 30.375,7.625 30.060525,6.3939478 29.02175,5.9093902 28.03125,6 z M 19.75,9.53125 c -0.231498,0.013465 -0.486668,0.050414 -0.71875,0.09375 -3.761623,0.459469 -6.364606,4.7134 -5.09375,8.28125 0.578441,1.822382 2.023647,3.327826 3.8125,4 0.0077,5.017002 -0.0273,10.045988 0,15.0625 0.09998,2.259057 3.582546,2.781113 4.34375,0.625 0.356863,-1.500663 0.10948,-3.08735 0.1875,-4.625 l 0,-11.0625 c 2.432194,-0.899843 4.157409,-3.369043 4.125,-5.96875 C 26.51835,12.400911 23.222473,9.3292709 19.75,9.53125 z"
     id="path22"
     style="fill:#000000;fill-opacity:1;fill-rule:nonzero;stroke:none" /></svg>