<?xml version="1.0" encoding="UTF-8" standalone="no"?>
<!-- Created with Inkscape (http://www.inkscape.org/) -->

<svg
   xmlns:dc="http://purl.org/dc/elements/1.1/"
   xmlns:cc="http://creativecommons.org/ns#"
   xmlns:rdf="http://www.w3.org/1999/02/22-rdf-syntax-ns#"
   xmlns:svg="http://www.w3.org/2000/svg"
   xmlns="http://www.w3.org/2000/svg"
   version="1.1"
   width="40"
   height="40"
   id="svg2"
   xml:space="preserve"><metadata
     id="metadata8"><rdf:RDF><cc:Work
         rdf:about=""><dc:format>image/svg+xml</dc:format><dc:type
           rdf:resource="http://purl.org/dc/dcmitype/StillImage" /><dc:title></dc:title></cc:Work></rdf:RDF></metadata><defs
     id="defs6"><clipPath
       id="clipPath16"><path
         d="M 0,55 55,55 55,0 0,0 0,55 z"
         id="path18" /></clipPath></defs><path
     d="m 20,4.40625 c -0.161536,0 -0.309375,-6.25e-4 -0.46875,0.03125 -0.06051,0.0119 -0.126992,0.046292 -0.1875,0.0625 -0.08428,0.023772 -0.168962,0.030084 -0.25,0.0625 -0.0032,0.00216 -0.02695,-0.00108 -0.03125,0 -0.0065,0.00324 0.0054,0.02909 0,0.03125 -0.07347,0.031335 -0.149597,0.057014 -0.21875,0.09375 -0.02485,0.014046 -0.03764,0.048454 -0.0625,0.0625 -0.04106,0.023771 -0.0861,0.036568 -0.125,0.0625 -0.0043,0.00216 -0.02688,-0.00324 -0.03125,0 -0.122102,0.082117 -0.20769,0.1796823 -0.3125,0.28125 -0.0108,0.00972 -0.02044,0.021525 -0.03125,0.03125 l -7.0625,7.03125 c -0.95625,0.95733 -0.95625,2.51142 0,3.46875 0.478665,0.478666 1.122224,0.71875 1.75,0.71875 0.627776,0 1.240085,-0.241165 1.71875,-0.71875 l 2.875,-2.875 0,11.53125 c 0,1.352797 1.084704,2.46875 2.4375,2.46875 1.353878,0 2.4375,-1.115953 2.4375,-2.46875 l 0,-11.53125 2.875,2.875 c 0.478666,0.478666 1.089895,0.71875 1.71875,0.71875 0.626696,0 1.241165,-0.240085 1.71875,-0.71875 0.957331,-0.95625 0.956231,-2.511419 0,-3.46875 L 21.71875,5.125 c -0.0022,-0.00216 0.0033,-0.02909 0,-0.03125 C 21.608539,4.9824575 21.506822,4.9011016 21.375,4.8125 21.3707,4.81034 21.34804,4.81575 21.34375,4.8125 21.28432,4.773601 21.218919,4.722076 21.15625,4.6875 21.08386,4.647521 21.014216,4.626165 20.9375,4.59375 20.8489,4.557012 20.747013,4.525933 20.65625,4.5 20.59358,4.482711 20.53358,4.449385 20.46875,4.4375 20.309375,4.405625 20.161536,4.40625 20,4.40625 z M 2.5625,15.71875 c -1.3527963,0 -2.46875,1.083623 -2.46875,2.4375 l 0,15 c 0,1.353878 1.1159537,2.4375 2.46875,2.4375 l 34.875,0 c 1.353877,0 2.46875,-1.083622 2.46875,-2.4375 l 0,-15 c 0,-1.353877 -1.114873,-2.4375 -2.46875,-2.4375 -1.352797,0 -2.4375,1.083623 -2.4375,2.4375 l 0,12.53125 -30,0 0,-12.53125 c 0,-1.353877 -1.0836225,-2.4375 -2.4375,-2.4375 z"
     id="path22"
     style="fill:#000000;fill-opacity:1;fill-rule:nonzero;stroke:none" /></svg>