<?xml version="1.0" encoding="UTF-8" standalone="no"?>
<!-- Created with Inkscape (http://www.inkscape.org/) -->

<svg
   xmlns:dc="http://purl.org/dc/elements/1.1/"
   xmlns:cc="http://creativecommons.org/ns#"
   xmlns:rdf="http://www.w3.org/1999/02/22-rdf-syntax-ns#"
   xmlns:svg="http://www.w3.org/2000/svg"
   xmlns="http://www.w3.org/2000/svg"
   version="1.1"
   width="40"
   height="40"
   id="svg2"
   xml:space="preserve"><metadata
     id="metadata8"><rdf:RDF><cc:Work
         rdf:about=""><dc:format>image/svg+xml</dc:format><dc:type
           rdf:resource="http://purl.org/dc/dcmitype/StillImage" /><dc:title></dc:title></cc:Work></rdf:RDF></metadata><defs
     id="defs6"><clipPath
       id="clipPath16"><path
         d="M 0,55 55,55 55,0 0,0 0,55 z"
         id="path18" /></clipPath></defs><path
     d="m 8.9375,0.375 c -1.8442373,0 -3.34375,1.4972246 -3.34375,3.34375 l 0,32.5625 c 0,1.844237 1.4995127,3.34375 3.34375,3.34375 1.844238,0 3.34375,-1.499513 3.34375,-3.34375 l 0,-32.5625 C 12.28125,1.8722246 10.781738,0.375 8.9375,0.375 z m 22.125,0 c -1.845381,0 -3.34375,1.4972246 -3.34375,3.34375 l 0,32.5625 c 0,1.844237 1.498369,3.34375 3.34375,3.34375 1.844237,0 3.34375,-1.499513 3.34375,-3.34375 l 0,-32.5625 C 34.40625,1.8722246 32.906737,0.375 31.0625,0.375 z"
     id="path22"
     style="fill:#000000;fill-opacity:1;fill-rule:nonzero;stroke:none" /></svg>