<?xml version="1.0" encoding="UTF-8" standalone="no"?>
<!-- Created with Inkscape (http://www.inkscape.org/) -->

<svg
   xmlns:dc="http://purl.org/dc/elements/1.1/"
   xmlns:cc="http://creativecommons.org/ns#"
   xmlns:rdf="http://www.w3.org/1999/02/22-rdf-syntax-ns#"
   xmlns:svg="http://www.w3.org/2000/svg"
   xmlns="http://www.w3.org/2000/svg"
   version="1.1"
   width="40"
   height="40"
   id="svg2"
   xml:space="preserve"><metadata
     id="metadata8"><rdf:RDF><cc:Work
         rdf:about=""><dc:format>image/svg+xml</dc:format><dc:type
           rdf:resource="http://purl.org/dc/dcmitype/StillImage" /><dc:title></dc:title></cc:Work></rdf:RDF></metadata><defs
     id="defs6"><clipPath
       id="clipPath16"><path
         d="M 0,55 55,55 55,0 0,0 0,55 z"
         id="path18" /></clipPath></defs><path
     d="M 20,5.84375 C 9.0387139,5.84375 0.15625,12.18315 0.15625,20 0.15625,27.812874 9.0387139,34.15625 20,34.15625 30.961285,34.15625 39.84375,27.812874 39.84375,20 39.84375,12.18315 30.961285,5.84375 20,5.84375 z m 1.78125,2.125 c 0,0 9.796718,0.2464811 10.46875,11.71875 0.720745,12.320263 -10.46875,12.625 -10.46875,12.625 -9.10425,0 -16.65625,-3.83693 -16.65625,-7.59375 0,-3.786644 7.173237,-6.954394 16.65625,-7.65625 l 0,-9.09375 z m 0,9.15625 c -4.875217,1.753647 -7.997148,4.415473 -7.9375,7.375 0.05667,2.803449 3.416193,5.015502 7.9375,6.625 l 0,-14 z"
     id="path22"
     style="fill:#000000;fill-opacity:1;fill-rule:nonzero;stroke:none" /></svg>