<?xml version="1.0" encoding="UTF-8" standalone="no"?>
<!-- Created with Inkscape (http://www.inkscape.org/) -->

<svg
   xmlns:dc="http://purl.org/dc/elements/1.1/"
   xmlns:cc="http://creativecommons.org/ns#"
   xmlns:rdf="http://www.w3.org/1999/02/22-rdf-syntax-ns#"
   xmlns:svg="http://www.w3.org/2000/svg"
   xmlns="http://www.w3.org/2000/svg"
   version="1.1"
   width="40"
   height="40"
   id="svg2"
   xml:space="preserve"><metadata
     id="metadata8"><rdf:RDF><cc:Work
         rdf:about=""><dc:format>image/svg+xml</dc:format><dc:type
           rdf:resource="http://purl.org/dc/dcmitype/StillImage" /><dc:title></dc:title></cc:Work></rdf:RDF></metadata><defs
     id="defs6"><clipPath
       id="clipPath16"><path
         d="M 0,55 55,55 55,0 0,0 0,55 z"
         id="path18" /></clipPath></defs><path
     d="M 34.625,5.8125 C 34.309387,5.7851974 33.979576,5.8072767 33.65625,5.84375 24.227334,5.85005 14.803668,5.82172 5.375,5.84375 2.1084351,6.031907 -0.01110337,9.4438073 0.21875,12.5 0.2339994,17.820849 0.1958983,23.148869 0.25,28.46875 0.3780433,31.456219 2.9039139,34.449823 6.0625,34.1875 15.589952,34.1812 25.097794,34.17833 34.625,34.15625 37.887944,33.968895 40.010657,30.552966 39.78125,27.5 39.76629,22.181634 39.80305,16.879913 39.75,11.5625 39.704,10.980434 39.587774,10.398605 39.40625,9.84375 38.772506,7.703255 36.834293,6.0036179 34.625,5.8125 z m -28.3125,4.375 c 0.2411857,-0.0014 0.4959283,-0.0042 0.71875,0 l 27.3125,0 c 0.959183,0.179281 1.726562,2.498267 0.1875,2 l -29.9375,0 c -0.00562,-0.33179 0.019506,-0.653335 0.125,-0.96875 0.1521536,-0.903219 0.870193,-1.027145 1.59375,-1.03125 z m -1.71875,8.71875 30.8125,0 c -0.02411,3.148158 0.05496,6.292479 -0.03125,9.4375 l -0.03125,0.25 -0.0625,0.21875 c -0.204695,1.203855 -1.4207,1.017346 -2.3125,1 l -27.3125,0 C 4.401739,29.377997 4.6015992,27.80271 4.59375,26.71875 l 0,-7.8125 z m 7.78125,4.625 c -1.277856,-0.0048 -2.5691569,-0.01566 -3.84375,0.03125 -1.993138,0.289387 -2.150288,3.42089 -0.1875,3.90625 1.804668,0.196777 3.64968,0.04378 5.46875,0.09375 1.278679,-0.119326 2.76497,0.362069 3.8125,-0.59375 1.275023,-1.195042 0.347568,-3.487054 -1.40625,-3.4375 -1.276727,0.01306 -2.565894,0.0048 -3.84375,0 z m 14.21875,0 c -1.734831,-0.0049 -3.45595,-0.01592 -5.1875,0.03125 -1.992906,0.289172 -2.149911,3.420975 -0.1875,3.90625 1.8048,0.196762 3.618306,0.04379 5.4375,0.09375 1.845802,-0.02503 3.720946,0.06113 5.5625,-0.03125 1.992603,-0.289477 2.1502,-3.421205 0.1875,-3.90625 -0.193471,-0.06021 -0.391152,-0.09385 -0.59375,-0.09375 -1.733686,0.01325 -3.483919,0.0049 -5.21875,0 z"
     id="path22"
     style="fill:#000000;fill-opacity:1;fill-rule:nonzero;stroke:none" /></svg>