<?xml version="1.0" encoding="UTF-8" standalone="no"?>
<!-- Created with Inkscape (http://www.inkscape.org/) -->

<svg
   xmlns:dc="http://purl.org/dc/elements/1.1/"
   xmlns:cc="http://creativecommons.org/ns#"
   xmlns:rdf="http://www.w3.org/1999/02/22-rdf-syntax-ns#"
   xmlns:svg="http://www.w3.org/2000/svg"
   xmlns="http://www.w3.org/2000/svg"
   version="1.1"
   width="40"
   height="40"
   id="svg2"
   xml:space="preserve"><metadata
     id="metadata8"><rdf:RDF><cc:Work
         rdf:about=""><dc:format>image/svg+xml</dc:format><dc:type
           rdf:resource="http://purl.org/dc/dcmitype/StillImage" /><dc:title></dc:title></cc:Work></rdf:RDF></metadata><defs
     id="defs6"><clipPath
       id="clipPath16"><path
         d="M 0,55 55,55 55,0 0,0 0,55 z"
         id="path18" /></clipPath></defs><g
     transform="matrix(1.25,0,0,-1.25,-9.9682207,49.250374)"
     id="g10"><g
       id="g12"><g
         clip-path="url(#clipPath16)"
         id="g14"><g
           transform="translate(11.0942,31.5737)"
           id="g20" /><g
           transform="translate(42.3496,21.3613)"
           id="g24"><g
             transform="matrix(0.80932203,0,0,0.80932203,-6.3569865,-2.4961987)"
             id="g2992"><path
               d="m 0,0 8.737,0 0,1.833 c 0.193,3.306 1.644,7.106 5.097,7.106 0.95,-0.003 1.807,-0.131 2.572,-0.37 l 0,2.902 14.664,0 0,-7.987 -10.493,0 C 20.613,3.264 20.644,3.04 20.667,2.808 20.697,2.584 20.728,1.983 20.745,0 l 12.063,0 c 0.965,0 1.742,0.78 1.742,1.743 l 0,11.469 c 0,0.964 -0.777,1.744 -1.742,1.744 L 0,14.956 c -0.961,0 -1.74,-0.78 -1.74,-1.744 l 0,-11.469 C -1.74,0.78 -0.961,0 0,0"
               transform="translate(-31.2554,10.2124)"
               id="path22"
               style="fill:#373535;fill-opacity:1;fill-rule:nonzero;stroke:none" /><path
               d="M 0,0 C -0.65,0 -1.198,-0.082 -1.654,-0.229 -2.041,0.84 -2.581,1.621 -3.291,2.131 -4.127,2.734 -5.025,2.822 -5.678,2.695 -6.355,2.64 -6.922,2.379 -7.389,1.977 -7.537,2.205 -7.711,2.41 -7.906,2.592 -8.581,3.222 -9.48,3.525 -10.438,3.456 -10.783,3.434 -11.1,3.369 -11.387,3.273 c 0.01,4.487 0.004,9.023 -0.082,9.713 -0.437,4.392 -3.47,5.325 -5.937,5.334 l -0.015,0 c -2.832,0 -4.043,-3.295 -4.215,-6.221 l 0,-13.624 c -1.383,1.429 -2.679,2.082 -2.725,2.102 -2.623,1.634 -4.837,2.237 -6.629,1.771 -1.118,-0.29 -1.746,-0.92 -2.047,-1.309 -1.336,-1.306 -1.439,-2.607 -1.283,-3.484 0.443,-2.532 3.56,-4.102 4.546,-4.536 1.83,-1.314 3.288,-3.744 4.284,-6.98 l 3.506,0 c -1.044,3.924 -2.868,7.667 -6.025,9.827 -0.093,0.063 -0.191,0.118 -0.294,0.161 -1.177,0.498 -2.622,1.528 -2.726,2.11 -0.019,0.105 0.143,0.334 0.398,0.569 0.132,0.122 0.397,0.247 0.483,0.403 0.312,0.08 1.493,0.203 4.148,-1.449 0.18,-0.09 4.364,-2.277 4.364,-7.583 l 0,-0.905 c 0,-0.922 0.749,-1.672 1.672,-1.672 0.928,0 1.678,0.75 1.678,1.672 l 0,0.905 c 0,0.019 0,0.039 -0.008,0.06 l 0,21.857 c 0.086,1.374 0.584,2.795 0.878,2.98 2.441,0.534 2.5,-1.132 2.643,-2.568 0.076,-0.83 0.042,-9.761 0,-16.056 -0.033,-0.733 -0.016,-1.284 -0.003,-1.477 0.04,-0.897 0.778,-1.6 1.672,-1.6 0.008,0 0.015,0 0.026,0.002 0.911,0.017 1.638,0.752 1.644,1.659 0.006,0.402 0.006,0.897 0.01,1.466 0.116,1.95 0.641,3.686 1.229,3.75 0.097,-0.093 0.595,-0.746 0.595,-4.463 l 0,-0.266 c -0.019,-0.435 -0.019,-0.73 -0.019,-0.785 0.007,-0.917 0.757,-1.693 1.678,-1.693 l 0.005,0 c 1.217,0.006 1.55,0.83 1.647,1.724 l 0.013,0 c 0,0.066 0,0.128 0.006,0.199 0.006,0.134 0.01,0.267 0.017,0.4 0.087,1.55 0.501,3.742 0.837,4.093 0.074,0.002 0.143,0.008 0.213,0.018 0.195,-0.201 0.903,-1.187 0.903,-4.828 0,-0.867 0.663,-1.59 1.529,-1.666 0.806,-0.099 1.636,0.515 1.792,1.371 0.075,0.433 0.12,0.854 0.168,1.254 0.04,0.387 0.097,0.969 0.125,1.06 0,0 0.163,0.087 0.686,0.087 0.311,0 1.326,-0.575 1.326,-7.962 0,-1.24 -0.045,-2.052 -0.146,-2.654 l 3.375,0 c 0.08,0.711 0.121,1.568 0.121,2.654 C 4.676,-7.076 4.676,0 0,0"
               id="path26"
               style="fill:#373535;fill-opacity:1;fill-rule:nonzero;stroke:none" /></g></g></g></g></g></svg>