<?xml version="1.0" encoding="UTF-8" standalone="no"?>
<!-- Created with Inkscape (http://www.inkscape.org/) -->

<svg
   xmlns:dc="http://purl.org/dc/elements/1.1/"
   xmlns:cc="http://creativecommons.org/ns#"
   xmlns:rdf="http://www.w3.org/1999/02/22-rdf-syntax-ns#"
   xmlns:svg="http://www.w3.org/2000/svg"
   xmlns="http://www.w3.org/2000/svg"
   version="1.1"
   width="40"
   height="40"
   id="svg2"
   xml:space="preserve"><metadata
     id="metadata8"><rdf:RDF><cc:Work
         rdf:about=""><dc:format>image/svg+xml</dc:format><dc:type
           rdf:resource="http://purl.org/dc/dcmitype/StillImage" /><dc:title></dc:title></cc:Work></rdf:RDF></metadata><defs
     id="defs6"><clipPath
       id="clipPath16"><path
         d="M 0,55 55,55 55,0 0,0 0,55 z"
         id="path18" /></clipPath></defs><path
     d="m 3.40625,0.21875 c -0.9721981,0 -1.75,0.77476696 -1.75,1.75 l 0,11.59375 c 0,0.974221 0.7778019,1.78125 1.75,1.78125 l 8.84375,0 0,-1.875 c 0.195249,-3.344523 1.663014,-7.1875 5.15625,-7.1875 0.96107,0.00303 1.819836,0.1332151 2.59375,0.375 l 0,-2.9375 14.84375,0 0,8.09375 -10.625,0 c 0.03642,0.222563 0.07048,0.452796 0.09375,0.6875 0.03035,0.22661 0.0453,0.837643 0.0625,2.84375 l 12.21875,0 c 0.976244,0 1.75,-0.807029 1.75,-1.78125 l 0,-11.59375 c 0,-0.97523304 -0.773756,-1.75 -1.75,-1.75 l -33.1875,0 z m 14,6.90625 c -2.865,0 -4.107246,3.352405 -4.28125,6.3125 l 0,13.78125 c -1.399116,-1.445651 -2.703464,-2.104767 -2.75,-2.125 -2.6535641,-1.653041 -4.9058687,-2.28393 -6.71875,-1.8125 -1.1310275,0.293379 -1.7579926,0.950217 -2.0625,1.34375 -1.35156778,1.321218 -1.43906779,2.644031 -1.28125,3.53125 0.44816206,2.561504 3.5962606,4.123443 4.59375,4.5625 1.851324,1.329311 3.3361441,3.788792 4.34375,7.0625 l 3.53125,0 C 11.725084,35.811525 9.881287,32.02892 6.6875,29.84375 6.5934163,29.780016 6.4792002,29.731001 6.375,29.6875 5.184285,29.183697 3.7302118,28.151281 3.625,27.5625 3.605779,27.456276 3.7732786,27.206489 4.03125,26.96875 c 0.1335381,-0.123421 0.4129979,-0.248432 0.5,-0.40625 0.3156356,-0.08093 1.5015626,-0.2025 4.1875,1.46875 0.1820974,0.09105 4.40625,2.319672 4.40625,7.6875 l 0,0.90625 c 0,0.932744 0.753745,1.6875 1.6875,1.6875 0.938814,0 1.71875,-0.754756 1.71875,-1.6875 l 0,-0.90625 c 0,-0.01922 -0.02315,-0.04125 -0.03125,-0.0625 l 0,-22.125 c 0.087,-1.390011 0.608824,-2.812844 0.90625,-3 2.469444,-0.540222 2.511583,1.141017 2.65625,2.59375 0.07688,0.839672 0.04249,9.881647 0,16.25 -0.03339,0.741541 -0.01319,1.273501 0,1.46875 0.04047,0.907453 0.814332,1.625 1.71875,1.625 0.921615,-0.0172 1.68143,-0.769932 1.6875,-1.6875 0.0061,-0.406685 -0.004,-0.89312 0,-1.46875 0.117352,-1.972722 0.655148,-3.716504 1.25,-3.78125 0.09813,0.09408 0.59375,0.739688 0.59375,4.5 l 0,0.28125 c -0.01922,0.440069 -0.03125,0.725609 -0.03125,0.78125 0.0071,0.927685 0.787019,1.71875 1.71875,1.71875 1.231181,-0.0061 1.55812,-0.845583 1.65625,-1.75 l 0.03125,0 c 0,-0.06677 -0.0061,-0.115673 0,-0.1875 0.0061,-0.135561 -0.0071,-0.2717 0,-0.40625 0.08801,-1.568061 0.503835,-3.80116 0.84375,-4.15625 0.07486,-0.002 0.147934,0.01011 0.21875,0 0.197272,0.203342 0.9375,1.191573 0.9375,4.875 0,0.877102 0.655159,1.610614 1.53125,1.6875 0.815392,0.100153 1.654682,-0.540275 1.8125,-1.40625 0.07587,-0.438045 0.107691,-0.845339 0.15625,-1.25 0.04047,-0.391509 0.127924,-0.970439 0.15625,-1.0625 0,0 0.158406,-0.09375 0.6875,-0.09375 0.314624,0 1.34375,0.558173 1.34375,8.03125 0,1.254449 -0.05407,2.078485 -0.15625,2.6875 l 3.40625,0 c 0.08093,-0.719285 0.125,-1.588846 0.125,-2.6875 0,-4.280302 0.01174,-11.4375 -4.71875,-11.4375 -0.657574,0 -1.226187,0.101292 -1.6875,0.25 C 32.95224,24.824794 32.405773,24.015942 31.6875,23.5 c -0.845742,-0.610027 -1.745641,-0.69098 -2.40625,-0.5625 -0.684889,0.05564 -1.246309,0.312066 -1.71875,0.71875 -0.149725,-0.230657 -0.333977,-0.44088 -0.53125,-0.625 -0.682865,-0.637341 -1.593337,-0.913554 -2.5625,-0.84375 -0.34902,0.02226 -0.678406,0.05913 -0.96875,0.15625 0.01012,-4.539284 -0.0068,-9.11446 -0.09375,-9.8125 -0.442092,-4.4431781 -3.504254,-5.3971451 -6,-5.40625 z"
     id="path22"
     style="fill:#000000;fill-opacity:1;fill-rule:nonzero;stroke:none" /></svg>