<?xml version="1.0" encoding="UTF-8" standalone="no"?>
<!-- Created with Inkscape (http://www.inkscape.org/) -->

<svg
   xmlns:dc="http://purl.org/dc/elements/1.1/"
   xmlns:cc="http://creativecommons.org/ns#"
   xmlns:rdf="http://www.w3.org/1999/02/22-rdf-syntax-ns#"
   xmlns:svg="http://www.w3.org/2000/svg"
   xmlns="http://www.w3.org/2000/svg"
   version="1.1"
   width="40"
   height="40"
   id="svg2"
   xml:space="preserve"><metadata
     id="metadata8"><rdf:RDF><cc:Work
         rdf:about=""><dc:format>image/svg+xml</dc:format><dc:type
           rdf:resource="http://purl.org/dc/dcmitype/StillImage" /><dc:title></dc:title></cc:Work></rdf:RDF></metadata><defs
     id="defs6"><clipPath
       id="clipPath16"><path
         d="M 0,55 55,55 55,0 0,0 0,55 z"
         id="path18" /></clipPath></defs><path
     d="m 15.8125,0.21875 c -0.374966,0 -0.743145,0.0662157 -1.09375,0.15625 -0.349545,0.0879159 -0.688587,0.21081979 -1,0.375 -0.303998,0.15994331 -0.599601,0.36072 -0.875,0.59375 -0.252096,0.2139639 -0.479891,0.4602986 -0.6875,0.71875 -0.203371,0.2542145 -0.397261,0.5106202 -0.5625,0.8125 -0.154647,0.2870506 -0.29609,0.6112581 -0.40625,0.9375 -0.105922,0.3156497 -0.16473,0.642508 -0.21875,0.96875 -0.05402,0.3378935 -0.09375,0.6578696 -0.09375,1 l 0,7.4375 -4.875,0 c -2.2275548,0 -3.96875,2.014532 -3.96875,4.59375 l 0,17.375 c 0,2.579218 1.7411952,4.59375 3.96875,4.59375 l 10.65625,0 c 1.868477,0 3.369743,-1.421258 3.8125,-3.40625 l 12.5625,0 c 0.374966,0 0.733612,-0.06303 1.09375,-0.15625 0.331538,-0.08474 0.663166,-0.201286 1,-0.375 0.296583,-0.156765 0.571529,-0.366016 0.84375,-0.59375 0.266925,-0.224556 0.518556,-0.462417 0.71875,-0.71875 0.204431,-0.256333 0.381899,-0.537101 0.53125,-0.8125 0.154647,-0.281754 0.291854,-0.575771 0.40625,-0.90625 0.104864,-0.310353 0.192801,-0.663166 0.25,-1 0.05508,-0.336834 0.09375,-0.682764 0.09375,-1.03125 l 0,-25 C 37.96875,5.4338235 37.93008,5.085775 37.875,4.75 37.817801,4.4110473 37.731982,4.0968997 37.625,3.78125 37.5159,3.4645411 37.374457,3.1609914 37.21875,2.875 37.065163,2.5932456 36.891931,2.3209515 36.6875,2.0625 36.480951,1.8008709 36.240972,1.5412931 35.96875,1.3125 35.69547,1.0837069 35.409932,0.89829181 35.125,0.75 34.802995,0.57946442 34.46819,0.46185663 34.125,0.375 33.763804,0.28284723 33.405157,0.21875 33.03125,0.21875 l -17.21875,0 z m 0.09375,4.8125 17.03125,0 c 0.03072,0.039191 0.04026,0.081572 0.0625,0.125 0.02966,0.052961 0.07468,0.1334795 0.09375,0.1875 0.02224,0.067791 0.02066,0.1154725 0.03125,0.1875 0.01377,0.079442 0.03125,0.166321 0.03125,0.25 l 0,25 c 0,0.08474 -0.01858,0.172676 -0.03125,0.25 -0.01165,0.07309 -0.01113,0.160493 -0.03125,0.21875 -0.01907,0.05826 -0.0588,0.09164 -0.09375,0.15625 -0.02013,0.03919 -0.03179,0.09375 -0.0625,0.15625 l -12.3125,0 0,-13.75 c 0,-2.579218 -1.742254,-4.59375 -3.96875,-4.59375 l -0.96875,0 0,-7.4375 c 0,-0.085797 -0.01379,-0.1694988 0,-0.25 0.01165,-0.076264 0.0445,-0.131361 0.0625,-0.1875 0.02118,-0.061435 0.0392,-0.1117625 0.0625,-0.15625 0.02118,-0.039191 0.0588,-0.0874 0.09375,-0.15625 z m -9.0625,13 8.96875,0 0,16.9375 -8.96875,0 0,-16.9375 z m 17.5625,9.34375 c -0.948008,0 -1.71875,0.771801 -1.71875,1.71875 0,0.948008 0.770742,1.71875 1.71875,1.71875 0.949068,0 1.71875,-0.770742 1.71875,-1.71875 0,-0.946949 -0.769682,-1.71875 -1.71875,-1.71875 z M 11.3125,30.8125 c -0.949068,0 -1.71875,0.770742 -1.71875,1.71875 0,0.946949 0.769682,1.71875 1.71875,1.71875 0.949068,0 1.71875,-0.771801 1.71875,-1.71875 0,-0.948008 -0.769682,-1.71875 -1.71875,-1.71875 z"
     id="path22"
     style="fill:#000000;fill-opacity:1;fill-rule:nonzero;stroke:none" /></svg>