<?xml version="1.0" encoding="UTF-8" standalone="no"?>
<!-- Created with Inkscape (http://www.inkscape.org/) -->

<svg
   xmlns:dc="http://purl.org/dc/elements/1.1/"
   xmlns:cc="http://creativecommons.org/ns#"
   xmlns:rdf="http://www.w3.org/1999/02/22-rdf-syntax-ns#"
   xmlns:svg="http://www.w3.org/2000/svg"
   xmlns="http://www.w3.org/2000/svg"
   version="1.1"
   width="40"
   height="40"
   id="svg2"
   xml:space="preserve"><metadata
     id="metadata8"><rdf:RDF><cc:Work
         rdf:about=""><dc:format>image/svg+xml</dc:format><dc:type
           rdf:resource="http://purl.org/dc/dcmitype/StillImage" /><dc:title></dc:title></cc:Work></rdf:RDF></metadata><defs
     id="defs6"><clipPath
       id="clipPath16"><path
         d="M 0,55 55,55 55,0 0,0 0,55 z"
         id="path18" /></clipPath></defs><g
     transform="matrix(1.25,0,0,-1.25,-14.224875,51.157751)"
     id="g10"><g
       id="g12"><g
         clip-path="url(#clipPath16)"
         id="g14"><g
           transform="translate(40.7559,17.4072)"
           id="g20" /><g
           transform="translate(20.1455,14.1533)"
           id="g24" /><g
           transform="translate(32.5059,20.6357)"
           id="g28"><g
             transform="matrix(0.84738178,0,0,0.84738178,-1.5919943,-1.6077001)"
             id="g2995"><path
               d="M 0,0 C 0,-0.08 -0.006,-0.159 -0.018,-0.232 -0.029,-0.301 -0.045,-0.368 -0.064,-0.423 -0.082,-0.478 -0.104,-0.528 -0.137,-0.589 -0.156,-0.626 -0.18,-0.661 -0.209,-0.72 l -11.635,0 0,12.963 c 0,2.435 -1.646,4.342 -3.748,4.342 l -0.907,0 0,7.018 c 0,0.081 0.007,0.161 0.02,0.237 0.011,0.072 0.03,0.141 0.047,0.194 0.02,0.058 0.044,0.112 0.066,0.154 0.02,0.037 0.042,0.071 0.075,0.136 l 16.162,0 -0.084,-0.016 c 0.029,-0.037 0.057,-0.077 0.078,-0.118 0.028,-0.05 0.051,-0.104 0.069,-0.155 0.021,-0.064 0.037,-0.131 0.047,-0.199 C -0.006,23.761 0,23.682 0,23.603 L 0,0 z m -16.378,-3.946 -8.463,0 0,15.996 8.463,0 0,-15.996 z M 4.457,24.575 c -0.054,0.32 -0.131,0.63 -0.232,0.928 -0.103,0.299 -0.229,0.587 -0.376,0.857 -0.145,0.266 -0.316,0.523 -0.509,0.767 -0.195,0.247 -0.418,0.477 -0.675,0.693 -0.258,0.216 -0.531,0.4 -0.8,0.54 -0.304,0.161 -0.625,0.286 -0.949,0.368 -0.341,0.087 -0.692,0.131 -1.045,0.131 l -16.239,0 c -0.354,0 -0.707,-0.045 -1.038,-0.13 -0.33,-0.083 -0.653,-0.208 -0.947,-0.363 -0.287,-0.151 -0.563,-0.336 -0.823,-0.556 -0.238,-0.202 -0.459,-0.43 -0.655,-0.674 -0.192,-0.24 -0.366,-0.501 -0.522,-0.786 -0.146,-0.271 -0.272,-0.558 -0.376,-0.866 -0.1,-0.298 -0.176,-0.606 -0.227,-0.914 -0.051,-0.319 -0.078,-0.644 -0.078,-0.967 l 0,-7.018 -4.592,0 c -2.103,0 -3.75,-1.907 -3.75,-4.342 l 0,-16.381 c 0,-2.435 1.647,-4.343 3.75,-4.343 l 10.034,0 c 1.764,0 3.195,1.351 3.613,3.225 l 11.85,0 c 0.354,0 0.707,0.045 1.047,0.133 0.313,0.08 0.625,0.2 0.943,0.364 0.28,0.148 0.55,0.33 0.807,0.545 0.252,0.212 0.481,0.448 0.67,0.69 0.193,0.242 0.367,0.503 0.508,0.763 0.146,0.266 0.273,0.555 0.381,0.867 0.099,0.293 0.176,0.603 0.23,0.921 0.052,0.318 0.078,0.644 0.078,0.973 l 0,23.603 c 0,0.328 -0.026,0.655 -0.078,0.972"
               transform="translate(8.25,-3.2285)"
               id="path22"
               style="fill:#3b393c;fill-opacity:1;fill-rule:nonzero;stroke:none" /><path
               d="M 0,0 C 0.896,0 1.621,0.726 1.621,1.62 1.621,2.515 0.896,3.241 0,3.241 -0.896,3.241 -1.621,2.515 -1.621,1.62 -1.621,0.726 -0.896,0 0,0"
               transform="translate(-12.3604,-6.4824)"
               id="path26"
               style="fill:#3b393c;fill-opacity:1;fill-rule:nonzero;stroke:none" /><path
               d="m 0,0 c -0.895,0 -1.62,-0.726 -1.62,-1.62 0,-0.895 0.725,-1.621 1.62,-1.621 0.896,0 1.621,0.726 1.621,1.621 C 1.621,-0.726 0.896,0 0,0"
               id="path30"
               style="fill:#3b393c;fill-opacity:1;fill-rule:nonzero;stroke:none" /></g></g></g></g></g></svg>