<?xml version="1.0" encoding="UTF-8" standalone="no"?>
<!-- Created with Inkscape (http://www.inkscape.org/) -->

<svg
   xmlns:dc="http://purl.org/dc/elements/1.1/"
   xmlns:cc="http://creativecommons.org/ns#"
   xmlns:rdf="http://www.w3.org/1999/02/22-rdf-syntax-ns#"
   xmlns:svg="http://www.w3.org/2000/svg"
   xmlns="http://www.w3.org/2000/svg"
   version="1.1"
   width="40"
   height="40"
   id="svg2"
   xml:space="preserve"><metadata
     id="metadata8"><rdf:RDF><cc:Work
         rdf:about=""><dc:format>image/svg+xml</dc:format><dc:type
           rdf:resource="http://purl.org/dc/dcmitype/StillImage" /><dc:title></dc:title></cc:Work></rdf:RDF></metadata><defs
     id="defs6"><clipPath
       id="clipPath16"><path
         d="M 0,55 55,55 55,0 0,0 0,55 z"
         id="path18" /></clipPath></defs><g
     transform="matrix(1.25,0,0,-1.25,-17.227625,49.32825)"
     id="g10"><g
       id="g12"><g
         clip-path="url(#clipPath16)"
         id="g14"><g
           transform="translate(35.9961,13.3926)"
           id="g20" /><g
           transform="translate(31.6992,17.9121)"
           id="g24"><g
             transform="matrix(0.80932203,0,0,0.80932203,1.7593263,-1.7855995)"
             id="g2992"><path
               d="m 0,0 c 0,-0.914 -0.491,-1.394 -0.662,-1.394 l -16.356,0 c -0.17,0 -0.661,0.48 -0.661,1.394 l 0,27.166 c 0,0.916 0.491,1.397 0.661,1.397 l 16.356,0 C -0.491,28.563 0,28.082 0,27.166 L 0,0 z m -0.662,33.098 -16.356,0 c -2.865,0 -5.196,-2.661 -5.196,-5.932 l 0,-27.166 c 0,-3.27 2.331,-5.93 5.196,-5.93 l 16.356,0 c 2.866,0 5.197,2.66 5.197,5.93 l 0,27.166 c 0,3.271 -2.331,5.932 -5.197,5.932"
               transform="translate(4.2969,-4.5195)"
               id="path22"
               style="fill:#373535;fill-opacity:1;fill-rule:nonzero;stroke:none" /><path
               d="m 0,0 -9.083,0 c -1.096,0 -1.985,-0.889 -1.985,-1.984 0,-1.096 0.889,-1.985 1.985,-1.985 l 9.083,0 c 1.096,0 1.984,0.889 1.984,1.985 C 1.984,-0.889 1.096,0 0,0"
               id="path26"
               style="fill:#373535;fill-opacity:1;fill-rule:nonzero;stroke:none" /></g></g></g></g></g></svg>