<?xml version="1.0" encoding="UTF-8" standalone="no"?>
<!-- Created with Inkscape (http://www.inkscape.org/) -->

<svg
   xmlns:dc="http://purl.org/dc/elements/1.1/"
   xmlns:cc="http://creativecommons.org/ns#"
   xmlns:rdf="http://www.w3.org/1999/02/22-rdf-syntax-ns#"
   xmlns:svg="http://www.w3.org/2000/svg"
   xmlns="http://www.w3.org/2000/svg"
   version="1.1"
   width="40"
   height="40"
   id="svg2"
   xml:space="preserve"><metadata
     id="metadata8"><rdf:RDF><cc:Work
         rdf:about=""><dc:format>image/svg+xml</dc:format><dc:type
           rdf:resource="http://purl.org/dc/dcmitype/StillImage" /><dc:title></dc:title></cc:Work></rdf:RDF></metadata><defs
     id="defs6"><clipPath
       id="clipPath16"><path
         d="M 0,55 55,55 55,0 0,0 0,55 z"
         id="path18" /></clipPath></defs><path
     d="m 11.71875,0.25 c -2.8983847,0 -5.25,2.6908847 -5.25,6 l 0,27.5 c 0,3.308104 2.3516153,6 5.25,6 l 16.5625,0 c 2.899396,0 5.25,-2.691896 5.25,-6 l 0,-27.5 c 0,-3.3091153 -2.350604,-6 -5.25,-6 l -16.5625,0 z m 0,4.59375 16.5625,0 c 0.172993,0 0.65625,0.4795763 0.65625,1.40625 l 0,27.5 c 0,0.92465 -0.483257,1.40625 -0.65625,1.40625 l -16.5625,0 c -0.171981,0 -0.65625,-0.4816 -0.65625,-1.40625 l 0,-27.5 c 0,-0.9266737 0.484269,-1.40625 0.65625,-1.40625 z m 3.6875,24.3125 c -1.108771,0 -2,0.92349 -2,2.03125 0,1.108771 0.891229,2 2,2 l 9.1875,0 c 1.108771,0 2,-0.891229 2,-2 0,-1.10776 -0.891229,-2.03125 -2,-2.03125 l -9.1875,0 z"
     id="path22"
     style="fill:#000000;fill-opacity:1;fill-rule:nonzero;stroke:none" /></svg>