<?xml version="1.0" encoding="UTF-8" standalone="no"?>
<!-- Created with Inkscape (http://www.inkscape.org/) -->

<svg
   xmlns:dc="http://purl.org/dc/elements/1.1/"
   xmlns:cc="http://creativecommons.org/ns#"
   xmlns:rdf="http://www.w3.org/1999/02/22-rdf-syntax-ns#"
   xmlns:svg="http://www.w3.org/2000/svg"
   xmlns="http://www.w3.org/2000/svg"
   version="1.1"
   width="40"
   height="40"
   id="svg2"
   xml:space="preserve"><metadata
     id="metadata8"><rdf:RDF><cc:Work
         rdf:about=""><dc:format>image/svg+xml</dc:format><dc:type
           rdf:resource="http://purl.org/dc/dcmitype/StillImage" /><dc:title></dc:title></cc:Work></rdf:RDF></metadata><defs
     id="defs6"><clipPath
       id="clipPath16"><path
         d="M 0,55 55,55 55,0 0,0 0,55 z"
         id="path18" /></clipPath></defs><path
     d="M 5.40625,3.8125 C 4.8477465,3.8620766 4.2813331,3.9874954 3.75,4.1875 3.0647011,4.4491413 2.4638015,4.842552 1.9375,5.3125 1.3820155,5.8055931 0.94400109,6.3912895 0.625,7.0625 0.2979484,7.7628935 0.125,8.4882213 0.125,9.25 l 0,21.5 c 0,0.756747 0.16691053,1.502255 0.5,2.21875 0.3119569,0.657122 0.7428728,1.242764 1.28125,1.71875 0.5333457,0.48303 1.1604637,0.865371 1.84375,1.125 0.6933493,0.265666 1.4499272,0.375 2.21875,0.375 l 28.0625,0 c 0.768823,0 1.515283,-0.117384 2.1875,-0.375 0.699387,-0.261641 1.32248,-0.652033 1.84375,-1.125 0.558503,-0.497118 0.999537,-1.06364 1.3125,-1.71875 0.328058,-0.696368 0.5,-1.447915 0.5,-2.21875 l 0,-21.5 c 0,-0.7758671 -0.168923,-1.5223817 -0.5,-2.21875 C 39.06405,6.3791594 38.614965,5.8055932 38.0625,5.3125 37.525129,4.8324889 36.910087,4.4471286 36.21875,4.1875 35.522382,3.9248524 34.785984,3.8125 34.03125,3.8125 l -28.0625,0 c -0.1886836,0 -0.3763322,-0.016526 -0.5625,0 z m 0.25,4.5625 c 0.096983,-0.017107 0.2103593,0 0.3125,0 l 28.0625,0 c 0.204281,0 0.415633,0.026328 0.59375,0.09375 0.158998,0.060379 0.288511,0.1453435 0.40625,0.25 C 35.12987,8.807306 35.201697,8.8993688 35.25,9 c 0.03623,0.077486 0.0625,0.1564129 0.0625,0.25 l 0,18.15625 -5.5,-7.15625 c -0.331076,-0.431708 -0.856803,-0.71467 -1.40625,-0.6875 -0.543409,0.01107 -1.029781,0.306216 -1.34375,0.75 0,0 -1.061273,1.452183 -2.09375,2.9375 -0.227427,0.326045 -0.440899,0.656793 -0.65625,0.96875 -1.600037,-1.996524 -4.609563,-5.465633 -10.21875,-11.78125 -0.36026,-0.405544 -0.892079,-0.609796 -1.4375,-0.5625 -0.541396,0.04931 -1.030732,0.34859 -1.3125,0.8125 l -6.65625,11 0,-14.4375 C 4.6875,9.161444 4.714779,9.0764798 4.75,9 4.7993094,8.8973562 4.8681188,8.8073056 4.96875,8.71875 5.0824633,8.6161062 5.2240531,8.5261098 5.375,8.46875 5.4655681,8.4345354 5.5592666,8.3921073 5.65625,8.375 z m 24,2.46875 c -1.507456,0 -2.71875,1.210288 -2.71875,2.71875 0,1.510476 1.211294,2.75 2.71875,2.75 1.509469,0 2.75,-1.239524 2.75,-2.75 0,-1.508462 -1.240531,-2.71875 -2.75,-2.71875 z M 13.09375,16.4375 23.21875,28.5 c 0.629952,0.581649 1.591872,0.5817 2.25,0.03125 0.215351,-0.179124 1.852858,-2.660189 3.03125,-4.34375 l 5.75,7.4375 c -0.06642,0.0081 -0.148308,0 -0.21875,0 l -28.0625,0 C 5.762456,31.625 5.55513,31.601688 5.375,31.53125 5.217009,31.47188 5.0965517,31.396976 4.96875,31.28125 4.87315,31.19672 4.7892462,31.113768 4.75,31.03125 4.706729,30.93766 4.6875,30.836542 4.6875,30.75 l 0,-0.46875 8.40625,-13.84375 z"
     id="path22"
     style="fill:#3b393c;fill-opacity:1;fill-rule:nonzero;stroke:none" /></svg>