<?xml version="1.0" encoding="UTF-8" standalone="no"?>
<!-- Created with Inkscape (http://www.inkscape.org/) -->

<svg
   xmlns:dc="http://purl.org/dc/elements/1.1/"
   xmlns:cc="http://creativecommons.org/ns#"
   xmlns:rdf="http://www.w3.org/1999/02/22-rdf-syntax-ns#"
   xmlns:svg="http://www.w3.org/2000/svg"
   xmlns="http://www.w3.org/2000/svg"
   version="1.1"
   width="40"
   height="40"
   id="svg2"
   xml:space="preserve"><metadata
     id="metadata8"><rdf:RDF><cc:Work
         rdf:about=""><dc:format>image/svg+xml</dc:format><dc:type
           rdf:resource="http://purl.org/dc/dcmitype/StillImage" /><dc:title></dc:title></cc:Work></rdf:RDF></metadata><defs
     id="defs6"><clipPath
       id="clipPath16"><path
         d="M 0,55 55,55 55,0 0,0 0,55 z"
         id="path18" /></clipPath></defs><g
     transform="matrix(1.25,0,0,-1.25,-9.194875,53.624501)"
     id="g10"><g
       id="g12"><g
         clip-path="url(#clipPath16)"
         id="g14"><g
           transform="translate(30.2939,18.5566)"
           id="g20" /><g
           transform="translate(36.6982,30.6694)"
           id="g24"><g
             transform="matrix(0.80505007,0,0,0.80505007,-5.6176031,-0.8162315)"
             id="g2992"><path
               d="M 0,0 C 0.626,-0.578 1.602,-0.594 2.256,-0.047 2.47,0.131 4.099,2.624 5.27,4.297 l 5.688,-7.402 c -0.066,-0.008 -0.133,-0.016 -0.203,-0.016 l -27.894,0 c -0.205,0 -0.393,0.031 -0.572,0.101 -0.157,0.059 -0.296,0.141 -0.423,0.256 -0.095,0.084 -0.165,0.174 -0.204,0.256 -0.043,0.093 -0.065,0.184 -0.065,0.27 l 0,0.461 8.334,13.749 m -8.277,7.406 c 0.049,0.102 0.121,0.197 0.221,0.285 0.113,0.102 0.259,0.188 0.409,0.245 0.18,0.068 0.374,0.102 0.577,0.102 l 27.894,0 c 0.203,0 0.397,-0.034 0.574,-0.101 0.158,-0.06 0.297,-0.142 0.414,-0.246 0.098,-0.088 0.174,-0.186 0.222,-0.286 0.036,-0.077 0.055,-0.161 0.055,-0.254 l 0,-18.026 -5.464,7.106 C 6.227,8.632 5.719,8.894 5.173,8.867 4.633,8.856 4.13,8.589 3.818,8.148 3.818,8.148 2.782,6.681 1.756,5.205 1.53,4.881 1.305,4.556 1.091,4.246 -0.499,6.23 -3.481,9.682 -9.055,15.958 c -0.358,0.403 -0.883,0.611 -1.425,0.564 -0.538,-0.049 -1.021,-0.351 -1.301,-0.812 l -6.622,-10.926 0,14.339 c 0,0.088 0.022,0.179 0.057,0.255 m 34.406,1.949 c -0.309,0.648 -0.746,1.227 -1.295,1.717 -0.534,0.477 -1.151,0.851 -1.838,1.109 -0.692,0.261 -1.422,0.392 -2.172,0.392 l -27.894,0 c -0.75,0 -1.481,-0.131 -2.185,-0.396 -0.681,-0.26 -1.295,-0.632 -1.818,-1.099 -0.552,-0.49 -0.989,-1.071 -1.306,-1.738 -0.325,-0.696 -0.49,-1.432 -0.49,-2.189 l 0,-21.361 c 0,-0.752 0.164,-1.487 0.495,-2.199 0.31,-0.653 0.75,-1.234 1.285,-1.707 0.53,-0.48 1.15,-0.856 1.829,-1.114 0.689,-0.264 1.426,-0.399 2.19,-0.399 l 27.894,0 c 0.764,0 1.5,0.135 2.168,0.391 0.695,0.26 1.318,0.637 1.836,1.107 0.555,0.494 0.993,1.073 1.304,1.724 0.326,0.692 0.493,1.431 0.493,2.197 l 0,21.361 c 0,0.771 -0.167,1.512 -0.496,2.204"
               transform="translate(-6.4043,-12.1128)"
               id="path22"
               style="fill:#3b393c;fill-opacity:1;fill-rule:nonzero;stroke:none" /><path
               d="M 0,0 C 1.5,0 2.718,1.217 2.718,2.718 2.718,4.217 1.5,5.429 0,5.429 -1.498,5.429 -2.716,4.217 -2.716,2.718 -2.716,1.217 -1.498,0 0,0"
               id="path26"
               style="fill:#3b393c;fill-opacity:1;fill-rule:nonzero;stroke:none" /></g></g></g></g></g></svg>