<?xml version="1.0" encoding="UTF-8" standalone="no"?>
<!-- Created with Inkscape (http://www.inkscape.org/) -->

<svg
   xmlns:dc="http://purl.org/dc/elements/1.1/"
   xmlns:cc="http://creativecommons.org/ns#"
   xmlns:rdf="http://www.w3.org/1999/02/22-rdf-syntax-ns#"
   xmlns:svg="http://www.w3.org/2000/svg"
   xmlns="http://www.w3.org/2000/svg"
   version="1.1"
   width="40"
   height="40"
   id="svg2"
   xml:space="preserve"><metadata
     id="metadata8"><rdf:RDF><cc:Work
         rdf:about=""><dc:format>image/svg+xml</dc:format><dc:type
           rdf:resource="http://purl.org/dc/dcmitype/StillImage" /><dc:title></dc:title></cc:Work></rdf:RDF></metadata><defs
     id="defs6"><clipPath
       id="clipPath16"><path
         d="M 0,55 55,55 55,0 0,0 0,55 z"
         id="path18" /></clipPath></defs><path
     d="m 19.8125,0.25 c -1.78483,0.0203158 -3.561956,0.48385083 -5.125,1.40625 -5.3588128,2.961269 -7.5658979,10.05721 -5.4375,15.6875 2.750257,6.65 5.542285,13.264137 8.3125,19.90625 0.418214,1.125995 0.991246,2.5635 2.4375,2.5 0.724433,0.0052 1.441455,-0.408809 1.8125,-1.03125 2.84487,-6.658892 5.596759,-13.35599 8.40625,-20.03125 2.402329,-4.888442 1.542063,-11.2609803 -2.375,-15.125 C 25.769989,1.3815609 22.787217,0.21614032 19.8125,0.25 z M 20,4.46875 c 0.840339,-6.801e-4 1.68965,0.1548627 2.46875,0.46875 4.050876,1.6369369 5.786201,6.732729 4.40625,10.71875 -2.256376,5.51253 -4.587755,10.99937 -6.875,16.5 L 14.15625,18.1875 C 13.278719,16.214814 12.423403,14.118065 12.71875,11.90625 12.972718,8.1357445 16.026101,4.431047 20,4.46875 z m -2.8125,3.125 c -0.42647,0 -0.830947,0.174697 -1.15625,0.5 -0.650606,0.6506061 -0.650606,1.6931443 0,2.34375 l 1.625,1.65625 -1.625,1.625 c -0.650606,0.650606 -0.650606,1.693144 0,2.34375 0.325303,0.325303 0.730025,0.5 1.15625,0.5 0.427206,0 0.862197,-0.174697 1.1875,-0.5 l 1.625,-1.625 1.625,1.625 c 0.325303,0.325303 0.761275,0.5 1.1875,0.5 0.426225,0 0.862197,-0.174697 1.1875,-0.5 0.651586,-0.650606 0.651586,-1.693144 0,-2.34375 l -1.625,-1.625 1.625,-1.625 c 0.651586,-0.6506058 0.651586,-1.7243939 0,-2.375 -0.650606,-0.650606 -1.724394,-0.650606 -2.375,0 L 20,9.71875 18.375,8.09375 c -0.325303,-0.325303 -0.76103,-0.5 -1.1875,-0.5 z"
     id="path22"
     style="fill:#000000;fill-opacity:1;fill-rule:nonzero;stroke:none" /></svg>