<?xml version="1.0" encoding="UTF-8" standalone="no"?>
<!-- Created with Inkscape (http://www.inkscape.org/) -->

<svg
   xmlns:dc="http://purl.org/dc/elements/1.1/"
   xmlns:cc="http://creativecommons.org/ns#"
   xmlns:rdf="http://www.w3.org/1999/02/22-rdf-syntax-ns#"
   xmlns:svg="http://www.w3.org/2000/svg"
   xmlns="http://www.w3.org/2000/svg"
   version="1.1"
   width="40"
   height="40"
   id="svg2"
   xml:space="preserve"><metadata
     id="metadata8"><rdf:RDF><cc:Work
         rdf:about=""><dc:format>image/svg+xml</dc:format><dc:type
           rdf:resource="http://purl.org/dc/dcmitype/StillImage" /><dc:title></dc:title></cc:Work></rdf:RDF></metadata><defs
     id="defs6"><clipPath
       id="clipPath16"><path
         d="M 0,55 55,55 55,0 0,0 0,55 z"
         id="path18" /></clipPath></defs><g
     transform="matrix(1.25,0,0,-1.25,-20.563875,49.187249)"
     id="g10"><g
       id="g12"><g
         clip-path="url(#clipPath16)"
         id="g14"><g
           transform="translate(28.2471,43.3408)"
           id="g20" /><g
           transform="translate(30.6504,35.5747)"
           id="g24"><g
             transform="matrix(0.78386271,0,0,0.78386271,3.6909945,-5.8902028)"
             id="g2993"><path
               d="m 0,0 c -4.0557087,0.038479 -7.1884279,-3.7407467 -7.447625,-7.588875 -0.3014267,-2.25735 0.5804138,-4.386605 1.476011,-6.399902 1.9902047,-4.755408 3.9804093,-9.510815 5.970614,-14.266223 2.3343322,5.613871 4.7189065,11.208375 7.0217344,16.834391 C 8.4290943,-7.3525283 6.643661,-2.1606363 2.5093906,-0.49 1.714251,-0.16965072 0.85763859,6.9411066e-4 0,0 z m 0,-35.991 c -1.4760279,-0.06481 -2.0659012,1.378961 -2.4927253,2.528137 -2.8272447,6.778853 -5.6869951,13.544861 -8.4938707,20.331763 -2.172215,5.7462004 0.08111,12.98312936 5.5502444,16.0053617 C -1.1824266,5.384631 4.6194712,4.4790124 8.0057969,0.91767188 12.0035,-3.0258959 12.873216,-9.517949 10.421431,-14.507028 7.5541017,-21.319711 4.7444779,-28.15909 1.841041,-34.955068 1.462357,-35.590323 0.73934652,-35.996353 0,-35.991 z"
               transform="translate(-2.4033,7.7661)"
               id="path22"
               style="fill:#3b393c;fill-opacity:1;fill-rule:nonzero;stroke:none" /><path
               d="m 0,0 1.662,1.662 c 0.665,0.664 0.665,1.741 0,2.405 -0.664,0.664 -1.74,0.664 -2.404,0 L -2.404,2.405 -4.067,4.068 c -0.664,0.664 -1.741,0.664 -2.405,0 -0.664,-0.664 -0.664,-1.741 0,-2.405 L -4.81,0 -6.472,-1.663 c -0.664,-0.664 -0.664,-1.741 0,-2.405 0.332,-0.332 0.767,-0.498 1.202,-0.498 0.436,0 0.871,0.166 1.203,0.498 l 1.663,1.662 1.662,-1.661 c 0.332,-0.332 0.767,-0.498 1.202,-0.498 0.435,0 0.87,0.166 1.202,0.498 0.665,0.664 0.665,1.741 0,2.405 L 0,0 z"
               id="path26"
               style="fill:#3b393c;fill-opacity:1;fill-rule:nonzero;stroke:none" /></g></g></g></g></g></svg>