<?xml version="1.0" encoding="UTF-8" standalone="no"?>
<!-- Created with Inkscape (http://www.inkscape.org/) -->

<svg
   xmlns:dc="http://purl.org/dc/elements/1.1/"
   xmlns:cc="http://creativecommons.org/ns#"
   xmlns:rdf="http://www.w3.org/1999/02/22-rdf-syntax-ns#"
   xmlns:svg="http://www.w3.org/2000/svg"
   xmlns="http://www.w3.org/2000/svg"
   version="1.1"
   width="40"
   height="40"
   id="svg2"
   xml:space="preserve"><metadata
     id="metadata8"><rdf:RDF><cc:Work
         rdf:about=""><dc:format>image/svg+xml</dc:format><dc:type
           rdf:resource="http://purl.org/dc/dcmitype/StillImage" /><dc:title></dc:title></cc:Work></rdf:RDF></metadata><defs
     id="defs6"><clipPath
       id="clipPath16"><path
         d="M 0,55 55,55 55,0 0,0 0,55 z"
         id="path18" /></clipPath></defs><path
     d="m 11.090042,32.256531 0,-24.51161 16.180593,12.257458 -16.180593,12.254152 z M 32.916821,18.011616 10.10072,0.72602225 C 9.3449574,0.15203975 8.3302963,0.05839475 7.4797879,0.48034475 6.6314827,0.9022935 6.0938556,1.7693272 6.0938556,2.7167847 l 0,34.5667803 c 0,0.94856 0.5376271,1.815593 1.3859323,2.237543 0.3525423,0.174067 0.7337287,0.26 1.1116101,0.26 0.5354238,0 1.0664406,-0.171865 1.509322,-0.505678 L 32.916821,21.995345 c 0.621356,-0.473729 0.989323,-1.209661 0.989323,-1.992966 0,-0.782204 -0.367967,-1.518137 -0.989323,-1.990763"
     id="path22"
     style="fill:#000000;fill-opacity:1;fill-rule:nonzero;stroke:none" /></svg>