<?xml version="1.0" encoding="UTF-8" standalone="no"?>
<!-- Created with Inkscape (http://www.inkscape.org/) -->

<svg
   xmlns:dc="http://purl.org/dc/elements/1.1/"
   xmlns:cc="http://creativecommons.org/ns#"
   xmlns:rdf="http://www.w3.org/1999/02/22-rdf-syntax-ns#"
   xmlns:svg="http://www.w3.org/2000/svg"
   xmlns="http://www.w3.org/2000/svg"
   version="1.1"
   width="40"
   height="40"
   id="svg3020">
  <metadata
     id="metadata3026">
    <rdf:RDF>
      <cc:Work
         rdf:about="">
        <dc:format>image/svg+xml</dc:format>
        <dc:type
           rdf:resource="http://purl.org/dc/dcmitype/StillImage" />
        <dc:title></dc:title>
      </cc:Work>
    </rdf:RDF>
  </metadata>
  <defs
     id="defs3024" />
  <path
     d="m 10.683585,39.600588 c -1.7736725,-0.434 -2.8259289,-1.657396 -2.9354492,-3.412873 -0.06488,-1.039949 0.078963,-1.539462 1.0033982,-3.484425 1.454475,-3.060139 1.961641,-4.787199 2.149678,-7.320323 l 0.06272,-0.84495 -1.5959425,-0.03296 C 7.8909871,24.474548 7.7320654,24.453263 7.2355465,24.219433 6.4877387,23.867261 6.1470034,23.550723 5.7853866,22.872262 5.1434911,21.667942 5.2896585,20.373354 6.1771706,19.402273 6.8794056,18.633916 7.3925918,18.441971 8.8727997,18.394036 9.9299659,18.359802 10.065264,18.336318 10.021575,18.194648 9.8957579,17.78667 9.2810815,14.531753 9.1904151,13.793382 8.8776148,11.245991 9.325679,8.5232226 10.413384,6.3617196 11.682809,3.839099 13.829668,1.965495 16.532794,1.0211935 18.180626,0.44554518 19.16383,0.29578097 21.330919,0.29032688 c 2.264844,-0.005697 3.236673,0.13425099 5.046532,0.72674012 1.89117,0.6191086 3.481643,1.5289637 5.107149,2.9216275 1.504382,1.2888884 2.067168,2.307434 1.966676,3.5593474 C 33.334809,8.948965 32.379057,10.006106 30.936402,10.279701 29.876747,10.480659 28.90618,10.090703 27.525079,8.9090872 25.31094,7.0147576 23.783924,6.3894102 21.351192,6.3807431 18.17144,6.3694141 16.084758,7.8799792 15.47133,10.637218 c -0.296869,1.33437 -0.09015,3.168775 0.796312,7.066232 l 0.150969,0.663759 3.91934,0.02852 3.919343,0.02852 c 1.529711,0.357151 2.311984,1.776885 2.335679,2.930452 0.0334,1.359 -1.108572,3.128176 -2.433226,3.11739 l -3.487263,0.02898 -3.487263,0.02898 0,0.438205 c 0,1.960857 -0.718009,5.145246 -1.702664,7.551363 l -0.419145,1.02423 8.596319,0.04877 8.286605,0.08319 c 0.858479,0.05375 1.88706,0.753274 2.38889,1.721411 0.3445,0.650864 0.368601,1.809775 0.05198,2.499359 -0.331719,0.792704 -1.482029,1.783179 -2.033607,1.792659 l -10.583723,0.01716 c -8.232004,0.01335 -10.695395,-0.01016 -11.086291,-0.10581 z"
     id="path3030"
     style="fill:#000000;fill-opacity:1" />
</svg>
