<?xml version="1.0" encoding="UTF-8" standalone="no"?>
<!-- Created with Inkscape (http://www.inkscape.org/) -->

<svg
   xmlns:dc="http://purl.org/dc/elements/1.1/"
   xmlns:cc="http://creativecommons.org/ns#"
   xmlns:rdf="http://www.w3.org/1999/02/22-rdf-syntax-ns#"
   xmlns:svg="http://www.w3.org/2000/svg"
   xmlns="http://www.w3.org/2000/svg"
   version="1.1"
   width="40"
   height="40"
   id="svg2"
   xml:space="preserve"><metadata
     id="metadata8"><rdf:RDF><cc:Work
         rdf:about=""><dc:format>image/svg+xml</dc:format><dc:type
           rdf:resource="http://purl.org/dc/dcmitype/StillImage" /><dc:title></dc:title></cc:Work></rdf:RDF></metadata><defs
     id="defs6"><clipPath
       id="clipPath16"><path
         d="M 0,55 55,55 55,0 0,0 0,55 z"
         id="path18" /></clipPath></defs><path
     d="m 20,0.125 c -1.296611,0 -2.34375,1.0471399 -2.34375,2.34375 l 0,15.6875 c 0,1.293559 1.047139,2.34375 2.34375,2.34375 1.297627,0 2.34375,-1.050191 2.34375,-2.34375 l 0,-15.6875 C 22.34375,1.1721399 21.297627,0.125 20,0.125 z m -6.84375,6.25 c -0.299031,0.016986 -0.589491,0.078157 -0.875,0.21875 -6.0518639,2.9715253 -9.8125,9.012713 -9.8125,15.75 0,9.665085 7.866166,17.53125 17.53125,17.53125 9.665084,0 17.53125,-7.866165 17.53125,-17.53125 0,-6.750508 -3.779683,-12.7835595 -9.84375,-15.75 -1.144068,-0.5593221 -2.504195,-0.081568 -3.0625,1.0625 -0.560339,1.1440678 -0.114851,2.534428 1.03125,3.09375 4.469491,2.186441 7.25,6.618835 7.25,11.59375 C 32.90625,29.466462 27.121695,35.25 20,35.25 12.878305,35.25 7.09375,29.466462 7.09375,22.34375 7.09375,17.379005 9.8511448,12.941525 14.3125,10.75 15.45555,10.189661 15.936356,8.8003177 15.375,7.65625 14.953983,6.7989622 14.053342,6.3240414 13.15625,6.375 z"
     id="path22"
     style="fill:#000000;fill-opacity:1;fill-rule:nonzero;stroke:none" /></svg>