<?xml version="1.0" encoding="UTF-8" standalone="no"?>
<!-- Created with Inkscape (http://www.inkscape.org/) -->

<svg
   xmlns:dc="http://purl.org/dc/elements/1.1/"
   xmlns:cc="http://creativecommons.org/ns#"
   xmlns:rdf="http://www.w3.org/1999/02/22-rdf-syntax-ns#"
   xmlns:svg="http://www.w3.org/2000/svg"
   xmlns="http://www.w3.org/2000/svg"
   version="1.1"
   width="40"
   height="40"
   id="svg2"
   xml:space="preserve"><metadata
     id="metadata8"><rdf:RDF><cc:Work
         rdf:about=""><dc:format>image/svg+xml</dc:format><dc:type
           rdf:resource="http://purl.org/dc/dcmitype/StillImage" /><dc:title></dc:title></cc:Work></rdf:RDF></metadata><defs
     id="defs6"><clipPath
       id="clipPath16"><path
         d="M 0,55 55,55 55,0 0,0 0,55 z"
         id="path18" /></clipPath></defs><g
     transform="matrix(1.25,0,0,-1.25,-12.83,50.3955)"
     id="g10"><g
       id="g12"><g
         clip-path="url(#clipPath16)"
         id="g14"><g
           transform="translate(29.8086,29.6758)"
           id="g20" /><g
           transform="translate(27.5,8.3164)"
           id="g24"><g
             transform="matrix(0.81355932,0,0,0.81355932,-1.236,0.10085428)"
             id="g2992"><path
               d="m 0,0 c 0,-1.272 -1.033,-2.309 -2.309,-2.309 -1.275,0 -2.309,1.037 -2.309,2.309 l 0,15.417 c 0,1.275 1.034,2.309 2.309,2.309 C -1.033,17.726 0,16.692 0,15.417 L 0,0 z"
               transform="translate(2.3086,21.3594)"
               id="path22"
               style="fill:#373535;fill-opacity:1;fill-rule:nonzero;stroke:none" /><path
               d="m 0,0 c -9.504,0 -17.236,7.732 -17.236,17.236 0,6.625 3.697,12.556 9.648,15.478 1.123,0.553 2.483,0.089 3.035,-1.035 0.552,-1.125 0.088,-2.484 -1.036,-3.035 -4.387,-2.155 -7.112,-6.526 -7.112,-11.408 0,-7.004 5.698,-12.7 12.701,-12.7 7.003,0 12.701,5.696 12.701,12.7 0,4.892 -2.73,9.266 -7.125,11.416 -1.127,0.55 -1.592,1.909 -1.041,3.034 0.549,1.125 1.908,1.59 3.033,1.04 5.963,-2.917 9.668,-8.852 9.668,-15.49 C 17.236,7.732 9.504,0 0,0"
               id="path26"
               style="fill:#373535;fill-opacity:1;fill-rule:nonzero;stroke:none" /></g></g></g></g></g></svg>