<?xml version="1.0" encoding="UTF-8" standalone="no"?>
<!-- Created with Inkscape (http://www.inkscape.org/) -->

<svg
   xmlns:dc="http://purl.org/dc/elements/1.1/"
   xmlns:cc="http://creativecommons.org/ns#"
   xmlns:rdf="http://www.w3.org/1999/02/22-rdf-syntax-ns#"
   xmlns:svg="http://www.w3.org/2000/svg"
   xmlns="http://www.w3.org/2000/svg"
   version="1.1"
   width="40"
   height="40"
   id="svg2"
   xml:space="preserve"><metadata
     id="metadata8"><rdf:RDF><cc:Work
         rdf:about=""><dc:format>image/svg+xml</dc:format><dc:type
           rdf:resource="http://purl.org/dc/dcmitype/StillImage" /><dc:title></dc:title></cc:Work></rdf:RDF></metadata><defs
     id="defs6"><clipPath
       id="clipPath16"><path
         d="M 0,55 55,55 55,0 0,0 0,55 z"
         id="path18" /></clipPath></defs><path
     d="m 8.75,2.375 0,9.5625 -4.71875,0 c -2.1156356,0 -3.84375,1.728114 -3.84375,3.84375 l 0,12.59375 c 0,2.113654 1.7281144,3.84375 3.84375,3.84375 l 5.125,0 0,5.40625 21.6875,0 0,-5.40625 5.125,0 c 2.113655,0 3.84375,-1.730096 3.84375,-3.84375 l 0,-12.59375 c 0,-2.115636 -1.730095,-3.84375 -3.84375,-3.84375 l -5.5625,0 0,-9.5625 -21.65625,0 z M 4.5,16.25 l 31,0 0,11.65625 -4.65625,0 0,-2.84375 -21.6875,0 0,2.84375 -4.65625,0 0,-11.65625 z m 27.28125,2.03125 c -0.929057,0 -1.6875,0.758443 -1.6875,1.6875 0,0.930048 0.758443,1.6875 1.6875,1.6875 0.929057,0 1.65625,-0.757452 1.65625,-1.6875 0,-0.929057 -0.727193,-1.6875 -1.65625,-1.6875 z"
     id="path22"
     style="fill:#000000;fill-opacity:1;fill-rule:nonzero;stroke:none" /></svg>