<?xml version="1.0" encoding="UTF-8" standalone="no"?>
<!-- Created with Inkscape (http://www.inkscape.org/) -->

<svg
   xmlns:dc="http://purl.org/dc/elements/1.1/"
   xmlns:cc="http://creativecommons.org/ns#"
   xmlns:rdf="http://www.w3.org/1999/02/22-rdf-syntax-ns#"
   xmlns:svg="http://www.w3.org/2000/svg"
   xmlns="http://www.w3.org/2000/svg"
   version="1.1"
   width="40"
   height="40"
   id="svg2"
   xml:space="preserve"><metadata
     id="metadata8"><rdf:RDF><cc:Work
         rdf:about=""><dc:format>image/svg+xml</dc:format><dc:type
           rdf:resource="http://purl.org/dc/dcmitype/StillImage" /><dc:title></dc:title></cc:Work></rdf:RDF></metadata><defs
     id="defs6"><clipPath
       id="clipPath16"><path
         d="M 0,55 55,55 55,0 0,0 0,55 z"
         id="path18" /></clipPath></defs><g
     transform="matrix(1.25,0,0,-1.25,-9.375625,52.131875)"
     id="g10"><g
       id="g12"><g
         clip-path="url(#clipPath16)"
         id="g14"><g
           transform="translate(43.1465,19.5215)"
           id="g20" /><g
           transform="translate(39.3818,25.832)"
           id="g24"><g
             transform="matrix(0.79237288,0,0,0.79237288,-6.4668801,-1.4489703)"
             id="g2992"><path
               d="m 0,0 -4.701,0 0,2.858 -21.892,0 0,-2.858 -4.701,0 0,11.774 L 0,11.774 0,0 z m 0.481,16.126 -5.608,0 0,9.649 -21.891,0 0,-9.649 -4.754,0 c -2.136,0 -3.874,-1.737 -3.874,-3.873 l 0,-12.733 c 0,-2.134 1.738,-3.872 3.874,-3.872 l 5.179,0 0,-5.464 21.892,0 0,5.464 5.182,0 c 2.134,0 3.873,1.738 3.873,3.872 l 0,12.733 c 0,2.136 -1.739,3.873 -3.873,3.873"
               transform="translate(3.7647,-6.3105)"
               id="path22"
               style="fill:#3a383b;fill-opacity:1;fill-rule:nonzero;stroke:none" /><path
               d="M 0,0 C 0.938,0 1.696,0.76 1.696,1.699 1.696,2.637 0.938,3.396 0,3.396 -0.938,3.396 -1.695,2.637 -1.695,1.699 -1.695,0.76 -0.938,0 0,0"
               id="path26"
               style="fill:#3a383b;fill-opacity:1;fill-rule:nonzero;stroke:none" /></g></g></g></g></g></svg>