<?xml version="1.0" encoding="UTF-8" standalone="no"?>
<!-- Created with Inkscape (http://www.inkscape.org/) -->

<svg
   xmlns:dc="http://purl.org/dc/elements/1.1/"
   xmlns:cc="http://creativecommons.org/ns#"
   xmlns:rdf="http://www.w3.org/1999/02/22-rdf-syntax-ns#"
   xmlns:svg="http://www.w3.org/2000/svg"
   xmlns="http://www.w3.org/2000/svg"
   version="1.1"
   width="40"
   height="40"
   id="svg2"
   xml:space="preserve"><metadata
     id="metadata8"><rdf:RDF><cc:Work
         rdf:about=""><dc:format>image/svg+xml</dc:format><dc:type
           rdf:resource="http://purl.org/dc/dcmitype/StillImage" /><dc:title></dc:title></cc:Work></rdf:RDF></metadata><defs
     id="defs6"><clipPath
       id="clipPath16"><path
         d="M 0,55 55,55 55,0 0,0 0,55 z"
         id="path18" /></clipPath></defs><path
     d="m 20,0.09375 c -1.261854,0 -2.28125,1.0184057 -2.28125,2.28125 l 0,7.8125 c 0,1.261854 1.019396,2.28125 2.28125,2.28125 1.260863,0 2.28125,-1.019396 2.28125,-2.28125 l 0,-7.8125 C 22.28125,1.1121557 21.260863,0.09375 20,0.09375 z M 7.53125,5.25 c -0.5851179,0 -1.1782998,0.2095498 -1.625,0.65625 -0.89241,0.8934004 -0.89241,2.3565996 0,3.25 l 5.53125,5.53125 c 0.4467,0.444719 1.039634,0.65625 1.625,0.65625 0.585365,0 1.178299,-0.211531 1.625,-0.65625 0.89241,-0.894391 0.89241,-2.35759 0,-3.25 L 9.15625,5.90625 C 8.7095498,5.4595498 8.1163678,5.25 7.53125,5.25 z m 24.9375,0 c -0.585242,-3.714e-4 -1.179786,0.2095498 -1.625,0.65625 L 25.3125,11.4375 c -0.8934,0.8934 -0.8934,2.3566 0,3.25 0.44472,0.44472 1.039635,0.65625 1.625,0.65625 0.585365,0 1.18028,-0.21054 1.625,-0.65625 l 5.53125,-5.53125 c 0.8934,-0.8934004 0.8934,-2.3556091 0,-3.25 C 33.64903,5.4610355 33.053992,5.2503714 32.46875,5.25 z M 2.375,17.71875 c -1.2618538,0 -2.28125,1.018406 -2.28125,2.28125 0,1.261854 1.0193962,2.28125 2.28125,2.28125 l 7.8125,0 c 1.262844,0 2.28125,-1.019396 2.28125,-2.28125 0,-1.262844 -1.018406,-2.28125 -2.28125,-2.28125 l -7.8125,0 z m 27.4375,0 c -1.262844,0 -2.28125,1.018405 -2.28125,2.28125 0,1.261854 1.018406,2.28125 2.28125,2.28125 l 7.8125,0 c 1.261854,0 2.28125,-1.019396 2.28125,-2.28125 0,-1.262845 -1.019396,-2.28125 -2.28125,-2.28125 l -7.8125,0 z m -16.75,6.9375 c -0.584994,3.71e-4 -1.1783,0.211036 -1.625,0.65625 l -5.53125,5.53125 c -0.8914195,0.890429 -0.8914195,2.359571 0,3.25 0.4467002,0.447691 1.0396345,0.65625 1.625,0.65625 0.584375,0 1.1773093,-0.208559 1.625,-0.65625 L 14.6875,28.5625 c 0.891419,-0.89142 0.891419,-2.3566 0,-3.25 -0.447195,-0.4467 -1.040006,-0.656621 -1.625,-0.65625 z m 13.875,0 c -0.58487,0 -1.178795,0.20955 -1.625,0.65625 -0.893401,0.8934 -0.893401,2.35858 0,3.25 l 5.53125,5.53125 c 0.44571,0.447691 1.039634,0.65625 1.625,0.65625 0.584375,0 1.180281,-0.208559 1.625,-0.65625 0.8934,-0.890429 0.8934,-2.359571 0,-3.25 L 28.5625,25.3125 c -0.445214,-0.4467 -1.04013,-0.65625 -1.625,-0.65625 z M 20,27.53125 c -1.261854,0 -2.28125,1.020386 -2.28125,2.28125 l 0,7.8125 c 0,1.262845 1.019396,2.28125 2.28125,2.28125 1.260863,0 2.28125,-1.018405 2.28125,-2.28125 l 0,-7.8125 c 0,-1.260864 -1.020387,-2.28125 -2.28125,-2.28125 z"
     id="path22"
     style="fill:#000000;fill-opacity:1;fill-rule:nonzero;stroke:none" /></svg>