<?xml version="1.0" encoding="UTF-8" standalone="no"?>
<!-- Created with Inkscape (http://www.inkscape.org/) -->

<svg
   xmlns:dc="http://purl.org/dc/elements/1.1/"
   xmlns:cc="http://creativecommons.org/ns#"
   xmlns:rdf="http://www.w3.org/1999/02/22-rdf-syntax-ns#"
   xmlns:svg="http://www.w3.org/2000/svg"
   xmlns="http://www.w3.org/2000/svg"
   version="1.1"
   width="40"
   height="40"
   id="svg2"
   xml:space="preserve"><metadata
     id="metadata8"><rdf:RDF><cc:Work
         rdf:about=""><dc:format>image/svg+xml</dc:format><dc:type
           rdf:resource="http://purl.org/dc/dcmitype/StillImage" /><dc:title></dc:title></cc:Work></rdf:RDF></metadata><defs
     id="defs6"><clipPath
       id="clipPath16"><path
         d="M 0,55 55,55 55,0 0,0 0,55 z"
         id="path18" /></clipPath></defs><g
     transform="matrix(1.25,0,0,-1.25,-9.40825,49.288126)"
     id="g10"><g
       id="g12"><g
         clip-path="url(#clipPath16)"
         id="g14"><g
           transform="translate(27.6348,47.6455)"
           id="g20" /><g
           transform="translate(16.6816,41.7568)"
           id="g24" /><g
           transform="translate(20.0356,27.5386)"
           id="g28" /><g
           transform="translate(18.9951,22.1641)"
           id="g32" /><g
           transform="translate(27.6348,19.9375)"
           id="g36" /><g
           transform="translate(36.2715,22.1641)"
           id="g40" /><g
           transform="translate(45.4346,29.8467)"
           id="g44" /><g
           transform="translate(34.6416,32.2383)"
           id="g48"><g
             transform="matrix(0.79237288,0,0,0.79237288,-5.5628432,-5.083409)"
             id="g3010"><path
               d="m 0,0 c -1.274,0 -2.309,-1.034 -2.309,-2.309 l 0,-7.892 c 0,-1.274 1.035,-2.308 2.309,-2.308 1.273,0 2.308,1.034 2.308,2.308 l 0,7.892 C 2.308,-1.034 1.273,0 0,0"
               transform="translate(-7.0068,15.4072)"
               id="path22"
               style="fill:#3b383c;fill-opacity:1;fill-rule:nonzero;stroke:none" /><path
               d="m 0,0 c -0.902,0.902 -2.363,0.902 -3.265,0 -0.901,-0.902 -0.901,-2.363 0,-3.265 l 5.58,-5.581 c 0.451,-0.449 1.042,-0.675 1.633,-0.675 0.591,0 1.181,0.226 1.632,0.675 0.901,0.903 0.901,2.364 0,3.265 L 0,0 z"
               transform="translate(-17.96,9.5185)"
               id="path26"
               style="fill:#3b383c;fill-opacity:1;fill-rule:nonzero;stroke:none" /><path
               d="m 0,0 c 0,1.275 -1.034,2.308 -2.309,2.308 l -7.892,0 c -1.274,0 -2.308,-1.033 -2.308,-2.308 0,-1.274 1.034,-2.308 2.308,-2.308 l 7.892,0 C -1.034,-2.308 0,-1.274 0,0"
               transform="translate(-14.606,-4.6997)"
               id="path30"
               style="fill:#3b383c;fill-opacity:1;fill-rule:nonzero;stroke:none" /><path
               d="m 0,0 -5.579,-5.58 c -0.9,-0.899 -0.9,-2.363 0,-3.262 0.451,-0.452 1.042,-0.678 1.633,-0.678 0.59,0 1.181,0.226 1.633,0.678 l 5.578,5.579 c 0.9,0.9 0.9,2.361 0,3.263 C 2.362,0.902 0.902,0.899 0,0"
               transform="translate(-15.6465,-10.0742)"
               id="path34"
               style="fill:#3b383c;fill-opacity:1;fill-rule:nonzero;stroke:none" /><path
               d="m 0,0 c -1.274,0 -2.309,-1.035 -2.309,-2.308 l 0,-7.89 c 0,-1.275 1.035,-2.309 2.309,-2.309 1.273,0 2.308,1.034 2.308,2.309 l 0,7.89 C 2.308,-1.035 1.273,0 0,0"
               transform="translate(-7.0068,-12.3008)"
               id="path38"
               style="fill:#3b383c;fill-opacity:1;fill-rule:nonzero;stroke:none" /><path
               d="m 0,0 c -0.899,0.902 -2.361,0.902 -3.262,0 -0.902,-0.902 -0.902,-2.363 0,-3.263 l 5.58,-5.579 c 0.45,-0.452 1.04,-0.678 1.631,-0.678 0.59,0 1.182,0.226 1.631,0.678 0.902,0.899 0.902,2.363 0,3.262 L 0,0 z"
               transform="translate(1.6299,-10.0742)"
               id="path42"
               style="fill:#3b383c;fill-opacity:1;fill-rule:nonzero;stroke:none" /><path
               d="m 0,0 -7.89,0 c -1.275,0 -2.308,-1.033 -2.308,-2.308 0,-1.274 1.033,-2.308 2.308,-2.308 l 7.89,0 c 1.274,0 2.308,1.034 2.308,2.308 C 2.308,-1.033 1.274,0 0,0"
               transform="translate(10.793,-2.3916)"
               id="path46"
               style="fill:#3b383c;fill-opacity:1;fill-rule:nonzero;stroke:none" /><path
               d="m 0,0 c 0.591,0 1.181,0.225 1.63,0.675 l 5.58,5.579 c 0.902,0.902 0.902,2.362 0,3.265 -0.898,0.899 -2.363,0.902 -3.262,0 L -1.632,3.94 C -2.534,3.038 -2.534,1.577 -1.632,0.675 -1.183,0.226 -0.591,0 0,0"
               id="path50"
               style="fill:#3b383c;fill-opacity:1;fill-rule:nonzero;stroke:none" /></g></g></g></g></g></svg>