<?xml version="1.0" encoding="UTF-8" standalone="no"?>
<!-- Created with Inkscape (http://www.inkscape.org/) -->

<svg
   xmlns:dc="http://purl.org/dc/elements/1.1/"
   xmlns:cc="http://creativecommons.org/ns#"
   xmlns:rdf="http://www.w3.org/1999/02/22-rdf-syntax-ns#"
   xmlns:svg="http://www.w3.org/2000/svg"
   xmlns="http://www.w3.org/2000/svg"
   version="1.1"
   width="40"
   height="40"
   id="svg3920">
  <metadata
     id="metadata3926">
    <rdf:RDF>
      <cc:Work
         rdf:about="">
        <dc:format>image/svg+xml</dc:format>
        <dc:type
           rdf:resource="http://purl.org/dc/dcmitype/StillImage" />
        <dc:title></dc:title>
      </cc:Work>
    </rdf:RDF>
  </metadata>
  <defs
     id="defs3924" />
  <path
     d="M 12.247768,39.344583 C 11.487766,38.936989 11.463856,38.84766 11.428288,36.28292 l -0.03187,-2.297856 -2.1475909,0 c -3.1725875,0 -3.0802343,0.09252 -3.0802343,-3.085906 l 0,-2.153262 c -1.5545092,0.01372 -3.2429836,0.0367 -4.7078012,-0.183581 -1.12778509,-0.575024 -1.10131758,-2.195458 0.044924,-2.750344 1.7895147,-0.348747 2.5215777,-0.209577 4.6628793,-0.209577 0,-1.292328 0,-2.584656 0,-3.876984 -1.554511,0.01372 -3.24298,0.03669 -4.7078032,-0.183587 -1.12281911,-0.572492 -1.1097411,-2.191381 0.02213,-2.73931 1.8073093,-0.36825 2.514454,-0.22061 4.6856736,-0.22061 0,-1.292329 0,-2.584657 0,-3.876986 C 4.6140842,14.718634 2.9256152,14.741611 1.460792,14.52133 0.34094377,13.950352 0.35604768,12.278261 1.485687,11.765401 3.2805112,11.437039 4.049238,11.563707 6.1685956,11.56141 l 0,-2.099033 c 0,-2.2315403 -0.1598959,-2.492998 0.5081575,-2.9221356 C 8.3759247,6.3644742 9.5606005,6.4270242 11.407764,6.4270242 l 0,-2.3609912 c 0,-2.6182782 0.05086,-2.8858506 0.626416,-3.29568415 0.771945,-0.5496727 1.889032,-0.29801189 2.306108,0.51952635 0.192976,0.378262 0.210978,0.6150707 0.210978,2.7753491 l 0,2.3617999 c 1.292328,0 2.584656,0 3.876984,0 l 0,-2.367986 c 0,-2.6268609 0.0506,-2.8783131 0.667815,-3.31857525 0.457255,-0.3261638 1.350617,-0.3261638 1.807872,0 0.617213,0.44026215 0.667814,0.69171435 0.667814,3.31857525 l 0,2.367986 c 1.292329,0 2.584657,0 3.876986,0 l 0,-2.3617999 c 0,-2.1602784 0.018,-2.3970871 0.210976,-2.7753491 C 26.07679,0.47233696 27.193877,0.22067615 27.965821,0.77034885 28.54138,1.1801824 28.592237,1.4477548 28.592237,4.066033 l 0,2.3609912 c 1.573703,-0.0039 3.178161,-0.027959 4.731011,0.1132172 0.82462,1.8404665 0.508157,2.7363042 0.508157,5.0211686 1.535923,-0.0278 3.329982,-0.02623 4.685674,0.22061 1.131872,0.547929 1.144949,2.166818 0.02213,2.739357 -1.777751,0.304674 -2.592123,0.183374 -4.707804,0.183479 0,1.292329 0,2.584657 0,3.876986 1.535923,-0.0278 3.329982,-0.02623 4.685674,0.22061 1.131872,0.547929 1.144949,2.166818 0.02213,2.739357 -1.777751,0.304674 -2.592123,0.183374 -4.707804,0.18348 0,1.292328 0,2.584656 0,3.876984 1.531101,-0.02409 3.285044,-0.02876 4.662879,0.209577 1.146243,0.554885 1.17271,2.175319 0.04492,2.750391 -1.777751,0.304674 -2.592123,0.183374 -4.707804,0.183479 l 0,2.153263 c 0,3.179148 0.09324,3.085906 -3.085905,3.085906 l -2.153263,0 0,2.151425 c 0,2.391609 -0.05895,2.682048 -0.626416,3.086117 -0.771944,0.549673 -1.889031,0.298013 -2.306108,-0.519526 -0.191177,-0.374737 -0.210976,-0.615537 -0.210976,-2.565782 l 0,-2.152234 c -1.292329,0 -2.584657,0 -3.876986,0 l 0,2.158419 c 0,2.397636 -0.05962,2.675176 -0.667814,3.109009 -0.457255,0.326163 -1.350617,0.326163 -1.807872,0 -0.608199,-0.433833 -0.667815,-0.711373 -0.667815,-3.109009 l 0,-2.158419 c -1.292328,0 -2.584656,0 -3.876984,0 l 0,2.152234 c 0,1.950245 -0.0198,2.191045 -0.210978,2.565782 -0.379728,0.74433 -1.347549,1.041034 -2.092519,0.641502 z"
     id="path3930"
     style="fill:#000000;fill-opacity:1" />
</svg>
