<?xml version="1.0" encoding="UTF-8" standalone="no"?>
<!-- Created with Inkscape (http://www.inkscape.org/) -->

<svg
   xmlns:dc="http://purl.org/dc/elements/1.1/"
   xmlns:cc="http://creativecommons.org/ns#"
   xmlns:rdf="http://www.w3.org/1999/02/22-rdf-syntax-ns#"
   xmlns:svg="http://www.w3.org/2000/svg"
   xmlns="http://www.w3.org/2000/svg"
   version="1.1"
   width="40"
   height="40"
   id="svg3854">
  <metadata
     id="metadata3860">
    <rdf:RDF>
      <cc:Work
         rdf:about="">
        <dc:format>image/svg+xml</dc:format>
        <dc:type
           rdf:resource="http://purl.org/dc/dcmitype/StillImage" />
        <dc:title></dc:title>
      </cc:Work>
    </rdf:RDF>
  </metadata>
  <defs
     id="defs3858" />
  <path
     d="m 12.596631,39.47459 c -0.190002,-0.101897 -0.436967,-0.307737 -0.548813,-0.457417 -0.190743,-0.255266 -0.205193,-0.439294 -0.232967,-2.966869 l -0.02961,-2.694723 -2.0517676,0 c -3.0307663,0 -2.9424401,0.08846 -2.9424401,-2.947035 l 0,-2.056361 -2.5767489,-2e-4 C 1.9588495,28.351884 1.5947465,28.330011 1.2944091,28.176866 0.2173764,27.627718 0.24265283,26.080207 1.3373112,25.550292 1.7172086,25.366387 1.9552381,25.350147 4.2708933,25.350147 l 2.5201382,0 0,-1.851256 0,-1.851257 -2.576749,-2e-4 c -2.255433,-10e-5 -2.619536,-0.02197 -2.9198734,-0.175119 -1.07229019,-0.546729 -1.05980072,-2.092764 0.021134,-2.616036 0.4071553,-0.197101 0.5976798,-0.210682 2.9553505,-0.210682 l 2.5201382,0 0,-1.851257 0,-1.851256 -2.576749,-2.01e-4 c -2.255433,-10e-5 -2.619536,-0.02197 -2.9198734,-0.175119 -1.06945302,-0.545282 -1.05502879,-2.142125 0.023774,-2.631906 0.3763392,-0.170859 0.6789386,-0.190642 2.9461331,-0.192614 l 2.526715,-0.0022 0,-2.0045727 c 0,-2.1311165 0.076659,-2.5719407 0.4852893,-2.7906331 0.1268045,-0.067892 1.0055638,-0.1081503 2.3600678,-0.1081503 l 2.1580394,0 0,-2.755082 c 0,-3.0429394 0.0332,-3.2453779 0.598226,-3.64771193 0.737205,-0.52493636 1.804022,-0.28460124 2.202328,0.49614673 0.187495,0.3675174 0.201484,0.586276 0.201484,3.1507927 l 0,2.7558545 1.851256,0 1.851257,0 0,-2.7617616 c 0,-3.0573912 0.0312,-3.2369081 0.637761,-3.66957276 0.436678,-0.31148537 1.289837,-0.31148537 1.726514,0 0.606563,0.43266466 0.637762,0.61218156 0.637762,3.66957276 l 0,2.7617616 1.851256,0 1.851257,0 0,-2.7558545 c 0,-2.5645167 0.01398,-2.7832753 0.201483,-3.1507927 0.398308,-0.78074797 1.465123,-1.02108309 2.202329,-0.49614673 0.565026,0.40233403 0.598225,0.60477253 0.598225,3.64771193 l 0,2.755082 2.15804,0 c 1.354504,0 2.233264,0.040259 2.360067,0.1081224 0.408631,0.2186924 0.48529,0.6595166 0.48529,2.790633 l 0,2.0045727 2.526715,0.0022 c 2.267195,0.002 2.569793,0.02176 2.946133,0.192614 1.078803,0.489781 1.093227,2.086624 0.02378,2.631952 -0.300338,0.153144 -0.664442,0.174982 -2.919874,0.175118 l -2.576749,2e-4 0,1.851257 0,1.851256 2.520139,0 c 2.357669,0 2.548194,0.01358 2.95535,0.210684 1.080934,0.52327 1.093424,2.069306 0.02114,2.616081 -0.300338,0.153144 -0.664441,0.174982 -2.919873,0.175118 l -2.57675,2e-4 0,1.851257 0,1.851256 2.520139,0 c 2.315654,0 2.553684,0.01624 2.933581,0.200145 1.094659,0.529915 1.119935,2.077426 0.04291,2.62662 -0.300338,0.153144 -0.664441,0.174982 -2.919873,0.175118 l -2.57675,2e-4 0,2.056362 c 0,3.03608 0.08905,2.947034 -2.947035,2.947034 l -2.056361,0 0,2.554946 c 0,2.825749 -0.03878,3.049212 -0.598226,3.447577 -0.737205,0.524936 -1.804021,0.284601 -2.202328,-0.496147 -0.186364,-0.365303 -0.201484,-0.586722 -0.201484,-2.950657 l 0,-2.555719 -1.851256,0 -1.851257,0 0,2.561626 c 0,2.837676 -0.03741,3.041204 -0.637762,3.469437 -0.436677,0.311485 -1.289836,0.311485 -1.726513,0 -0.600349,-0.428233 -0.637762,-0.631761 -0.637762,-3.469437 l 0,-2.561626 -1.851257,0 -1.851256,0 0,2.555719 c 0,2.363935 -0.01512,2.585354 -0.201483,2.950657 -0.36264,0.710833 -1.286908,0.994186 -1.998352,0.612634 z M 28.107503,28.801455 c 0.160746,-0.08313 0.338632,-0.237772 0.395301,-0.34366 0.06829,-0.127587 0.103036,-2.981429 0.103036,-8.461282 0,-5.479852 -0.03475,-8.333694 -0.103036,-8.461282 -0.269567,-0.50369 -0.116741,-0.494797 -8.502807,-0.494797 -8.386064,0 -8.23324,-0.0089 -8.502807,0.494797 -0.142258,0.26581 -0.142694,16.655938 -5.01e-4,16.921723 0.266172,0.497345 0.09355,0.487342 8.48321,0.491631 6.79822,0.0035 7.873969,-0.016 8.127553,-0.14713 z"
     id="path3864"
     style="fill:#000000;fill-opacity:1" />
</svg>
