<?xml version="1.0" encoding="UTF-8" standalone="no"?>
<!-- Created with Inkscape (http://www.inkscape.org/) -->

<svg
   xmlns:dc="http://purl.org/dc/elements/1.1/"
   xmlns:cc="http://creativecommons.org/ns#"
   xmlns:rdf="http://www.w3.org/1999/02/22-rdf-syntax-ns#"
   xmlns:svg="http://www.w3.org/2000/svg"
   xmlns="http://www.w3.org/2000/svg"
   version="1.1"
   width="40"
   height="40"
   id="svg2"
   xml:space="preserve"><metadata
     id="metadata8"><rdf:RDF><cc:Work
         rdf:about=""><dc:format>image/svg+xml</dc:format><dc:type
           rdf:resource="http://purl.org/dc/dcmitype/StillImage" /><dc:title></dc:title></cc:Work></rdf:RDF></metadata><defs
     id="defs6"><clipPath
       id="clipPath16"><path
         d="M 0,55 55,55 55,0 0,0 0,55 z"
         id="path18" /></clipPath></defs><path
     d="m 2.0625,6.03125 c -1.0119143,0 -1.84375,0.8005857 -1.84375,1.8125 l 0,22.75 c 0,1.01095 0.8318357,1.84375 1.84375,1.84375 l 10.1875,0 c 0.408046,0 4.052623,0.03414 6.96875,1.375 0.240197,0.112864 0.512114,0.15625 0.78125,0.15625 0.269137,0 0.542018,-0.04531 0.78125,-0.15625 2.918056,-1.342788 6.614523,-1.375 7.03125,-1.375 l 10.125,0 c 1.011914,0 1.84375,-0.8328 1.84375,-1.84375 l 0,-22.75 c 0,-1.0119143 -0.831836,-1.8125 -1.84375,-1.8125 l -10.1875,0 c -0.700334,0 -4.290216,0.068487 -7.625,1.34375 C 20.08159,7.37211 20.044378,7.34375 20,7.34375 c -0.04437,0 -0.08063,0.02836 -0.125,0.03125 C 16.629929,6.1325351 13.184945,6.03125 12.1875,6.03125 l -10.125,0 z m 1.84375,3.65625 8.34375,0 c 0.349202,0 3.073308,0.021288 5.6875,0.875 l 0,18.9375 c -2.580429,-0.665606 -4.949343,-0.71875 -5.75,-0.71875 l -8.28125,0 0,-19.09375 z m 23.90625,0 8.28125,0 0,19.09375 -8.34375,0 c -0.566248,0 -3.009641,0.02999 -5.6875,0.71875 l 0,-18.9375 c 2.621909,-0.8537122 5.392117,-0.875 5.75,-0.875 z m -2.65625,2.03125 c -0.83249,0 -1.53125,0.668475 -1.53125,1.5 0,0.831525 0.69876,1.5 1.53125,1.5 l 8.28125,0 c 0.833455,0 1.53125,-0.668475 1.53125,-1.5 0,-0.831525 -0.697795,-1.5 -1.53125,-1.5 l -8.28125,0 z m 0,5.96875 c -0.83249,0 -1.53125,0.668475 -1.53125,1.5 0,0.831525 0.69876,1.53125 1.53125,1.53125 l 8.28125,0 c 0.833455,0 1.53125,-0.699725 1.53125,-1.53125 0,-0.831525 -0.697795,-1.5 -1.53125,-1.5 l -8.28125,0 z m 0,5.96875 c -0.83249,0 -1.5,0.699725 -1.5,1.53125 0,0.83249 0.66751,1.5 1.5,1.5 l 8.28125,0 c 0.833455,0 1.53125,-0.66751 1.53125,-1.5 0,-0.831525 -0.697795,-1.53125 -1.53125,-1.53125 l -8.28125,0 z"
     id="path22"
     style="fill:#000000;fill-opacity:1;fill-rule:nonzero;stroke:none" /></svg>