<?xml version="1.0" encoding="UTF-8" standalone="no"?>
<!-- Created with Inkscape (http://www.inkscape.org/) -->

<svg
   xmlns:dc="http://purl.org/dc/elements/1.1/"
   xmlns:cc="http://creativecommons.org/ns#"
   xmlns:rdf="http://www.w3.org/1999/02/22-rdf-syntax-ns#"
   xmlns:svg="http://www.w3.org/2000/svg"
   xmlns="http://www.w3.org/2000/svg"
   version="1.1"
   width="40"
   height="40"
   id="svg2"
   xml:space="preserve"><metadata
     id="metadata8"><rdf:RDF><cc:Work
         rdf:about=""><dc:format>image/svg+xml</dc:format><dc:type
           rdf:resource="http://purl.org/dc/dcmitype/StillImage" /><dc:title></dc:title></cc:Work></rdf:RDF></metadata><defs
     id="defs6"><clipPath
       id="clipPath16"><path
         d="M 0,55 55,55 55,0 0,0 0,55 z"
         id="path18" /></clipPath></defs><g
     transform="matrix(1.25,0,0,-1.25,-8.759875,56.825498)"
     id="g10"><g
       id="g12"><g
         clip-path="url(#clipPath16)"
         id="g14"><g
           transform="translate(29.6289,37.7314)"
           id="g20" /><g
           transform="translate(32.8359,33.4229)"
           id="g24" /><g
           transform="translate(32.8359,27.2261)"
           id="g28" /><g
           transform="translate(43.0039,22.5918)"
           id="g32"><g
             transform="matrix(0.77171729,0,0,0.77171729,-8.0309093,2.7286438)"
             id="g2998"><path
               d="m 0,0 c 2.718,0.885 5.59,0.917 5.961,0.917 l 8.598,0 0,-19.779 -8.653,0 c -0.587,0 -3.13,-0.047 -5.906,-0.761 L 0,0 z m -4.257,-19.621 c -2.675,0.69 -5.132,0.759 -5.962,0.759 l -8.598,0 0,19.779 8.652,0.001 c 0.362,0 3.198,-0.032 5.908,-0.917 l 0,-19.622 z m 20.718,24.342 -10.555,0 c -0.726,0 -4.445,-0.071 -7.902,-1.393 -0.045,0.003 -0.087,0.013 -0.133,0.013 -0.046,0 -0.088,-0.01 -0.134,-0.013 -3.364,1.288 -6.922,1.393 -7.956,1.393 l -10.5,0 c -1.049,0 -1.902,-0.853 -1.902,-1.902 l 0,-23.583 c 0,-1.048 0.853,-1.9 1.902,-1.9 l 10.554,0 c 0.423,0 4.216,-0.041 7.239,-1.431 0.249,-0.117 0.518,-0.176 0.797,-0.176 0.279,0 0.547,0.059 0.795,0.174 3.025,1.392 6.863,1.433 7.295,1.433 l 10.5,0 c 1.049,0 1.901,0.852 1.901,1.9 l 0,23.583 c 0,1.049 -0.852,1.902 -1.901,1.902"
               transform="translate(-13.375,15.1396)"
               id="path22"
               style="fill:#373535;fill-opacity:1;fill-rule:nonzero;stroke:none" /><path
               d="m 0,0 8.605,0 c 0.864,0 1.563,0.7 1.563,1.562 0,0.862 -0.699,1.562 -1.563,1.562 L 0,3.124 c -0.863,0 -1.563,-0.7 -1.563,-1.562 C -1.563,0.7 -0.863,0 0,0"
               transform="translate(-10.168,10.8311)"
               id="path26"
               style="fill:#373535;fill-opacity:1;fill-rule:nonzero;stroke:none" /><path
               d="m 0,0 8.605,0 c 0.864,0 1.563,0.7 1.563,1.562 0,0.862 -0.699,1.562 -1.563,1.562 L 0,3.124 c -0.863,0 -1.563,-0.7 -1.563,-1.562 C -1.563,0.7 -0.863,0 0,0"
               transform="translate(-10.168,4.6343)"
               id="path30"
               style="fill:#373535;fill-opacity:1;fill-rule:nonzero;stroke:none" /><path
               d="m 0,0 c 0,0.862 -0.699,1.563 -1.563,1.563 l -8.605,0 c -0.863,0 -1.562,-0.701 -1.562,-1.563 0,-0.863 0.699,-1.562 1.562,-1.562 l 8.605,0 C -0.699,-1.562 0,-0.863 0,0"
               id="path34"
               style="fill:#373535;fill-opacity:1;fill-rule:nonzero;stroke:none" /></g></g></g></g></g></svg>