<?xml version="1.0" encoding="UTF-8" standalone="no"?>
<!-- Created with Inkscape (http://www.inkscape.org/) -->

<svg
   xmlns:dc="http://purl.org/dc/elements/1.1/"
   xmlns:cc="http://creativecommons.org/ns#"
   xmlns:rdf="http://www.w3.org/1999/02/22-rdf-syntax-ns#"
   xmlns:svg="http://www.w3.org/2000/svg"
   xmlns="http://www.w3.org/2000/svg"
   version="1.1"
   width="40"
   height="40"
   id="svg2"
   xml:space="preserve"><metadata
     id="metadata8"><rdf:RDF><cc:Work
         rdf:about=""><dc:format>image/svg+xml</dc:format><dc:type
           rdf:resource="http://purl.org/dc/dcmitype/StillImage" /><dc:title></dc:title></cc:Work></rdf:RDF></metadata><defs
     id="defs6"><clipPath
       id="clipPath16"><path
         d="M 0,55 55,55 55,0 0,0 0,55 z"
         id="path18" /></clipPath></defs><path
     d="M 30.8125,0.59375 C 29.093725,0.68050053 27.424688,1.3824497 26.25,2.6875 25.872659,3.104661 25.896292,3.749555 26.3125,4.125 l 8.3125,7.5 c 0.194359,0.175397 0.444789,0.28125 0.6875,0.28125 0.277792,0 0.549952,-0.120948 0.75,-0.34375 C 38.509528,8.8604339 38.299608,4.6743114 35.59375,2.21875 34.285855,1.0397961 32.531275,0.50699947 30.8125,0.59375 z m -7.84375,6.4375 c -0.380185,0 -0.742119,0.1833739 -1,0.46875 L 5.8125,25.5625 C 5.6740783,25.716091 5.5881356,25.924004 5.53125,26.125 l -3.25,11.5625 c -0.1393697,0.498697 -0.00234,1.026102 0.375,1.375 0.2512447,0.233231 0.5990307,0.375 0.9375,0.375 0.1592796,0 0.3075742,-0.03497 0.46875,-0.09375 L 15.25,35.03125 c 0.20384,-0.07869 0.364423,-0.188263 0.5,-0.34375 L 31.90625,16.59375 c 0.237023,-0.266414 0.362712,-0.643516 0.34375,-1 -0.01612,-0.365015 -0.170137,-0.694788 -0.4375,-0.9375 L 23.875,7.375 C 23.6266,7.1474577 23.305323,7.03125 22.96875,7.03125 z m -12.5625,18.3125 c 0.160228,0 0.32938,0.03967 0.46875,0.125 0.256933,0.155487 0.42233,0.413464 0.4375,0.71875 l 0.15625,3.34375 3.34375,-0.1875 c 0.282532,0 0.526324,0.150302 0.6875,0.375 0.181085,0.249348 0.228342,0.554582 0.125,0.84375 L 14.96875,32.5 c -0.09007,0.253141 -0.286642,0.433596 -0.53125,0.53125 l -5.75,2.21875 -2.625,-2.40625 1.65625,-6 c 0.070159,-0.252193 0.2715095,-0.453469 0.5,-0.5625 l 1.8125,-0.875 c 0.120407,-0.05783 0.244163,-0.0625 0.375,-0.0625 z"
     id="path22"
     style="fill:#000000;fill-opacity:1;fill-rule:nonzero;stroke:none" /></svg>