<?xml version="1.0" encoding="UTF-8" standalone="no"?>
<!-- Created with Inkscape (http://www.inkscape.org/) -->

<svg
   xmlns:dc="http://purl.org/dc/elements/1.1/"
   xmlns:cc="http://creativecommons.org/ns#"
   xmlns:rdf="http://www.w3.org/1999/02/22-rdf-syntax-ns#"
   xmlns:svg="http://www.w3.org/2000/svg"
   xmlns="http://www.w3.org/2000/svg"
   version="1.1"
   width="40"
   height="40"
   id="svg2"
   xml:space="preserve"><metadata
     id="metadata8"><rdf:RDF><cc:Work
         rdf:about=""><dc:format>image/svg+xml</dc:format><dc:type
           rdf:resource="http://purl.org/dc/dcmitype/StillImage" /><dc:title></dc:title></cc:Work></rdf:RDF></metadata><defs
     id="defs6"><clipPath
       id="clipPath16"><path
         d="M 0,55 55,55 55,0 0,0 0,55 z"
         id="path18" /></clipPath></defs><g
     transform="matrix(1.25,0,0,-1.25,-10.985635,48.633252)"
     id="g10"><g
       id="g12"><g
         clip-path="url(#clipPath16)"
         id="g14"><g
           transform="translate(43.9805,46.1597)"
           id="g20" /><g
           transform="translate(21.6709,13.6406)"
           id="g24"><g
             transform="matrix(0.75847458,0,0,0.75847458,-1.3268628,-1.1668838)"
             id="g2992"><path
               d="m 0,0 c -2.759,2.487 -7.392,2.254 -9.87,-0.499 -0.398,-0.44 -0.363,-1.118 0.076,-1.514 l 8.771,-7.93 c 0.205,-0.185 0.46,-0.276 0.716,-0.276 0.293,0 0.587,0.117 0.798,0.352 C 3.072,-7.017 2.854,-2.59 0,0"
               transform="translate(22.3096,32.5191)"
               id="path22"
               style="fill:#292929;fill-opacity:1;fill-rule:nonzero;stroke:none" /><path
               d="m 0,0 -6.086,-2.334 -2.765,2.531 1.77,6.324 c 0.074,0.266 0.261,0.493 0.502,0.608 l 1.919,0.912 c 0.127,0.061 0.262,0.092 0.4,0.092 0.169,0 0.336,-0.047 0.483,-0.137 0.271,-0.164 0.443,-0.455 0.459,-0.777 L -3.145,3.711 0.376,3.885 C 0.674,3.885 0.953,3.746 1.123,3.509 1.314,3.246 1.365,2.91 1.256,2.605 L 0.558,0.583 C 0.463,0.316 0.258,0.103 0,0 m 9.949,27.057 c -0.262,0.24 -0.601,0.372 -0.956,0.372 -0.401,0 -0.787,-0.173 -1.059,-0.474 L -9.094,7.879 C -9.24,7.717 -9.349,7.518 -9.409,7.306 l -3.419,-12.21 c -0.147,-0.526 0.009,-1.082 0.407,-1.45 0.265,-0.246 0.608,-0.38 0.965,-0.38 0.168,0 0.337,0.031 0.507,0.093 l 11.794,4.537 c 0.215,0.083 0.405,0.215 0.548,0.379 l 17.038,19.082 c 0.25,0.281 0.382,0.659 0.362,1.035 -0.017,0.385 -0.184,0.739 -0.466,0.995 l -8.378,7.67 z"
               id="path26"
               style="fill:#292929;fill-opacity:1;fill-rule:nonzero;stroke:none" /></g></g></g></g></g></svg>