<?xml version="1.0" encoding="UTF-8" standalone="no"?>
<!-- Created with Inkscape (http://www.inkscape.org/) -->

<svg
   xmlns:dc="http://purl.org/dc/elements/1.1/"
   xmlns:cc="http://creativecommons.org/ns#"
   xmlns:rdf="http://www.w3.org/1999/02/22-rdf-syntax-ns#"
   xmlns:svg="http://www.w3.org/2000/svg"
   xmlns="http://www.w3.org/2000/svg"
   version="1.1"
   width="40"
   height="40"
   id="svg2"
   xml:space="preserve"><metadata
     id="metadata8"><rdf:RDF><cc:Work
         rdf:about=""><dc:format>image/svg+xml</dc:format><dc:type
           rdf:resource="http://purl.org/dc/dcmitype/StillImage" /><dc:title></dc:title></cc:Work></rdf:RDF></metadata><defs
     id="defs6"><clipPath
       id="clipPath16"><path
         d="M 0,55 55,55 55,0 0,0 0,55 z"
         id="path18" /></clipPath></defs><path
     d="m 15.4375,1.34375 c -3.190508,0 -4.971779,2.4571398 -5.34375,7.28125 l -2,0 c -4.3610646,0 -7.90625,3.950042 -7.90625,8.8125 l 0,12.40625 c 0,4.863416 3.5451854,8.8125 7.90625,8.8125 l 23.8125,0 c 4.361064,0 7.90625,-3.949084 7.90625,-8.8125 l 0,-12.40625 c 0,-4.862458 -3.545186,-8.8125 -7.90625,-8.8125 l -2,0 C 29.53428,3.8008898 27.75205,1.34375 24.5625,1.34375 l -9.125,0 z M 15.5,6.125 l 9,0 c 0.12463,0.1658528 0.469693,0.7858686 0.625,2.5 l -10.25,0 c 0.155307,-1.7170074 0.499412,-2.3341472 0.625,-2.5 z m -7.40625,6.8125 23.8125,0 c 1.980646,0 3.59375,2.016043 3.59375,4.5 l 0,12.40625 c 0,2.484915 -1.613104,4.5 -3.59375,4.5 l -23.8125,0 c -1.9825635,0 -3.59375,-2.015085 -3.59375,-4.5 l 0,-12.40625 c 0,-2.483957 1.6111865,-4.5 3.59375,-4.5 z m 19.625,1.625 c -0.2924,0 -1.470434,0.07818 -1.875,0.5 L 23.875,17.125 c -0.892537,0.931844 -0.904423,0.90625 -1.90625,0.90625 l -9.375,0 c -0.69313,0 -1.083559,0.474084 -1.375,0.8125 -0.06998,0.08149 -0.14206,0.1733 -0.21875,0.25 -0.149555,0.149555 -0.20419,0.355424 -0.15625,0.5625 0.04889,0.206117 0.173676,0.36848 0.375,0.4375 l 7.59375,2.59375 c -0.517691,0.795709 -0.748374,1.109258 -1.65625,1.3125 -0.325953,0.07286 -0.651425,0.1319 -0.96875,0.1875 -1.272177,0.222415 -2.595186,0.447347 -3.5625,1.65625 -0.1323,0.164894 -0.16373,0.394344 -0.09375,0.59375 0.07094,0.200366 0.231382,0.36023 0.4375,0.40625 l 1.59375,0.34375 c -0.26268,0.353756 -0.49502,0.761457 -0.4375,1.21875 0.02876,0.227209 0.136658,0.558061 0.5,0.84375 0.201324,0.21858 0.487892,0.34375 0.78125,0.34375 0.391144,0 0.738464,-0.217574 1.0625,-0.46875 l 0.375,1.5625 c 0.05081,0.205159 0.204926,0.37231 0.40625,0.4375 0.200366,0.06807 0.432691,0.04047 0.59375,-0.09375 1.155217,-0.961563 1.354465,-2.135419 1.5625,-3.375 0.04793,-0.283771 0.09202,-0.573014 0.15625,-0.875 0.02492,-0.117919 0.04237,-0.280275 0.0625,-0.4375 0.02397,-0.200365 0.09394,-0.60314 0.15625,-0.6875 l 1.15625,-0.875 2.6875,7.53125 c 0.07286,0.199407 0.260715,0.3309 0.46875,0.375 0.04218,0.0096 0.08186,0.03125 0.125,0.03125 0.165853,0 0.32054,-0.06766 0.4375,-0.1875 1.083315,-1.126456 1.05273,-1.897124 1,-3.03125 -0.0096,-0.203242 -0.02745,-0.406033 -0.03125,-0.65625 l -0.125,-6.5 c -0.0048,-0.231043 -0.02265,-0.439974 -0.03125,-0.625 -0.04027,-1.002786 -0.03918,-1.183401 0.6875,-1.90625 l 2.15625,-2.15625 c 0.415112,-0.413193 0.844571,-2.174402 0.3125,-2.78125 -0.234878,-0.268435 -0.610016,-0.3125 -0.90625,-0.3125 z"
     id="path22"
     style="fill:#000000;fill-opacity:1;fill-rule:nonzero;stroke:none" /></svg>