<?xml version="1.0" encoding="UTF-8" standalone="no"?>
<!-- Created with Inkscape (http://www.inkscape.org/) -->

<svg
   xmlns:dc="http://purl.org/dc/elements/1.1/"
   xmlns:cc="http://creativecommons.org/ns#"
   xmlns:rdf="http://www.w3.org/1999/02/22-rdf-syntax-ns#"
   xmlns:svg="http://www.w3.org/2000/svg"
   xmlns="http://www.w3.org/2000/svg"
   version="1.1"
   width="40"
   height="40"
   id="svg2"
   xml:space="preserve"><metadata
     id="metadata8"><rdf:RDF><cc:Work
         rdf:about=""><dc:format>image/svg+xml</dc:format><dc:type
           rdf:resource="http://purl.org/dc/dcmitype/StillImage" /><dc:title></dc:title></cc:Work></rdf:RDF></metadata><defs
     id="defs6"><clipPath
       id="clipPath16"><path
         d="M 0,55 55,55 55,0 0,0 0,55 z"
         id="path18" /></clipPath></defs><g
     transform="matrix(1.25,0,0,-1.25,-8.54125,50.05275)"
     id="g10"><g
       id="g12"><g
         clip-path="url(#clipPath16)"
         id="g14"><g
           transform="translate(31.8887,14.2461)"
           id="g20" /><g
           transform="translate(43.668,17.2432)"
           id="g24"><g
             transform="matrix(0.76694915,0,0,0.76694915,-8.4353496,-1.0675974)"
             id="g2992"><path
               d="M 0,0 C -0.045,0 -0.089,0.005 -0.133,0.015 -0.35,0.061 -0.526,0.217 -0.602,0.425 L -3.426,8.259 -4.631,7.365 C -4.696,7.277 -4.749,6.843 -4.774,6.634 -4.795,6.47 -4.814,6.318 -4.84,6.195 -4.907,5.88 -4.958,5.57 -5.008,5.274 -5.225,3.981 -5.429,2.763 -6.634,1.76 -6.802,1.62 -7.034,1.574 -7.243,1.645 -7.453,1.713 -7.612,1.884 -7.665,2.098 L -8.07,3.738 C -8.408,3.476 -8.787,3.254 -9.195,3.254 c -0.306,0 -0.584,0.124 -0.794,0.352 -0.379,0.298 -0.495,0.636 -0.525,0.873 -0.06,0.477 0.166,0.903 0.44,1.272 l -1.649,0.369 c -0.215,0.048 -0.39,0.204 -0.464,0.413 -0.073,0.208 -0.034,0.44 0.104,0.612 1.009,1.261 2.382,1.501 3.709,1.733 0.331,0.058 0.669,0.116 1.009,0.192 0.947,0.212 1.206,0.566 1.746,1.396 l -7.914,2.683 c -0.21,0.072 -0.368,0.247 -0.419,0.462 -0.05,0.216 0.015,0.442 0.171,0.598 0.08,0.08 0.154,0.166 0.227,0.251 0.304,0.353 0.722,0.835 1.445,0.835 l 9.76,-10e-4 c 1.045,0 1.085,0 2.016,0.972 l 2.036,2.127 c 0.422,0.44 1.651,0.531 1.956,0.531 0.309,0 0.692,-0.036 0.937,-0.316 0.555,-0.633 0.119,-2.485 -0.314,-2.916 L 2.033,13.454 C 1.275,12.7 1.282,12.513 1.324,11.467 1.333,11.274 1.341,11.06 1.346,10.819 L 1.476,4.04 C 1.48,3.779 1.491,3.547 1.501,3.335 1.556,2.152 1.592,1.371 0.462,0.196 0.34,0.071 0.173,0 0,0"
               transform="translate(-11.7793,-2.9971)"
               id="path22"
               style="fill:#3b393c;fill-opacity:1;fill-rule:nonzero;stroke:none" /><path
               d="m 0,0 c 0,-2.592 -1.684,-4.701 -3.75,-4.701 l -24.835,0 c -2.068,0 -3.75,2.109 -3.75,4.701 l 0,12.932 c 0,2.591 1.682,4.699 3.75,4.699 l 24.835,0 C -1.684,17.631 0,15.523 0,12.932 L 0,0 z m -20.856,24.715 9.377,-0.001 c 0.13,-0.173 0.481,-0.795 0.643,-2.583 l -10.664,0 c 0.162,1.791 0.513,2.411 0.644,2.584 m 17.106,-2.584 -2.08,0 c -0.388,5.032 -2.261,7.584 -5.588,7.584 l -9.5,0 c -3.328,0 -5.2,-2.552 -5.588,-7.584 l -2.079,0 c -4.549,0 -8.25,-4.127 -8.25,-9.199 l 0,-12.932 c 0,-5.073 3.701,-9.201 8.25,-9.201 l 24.835,0 c 4.549,0 8.25,4.128 8.25,9.201 l 0,12.932 c 0,5.072 -3.701,9.199 -8.25,9.199"
               id="path26"
               style="fill:#3b393c;fill-opacity:1;fill-rule:nonzero;stroke:none" /></g></g></g></g></g></svg>