<?xml version="1.0" encoding="UTF-8" standalone="no"?>
<!-- Created with Inkscape (http://www.inkscape.org/) -->

<svg
   xmlns:dc="http://purl.org/dc/elements/1.1/"
   xmlns:cc="http://creativecommons.org/ns#"
   xmlns:rdf="http://www.w3.org/1999/02/22-rdf-syntax-ns#"
   xmlns:svg="http://www.w3.org/2000/svg"
   xmlns="http://www.w3.org/2000/svg"
   version="1.1"
   width="40"
   height="40"
   id="svg4494">
  <metadata
     id="metadata4500">
    <rdf:RDF>
      <cc:Work
         rdf:about="">
        <dc:format>image/svg+xml</dc:format>
        <dc:type
           rdf:resource="http://purl.org/dc/dcmitype/StillImage" />
        <dc:title></dc:title>
      </cc:Work>
    </rdf:RDF>
  </metadata>
  <defs
     id="defs4498" />
  <path
     d="M 5.6939309,28.986642 C 2.8531802,26.928183 0.49728756,25.194655 0.45861368,25.134356 0.33152192,24.9362 0.38220858,24.530771 0.55285708,24.380527 c 0.0921199,-0.0811 2.44099542,-1.745937 5.21972342,-3.699628 3.6629856,-2.575402 5.1236205,-3.551762 5.3118475,-3.5507 0.544385,0.0031 0.542728,-0.0036 0.594595,2.404565 l 0.04786,2.221889 0.669963,-0.02196 c 0.974289,-0.03193 4.006941,-0.279074 5.503264,-0.448479 7.981034,-0.903563 12.859386,-2.647397 14.075689,-5.03155 0.623254,-1.221679 0.131242,-2.843619 -1.327907,-4.377501 -0.331989,-0.348993 -0.644239,-0.707073 -0.69389,-0.795732 -0.04965,-0.08866 -0.09027,-0.86886 -0.09027,-1.733781 0,-1.446017 0.01597,-1.592878 0.198364,-1.824761 0.127198,-0.161707 0.291509,-0.25218 0.457989,-0.25218 0.393239,0 3.166181,1.41724 4.464076,2.281574 1.497718,0.997404 2.327181,1.7098 3.067263,2.634361 0.765174,0.955907 1.147246,1.674636 1.385554,2.606407 0.767182,2.999654 -0.988364,5.870963 -5.132902,8.395202 -3.796601,2.312328 -9.250281,3.865729 -15.836673,4.510847 -1.761129,0.172498 -4.671453,0.34032 -5.903065,0.340397 l -0.885308,5.5e-5 0,2.186473 c 0,1.996669 -0.01519,2.200223 -0.175027,2.344869 -0.09627,0.08712 -0.280785,0.158397 -0.410046,0.158397 -0.157491,0 -1.938843,-1.234621 -5.4000191,-3.742651 z"
     id="path4504"
     style="fill:#000000;fill-opacity:1" />
</svg>
