<?xml version="1.0" encoding="UTF-8" standalone="no"?>
<!-- Created with Inkscape (http://www.inkscape.org/) -->

<svg
   xmlns:dc="http://purl.org/dc/elements/1.1/"
   xmlns:cc="http://creativecommons.org/ns#"
   xmlns:rdf="http://www.w3.org/1999/02/22-rdf-syntax-ns#"
   xmlns:svg="http://www.w3.org/2000/svg"
   xmlns="http://www.w3.org/2000/svg"
   xmlns:sodipodi="http://sodipodi.sourceforge.net/DTD/sodipodi-0.dtd"
   xmlns:inkscape="http://www.inkscape.org/namespaces/inkscape"
   id="svg5068"
   version="1.1"
   inkscape:version="0.48.2 r9819"
   width="40"
   height="40"
   sodipodi:docname="Rotate_360_CW_40x40.svg">
  <metadata
     id="metadata5074">
    <rdf:RDF>
      <cc:Work
         rdf:about="">
        <dc:format>image/svg+xml</dc:format>
        <dc:type
           rdf:resource="http://purl.org/dc/dcmitype/StillImage" />
        <dc:title />
      </cc:Work>
    </rdf:RDF>
  </metadata>
  <defs
     id="defs5072" />
  <sodipodi:namedview
     pagecolor="#ffffff"
     bordercolor="#666666"
     borderopacity="1"
     objecttolerance="10"
     gridtolerance="10"
     guidetolerance="10"
     inkscape:pageopacity="0"
     inkscape:pageshadow="2"
     inkscape:window-width="2560"
     inkscape:window-height="1354"
     id="namedview5070"
     showgrid="false"
     fit-margin-top="0"
     fit-margin-left="0"
     fit-margin-right="0"
     fit-margin-bottom="0"
     inkscape:zoom="4.72"
     inkscape:cx="170.89308"
     inkscape:cy="72.076271"
     inkscape:window-x="0"
     inkscape:window-y="0"
     inkscape:window-maximized="0"
     inkscape:current-layer="svg5068" />
  <path
     style="fill:#000000"
     d="m 28.509416,32.597112 c -0.138055,-0.152549 -0.158938,-0.461689 -0.158938,-2.352871 l 0,-2.177248 -0.888329,-5.7e-5 C 26.226333,28.06686 23.306076,27.898464 21.538937,27.725378 14.06117,26.992952 7.906847,25.042825 4.2076799,22.233605 3.1988231,21.467459 2.1535001,20.486114 1.6912639,19.871205 0.44516111,18.213521 0.04998716,16.526192 0.49779458,14.775282 0.73691479,13.84033 1.1202913,13.119149 1.8880763,12.15998 2.6306846,11.232263 3.4629788,10.517435 4.9658082,9.516627 6.2681326,8.649344 9.0505386,7.227266 9.4451199,7.227266 c 0.1670481,0 0.3319191,0.09078 0.4595513,0.25304 0.1830228,0.232675 0.1990418,0.380038 0.1990418,1.83099 0,0.867873 -0.04076,1.650737 -0.09058,1.739699 -0.049819,0.08896 -0.3631356,0.448262 -0.696258,0.798447 -0.7059457,0.742102 -1.2686415,1.644663 -1.4847433,2.381519 -0.995567,3.394651 4.0819423,5.905532 14.2760333,7.059645 1.501429,0.169983 4.544432,0.417966 5.522047,0.450008 l 0.672249,0.02203 0.04802,-2.229471 c 0.05204,-2.416416 0.05038,-2.409689 0.596625,-2.412773 0.188869,-0.0011 1.654489,0.978627 5.329976,3.562819 2.788211,1.960359 5.145104,3.630874 5.237538,3.712255 0.171229,0.150755 0.222093,0.557592 0.09456,0.756367 -0.03881,0.06048 -2.403262,1.79993 -5.254344,3.865433 -3.680299,2.666238 -5.25669,3.75546 -5.435138,3.75546 -0.138241,0 -0.322869,-0.07903 -0.410285,-0.175625 z"
     id="path5078"
     inkscape:connector-curvature="0" />
</svg>
