<?xml version="1.0" encoding="UTF-8" standalone="no"?>
<!-- Created with Inkscape (http://www.inkscape.org/) -->

<svg
   xmlns:dc="http://purl.org/dc/elements/1.1/"
   xmlns:cc="http://creativecommons.org/ns#"
   xmlns:rdf="http://www.w3.org/1999/02/22-rdf-syntax-ns#"
   xmlns:svg="http://www.w3.org/2000/svg"
   xmlns="http://www.w3.org/2000/svg"
   version="1.1"
   width="40"
   height="40"
   id="svg5134">
  <metadata
     id="metadata5140">
    <rdf:RDF>
      <cc:Work
         rdf:about="">
        <dc:format>image/svg+xml</dc:format>
        <dc:type
           rdf:resource="http://purl.org/dc/dcmitype/StillImage" />
        <dc:title></dc:title>
      </cc:Work>
    </rdf:RDF>
  </metadata>
  <defs
     id="defs5138" />
  <g
     transform="matrix(0.09138826,0,0,0.09138826,1.7183987,35.752651)"
     id="g2982">
    <path
       d="m 23.261476,38.732409 c -6.414231,-1.9826 -13.3790025,-7.08515 -17.1600745,-12.57185 -6.3539639,-9.22022 -6.252337,-7.82244 -5.9459967,-81.78069 L 0,-118.11574 c 2.4495534,-13.864 9.4271735,-20.46866 18.656583,-25.50526 4.093317,-2.18438 5.213846,-2.27918 30.388785,-2.57058 l 26.138757,-0.30256 c 0,0 0,-86.0652 0,-129.0978 l -2.92545,-3.3319 c -5.350869,-6.09431 -7.158708,-10.84557 -7.624644,-20.03868 -0.385161,-7.59938 -0.164432,-9.03373 2.180393,-14.16868 5.295035,-11.59562 14.477878,-17.93991 27.059284,-18.69483 13.950472,-0.83707 24.412862,5.05183 30.330272,17.07181 2.87813,5.8463 3.25596,7.53038 3.24305,14.45499 -0.017,9.12952 -2.37197,15.44634 -7.8579,21.07773 l -3.37889,3.46849 c 0.16757,42.96229 0.50276,128.88686 0.50276,128.88686 0,0 173.93266,0.65143 260.89899,0.97715 11.76313,0.29269 21.25114,13.46015 22.47444,23.45159 0,45.205766 0,90.411533 0,135.617299 -4.2977,17.16172 -11.47174,24.17217 -27.45391,26.58958 l -170.90749,0.18171 C 53.113038,40.109189 27.132765,39.929009 23.261476,38.732409 z m 327.478894,-136.2525 -300.96214,0 0,87.9434895 300.96214,0 z m -179.30699,64.11311 c -4.2948,-1.87448 -9.98888,-8.66533 -11.27703,-13.44917 -2.46913,-9.16965 1.81542,-19.22195 9.96592,-23.38183 8.2962,-4.23423 16.81897,-3.21237 23.50174,2.81783 4.96739,4.48232 6.63529,8.34199 6.63529,15.35467 0,8.20909 -3.78184,14.47712 -10.954,18.15523 -4.26528,2.18736 -13.4225,2.44523 -17.87192,0.50327 z m 61.56044,-0.0125 c -11.92894,-5.25745 -15.65791,-20.888 -7.56633,-31.71548 2.76619,-3.70149 10.96745,-7.93517 15.38353,-7.94133 11.50027,-0.0161 21.00872,9.26105 21.00872,20.4976 0,12.30365 -8.16553,20.57105 -20.23693,20.48945 -3.11165,-0.021 -6.97669,-0.61964 -8.58899,-1.33024 z m 60.00411,-0.90597 c -11.76718,-6.21465 -14.07578,-23.15532 -4.42093,-32.44109 8.29025,-7.97336 19.68959,-8.30882 27.97519,-0.82328 10.52457,9.50832 8.47035,27.08525 -3.89649,33.34023 -5.95717,3.01307 -13.86682,2.98254 -19.65777,-0.0758 z M 238.45991,-169.13688 c -4.52592,-1.44482 -9.63175,-6.77028 -10.39578,-10.84296 -1.02611,-5.46961 1.55366,-9.41755 9.00038,-13.7737 23.86844,-13.96246 40.19746,-30.79507 50.25483,-51.80475 5.65929,-11.82214 8.27313,-20.9433 9.82329,-34.27898 3.02283,-26.00484 -5.68157,-55.16151 -23.60762,-79.07718 -7.53518,-10.05291 -8.55362,-12.98381 -6.17436,-17.76896 3.59222,-7.22466 11.86128,-9.94817 20.35536,-6.70425 9.96866,3.80706 27.56438,31.45107 35.52536,55.8126 10.30599,34.9707 5.74644,72.75117 -10.06611,101.526 -11.51742,20.59508 -34.46411,42.58423 -56.53198,54.17296 -8.0204,4.21184 -11.79105,4.77987 -18.18337,2.73922 z m -27.41626,-40.92555 c -9.26861,-2.6593 -13.94575,-10.57843 -10.59334,-17.93618 0.6425,-1.41012 5.21878,-5.60834 10.16951,-9.3294 24.30073,-18.26483 34.67971,-43.17958 29.14668,-69.96664 -2.00804,-9.72157 -4.29624,-15.42164 -10.74194,-26.75896 -2.92252,-5.1404 -5.31202,-10.41701 -5.31001,-11.72579 0.005,-3.39061 3.31969,-8.37826 6.74466,-10.14938 3.92867,-2.0316 12.44702,-1.93031 16.68342,0.19837 8.41659,4.22912 20.34322,27.35419 24.56726,47.63453 6.08265,37.04953 -13.29288,71.32631 -37.95419,90.68452 -10.24718,7.8515 -15.28216,9.48067 -22.71205,7.34893 z m -35.49889,-41.93516 c -4.6436,-2.45067 -7.52301,-7.07047 -7.52775,-12.07775 -0.003,-3.53263 0.61195,-4.4437 7.25906,-10.74864 7.86072,-7.45608 10.88412,-12.22185 11.85322,-18.68421 0.72932,-4.86344 -1.31787,-12.80116 -4.93201,-19.12328 -4.83762,-8.46232 -2.60427,-15.74012 5.81716,-18.9563 8.78667,-3.35566 17.232,0.10786 22.76265,9.33522 8.86593,16.34311 10.11462,34.17475 3.89547,47.23626 -3.8341,8.02993 -13.24012,18.67941 -20.29914,22.98266 -4.54323,2.76959 -13.61614,2.78695 -18.82866,0.036 z"
       id="path5144"
       style="fill:#000000;fill-opacity:1" />
  </g>
</svg>
