<?xml version="1.0" encoding="UTF-8" standalone="no"?>
<!-- Created with Inkscape (http://www.inkscape.org/) -->

<svg
   xmlns:dc="http://purl.org/dc/elements/1.1/"
   xmlns:cc="http://creativecommons.org/ns#"
   xmlns:rdf="http://www.w3.org/1999/02/22-rdf-syntax-ns#"
   xmlns:svg="http://www.w3.org/2000/svg"
   xmlns="http://www.w3.org/2000/svg"
   version="1.1"
   width="40"
   height="40"
   id="svg5134">
  <metadata
     id="metadata5140">
    <rdf:RDF>
      <cc:Work
         rdf:about="">
        <dc:format>image/svg+xml</dc:format>
        <dc:type
           rdf:resource="http://purl.org/dc/dcmitype/StillImage" />
        <dc:title></dc:title>
      </cc:Work>
    </rdf:RDF>
  </metadata>
  <defs
     id="defs5138" />
  <path
     d="M 3.8442245,39.292338 C 3.2580391,39.111152 2.6215408,38.644839 2.2759952,38.143419 1.6953175,37.300799 1.704605,37.42854 1.7326009,30.669624 l -0.014202,-5.711365 c 0.2238604,-1.267007 0.861533,-1.870595 1.7049927,-2.330881 0.3740811,-0.199627 0.4764843,-0.208291 2.7771781,-0.234921 l 2.3887756,-0.02765 c 0,0 0,-7.865348 0,-11.798023 L 8.3219933,10.262287 C 7.8329867,9.7053382 7.6677714,9.2711288 7.6251903,8.4309865 7.5899911,7.7364924 7.6101632,7.6054096 7.8244527,7.1361355 c 0.483904,-1.0597036 1.323108,-1.6394972 2.4729013,-1.708488 1.274909,-0.076498 2.231049,0.4616779 2.77183,1.560163 0.263028,0.5342832 0.297557,0.6881883 0.296377,1.3210164 -0.0016,0.8343309 -0.21677,1.4116141 -0.71812,1.9262571 l -0.308791,0.316979 c 0.01531,3.926249 0.04595,11.778746 0.04595,11.778746 0,0 15.895403,0.05953 23.843104,0.0893 1.075012,0.02675 1.942105,1.2301 2.0539,2.1432 0,4.131276 0,8.262553 0,12.393829 -0.392759,1.56838 -1.048382,2.209053 -2.508965,2.429976 L 20.153698,39.40372 C 6.5723068,39.41816 4.1980149,39.401694 3.8442245,39.292338 z M 33.771951,26.84046 l -27.5044065,0 0,8.037002 27.5044065,0 z m -16.386554,5.859185 c -0.392494,-0.171305 -0.912866,-0.791909 -1.030588,-1.229096 -0.22565,-0.837998 0.165908,-1.756661 0.910768,-2.136825 0.758175,-0.386959 1.537056,-0.293573 2.147783,0.257517 0.453961,0.409631 0.606388,0.76236 0.606388,1.403236 0,0.750215 -0.345616,1.323039 -1.001067,1.659175 -0.389797,0.199899 -1.226659,0.223465 -1.633284,0.04599 z m 5.625902,-0.0011 c -1.090166,-0.480469 -1.43095,-1.908918 -0.691474,-2.898423 0.252797,-0.338272 1.002296,-0.725181 1.405874,-0.725744 1.050989,-0.0015 1.91995,0.846351 1.91995,1.87324 0,1.124409 -0.746233,1.879952 -1.849418,1.872495 -0.284368,-0.0019 -0.637587,-0.05663 -0.784932,-0.121568 z m 5.483671,-0.0828 c -1.075382,-0.567946 -1.286361,-2.116125 -0.404021,-2.964735 0.757631,-0.728672 1.799397,-0.759329 2.556604,-0.07524 0.961822,0.868949 0.77409,2.475274 -0.356094,3.046905 -0.544415,0.27536 -1.267264,0.27257 -1.796489,-0.0069 z M 23.510835,20.295526 c -0.413616,-0.13204 -0.880229,-0.618724 -0.950052,-0.990919 -0.09378,-0.499859 0.141986,-0.860654 0.822529,-1.258755 2.181295,-1.276005 3.673576,-2.814308 4.592701,-4.734346 0.517193,-1.080405 0.756067,-1.913972 0.897734,-3.132696 C 29.149998,7.8022727 28.354518,5.1376954 26.716287,2.9520839 26.02766,2.033366 25.934587,1.7655161 26.152023,1.3282096 26.48031,0.66796048 27.236005,0.41906364 28.012264,0.71551985 c 0.911019,0.34792055 2.519061,2.87425855 3.246601,5.10061635 0.941847,3.1959115 0.525157,6.6486028 -0.919924,9.2782848 -1.052557,1.882148 -3.149615,3.891698 -5.16636,4.950772 -0.73297,0.384913 -1.077563,0.436824 -1.661746,0.250333 z m -2.505524,-3.740115 c -0.847042,-0.243029 -1.274478,-0.966744 -0.968107,-1.639156 0.05872,-0.128869 0.476935,-0.512537 0.929374,-0.852598 2.220801,-1.669191 3.169318,-3.946107 2.663664,-6.3941294 C 23.446731,6.7810903 23.237616,6.2601708 22.648555,5.2240728 22.381471,4.7543006 22.163098,4.2720804 22.163282,4.1524733 c 4.57e-4,-0.309862 0.303381,-0.7656746 0.616383,-0.9275342 0.359034,-0.1856644 1.137511,-0.1764077 1.524669,0.018129 0.769177,0.3864919 1.859131,2.4998518 2.245159,4.3532368 0.555883,3.3858921 -1.214813,6.5183871 -3.468568,8.2875001 -0.936472,0.717535 -1.39661,0.866422 -2.075614,0.671606 z M 17.761129,12.72303 c -0.424371,-0.223963 -0.687515,-0.646158 -0.687948,-1.103765 -2.74e-4,-0.322841 0.05592,-0.406102 0.663393,-0.982299 0.718377,-0.6813985 0.994681,-1.1169339 1.083245,-1.7075178 0.06665,-0.4444613 -0.120438,-1.1698757 -0.450728,-1.7476433 -0.442102,-0.7733567 -0.238,-1.4384621 0.53162,-1.7323832 0.802999,-0.306668 1.574803,0.00986 2.080239,0.8531295 0.810242,1.4935684 0.924358,3.1231709 0.356,4.3168398 -0.350391,0.733841 -1.209991,1.707079 -1.855103,2.100345 -0.415198,0.253108 -1.244355,0.254695 -1.720718,0.0033 z"
     id="path5144"
     style="fill:#000000;fill-opacity:1" />
</svg>
