<?xml version="1.0" encoding="UTF-8" standalone="no"?>
<!-- Created with Inkscape (http://www.inkscape.org/) -->

<svg
   xmlns:dc="http://purl.org/dc/elements/1.1/"
   xmlns:cc="http://creativecommons.org/ns#"
   xmlns:rdf="http://www.w3.org/1999/02/22-rdf-syntax-ns#"
   xmlns:svg="http://www.w3.org/2000/svg"
   xmlns="http://www.w3.org/2000/svg"
   version="1.1"
   width="40"
   height="40"
   id="svg2"
   xml:space="preserve"><metadata
     id="metadata8"><rdf:RDF><cc:Work
         rdf:about=""><dc:format>image/svg+xml</dc:format><dc:type
           rdf:resource="http://purl.org/dc/dcmitype/StillImage" /><dc:title></dc:title></cc:Work></rdf:RDF></metadata><defs
     id="defs6"><clipPath
       id="clipPath16"><path
         d="M 0,55 55,55 55,0 0,0 0,55 z"
         id="path18" /></clipPath></defs><g
     transform="matrix(1.25,0,0,-1.25,-12.078566,49.737874)"
     id="g10"><g
       id="g12"><g
         clip-path="url(#clipPath16)"
         id="g14"><g
           transform="translate(27.2344,12.4883)"
           id="g20" /><g
           transform="translate(31.9551,33.5791)"
           id="g24"><g
             transform="matrix(0.79899989,0,0,0.79899989,-2.6136727,-5.1041248)"
             id="g2992"><path
               d="m 0,0 c -10.34,3.717 -12.452,19.157 -12.883,25.47 0.064,0 0.129,-0.002 0.195,-0.002 2.611,0 6.87,0.832 12.681,4.63 C 6.006,26.173 10.406,25.39 13.09,25.472 12.602,19.144 10.352,3.717 0,0 m 16.76,30.078 c -0.631,0.423 -1.465,0.494 -2.178,0.206 -0.005,-0.002 -0.598,-0.237 -1.751,-0.237 -2.216,0 -6.013,0.814 -11.52,4.69 -0.79,0.556 -1.846,0.554 -2.635,0 -5.8,-4.08 -9.61,-4.69 -11.364,-4.69 -1.007,0 -1.548,0.192 -1.563,0.192 l 10e-4,-0.001 c -0.707,0.359 -1.544,0.325 -2.22,-0.088 -0.677,-0.411 -1.093,-1.144 -1.101,-1.936 -0.01,-1.129 -0.053,-27.71 16.911,-32.816 0.216,-0.065 0.438,-0.096 0.66,-0.096 0.222,0 0.444,0.031 0.659,0.096 16.949,5.1 17.146,31.667 17.146,32.796 0,0.762 -0.414,1.458 -1.045,1.884"
               transform="translate(-4.7207,-21.0908)"
               id="path22"
               style="fill:#373535;fill-opacity:1;fill-rule:nonzero;stroke:none" /><path
               d="m 0,0 c -2.3163333,-2.1093333 -4.6326667,-4.2186667 -6.949,-6.328 -0.7049735,0.6523932 -1.3500658,1.3757453 -2.1032676,1.9711719 -1.1495234,0.7821282 -2.9053484,0.2100976 -3.3639664,-1.1055625 -0.39316,-0.9539589 -0.01345,-2.0766175 0.779347,-2.7010296 1.071629,-1.019283 2.1100708,-2.0765318 3.202887,-3.0715798 0.8813955,-0.772827 2.3033816,-0.647009 3.0994627,0.186581 2.833529,2.5824046 5.6725682,5.1589107 8.5026519,7.7450034 1.0159837,0.9578649 0.8215391,2.79997177 -0.3709919,3.52620268 C 1.9516386,0.79296048 0.74498032,0.69665854 0,0 z"
               id="path26"
               style="fill:#373535;fill-opacity:1;fill-rule:nonzero;stroke:none" /></g></g></g></g></g></svg>