<?xml version="1.0" encoding="UTF-8" standalone="no"?>
<!-- Created with Inkscape (http://www.inkscape.org/) -->

<svg
   xmlns:dc="http://purl.org/dc/elements/1.1/"
   xmlns:cc="http://creativecommons.org/ns#"
   xmlns:rdf="http://www.w3.org/1999/02/22-rdf-syntax-ns#"
   xmlns:svg="http://www.w3.org/2000/svg"
   xmlns="http://www.w3.org/2000/svg"
   version="1.1"
   width="40"
   height="40"
   id="svg2"
   xml:space="preserve"><metadata
     id="metadata8"><rdf:RDF><cc:Work
         rdf:about=""><dc:format>image/svg+xml</dc:format><dc:type
           rdf:resource="http://purl.org/dc/dcmitype/StillImage" /><dc:title></dc:title></cc:Work></rdf:RDF></metadata><defs
     id="defs6"><clipPath
       id="clipPath16"><path
         d="M 0,55 55,55 55,0 0,0 0,55 z"
         id="path18" /></clipPath></defs><path
     d="M 19.875,0.09375 C 19.414202,0.09399969 18.956507,0.22334629 18.5625,0.5 12.769751,4.5748994 8.9705572,5.1875 7.21875,5.1875 6.2130089,5.1875 5.6712313,5 5.65625,5 4.9501338,4.6414488 4.1126549,4.6812663 3.4375,5.09375 2.7613464,5.5042362 2.35174,6.2402402 2.34375,7.03125 c -0.00999,1.1275886 -0.067792,27.681633 16.875,32.78125 0.21573,0.06492 0.434528,0.09375 0.65625,0.09375 0.221722,0 0.441519,-0.02883 0.65625,-0.09375 16.927812,-5.093624 17.125,-31.6224114 17.125,-32.75 0,-0.7610473 -0.401039,-1.4807825 -1.03125,-1.90625 -0.630212,-0.4224712 -1.475391,-0.4751399 -2.1875,-0.1875 -0.005,0.002 -0.598441,0.21875 -1.75,0.21875 -2.213229,0 -5.999884,-0.8163455 -11.5,-4.6875 C 20.792994,0.22234754 20.335798,0.09350031 19.875,0.09375 z m 0,5.0625 c 6.005483,3.9200932 10.413105,4.7068975 13.09375,4.625 C 32.48136,16.101337 30.214059,31.506397 19.875,35.21875 9.5479264,31.506397 7.4617111,16.086358 7.03125,9.78125 c 0.06392,0 0.1215825,0 0.1875,0 2.6077359,0 6.852514,-0.831748 12.65625,-4.625 z m 6.09375,8.40625 c -0.499847,0.03984 -1.002975,0.245856 -1.375,0.59375 l -6.9375,6.3125 C 16.952158,19.817172 16.31476,19.094683 15.5625,18.5 c -1.148086,-0.78115 -2.916955,-0.220265 -3.375,1.09375 -0.392668,0.952766 -0.01055,2.095118 0.78125,2.71875 1.070289,1.018009 2.1273,2.068696 3.21875,3.0625 0.880293,0.771861 2.298664,0.645048 3.09375,-0.1875 2.829986,-2.579176 5.642204,-5.16714 8.46875,-7.75 1.014714,-0.956668 0.84729,-2.805927 -0.34375,-3.53125 -0.422213,-0.28473 -0.937653,-0.383586 -1.4375,-0.34375 z"
     id="path22"
     style="fill:#000000;fill-opacity:1;fill-rule:nonzero;stroke:none" /></svg>