<?xml version="1.0" encoding="UTF-8" standalone="no"?>
<!-- Created with Inkscape (http://www.inkscape.org/) -->

<svg
   xmlns:dc="http://purl.org/dc/elements/1.1/"
   xmlns:cc="http://creativecommons.org/ns#"
   xmlns:rdf="http://www.w3.org/1999/02/22-rdf-syntax-ns#"
   xmlns:svg="http://www.w3.org/2000/svg"
   xmlns="http://www.w3.org/2000/svg"
   version="1.1"
   width="40"
   height="40"
   id="svg2"
   xml:space="preserve"><metadata
     id="metadata8"><rdf:RDF><cc:Work
         rdf:about=""><dc:format>image/svg+xml</dc:format><dc:type
           rdf:resource="http://purl.org/dc/dcmitype/StillImage" /><dc:title></dc:title></cc:Work></rdf:RDF></metadata><defs
     id="defs6"><clipPath
       id="clipPath16"><path
         d="M 0,55 55,55 55,0 0,0 0,55 z"
         id="path18" /></clipPath></defs><path
     d="m 16.82438,23.244135 c 1.938613,1.921829 4.603157,3.108285 7.541499,3.108285 5.909204,0 10.715874,-4.807719 10.715874,-10.71902 0,-5.909204 -4.80667,-10.7179723 -10.715874,-10.7179723 -5.910252,0 -10.71902,4.8087683 -10.71902,10.7179723 0,2.936243 1.186456,5.600788 3.105138,7.538352 0.01154,0.01049 0.02413,0.02308 0.03567,0.03567 l 0.03672,0.03672 z M 2.539696,39.841938 c -0.6084388,0 -1.2168788,-0.230788 -1.6816,-0.696558 -0.92944375,-0.928395 -0.92944375,-2.434806 -0.001049,-3.36425 L 11.871895,24.75789 C 9.9972724,22.199298 8.8894934,19.043806 8.8894934,15.6334 c 0,-8.532836 6.9425016,-15.47533725 15.4763856,-15.47533725 8.531787,0 15.473239,6.94250125 15.473239,15.47533725 0,8.534933 -6.941452,15.478484 -15.473239,15.478484 -3.411455,0 -6.567996,-1.110926 -9.129735,-2.987647 L 4.2223448,39.14433 c -0.4647213,0.464723 -1.07421,0.697608 -1.6826488,0.697608"
     id="path22"
     style="fill:#000000;fill-opacity:1;fill-rule:nonzero;stroke:none" /></svg>