<?xml version="1.0" encoding="UTF-8" standalone="no"?>
<!-- Created with Inkscape (http://www.inkscape.org/) -->

<svg
   xmlns:dc="http://purl.org/dc/elements/1.1/"
   xmlns:cc="http://creativecommons.org/ns#"
   xmlns:rdf="http://www.w3.org/1999/02/22-rdf-syntax-ns#"
   xmlns:svg="http://www.w3.org/2000/svg"
   xmlns="http://www.w3.org/2000/svg"
   version="1.1"
   width="40"
   height="40"
   id="svg2"
   xml:space="preserve"><metadata
     id="metadata8"><rdf:RDF><cc:Work
         rdf:about=""><dc:format>image/svg+xml</dc:format><dc:type
           rdf:resource="http://purl.org/dc/dcmitype/StillImage" /><dc:title></dc:title></cc:Work></rdf:RDF></metadata><defs
     id="defs6"><clipPath
       id="clipPath16"><path
         d="M 0,55 55,55 55,0 0,0 0,55 z"
         id="path18" /></clipPath></defs><g
     transform="matrix(1.25,0,0,-1.25,-10.735594,50.732749)"
     id="g10"><g
       id="g12"><g
         clip-path="url(#clipPath16)"
         id="g14"><g
           transform="translate(24.4731,24.4082)"
           id="g20"><path
             d="m -2.4251207,-2.4173089 c 1.55089058,-1.537463 3.6825259,-2.4866282 6.0331994,-2.4866282 4.7273629,0 8.5726993,3.8461752 8.5726993,8.5752166 0,4.7273629 -3.8453364,8.5743775 -8.5726993,8.5743775 -4.7282022,0 -8.5752166,-3.8470146 -8.5752166,-8.5743775 0,-2.348995 0.9491652,-4.48063039 2.4841105,-6.0306818 0.00923,-0.00839 0.019302,-0.018463 0.028534,-0.028534 l 0.029373,-0.029373 z M -13.852868,-15.695551 c -0.486751,0 -0.973503,0.18463 -1.34528,0.557246 -0.743555,0.742716 -0.743555,1.947845 -8.39e-4,2.6914 l 8.8118779,8.8185922 c -1.4996978,2.0468735 -2.385921,4.57126687 -2.385921,7.2995923 0,6.8262685 5.5540011,12.3802695 12.3811088,12.3802695 6.8254293,0 12.3785913,-5.554001 12.3785913,-12.3802695 0,-6.8279469 -5.553162,-12.3827872 -12.3785913,-12.3827872 -2.72916467,0 -5.2543972,0.8887408 -7.3037884,2.3901171 l -8.8110393,-8.8160744 c -0.371777,-0.371778 -0.859368,-0.558086 -1.346119,-0.558086"
             id="path22"
             style="fill:#323134;fill-opacity:1;fill-rule:nonzero;stroke:none" /></g></g></g></g></svg>