<?xml version="1.0" encoding="UTF-8" standalone="no"?>
<!-- Created with Inkscape (http://www.inkscape.org/) -->

<svg
   xmlns:dc="http://purl.org/dc/elements/1.1/"
   xmlns:cc="http://creativecommons.org/ns#"
   xmlns:rdf="http://www.w3.org/1999/02/22-rdf-syntax-ns#"
   xmlns:svg="http://www.w3.org/2000/svg"
   xmlns="http://www.w3.org/2000/svg"
   version="1.1"
   width="40"
   height="40"
   id="svg2"
   xml:space="preserve"><metadata
     id="metadata8"><rdf:RDF><cc:Work
         rdf:about=""><dc:format>image/svg+xml</dc:format><dc:type
           rdf:resource="http://purl.org/dc/dcmitype/StillImage" /><dc:title></dc:title></cc:Work></rdf:RDF></metadata><defs
     id="defs6"><clipPath
       id="clipPath16"><path
         d="M 0,55 55,55 55,0 0,0 0,55 z"
         id="path18" /></clipPath></defs><g
     transform="matrix(1.25,0,0,-1.25,-9.1998125,49.448251)"
     id="g10"><g
       id="g12"><g
         clip-path="url(#clipPath16)"
         id="g14"><g
           transform="translate(9.8716,7.5586)"
           id="g20" /><g
           transform="translate(33.9834,23.6035)"
           id="g24"><g
             transform="matrix(0.79319991,0,0,0.79319991,-5.3513088,-3.1645346)"
             id="g2992"><path
               d="m 0,0 c -0.643,0 -1.285,0.245 -1.776,0.735 -0.981,0.981 -0.981,2.571 0,3.552 l 9.755,9.758 -3.858,13.264 c -0.256,0.88 -0.014,1.829 0.635,2.477 l 9.432,9.434 c 0.982,0.981 2.57,0.981 3.551,0 0.982,-0.98 0.982,-2.571 0,-3.552 l -8.381,-8.384 3.476,-11.94 11.938,-3.471 8.382,8.378 c 0.981,0.982 2.571,0.982 3.552,0 0.981,-0.981 0.981,-2.57 0,-3.552 L 27.274,7.27 C 26.626,6.622 25.677,6.373 24.796,6.635 L 11.529,10.492 1.776,0.735 C 1.286,0.245 0.643,0 0,0"
               transform="translate(-24.1118,-16.0449)"
               id="path22"
               style="fill:#323134;fill-opacity:1;fill-rule:nonzero;stroke:none" /><path
               d="m 0,0 -8.342,2.237 -2.234,8.34 6.105,6.108 L 3.869,14.45 6.105,6.107 0,0 z"
               id="path26"
               style="fill:#323134;fill-opacity:1;fill-rule:nonzero;stroke:none" /></g></g></g></g></g></svg>