<?xml version="1.0" encoding="UTF-8" standalone="no"?>
<!-- Created with Inkscape (http://www.inkscape.org/) -->

<svg
   xmlns:dc="http://purl.org/dc/elements/1.1/"
   xmlns:cc="http://creativecommons.org/ns#"
   xmlns:rdf="http://www.w3.org/1999/02/22-rdf-syntax-ns#"
   xmlns:svg="http://www.w3.org/2000/svg"
   xmlns="http://www.w3.org/2000/svg"
   version="1.1"
   width="40"
   height="40"
   id="svg2"
   xml:space="preserve"><metadata
     id="metadata8"><rdf:RDF><cc:Work
         rdf:about=""><dc:format>image/svg+xml</dc:format><dc:type
           rdf:resource="http://purl.org/dc/dcmitype/StillImage" /><dc:title></dc:title></cc:Work></rdf:RDF></metadata><defs
     id="defs6"><clipPath
       id="clipPath16"><path
         d="M 0,55 55,55 55,0 0,0 0,55 z"
         id="path18" /></clipPath></defs><path
     d="m 18.5,0.1875 c -0.636915,0 -1.263174,0.23241931 -1.75,0.71875 l -9.34375,9.375 c -0.6434835,0.642492 -0.8788239,1.56498 -0.625,2.4375 L 10.59375,25.875 0.9375,35.5625 c -0.9726614,0.972661 -0.9726614,2.558588 0,3.53125 0.4868264,0.485835 1.1124656,0.71875 1.75,0.71875 0.6375344,0 1.2641651,-0.232915 1.75,-0.71875 l 9.6875,-9.6875 13.15625,3.8125 c 0.873512,0.259773 1.795008,0.01749 2.4375,-0.625 L 39.0625,23.25 c 0.972661,-0.973653 0.972661,-2.558589 0,-3.53125 -0.972661,-0.973653 -2.527338,-0.973653 -3.5,0 L 27.25,28.03125 15.40625,24.59375 11.96875,12.75 20.28125,4.4375 c 0.973652,-0.9726614 0.973652,-2.5595801 0,-3.53125 C 19.794919,0.41991931 19.136915,0.1875 18.5,0.1875 z m 3.65625,7.15625 -6.0625,6.0625 2.21875,8.28125 8.28125,2.21875 6.0625,-6.0625 L 30.4375,9.5625 22.15625,7.34375 z"
     id="path22"
     style="fill:#000000;fill-opacity:1;fill-rule:nonzero;stroke:none" /></svg>