<?xml version="1.0" encoding="UTF-8" standalone="no"?>
<!-- Created with Inkscape (http://www.inkscape.org/) -->

<svg
   xmlns:dc="http://purl.org/dc/elements/1.1/"
   xmlns:cc="http://creativecommons.org/ns#"
   xmlns:rdf="http://www.w3.org/1999/02/22-rdf-syntax-ns#"
   xmlns:svg="http://www.w3.org/2000/svg"
   xmlns="http://www.w3.org/2000/svg"
   version="1.1"
   width="40"
   height="40"
   id="svg2"
   xml:space="preserve"><metadata
     id="metadata8"><rdf:RDF><cc:Work
         rdf:about=""><dc:format>image/svg+xml</dc:format><dc:type
           rdf:resource="http://purl.org/dc/dcmitype/StillImage" /><dc:title></dc:title></cc:Work></rdf:RDF></metadata><defs
     id="defs6"><clipPath
       id="clipPath16"><path
         d="M 0,55 55,55 55,0 0,0 0,55 z"
         id="path18" /></clipPath></defs><path
     d="m 11.0625,0.15625 c -2.6821313,0.0555096 -4.8866508,2.5513443 -5,5.1875 -0.049504,9.422126 0.00397,18.858154 0,28.28125 -0.2698581,2.851893 1.7227801,6.015706 4.75,6.1875 6.02789,0.02028 12.065647,-0.0058 18.09375,0 2.775398,0.02913 4.872221,-2.52479 5.03125,-5.15625 0.05025,-6.904413 -0.01232,-13.813951 0,-20.71875 -0.08305,-1.436285 0.234928,-2.939259 -0.25,-4.3125 C 32.178729,7.4525643 30.550402,5.36308 29,3.21875 28.050072,2.1206204 27.460635,0.40684257 25.84375,0.1875 c -4.750446,-0.0398093 -9.498711,0.0113572 -14.25,0 -0.182782,-0.0187197 -0.352441,-0.0349506 -0.53125,-0.03125 z m 0.09375,4.90625 13.15625,0 4.78125,6.46875 0,20.03125 c -0.166754,1.105034 0.319443,2.378223 -0.28125,3.375 -5.451955,-7e-4 -10.923045,6.64e-4 -16.375,0 -0.555225,-0.07401 -1.47978,0.297562 -1.5,-0.5625 -0.04937,-8.752494 -0.01852,-17.496138 -0.03125,-26.25 0.09123,-0.9967574 -0.221126,-2.0747888 0.21875,-3 l 0.03125,-0.0625 z m 6.28125,12.25 c -1.588297,0 -2.875,1.602064 -2.875,3.5625 l 0,7.46875 c 0,1.960436 1.286703,3.5625 2.875,3.5625 l 5.125,0 c 1.588297,0 2.875,-1.602064 2.875,-3.5625 l 0,-7.46875 c 0,-1.960436 -1.286703,-3.5625 -2.875,-3.5625 l -5.125,0 z"
     id="path22"
     style="fill:#000000;fill-opacity:1;fill-rule:nonzero;stroke:none" /></svg>