<?xml version="1.0" encoding="UTF-8" standalone="no"?>
<!-- Created with Inkscape (http://www.inkscape.org/) -->

<svg
   xmlns:dc="http://purl.org/dc/elements/1.1/"
   xmlns:cc="http://creativecommons.org/ns#"
   xmlns:rdf="http://www.w3.org/1999/02/22-rdf-syntax-ns#"
   xmlns:svg="http://www.w3.org/2000/svg"
   xmlns="http://www.w3.org/2000/svg"
   version="1.1"
   width="40"
   height="40"
   id="svg2"
   xml:space="preserve"><metadata
     id="metadata8"><rdf:RDF><cc:Work
         rdf:about=""><dc:format>image/svg+xml</dc:format><dc:type
           rdf:resource="http://purl.org/dc/dcmitype/StillImage" /><dc:title></dc:title></cc:Work></rdf:RDF></metadata><defs
     id="defs6"><clipPath
       id="clipPath16"><path
         d="M 0,55 55,55 55,0 0,0 0,55 z"
         id="path18" /></clipPath></defs><g
     transform="matrix(1.25,0,0,-1.25,-17.487875,50.458125)"
     id="g10"><g
       id="g12"><g
         clip-path="url(#clipPath16)"
         id="g14"><g
           transform="translate(18.7363,40.7275)"
           id="g20" /><g
           transform="translate(32.0664,19.0527)"
           id="g24"><g
             transform="matrix(0.85795894,0,0,0.85795894,2.2708348,-1.3699575)"
             id="g2992"><path
               d="m -13.3301,21.6748 c -0.41016,-0.862709 -0.124934,-1.87851 -0.21,-2.807932 0.01187,-8.1625 -0.02504,-16.326844 0.021,-24.488068 0.01885,-0.801961 0.897331,-0.458132 1.415048,-0.527143 5.0836509,-6.19e-4 10.167301,-0.00124 15.250952,-0.00186 0.560114,0.92944 0.103511,2.140393 0.259,3.170777 0,6.220741 0,12.441482 0,18.662223 -1.479333,2.016333 -2.958667,4.032667 -4.438,6.049 -4.109,0 -8.218,0 -12.327,0 l 0.08,0.011 m 16.512,-27.893 -0.006,-10e-4 m 0,-4.535 c -5.620877,0.0054 -11.2420714,-0.0108 -16.86275,0.0081 -2.822718,0.160188 -4.68731,3.104464 -4.435682,5.763699 0.0037,8.786524 -0.02973,17.574556 0.01643,26.360176 0.112738,2.621943 2.420994,5.100281 5.147942,4.821 4.4303182,-0.01059 8.8618926,0.0212 13.291425,-0.01592 1.507657,-0.204525 2.064528,-1.780613 2.950284,-2.804559 1.445666,-1.999471 2.950908,-3.95872 4.357755,-5.984398 C 8.144473,16.181423 7.865464,14.782243 7.9429,13.442985 7.931413,7.004636 7.967759,0.565789 7.9209,-5.8722 7.772614,-8.325893 5.814808,-10.713359 3.2269,-10.6862 z"
               id="path22"
               style="fill:#3b393c;fill-opacity:1;fill-rule:nonzero;stroke:none" /><path
               d="m 0,0 c 0,-1.828 -1.2,-3.312 -2.681,-3.312 l -4.768,0 c -1.481,0 -2.682,1.484 -2.682,3.312 l 0,6.986 c 0,1.828 1.201,3.31 2.682,3.31 l 4.768,0 C -1.2,10.296 0,8.814 0,6.986 L 0,0 z"
               id="path26"
               style="fill:#3b393c;fill-opacity:1;fill-rule:nonzero;stroke:none" /></g></g></g></g></g></svg>