<?xml version="1.0" encoding="UTF-8" standalone="no"?>
<!-- Created with Inkscape (http://www.inkscape.org/) -->

<svg
   xmlns:dc="http://purl.org/dc/elements/1.1/"
   xmlns:cc="http://creativecommons.org/ns#"
   xmlns:rdf="http://www.w3.org/1999/02/22-rdf-syntax-ns#"
   xmlns:svg="http://www.w3.org/2000/svg"
   xmlns="http://www.w3.org/2000/svg"
   version="1.1"
   width="40"
   height="40"
   id="svg2"
   xml:space="preserve"><metadata
     id="metadata8"><rdf:RDF><cc:Work
         rdf:about=""><dc:format>image/svg+xml</dc:format><dc:type
           rdf:resource="http://purl.org/dc/dcmitype/StillImage" /><dc:title></dc:title></cc:Work></rdf:RDF></metadata><defs
     id="defs6"><clipPath
       id="clipPath16"><path
         d="M 0,55 55,55 55,0 0,0 0,55 z"
         id="path18" /></clipPath></defs><g
     transform="matrix(1.25,0,0,-1.25,-10.020539,51.405144)"
     id="g10"><g
       id="g12"><g
         clip-path="url(#clipPath16)"
         id="g14"><g
           transform="translate(27.8682,19.2031)"
           id="g20" /><g
           transform="translate(46.1953,19.2891)"
           id="g24" /><g
           transform="translate(17.943603,19.291503)"
           id="g28"><g
             id="g2995"><path
               d="m 6.1274201,-0.64453377 c 1.309103,0 2.6182059,0 3.9273089,0 C 9.8061756,0.70853894 9.4828813,2.1988231 8.4198678,3.1588302 7.9094992,3.6808066 7.0488009,3.3023284 6.579506,3.8804146 6.1189961,4.3605628 6.2547308,5.1285662 6.7051211,5.5645911 7.1305507,6.1880309 7.7966477,6.6819709 7.9404795,7.4587012 8.2374218,8.7035544 7.1629363,10.020976 5.8827157,9.973568 4.6033516,10.019781 3.528347,8.7023898 3.8251526,7.4580993 3.9704068,6.6900204 4.6174577,6.1916338 5.0469023,5.5801589 5.5037617,5.1425322 5.6555241,4.3678003 5.1869914,3.8804146 4.7179454,3.3026347 3.8582475,3.6802127 3.3474198,3.1598461 2.3023313,2.2257984 1.9792566,0.76974247 1.7269937,-0.55264345 c 0.039392,-0.19784528 0.493655,-0.0426221 0.7076315,-0.0918903 1.2309317,0 2.4618633,0 3.6927949,0 z M 11.324503,-2.916 C 7.6587828,-2.91203 3.9926528,-2.92394 0.3271893,-2.91005 -0.426989,-2.855371 -0.841777,-2.0339148 -0.664414,-1.3493364 -0.450116,0.67336726 0.008091,2.805094 1.3605516,4.3920173 1.5543768,4.8719729 2.6787475,5.0613346 2.1709074,5.5644601 1.055907,7.2883117 1.3978098,9.765858 2.9490401,11.113985 4.5045099,12.586111 7.1532165,12.616632 8.7424074,11.181035 10.34634,9.8500272 10.734585,7.3286013 9.6010848,5.5782578 9.0724534,5.0672562 10.208892,4.875431 10.406285,4.3896133 11.759327,2.8042484 12.216971,0.67179933 12.43106,-1.3499378 12.608834,-2.0985098 12.155849,-2.9209372 11.324503,-2.916 z"
               id="path22"
               style="fill:#373535;fill-opacity:1;fill-rule:nonzero;stroke:none" /><path
               d="m 20.837451,-0.57550689 c -2.283616,0.003886 -4.567625,-0.007785 -6.850995,0.005859 -0.870612,0.046969 -1.347255,1.2076529 -0.760204,1.85262069 0.456252,0.5755383 1.227265,0.3768197 1.862099,0.4129862 1.493912,0 2.987823,0 4.481735,0 -0.245041,1.3257323 -0.558705,2.7686308 -1.561549,3.7421061 -0.402962,0.4461023 -1.022504,0.3404125 -1.534204,0.5069589 -0.722817,0.2923036 -0.892036,1.327366 -0.334737,1.8585271 0.370217,0.5116221 0.827909,0.9604645 1.149389,1.5032651 0.594568,1.1325908 -0.123335,2.6717078 -1.372771,2.9445328 -1.227935,0.358184 -2.596881,-0.648011 -2.615287,-1.928492 -0.06374,-0.6994589 0.322577,-1.3145879 0.780966,-1.8024179 0.326315,-0.480845 0.872003,-0.8725301 0.911128,-1.492987 0.04985,-0.7055951 -0.636154,-1.2719775 -1.317884,-1.1911367 -0.678667,-0.00338 -1.013074,-0.6701006 -1.56224,-0.9267119 -0.799704,-0.3359338 -1.730234,0.491499 -1.49459,1.324935 0.189734,0.6176216 0.769442,1.0134124 1.284977,1.3535818 -1.229641,1.577949 -1.150107,3.9902337 0.182471,5.4819787 1.320236,1.596892 3.8184,1.988281 5.570854,0.889116 1.724929,-1.001524 2.555886,-3.260415 1.882229,-5.1393887 -0.06795,-0.620266 -1.070439,-1.2398949 -0.173751,-1.5571118 1.495465,-1.2441257 2.091962,-3.2152289 2.423437,-5.0629252 0.07271,-0.6722788 0.280824,-1.37057189 0.110516,-2.038874 -0.158417,-0.43443954 -0.598686,-0.74123146 -1.06159,-0.73642059 z"
               id="path26"
               style="fill:#373535;fill-opacity:1;fill-rule:nonzero;stroke:none" /><path
               d="m -1.9354021,-0.57550689 c -2.2836542,0.003949 -4.5677161,-0.007911 -6.8511147,0.005954 -0.7548669,0.0548267 -1.1694581,0.87729566 -0.9910401,1.56227123 0.2097629,1.99882616 0.6621646,4.09401246 1.9706926,5.67978376 0.2229162,0.4160725 0.9703418,0.6819394 1.0073396,1.0186178 -1.1998645,1.6381979 -1.0240055,4.0928761 0.4020206,5.5392251 1.3978378,1.526048 3.9083368,1.800331 5.6042562,0.61576 C 0.91645056,12.742729 1.6246616,10.375534 0.79597582,8.5159765 0.61119805,7.9955043 -0.04111847,7.5325738 0.73559631,7.2624272 1.2434178,6.8795714 1.7861304,6.2717473 1.5098951,5.5891732 1.2617588,4.7980461 0.11366329,4.5807228 -0.4071789,5.2251597 c -0.36254142,0.4709225 -0.9530729,0.64713 -1.5238252,0.6459941 -0.8285727,0.141076 -1.1926839,1.2735492 -0.6051069,1.8735974 0.3734604,0.5000183 0.8003201,0.9604967 1.1519834,1.4738849 0.64674645,1.1003829 0.00611,2.6708379 -1.2259123,3.0045759 C -3.8191238,12.641793 -5.2345126,11.705144 -5.319049,10.427867 -5.4163122,9.7135674 -5.0521044,9.0504517 -4.5707312,8.5539504 -4.2589158,8.101831 -3.7851785,7.7327092 -3.6518614,7.1822118 -3.5009207,6.4766278 -4.1495839,5.7730368 -4.8631531,5.8432872 -5.9231181,5.7872243 -6.5033171,4.7145761 -6.8468809,3.840855 -7.1131235,3.1500174 -7.2829272,2.4255102 -7.4021712,1.6959593 c 1.8609346,-0.00389 3.7222619,0.00779 5.5829506,-0.00586 0.87095078,-0.046813 1.34541528,-1.20714795 0.7598633,-1.8523354 -0.2112095,-0.25946637 -0.5413181,-0.41573844 -0.8760448,-0.41327189 z"
               id="path30"
               style="fill:#373535;fill-opacity:1;fill-rule:nonzero;stroke:none" /></g></g></g></g></g></svg>