<?xml version="1.0" encoding="UTF-8" standalone="no"?>
<!-- Created with Inkscape (http://www.inkscape.org/) -->

<svg
   xmlns:dc="http://purl.org/dc/elements/1.1/"
   xmlns:cc="http://creativecommons.org/ns#"
   xmlns:rdf="http://www.w3.org/1999/02/22-rdf-syntax-ns#"
   xmlns:svg="http://www.w3.org/2000/svg"
   xmlns="http://www.w3.org/2000/svg"
   version="1.1"
   width="40"
   height="40"
   id="svg2"
   xml:space="preserve"><metadata
     id="metadata8"><rdf:RDF><cc:Work
         rdf:about=""><dc:format>image/svg+xml</dc:format><dc:type
           rdf:resource="http://purl.org/dc/dcmitype/StillImage" /><dc:title></dc:title></cc:Work></rdf:RDF></metadata><defs
     id="defs6"><clipPath
       id="clipPath16"><path
         d="M 0,55 55,55 55,0 0,0 0,55 z"
         id="path18" /></clipPath></defs><path
     d="m 8.71875,9.0625 c -1.5904967,-0.0934 -3.2204393,0.4952749 -4.3125,1.6875 -1.7825326,1.807936 -1.9998306,4.889753 -0.5,6.9375 -0.046247,0.420848 -0.9713547,0.72991 -1.25,1.25 -1.63566,1.982214 -2.20654638,4.626467 -2.46875,7.125 -0.2230225,0.85622 0.30641638,1.868924 1.25,1.9375 2.8542482,0.0173 5.7079322,-0.0049 8.5625,0 0.418409,0.0031 0.829739,-0.175667 1.09375,-0.5 C 11.82569,26.693516 11.213689,25.24602 10.125,25.1875 7.7991394,25.1705 5.4824183,25.16115 3.15625,25.15625 3.305305,24.244311 3.5109467,23.363547 3.84375,22.5 c 0.4294547,-1.092151 1.1750438,-2.42992 2.5,-2.5 0.8919615,0.08781 1.6886758,-0.80552 1.5,-1.6875 C 7.6771036,17.624378 7.0772693,17.158899 6.6875,16.59375 6.0857835,15.973123 5.6284209,15.142875 5.75,14.25 5.8556704,12.653404 7.6448952,11.476774 9.15625,12 c 1.539991,0.417173 2.339683,2.405771 1.53125,3.78125 -0.43958,0.641735 -0.9706745,1.218727 -1.4375,1.84375 -0.7344713,0.75006 -0.2857159,2.136155 0.75,2.3125 0.71344,-0.0014 1.453079,0.223847 1.90625,0.8125 0.651053,0.805546 2.06483,0.551408 2.375,-0.4375 0.345294,-0.853218 -0.302723,-1.61518 -0.9375,-2.09375 -0.970888,-0.337683 -0.168472,-0.911909 0.0625,-1.5625 1.035857,-2.324446 0.137123,-5.30828 -2,-6.6875 C 10.611288,9.4134823 9.673048,9.1185402 8.71875,9.0625 z m 23.03125,0 c -1.594707,-0.016668 -3.187316,0.6586783 -4.21875,1.90625 -1.665723,1.864681 -1.787051,4.871313 -0.25,6.84375 -0.644419,0.425211 -1.356583,0.915473 -1.59375,1.6875 -0.294555,1.041795 0.87537,2.076167 1.875,1.65625 C 28.248958,20.835485 28.651666,20.0042 29.5,20 30.352163,20.101051 31.21856,19.381994 31.15625,18.5 31.107344,17.724429 30.407894,17.226056 30,16.625 c -0.572986,-0.609787 -1.04842,-1.375677 -0.96875,-2.25 0.02301,-1.600602 1.746332,-2.85398 3.28125,-2.40625 1.561796,0.341031 2.46196,2.271761 1.71875,3.6875 -0.40185,0.678501 -0.974729,1.235472 -1.4375,1.875 -0.696624,0.663952 -0.497271,1.97837 0.40625,2.34375 0.639625,0.208183 1.402548,0.06737 1.90625,0.625 1.253555,1.216844 1.662449,2.999085 1.96875,4.65625 l -5.59375,0 c -0.793543,0.04521 -1.773435,-0.188173 -2.34375,0.53125 -0.733814,0.80621 -0.119515,2.25379 0.96875,2.3125 2.854213,0.017 5.70798,-0.0049 8.5625,0 0.578629,0.006 1.114479,-0.363201 1.3125,-0.90625 0.212885,-0.835378 -0.03411,-1.722151 -0.125,-2.5625 -0.414344,-2.30962 -1.161919,-4.757343 -3.03125,-6.3125 -1.12086,-0.396521 0.13381,-1.162167 0.21875,-1.9375 0.842072,-2.348717 -0.218839,-5.185595 -2.375,-6.4375 C 33.647287,9.3285164 32.706824,9.0725007 31.75,9.0625 z M 19.6875,12 c -1.319074,0.01525 -2.621581,0.486171 -3.59375,1.40625 -1.939038,1.685159 -2.3625,4.782685 -0.96875,6.9375 0.6348,0.628907 -0.757719,0.868806 -1,1.46875 -1.690576,1.983654 -2.263378,4.62787 -2.53125,7.15625 -0.221704,0.855722 0.276027,1.9004 1.21875,1.96875 4.581829,0.0173 9.167849,-0.005 13.75,0 1.039182,0.0062 1.597217,-1.033035 1.375,-1.96875 -0.267611,-2.527171 -0.839947,-5.174544 -2.53125,-7.15625 -0.246741,-0.607272 -1.660789,-0.861248 -1,-1.5 1.416875,-2.18793 0.942416,-5.33624 -1.0625,-7 C 22.350506,12.41525 21.006574,11.984755 19.6875,12 z m 0.0625,2.8125 c 1.600275,-0.05926 2.964928,1.600184 2.59375,3.15625 -0.179789,0.970913 -1.030713,1.5957 -1.5625,2.375 -0.562988,0.545031 -0.731887,1.493564 -0.15625,2.09375 0.586619,0.722608 1.674539,0.25378 2.3125,0.90625 1.328767,1.200009 1.720558,3.058659 2.03125,4.75 l -4.90625,0 -4.625,0 c -0.267471,-0.06158 -0.82576,0.122307 -0.875,-0.125 0.315329,-1.652982 0.724889,-3.45744 2.03125,-4.625 0.638534,-0.650458 1.726193,-0.184025 2.3125,-0.90625 0.585666,-0.609232 0.383574,-1.577966 -0.1875,-2.125 -0.536806,-0.764343 -1.349683,-1.383652 -1.53125,-2.34375 -0.371007,-1.555363 0.963294,-3.21402 2.5625,-3.15625 z"
     id="path22"
     style="fill:#000000;fill-opacity:1;fill-rule:nonzero;stroke:none" /></svg>