<?xml version="1.0" encoding="UTF-8" standalone="no"?>
<!-- Created with Inkscape (http://www.inkscape.org/) -->

<svg
   xmlns:dc="http://purl.org/dc/elements/1.1/"
   xmlns:cc="http://creativecommons.org/ns#"
   xmlns:rdf="http://www.w3.org/1999/02/22-rdf-syntax-ns#"
   xmlns:svg="http://www.w3.org/2000/svg"
   xmlns="http://www.w3.org/2000/svg"
   version="1.1"
   width="40"
   height="40"
   id="svg2"
   xml:space="preserve"><metadata
     id="metadata8"><rdf:RDF><cc:Work
         rdf:about=""><dc:format>image/svg+xml</dc:format><dc:type
           rdf:resource="http://purl.org/dc/dcmitype/StillImage" /><dc:title></dc:title></cc:Work></rdf:RDF></metadata><defs
     id="defs6"><clipPath
       id="clipPath16"><path
         d="M 0,55 55,55 55,0 0,0 0,55 z"
         id="path18" /></clipPath></defs><g
     transform="matrix(1.25,0,0,-1.25,-9.874625,58.865625)"
     id="g10"><g
       id="g12"><g
         clip-path="url(#clipPath16)"
         id="g14"><g
           transform="translate(31.8594,30.5835)"
           id="g20" /><g
           transform="translate(28.9453,40.0171)"
           id="g24" /><g
           transform="translate(13.2856,31.1797)"
           id="g28" /><g
           transform="translate(10.4697,22.7207)"
           id="g32"><g
             transform="matrix(0.80966289,0,0,0.80966289,-0.36031451,4.4487161)"
             id="g2998"><path
               d="m 0,0 -5.668,-5.469 c -0.509,0.169 -1.05,0.262 -1.614,0.262 -2.843,0 -5.147,-2.296 -5.147,-5.141 0,-2.841 2.304,-5.143 5.147,-5.143 2.831,0 5.137,2.302 5.137,5.143 0,0.427 -0.057,0.838 -0.155,1.234 l 5.746,5.542 c 0.987,0.95 1.016,2.523 0.064,3.509 C 2.558,0.923 0.989,0.95 0,0"
               transform="translate(21.3897,7.8628)"
               id="path22"
               style="fill:#3b393c;fill-opacity:1;fill-rule:nonzero;stroke:none" /><path
               d="m 0,0 c -3.012,0.142 -5.87,-0.39 -8.583,-1.577 -1.255,-0.548 -1.828,-2.014 -1.278,-3.269 0.549,-1.256 2.01,-1.83 3.269,-1.278 2.009,0.88 4.136,1.278 6.354,1.166 7.776,-0.38 13.793,-7.018 13.415,-14.792 -0.066,-1.37 0.989,-2.534 2.358,-2.601 l 0.123,0 c 1.315,0 2.412,1.031 2.478,2.359 C 18.646,-9.485 10.514,-0.516 0,0"
               transform="translate(18.4756,17.2964)"
               id="path26"
               style="fill:#3b393c;fill-opacity:1;fill-rule:nonzero;stroke:none" /><path
               d="m 0,0 c -1.419,0 -2.568,-1.151 -2.568,-2.571 0,-1.423 1.149,-2.572 2.568,-2.572 1.42,0 2.573,1.149 2.573,2.572 C 2.573,-1.151 1.42,0 0,0"
               transform="translate(2.8159,8.459)"
               id="path30"
               style="fill:#3b393c;fill-opacity:1;fill-rule:nonzero;stroke:none" /><path
               d="m 0,0 c -1.419,0 -2.57,-1.152 -2.57,-2.573 0,-1.42 1.151,-2.573 2.57,-2.573 1.42,0 2.573,1.153 2.573,2.573 C 2.573,-1.152 1.42,0 0,0"
               id="path34"
               style="fill:#3b393c;fill-opacity:1;fill-rule:nonzero;stroke:none" /></g></g></g></g></g></svg>