<?xml version="1.0" encoding="UTF-8" standalone="no"?>
<!-- Created with Inkscape (http://www.inkscape.org/) -->

<svg
   xmlns:dc="http://purl.org/dc/elements/1.1/"
   xmlns:cc="http://creativecommons.org/ns#"
   xmlns:rdf="http://www.w3.org/1999/02/22-rdf-syntax-ns#"
   xmlns:svg="http://www.w3.org/2000/svg"
   xmlns="http://www.w3.org/2000/svg"
   version="1.1"
   width="40"
   height="40"
   id="svg2"
   xml:space="preserve"><metadata
     id="metadata8"><rdf:RDF><cc:Work
         rdf:about=""><dc:format>image/svg+xml</dc:format><dc:type
           rdf:resource="http://purl.org/dc/dcmitype/StillImage" /><dc:title></dc:title></cc:Work></rdf:RDF></metadata><defs
     id="defs6"><clipPath
       id="clipPath16"><path
         d="M 0,55 55,55 55,0 0,0 0,55 z"
         id="path18" /></clipPath></defs><path
     d="M 20.3125,7.375 C 17.679137,7.3982047 15.183799,7.9488299 12.78125,9 c -1.270158,0.554619 -1.869143,2.042341 -1.3125,3.3125 0.555631,1.27117 2.038293,1.839917 3.3125,1.28125 2.033266,-0.890629 4.19271,-1.300852 6.4375,-1.1875 7.869923,0.38459 13.976315,7.100851 13.59375,14.96875 -0.0668,1.386548 0.989464,2.588441 2.375,2.65625 l 0.125,0 c 1.330883,0 2.433203,-1.06221 2.5,-2.40625 C 40.328661,16.99109 32.109744,7.9284826 21.46875,7.40625 21.087702,7.3882856 20.688695,7.371685 20.3125,7.375 z m 5.875,8.875 c -0.642543,-0.01139 -1.280777,0.206762 -1.78125,0.6875 l -5.71875,5.53125 c -0.515148,-0.171041 -1.085438,-0.25 -1.65625,-0.25 -2.87734,0 -5.1875,2.308137 -5.1875,5.1875 0,2.875316 2.31016,5.21875 5.1875,5.21875 2.865194,0 5.21875,-2.343434 5.21875,-5.21875 0,-0.432157 -0.05707,-0.849217 -0.15625,-1.25 l 5.8125,-5.59375 C 28.905171,19.601025 28.932252,17.997909 27.96875,17 27.487001,16.501045 26.830043,16.261386 26.1875,16.25 z M 5.625,16.34375 C 4.1888605,16.34375 3,17.500348 3,18.9375 c 0,1.440188 1.1888605,2.625 2.625,2.625 1.4371516,0 2.59375,-1.184812 2.59375,-2.625 0,-1.437152 -1.1565984,-2.59375 -2.59375,-2.59375 z m -2.875,8.5625 c -1.4361395,0 -2.59375,1.155587 -2.59375,2.59375 0,1.437152 1.1576105,2.625 2.59375,2.625 1.4371516,0 2.625,-1.187848 2.625,-2.625 0,-1.438163 -1.1878484,-2.59375 -2.625,-2.59375 z"
     id="path22"
     style="fill:#000000;fill-opacity:1;fill-rule:nonzero;stroke:none" /></svg>