<?xml version="1.0" encoding="UTF-8" standalone="no"?>
<!-- Created with Inkscape (http://www.inkscape.org/) -->

<svg
   xmlns:dc="http://purl.org/dc/elements/1.1/"
   xmlns:cc="http://creativecommons.org/ns#"
   xmlns:rdf="http://www.w3.org/1999/02/22-rdf-syntax-ns#"
   xmlns:svg="http://www.w3.org/2000/svg"
   xmlns="http://www.w3.org/2000/svg"
   version="1.1"
   width="40"
   height="40"
   id="svg2"
   xml:space="preserve"><metadata
     id="metadata8"><rdf:RDF><cc:Work
         rdf:about=""><dc:format>image/svg+xml</dc:format><dc:type
           rdf:resource="http://purl.org/dc/dcmitype/StillImage" /><dc:title></dc:title></cc:Work></rdf:RDF></metadata><defs
     id="defs6"><clipPath
       id="clipPath16"><path
         d="M 0,55 55,55 55,0 0,0 0,55 z"
         id="path18" /></clipPath></defs><g
     transform="matrix(1.25,0,0,-1.25,-14.56975,49.121124)"
     id="g10"><g
       id="g12"><g
         clip-path="url(#clipPath16)"
         id="g14"><g
           transform="translate(27.3818,7.2969)"
           id="g20"><path
             d="m -0.2235428,0.2062492 c -0.9789831,0 -1.8983899,0.38080508 -2.5883475,1.073178 -0.3486017,0.3502118 -0.6126695,0.7527542 -0.7905932,1.1834745 -0.027373,0.023347 -0.054746,0.046695 -0.080508,0.072458 L -9.865237,8.3359952 c -0.367924,0.3437712 -0.575636,0.8268221 -0.575636,1.3308051 l 0,0.4266947 c -0.19322,-0.06924 -0.400932,-0.107076 -0.6175,-0.107076 -1.007966,0 -1.825932,0.817966 -1.825932,1.825932 l 0,6.822288 c 0,7.256229 5.9020762,13.15911 13.1566949,13.15911 7.2562288,0 13.1599151,-5.902881 13.1599151,-13.15911 l 0,-7.407585 c 0,-1.007161 -0.817966,-1.8251266 -1.825932,-1.8251266 -0.670636,0 -1.255932,0.3614831 -1.573941,0.8992796 -0.2648732,-0.148941 -0.5708054,-0.235085 -0.8960596,-0.235085 -1.0079661,0 -1.8259322,0.817966 -1.8259322,1.826737 l 0,4.518136 c 0,1.008771 0.8179661,1.825932 1.8259322,1.825932 0.2270339,0 0.4444068,-0.04106 0.6440678,-0.116737 l 0,0.514449 c 0,5.242712 -4.265339,9.508051 -9.5080508,9.508051 -5.2411017,0 -9.5048309,-4.265339 -9.5048309,-9.508051 l 0,-0.52411 c 0.192416,0.06924 0.400128,0.107076 0.616695,0.107076 1.007966,0 1.8259325,-0.817966 1.8259325,-1.825932 l 0,-5.935085 4.1212288,-3.8660168 c 1.4298305,1.2873305 3.647839,1.2462712 5.0317796,-0.1312288 1.4274153,-1.4322458 1.4274153,-3.7533051 0.00564,-5.1799152 -0.00161,-8.051e-4 -0.00322,-0.00322 -0.00483,-0.00403 C 1.6716266,0.58544411 0.75383,0.2062492 -0.2235428,0.2062492"
             id="path22"
             style="fill:#3b393c;fill-opacity:1;fill-rule:nonzero;stroke:none" /></g></g></g></g></svg>