<?xml version="1.0" encoding="UTF-8" standalone="no"?>
<!-- Created with Inkscape (http://www.inkscape.org/) -->

<svg
   xmlns:dc="http://purl.org/dc/elements/1.1/"
   xmlns:cc="http://creativecommons.org/ns#"
   xmlns:rdf="http://www.w3.org/1999/02/22-rdf-syntax-ns#"
   xmlns:svg="http://www.w3.org/2000/svg"
   xmlns="http://www.w3.org/2000/svg"
   version="1.1"
   width="40"
   height="40"
   id="svg2"
   xml:space="preserve"><metadata
     id="metadata8"><rdf:RDF><cc:Work
         rdf:about=""><dc:format>image/svg+xml</dc:format><dc:type
           rdf:resource="http://purl.org/dc/dcmitype/StillImage" /><dc:title></dc:title></cc:Work></rdf:RDF></metadata><defs
     id="defs6"><clipPath
       id="clipPath16"><path
         d="M 0,55 55,55 55,0 0,0 0,55 z"
         id="path18" /></clipPath></defs><path
     d="m 19.378071,39.742187 c -1.223728,0 -2.372987,-0.476006 -3.235434,-1.341472 -0.435752,-0.437765 -0.765837,-0.940943 -0.988241,-1.479343 -0.03422,-0.02918 -0.06843,-0.05837 -0.100635,-0.09057 L 7.3259537,29.580005 c -0.459905,-0.429714 -0.719545,-1.033528 -0.719545,-1.663506 l 0,-0.533369 c -0.241525,0.08655 -0.501165,0.133845 -0.771875,0.133845 -1.2599575,0 -2.282415,-1.022457 -2.282415,-2.282415 l 0,-8.52786 c 0,-9.070286 7.3775953,-16.44888725 16.4458683,-16.44888725 9.070286,0 16.449894,7.37860125 16.449894,16.44888725 l 0,9.259482 c 0,1.258951 -1.022457,2.281408 -2.282415,2.281408 -0.838295,0 -1.569915,-0.451854 -1.967426,-1.1241 -0.331092,0.186177 -0.713507,0.293857 -1.120075,0.293857 -1.259957,0 -2.282415,-1.022458 -2.282415,-2.283422 l 0,-5.64767 c 0,-1.260963 1.022458,-2.282415 2.282415,-2.282415 0.283793,0 0.555509,0.05133 0.805085,0.145921 l 0,-0.643061 c 0,-6.55339 -5.331674,-11.8850635 -11.885063,-11.8850635 -6.551377,0 -11.8810389,5.3316735 -11.8810389,11.8850635 l 0,0.655138 c 0.24052,-0.08655 0.50016,-0.133845 0.7708688,-0.133845 1.2599571,0 2.2824161,1.022457 2.2824161,2.282415 l 0,7.418856 5.151535,4.832521 c 1.787289,-1.609163 4.559799,-1.557839 6.289725,0.164036 1.784269,1.790307 1.784269,4.691631 0.007,6.474894 -0.002,0.001 -0.004,0.004 -0.006,0.005 -0.865472,0.862441 -2.012718,1.336434 -3.234434,1.336434"
     id="path22"
     style="fill:#000000;fill-opacity:1;fill-rule:nonzero;stroke:none" /></svg>