<?xml version="1.0" encoding="UTF-8" standalone="no"?>
<!-- Created with Inkscape (http://www.inkscape.org/) -->

<svg
   xmlns:dc="http://purl.org/dc/elements/1.1/"
   xmlns:cc="http://creativecommons.org/ns#"
   xmlns:rdf="http://www.w3.org/1999/02/22-rdf-syntax-ns#"
   xmlns:svg="http://www.w3.org/2000/svg"
   xmlns="http://www.w3.org/2000/svg"
   version="1.1"
   width="40"
   height="40"
   id="svg2"
   xml:space="preserve"><metadata
     id="metadata8"><rdf:RDF><cc:Work
         rdf:about=""><dc:format>image/svg+xml</dc:format><dc:type
           rdf:resource="http://purl.org/dc/dcmitype/StillImage" /><dc:title></dc:title></cc:Work></rdf:RDF></metadata><defs
     id="defs6"><clipPath
       id="clipPath16"><path
         d="M 0,55 55,55 55,0 0,0 0,55 z"
         id="path18" /></clipPath></defs><path
     d="M 2.5625,1.625 C 1.2550794,1.625 0.21875,2.6925794 0.21875,4 l 0,24.34375 c 0,1.306377 1.0363294,2.375 2.34375,2.375 l 10.15625,0 0,2.90625 -2.625,0 c -1.306377,0 -2.375,1.068623 -2.375,2.375 0,1.30742 1.068623,2.375 2.375,2.375 l 19.8125,0 c 1.306377,0 2.375,-1.06758 2.375,-2.375 0,-1.306377 -1.068623,-2.375 -2.375,-2.375 l -2.5625,0 0,-2.90625 10.09375,0 c 1.306377,0 2.34375,-1.068623 2.34375,-2.375 L 39.78125,4 c 0,-1.3074206 -1.037373,-2.375 -2.34375,-2.375 l -34.875,0 z m 2.375,4.75 30.125,0 0,19.625 -30.125,0 0,-19.625 z M 20,8.09375 c -1.142558,0 -2.0625,0.9188987 -2.0625,2.0625 l 0,3.9375 -3.96875,0 c -1.143602,0 -2.0625,0.950148 -2.0625,2.09375 0,1.142558 0.918898,2.0625 2.0625,2.0625 l 3.96875,0 0,3.9375 c 0,1.143602 0.919942,2.09375 2.0625,2.09375 1.144645,0 2.0625,-0.950148 2.0625,-2.09375 l 0,-3.9375 3.96875,0 c 1.143602,0 2.0625,-0.919942 2.0625,-2.0625 0,-1.143602 -0.918898,-2.09375 -2.0625,-2.09375 l -3.96875,0 0,-3.9375 c 0,-1.1436013 -0.917855,-2.0625 -2.0625,-2.0625 z m -2.5625,22.625 5.1875,0 0,2.90625 -5.1875,0 0,-2.90625 z"
     id="path20"
     style="fill:#000000;fill-opacity:1;fill-rule:nonzero;stroke:none" /></svg>