<?xml version="1.0" encoding="UTF-8" standalone="no"?>
<!-- Created with Inkscape (http://www.inkscape.org/) -->

<svg
   xmlns:dc="http://purl.org/dc/elements/1.1/"
   xmlns:cc="http://creativecommons.org/ns#"
   xmlns:rdf="http://www.w3.org/1999/02/22-rdf-syntax-ns#"
   xmlns:svg="http://www.w3.org/2000/svg"
   xmlns="http://www.w3.org/2000/svg"
   version="1.1"
   width="40"
   height="40"
   id="svg5708">
  <metadata
     id="metadata5714">
    <rdf:RDF>
      <cc:Work
         rdf:about="">
        <dc:format>image/svg+xml</dc:format>
        <dc:type
           rdf:resource="http://purl.org/dc/dcmitype/StillImage" />
        <dc:title></dc:title>
      </cc:Work>
    </rdf:RDF>
  </metadata>
  <defs
     id="defs5712" />
  <path
     d="m 14.673554,39.615205 c -0.10371,-0.0429 -0.277743,-0.178094 -0.386738,-0.300439 -0.222264,-0.249481 -3.890705,-8.91965 -3.968308,-9.378885 -0.07075,-0.418652 0.192592,-0.910464 0.610775,-1.140698 0.192577,-0.106025 2.28369,-1.003933 4.646913,-1.995351 4.81657,-2.020645 4.870256,-2.035408 5.416205,-1.489459 0.539223,0.539223 0.524636,0.784289 -0.145062,2.437201 -0.322049,0.794861 -0.605463,1.495645 -0.629814,1.557302 -0.134112,0.339599 1.9511,0.213599 3.412763,-0.206215 1.258132,-0.361356 2.611402,-1.060415 3.412193,-1.762632 2.326391,-2.040026 3.438232,-4.308437 3.433521,-7.005179 -0.002,-1.181005 -0.151994,-2.004725 -0.580381,-3.188634 -0.343674,-0.949788 -0.327574,-1.306167 0.0765,-1.693293 0.250884,-0.240361 3.940712,-1.867833 4.526465,-1.996485 0.397258,-0.08725 0.918953,0.153428 1.152692,0.531785 0.24674,0.399405 0.698731,1.845668 0.940876,3.010581 0.553657,2.663527 0.476951,5.309127 -0.223858,7.720872 -1.375146,4.732401 -5.415048,8.990867 -9.962331,10.501308 -2.436874,0.809438 -5.026648,1.000003 -7.736085,0.569245 -0.524414,-0.08338 -0.987089,-0.116076 -1.028166,-0.07267 -0.04108,0.0434 -0.359264,0.778955 -0.707083,1.63456 -0.347818,0.855604 -0.689388,1.666596 -0.759043,1.802204 -0.223709,0.435532 -0.995493,0.674402 -1.502031,0.464883 z M 4.9154766,26.498505 C 4.4458565,26.302494 4.2535583,26.007218 3.9299274,24.985183 2.5194366,20.530818 2.7929572,16.299128 4.7331185,12.558864 5.5240573,11.034084 6.3865689,9.8593424 7.6495891,8.5866264 10.033521,6.1843945 12.699643,4.7729036 15.946353,4.1941771 c 1.256926,-0.2240476 3.94231,-0.2228303 5.314602,0.00241 0.563639,0.092511 1.057832,0.1329715 1.098205,0.08991 0.04037,-0.043062 0.383859,-0.8418689 0.763301,-1.7751257 0.409435,-1.0070273 0.78212,-1.78230337 0.916757,-1.90708114 0.452529,-0.41938913 1.265764,-0.38922095 1.644608,0.0610081 0.12108,0.14389612 1.08029,2.30610554 2.131577,4.80490984 1.71182,4.0688237 1.905043,4.5810898 1.850261,4.9053418 -0.03621,0.214351 -0.167693,0.464118 -0.322273,0.612215 -0.168307,0.161247 -1.849362,0.919292 -4.729974,2.132905 -5.012512,2.11179 -5.051761,2.122781 -5.604911,1.569631 -0.539223,-0.539223 -0.524637,-0.784289 0.145062,-2.437201 0.322048,-0.79486 0.604836,-1.494012 0.628419,-1.55367 0.129606,-0.327874 -2.022892,-0.195115 -3.444259,0.212429 -0.448604,0.128627 -1.251794,0.445615 -1.784871,0.704416 -0.855005,0.415095 -1.092375,0.589525 -2.014187,1.48011 -2.115459,2.043798 -3.0034526,3.987442 -3.0034526,6.573967 0,1.215754 0.1403003,2.000381 0.5700706,3.188106 0.333785,0.922462 0.326418,1.297813 -0.03308,1.685725 -0.2333051,0.251741 -4.1411907,1.953107 -4.6292397,2.01542 -0.160506,0.02049 -0.3978739,-0.007 -0.5274842,-0.0611 z"
     id="path5718"
     style="fill:#000000;fill-opacity:1" />
</svg>
