<?xml version="1.0" encoding="UTF-8" standalone="no"?>
<!-- Created with Inkscape (http://www.inkscape.org/) -->

<svg
   xmlns:dc="http://purl.org/dc/elements/1.1/"
   xmlns:cc="http://creativecommons.org/ns#"
   xmlns:rdf="http://www.w3.org/1999/02/22-rdf-syntax-ns#"
   xmlns:svg="http://www.w3.org/2000/svg"
   xmlns="http://www.w3.org/2000/svg"
   version="1.1"
   width="40"
   height="40"
   id="svg5708">
  <metadata
     id="metadata5714">
    <rdf:RDF>
      <cc:Work
         rdf:about="">
        <dc:format>image/svg+xml</dc:format>
        <dc:type
           rdf:resource="http://purl.org/dc/dcmitype/StillImage" />
        <dc:title></dc:title>
      </cc:Work>
    </rdf:RDF>
  </metadata>
  <defs
     id="defs5712" />
  <path
     d="m 14.811091,39.108721 c -0.101032,-0.04179 -0.270571,-0.173495 -0.376752,-0.292681 -0.216525,-0.243039 -3.790243,-8.689335 -3.865842,-9.136712 -0.06892,-0.407842 0.187619,-0.886955 0.595004,-1.111244 0.187605,-0.103287 2.224722,-0.97801 4.526925,-1.943829 4.6922,-1.968469 4.7445,-1.982851 5.276352,-1.450999 0.5253,0.5253 0.51109,0.764038 -0.141316,2.37427 -0.313733,0.774336 -0.58983,1.457026 -0.613551,1.51709 -0.13065,0.33083 1.90072,0.208084 3.324641,-0.20089 1.225645,-0.352026 2.543973,-1.033034 3.324086,-1.717119 2.266322,-1.98735 3.349453,-4.197188 3.344864,-6.824297 -0.002,-1.15051 -0.148069,-1.952961 -0.565395,-3.1063 -0.3348,-0.925264 -0.319115,-1.27244 0.07452,-1.64957 0.244406,-0.234155 3.838959,-1.819604 4.409586,-1.944934 0.387001,-0.085 0.895226,0.149466 1.122929,0.518054 0.240369,0.389092 0.680689,1.798011 0.916582,2.932844 0.53936,2.594752 0.464635,5.172039 -0.218078,7.521511 -1.339639,4.610205 -5.275226,8.758713 -9.705093,10.230152 -2.373951,0.788538 -4.896854,0.974182 -7.536331,0.554547 -0.510873,-0.08122 -0.961601,-0.113079 -1.001617,-0.0708 -0.04002,0.04228 -0.349988,0.758842 -0.688825,1.592354 -0.338838,0.833511 -0.671588,1.623562 -0.739444,1.755669 -0.217933,0.424286 -0.969789,0.656988 -1.463247,0.45288 z M 5.304978,26.330709 C 4.8474839,26.139759 4.6601511,25.852107 4.3448767,24.856463 2.9708064,20.517114 3.2372644,16.394691 5.1273285,12.751005 5.8978444,11.265596 6.738085,10.121187 7.9684927,8.8813339 10.290869,6.5411303 12.888148,5.1660857 16.051025,4.6023025 c 1.224471,-0.2182624 3.840515,-0.2170766 5.177373,0.00235 0.549085,0.090123 1.030517,0.1295381 1.069848,0.087588 0.03933,-0.04195 0.373948,-0.8201309 0.743592,-1.72929 0.398863,-0.9810247 0.761924,-1.7362823 0.893085,-1.8578381 0.440844,-0.40856008 1.233081,-0.37917088 1.602142,0.059433 0.117954,0.1401805 1.052396,2.2465592 2.076538,4.6808416 1.667619,3.9637622 1.855853,4.462801 1.802485,4.778681 -0.03528,0.208817 -0.163363,0.452135 -0.313952,0.596407 -0.16396,0.157084 -1.801609,0.895555 -4.607841,2.077831 -4.883083,2.057262 -4.921318,2.067969 -5.460185,1.529102 -0.5253,-0.5253 -0.511091,-0.764038 0.141316,-2.37427 0.313732,-0.774336 0.589218,-1.455435 0.612192,-1.513552 0.12626,-0.319408 -1.970658,-0.190078 -3.355324,0.206943 -0.43702,0.125306 -1.219471,0.434109 -1.738783,0.686228 -0.832928,0.404377 -1.064169,0.574302 -1.962179,1.441891 -2.060835,1.991025 -2.9259001,3.884482 -2.9259001,6.404221 0,1.184361 0.1366775,1.948728 0.5553501,3.105785 0.325167,0.898643 0.31799,1.264302 -0.03223,1.642198 -0.227281,0.245241 -4.0342606,1.902675 -4.5097076,1.963379 -0.1563616,0.01996 -0.3876004,-0.0068 -0.513864,-0.05952 z"
     id="path5718"
     style="fill:#000000;fill-opacity:1" />
</svg>
