<?xml version="1.0" encoding="UTF-8" standalone="no"?>
<!-- Created with Inkscape (http://www.inkscape.org/) -->

<svg
   xmlns:dc="http://purl.org/dc/elements/1.1/"
   xmlns:cc="http://creativecommons.org/ns#"
   xmlns:rdf="http://www.w3.org/1999/02/22-rdf-syntax-ns#"
   xmlns:svg="http://www.w3.org/2000/svg"
   xmlns="http://www.w3.org/2000/svg"
   version="1.1"
   width="40"
   height="40"
   id="svg2"
   xml:space="preserve"><metadata
     id="metadata8"><rdf:RDF><cc:Work
         rdf:about=""><dc:format>image/svg+xml</dc:format><dc:type
           rdf:resource="http://purl.org/dc/dcmitype/StillImage" /><dc:title></dc:title></cc:Work></rdf:RDF></metadata><defs
     id="defs6"><clipPath
       id="clipPath16"><path
         d="M 0,55 55,55 55,0 0,0 0,55 z"
         id="path18" /></clipPath></defs><path
     d="M 19.8125,2.25 C 18.823834,2.25 18,3.0443856 18,4.03125 l 0,8.65625 c -0.246716,-0.04862 -0.489778,-0.09375 -0.75,-0.09375 l -0.75,0 -11.4375,0 -0.78125,0 c -2.1817267,0 -3.96875,1.786123 -3.96875,3.96875 l 0,17.25 c 0,2.182627 1.7870233,3.9375 3.96875,3.9375 l 12.96875,0 c 2.181726,0 3.96875,-1.754873 3.96875,-3.9375 l 0,-13.9375 12.625,0 c 0.986864,0 1.78125,-0.826536 1.78125,-1.8125 l 0,-5.875 -3.5625,2.03125 0,2.0625 -10.46875,0 0,-10.46875 10.46875,0 0,1.375 3.5625,-2.03125 0,-1.125 C 35.625,3.0443856 34.830614,2.25 33.84375,2.25 l -14.03125,0 z m 18,3.40625 C 37.595231,5.681687 37.35862,5.760196 37.15625,5.875 L 28.5,10.78125 26.21875,8.15625 c -0.612288,-0.7023305 -1.670869,-0.7970869 -2.375,-0.1875 -0.70143,0.6104873 -0.764937,1.6726693 -0.15625,2.375 l 3.1875,3.6875 c 0.01531,0.01891 0.0472,0.04449 0.0625,0.0625 0.03512,0.03782 0.05504,0.05953 0.09375,0.09375 0.06663,0.05763 0.144915,0.110328 0.21875,0.15625 0.04412,0.02881 0.07908,0.07034 0.125,0.09375 0.07924,0.04142 0.16536,0.06583 0.25,0.09375 0.04322,0.01441 0.07908,0.02135 0.125,0.03125 0.117955,0.02881 0.253443,0.0598 0.375,0.0625 0.0099,0 0.02044,0 0.03125,0 0.116155,-0.0018 0.258846,-0.03639 0.375,-0.0625 0.03692,-0.0081 0.05863,-0.02045 0.09375,-0.03125 0.10715,-0.03242 0.209852,-0.07097 0.3125,-0.125 0.01171,-0.0072 0.01864,0.0072 0.03125,0 l 9.875,-5.625 C 39.65053,8.3220339 39.927966,7.3085805 39.46875,6.5 39.122987,5.8935646 38.464308,5.5799391 37.8125,5.65625 z M 4.28125,15.875 l 0.78125,0 11.4375,0 0.75,0 c 0.380879,0 0.6875,0.306621 0.6875,0.6875 l 0,17.25 c 0,0.380879 -0.306621,0.6875 -0.6875,0.6875 l -12.96875,0 c -0.3808793,0 -0.6875,-0.306621 -0.6875,-0.6875 l 0,-17.25 c 0,-0.380879 0.3066207,-0.6875 0.6875,-0.6875 z m 2.40625,2.3125 c -0.9022246,0 -1.625,0.723676 -1.625,1.625 0,0.903125 0.7227754,1.625 1.625,1.625 l 8.1875,0 c 0.902225,0 1.625,-0.721875 1.625,-1.625 0,-0.901324 -0.722775,-1.625 -1.625,-1.625 l -8.1875,0 z m 0,5.34375 c -0.9022246,0 -1.625,0.754926 -1.625,1.65625 0,0.902224 0.7227754,1.625 1.625,1.625 l 8.1875,0 c 0.902225,0 1.625,-0.722776 1.625,-1.625 0,-0.901324 -0.722775,-1.65625 -1.625,-1.65625 l -8.1875,0 z m 0,5.375 c -0.9022246,0 -1.625,0.723676 -1.625,1.625 0,0.902224 0.7227754,1.625 1.625,1.625 l 8.1875,0 c 0.902225,0 1.625,-0.722776 1.625,-1.625 0,-0.901324 -0.722775,-1.625 -1.625,-1.625 l -8.1875,0 z"
     id="path22"
     style="fill:#000000;fill-opacity:1;fill-rule:nonzero;stroke:none" /></svg>