<?xml version="1.0" encoding="UTF-8" standalone="no"?>
<!-- Created with Inkscape (http://www.inkscape.org/) -->

<svg
   xmlns:dc="http://purl.org/dc/elements/1.1/"
   xmlns:cc="http://creativecommons.org/ns#"
   xmlns:rdf="http://www.w3.org/1999/02/22-rdf-syntax-ns#"
   xmlns:svg="http://www.w3.org/2000/svg"
   xmlns="http://www.w3.org/2000/svg"
   version="1.1"
   width="40"
   height="40"
   id="svg2"
   xml:space="preserve"><metadata
     id="metadata8"><rdf:RDF><cc:Work
         rdf:about=""><dc:format>image/svg+xml</dc:format><dc:type
           rdf:resource="http://purl.org/dc/dcmitype/StillImage" /><dc:title></dc:title></cc:Work></rdf:RDF></metadata><defs
     id="defs6"><clipPath
       id="clipPath16"><path
         d="M 0,55 55,55 55,0 0,0 0,55 z"
         id="path18" /></clipPath></defs><g
     transform="matrix(1.25,0,0,-1.25,-8.708625,49.697876)"
     id="g10"><g
       id="g12"><g
         clip-path="url(#clipPath16)"
         id="g14"><g
           transform="translate(23.145,17.5918)"
           id="g20" /><g
           transform="translate(23.145,23.5449)"
           id="g24" /><g
           transform="translate(26.5479,12.1543)"
           id="g28" /><g
           transform="translate(23.145,29.4985)"
           id="g32" /><g
           transform="translate(50.4492,42.4731)"
           id="g36"><g
             transform="matrix(0.72033899,0,0,0.72033899,-11.909257,-7.9145406)"
             id="g3001"><path
               d="m 0,0 -9.092,0 c -1.002,0 -1.814,-0.813 -1.814,-1.814 0,-1.002 0.812,-1.815 1.814,-1.815 l 9.092,0 c 1.002,0 1.814,0.813 1.814,1.815 C 1.814,-0.813 1.002,0 0,0"
               transform="translate(-27.3042,-24.8813)"
               id="path22"
               style="fill:#373535;fill-opacity:1;fill-rule:nonzero;stroke:none" /><path
               d="m 0,0 -9.092,0 c -1.002,0 -1.814,-0.813 -1.814,-1.814 0,-1.002 0.812,-1.815 1.814,-1.815 l 9.092,0 c 1.002,0 1.814,0.813 1.814,1.815 C 1.814,-0.813 1.002,0 0,0"
               transform="translate(-27.3042,-18.9282)"
               id="path26"
               style="fill:#373535;fill-opacity:1;fill-rule:nonzero;stroke:none" /><path
               d="m 0,0 c 0,-0.423 -0.345,-0.768 -0.768,-0.768 l -14.418,0 c -0.423,0 -0.767,0.345 -0.767,0.768 l 0,19.153 c 0,0.423 0.344,0.768 0.767,0.768 l 0.877,0 12.721,0 0.82,0 C -0.345,19.921 0,19.576 0,19.153 L 0,0 z m 19.646,31.813 0,1.25 c 0,1.096 -0.889,1.984 -1.985,1.984 l -15.599,0 c -1.098,0 -1.985,-0.888 -1.985,-1.984 l 0,-9.599 c -0.274,0.054 -0.556,0.085 -0.845,0.085 l -0.82,0 -12.721,0 -0.877,0 c -2.423,0 -4.395,-1.972 -4.395,-4.396 l 0,-19.153 c 0,-2.424 1.972,-4.396 4.395,-4.396 l 14.418,0 c 2.423,0 4.396,1.972 4.396,4.396 l 0,15.479 14.033,0 c 1.096,0 1.985,0.889 1.985,1.984 l 0,6.524 -3.969,-2.256 0,-2.283 -11.631,0 0,11.631 11.631,0 0,-1.522 3.969,2.256 z"
               transform="translate(-23.9013,-30.3188)"
               id="path30"
               style="fill:#373535;fill-opacity:1;fill-rule:nonzero;stroke:none" /><path
               d="m 0,0 -9.092,0 c -1.002,0 -1.814,-0.813 -1.814,-1.814 0,-1.003 0.812,-1.813 1.814,-1.813 l 9.092,0 c 1.002,0 1.814,0.81 1.814,1.813 C 1.814,-0.813 1.002,0 0,0"
               transform="translate(-27.3042,-12.9746)"
               id="path34"
               style="fill:#373535;fill-opacity:1;fill-rule:nonzero;stroke:none" /><path
               d="m 0,0 c -0.512,0.898 -1.652,1.212 -2.551,0.702 l -9.611,-5.463 -2.547,2.929 c -0.68,0.78 -1.859,0.863 -2.641,0.186 -0.779,-0.678 -0.861,-1.86 -0.185,-2.64 l 3.551,-4.086 c 0.017,-0.021 0.041,-0.034 0.058,-0.054 0.039,-0.042 0.082,-0.077 0.125,-0.115 0.074,-0.064 0.149,-0.123 0.231,-0.174 0.049,-0.032 0.095,-0.06 0.146,-0.086 0.088,-0.046 0.18,-0.081 0.274,-0.112 0.048,-0.016 0.093,-0.035 0.144,-0.046 0.131,-0.032 0.264,-0.05 0.399,-0.053 0.011,0 0.025,-0.005 0.037,-0.005 0.007,0 0.015,0.003 0.025,0.003 0.129,0.002 0.258,0.021 0.387,0.05 0.041,0.009 0.08,0.02 0.119,0.032 0.119,0.036 0.234,0.081 0.348,0.141 0.013,0.008 0.031,0.011 0.045,0.019 l 10.945,6.221 C 0.195,-2.041 0.51,-0.898 0,0"
               id="path38"
               style="fill:#373535;fill-opacity:1;fill-rule:nonzero;stroke:none" /></g></g></g></g></g></svg>