<?xml version="1.0" encoding="UTF-8" standalone="no"?>
<!-- Created with Inkscape (http://www.inkscape.org/) -->

<svg
   xmlns:dc="http://purl.org/dc/elements/1.1/"
   xmlns:cc="http://creativecommons.org/ns#"
   xmlns:rdf="http://www.w3.org/1999/02/22-rdf-syntax-ns#"
   xmlns:svg="http://www.w3.org/2000/svg"
   xmlns="http://www.w3.org/2000/svg"
   version="1.1"
   width="40"
   height="40"
   id="svg6336">
  <metadata
     id="metadata6342">
    <rdf:RDF>
      <cc:Work
         rdf:about="">
        <dc:format>image/svg+xml</dc:format>
        <dc:type
           rdf:resource="http://purl.org/dc/dcmitype/StillImage" />
        <dc:title></dc:title>
      </cc:Work>
    </rdf:RDF>
  </metadata>
  <defs
     id="defs6340" />
  <path
     d="M 5.2974218,39.790879 C 3.6649887,39.289327 3.104892,38.445463 2.6625512,37.261638 l 0,-17.270545 0,-17.2705462 c 0,-1.3286421 1.4005723,-2.57271075 2.5294758,-2.57271075 l 14.807973,0 14.807972,0 c 1.558667,0 2.529477,1.17026415 2.529477,2.57704635 l 0,17.2662106 0,17.26621 c 0,1.399961 -1.43571,2.575839 -2.529477,2.577046 l -14.597182,0.01611 c -8.028451,0.0089 -14.7394667,-0.01794 -14.9133682,-0.05958 z m 26.7702862,-19.799786 0,-14.6891643 -12.067708,0 -12.0677078,0 -0.027086,14.5860813 c -0.014898,8.022346 -0.00446,14.644264 0.023212,14.715372 0.040006,0.102835 2.5147558,0.123928 12.0947938,0.103082 l 12.044496,-0.0262 z M 17.38372,30.979349 c -0.196002,-1.783845 1.614316,-3.004288 3.198381,-2.647105 2.346203,0.513534 2.472466,3.313977 1.514751,4.140412 -1.97412,2.285011 -4.925571,0.392156 -4.713132,-1.493307 z"
     id="path6346"
     style="fill:#000000;fill-opacity:1" />
</svg>
