<?xml version="1.0" encoding="UTF-8" standalone="no"?>
<!-- Created with Inkscape (http://www.inkscape.org/) -->

<svg
   xmlns:dc="http://purl.org/dc/elements/1.1/"
   xmlns:cc="http://creativecommons.org/ns#"
   xmlns:rdf="http://www.w3.org/1999/02/22-rdf-syntax-ns#"
   xmlns:svg="http://www.w3.org/2000/svg"
   xmlns="http://www.w3.org/2000/svg"
   version="1.1"
   width="40"
   height="40"
   id="svg2"
   xml:space="preserve"><metadata
     id="metadata8"><rdf:RDF><cc:Work
         rdf:about=""><dc:format>image/svg+xml</dc:format><dc:type
           rdf:resource="http://purl.org/dc/dcmitype/StillImage" /><dc:title></dc:title></cc:Work></rdf:RDF></metadata><defs
     id="defs6"><clipPath
       id="clipPath16"><path
         d="M 0,55 55,55 55,0 0,0 0,55 z"
         id="path18" /></clipPath></defs><g
     transform="matrix(1.25,0,0,-1.25,-9.209125,49.780501)"
     id="g10"><g
       id="g12"><g
         clip-path="url(#clipPath16)"
         id="g14"><g
           transform="translate(31.6572,33.3008)"
           id="g20" /><g
           transform="translate(40.0303,27.0674)"
           id="g24"><g
             transform="matrix(0.83459267,0,0,0.83459267,-5.3338218,-3.1166627)"
             id="g2992"><path
               d="m 0,0 -3.196,0 0,3.199 c 0,1.162 -0.941,2.104 -2.103,2.104 -1.161,0 -2.103,-0.942 -2.103,-2.104 l 0,-3.199 -3.197,0 c -1.161,0 -2.103,-0.942 -2.103,-2.103 0,-1.161 0.942,-2.103 2.103,-2.103 l 3.197,0 0,-3.196 c 0,-1.164 0.942,-2.104 2.103,-2.104 1.162,0 2.103,0.94 2.103,2.104 l 0,3.196 3.196,0 c 1.164,0 2.104,0.942 2.104,2.103 C 2.104,-0.942 1.164,0 0,0"
               transform="translate(-8.3731,6.2334)"
               id="path22"
               style="fill:#3b393c;fill-opacity:1;fill-rule:nonzero;stroke:none" /><path
               d="m 0,0 c -0.615,-1.198 -1.521,-2.298 -2.684,-3.272 -1.195,-0.997 -2.613,-1.817 -4.212,-2.432 -1.665,-0.647 -3.459,-1.039 -5.331,-1.16 -0.469,-0.037 -0.914,-0.213 -1.275,-0.498 l -6.705,-5.356 -1.075,6.414 c -0.127,0.768 -0.635,1.42 -1.345,1.723 -1.075,0.475 -1.982,1.004 -2.705,1.576 -0.666,0.529 -1.188,1.106 -1.591,1.758 -0.392,0.629 -0.678,1.328 -0.867,2.139 -0.194,0.823 -0.288,1.75 -0.288,2.826 0,1.356 0.35,2.681 1.037,3.931 0.693,1.261 1.699,2.404 2.984,3.398 1.336,1.027 2.9,1.837 4.652,2.406 1.842,0.601 3.803,0.903 5.831,0.903 2.024,0 3.986,-0.302 5.826,-0.903 1.752,-0.569 3.316,-1.379 4.654,-2.406 1.283,-0.994 2.295,-2.138 2.987,-3.398 C 0.579,6.396 0.927,5.074 0.927,3.718 0.927,2.439 0.615,1.188 0,0 m 3.91,9.856 c -1,1.821 -2.417,3.443 -4.209,4.824 -1.748,1.347 -3.781,2.402 -6.027,3.136 -4.6,1.499 -9.9,1.499 -14.496,0 -2.254,-0.735 -4.282,-1.789 -6.03,-3.136 -1.796,-1.382 -3.211,-3.006 -4.21,-4.824 -1.061,-1.934 -1.601,-4 -1.601,-6.138 0,-1.434 0.134,-2.701 0.411,-3.876 0.305,-1.286 0.784,-2.47 1.437,-3.513 0.68,-1.092 1.561,-2.068 2.624,-2.918 0.762,-0.611 1.613,-1.15 2.583,-1.648 l 1.525,-9.088 c 0.133,-0.803 0.682,-1.477 1.442,-1.764 0.267,-0.107 0.544,-0.154 0.818,-0.154 0.515,0 1.018,0.172 1.433,0.506 l 9.206,7.353 c 2.069,0.205 4.065,0.674 5.942,1.395 2.067,0.804 3.922,1.883 5.5,3.199 1.633,1.367 2.916,2.941 3.816,4.682 0.954,1.847 1.44,3.808 1.44,5.826 0,2.137 -0.539,4.204 -1.604,6.138"
               id="path26"
               style="fill:#3b393c;fill-opacity:1;fill-rule:nonzero;stroke:none" /></g></g></g></g></g></svg>