<?xml version="1.0" encoding="UTF-8" standalone="no"?>
<!-- Created with Inkscape (http://www.inkscape.org/) -->

<svg
   xmlns:dc="http://purl.org/dc/elements/1.1/"
   xmlns:cc="http://creativecommons.org/ns#"
   xmlns:rdf="http://www.w3.org/1999/02/22-rdf-syntax-ns#"
   xmlns:svg="http://www.w3.org/2000/svg"
   xmlns="http://www.w3.org/2000/svg"
   version="1.1"
   width="40"
   height="40"
   id="svg2"
   xml:space="preserve"><metadata
     id="metadata8"><rdf:RDF><cc:Work
         rdf:about=""><dc:format>image/svg+xml</dc:format><dc:type
           rdf:resource="http://purl.org/dc/dcmitype/StillImage" /><dc:title></dc:title></cc:Work></rdf:RDF></metadata><defs
     id="defs6"><clipPath
       id="clipPath16"><path
         d="M 0,55 55,55 55,0 0,0 0,55 z"
         id="path18" /></clipPath></defs><path
     d="m 20,0.09375 c -2.581499,0 -5.165133,0.37434102 -7.5625,1.15625 C 10.086035,2.016782 7.979835,3.1260046 6.15625,4.53125 4.2825896,5.9730087 2.7921975,7.6658882 1.75,9.5625 0.64312148,11.580127 0.09375,13.738301 0.09375,15.96875 0.09375,17.464757 0.2110223,18.774192 0.5,20 c 0.31818844,1.341608 0.8187638,2.56815 1.5,3.65625 0.7094038,1.139219 1.641035,2.175745 2.75,3.0625 0.7949495,0.63742 1.6755564,1.199217 2.6875,1.71875 l 1.59375,9.46875 c 0.138751,0.837722 0.707137,1.54434 1.5,1.84375 0.278545,0.111626 0.589152,0.15625 0.875,0.15625 0.537269,0 1.035805,-0.182808 1.46875,-0.53125 L 22.5,31.71875 c 2.158465,-0.213864 4.229337,-0.716573 6.1875,-1.46875 2.156378,-0.838765 4.103766,-1.939595 5.75,-3.3125 1.703612,-1.42611 3.029833,-3.089968 3.96875,-4.90625 0.995252,-1.926866 1.5,-3.95724 1.5,-6.0625 0,-2.229406 -0.545199,-4.388623 -1.65625,-6.40625 C 37.206759,7.6627585 35.713238,5.9719655 33.84375,4.53125 32.020165,3.1260046 29.905619,2.0157388 27.5625,1.25 25.163046,0.46809102 22.581499,0.09375 20,0.09375 z M 20,4.875 c 2.11152,0 4.174187,0.3105123 6.09375,0.9375 1.827758,0.593604 3.447894,1.4285917 4.84375,2.5 1.338478,1.0369813 2.403078,2.248017 3.125,3.5625 0.715663,1.307181 1.0625,2.679115 1.0625,4.09375 0,1.334305 -0.327157,2.63563 -0.96875,3.875 -0.641593,1.249802 -1.567961,2.390133 -2.78125,3.40625 -1.246673,1.040111 -2.738108,1.889656 -4.40625,2.53125 -1.736995,0.674976 -3.609553,1.092518 -5.5625,1.21875 -0.48928,0.0386 -0.96714,0.233926 -1.34375,0.53125 l -6.96875,5.59375 -1.125,-6.71875 C 11.836259,25.605041 11.303201,24.941102 10.5625,24.625 9.4410166,24.129461 8.4730131,23.565483 7.71875,22.96875 7.0239516,22.416875 6.4829261,21.836443 6.0625,21.15625 5.6535496,20.500052 5.3534225,19.752318 5.15625,18.90625 4.9538613,18.047663 4.875,17.091277 4.875,15.96875 4.875,14.554115 5.2207936,13.179051 5.9375,11.875 6.6604659,10.559473 7.7219355,9.3494813 9.0625,8.3125 10.45627,7.2410917 12.078492,6.406104 13.90625,5.8125 15.8279,5.1855123 17.884308,4.875 20,4.875 z m -0.09375,2.9375 c -1.211203,0 -2.1875,0.9752539 -2.1875,2.1875 l 0,3.34375 -3.34375,0 c -1.211203,0 -2.1875,0.976298 -2.1875,2.1875 0,1.211203 0.976297,2.1875 2.1875,2.1875 l 3.34375,0 0,3.34375 c 0,1.214333 0.976297,2.1875 2.1875,2.1875 1.212246,0 2.1875,-0.973167 2.1875,-2.1875 l 0,-3.34375 3.34375,0 c 1.214332,0 2.1875,-0.976297 2.1875,-2.1875 0,-1.211202 -0.973168,-2.1875 -2.1875,-2.1875 l -3.34375,0 0,-3.34375 c 0,-1.2122461 -0.975254,-2.1875 -2.1875,-2.1875 z"
     id="path22"
     style="fill:#000000;fill-opacity:1;fill-rule:nonzero;stroke:none" /></svg>