<?xml version="1.0" encoding="UTF-8" standalone="no"?>
<!-- Created with Inkscape (http://www.inkscape.org/) -->

<svg
   xmlns:dc="http://purl.org/dc/elements/1.1/"
   xmlns:cc="http://creativecommons.org/ns#"
   xmlns:rdf="http://www.w3.org/1999/02/22-rdf-syntax-ns#"
   xmlns:svg="http://www.w3.org/2000/svg"
   xmlns="http://www.w3.org/2000/svg"
   version="1.1"
   width="40"
   height="40"
   id="svg2"
   xml:space="preserve"><metadata
     id="metadata8"><rdf:RDF><cc:Work
         rdf:about=""><dc:format>image/svg+xml</dc:format><dc:type
           rdf:resource="http://purl.org/dc/dcmitype/StillImage" /><dc:title></dc:title></cc:Work></rdf:RDF></metadata><defs
     id="defs6"><clipPath
       id="clipPath16"><path
         d="M 0,55 55,55 55,0 0,0 0,55 z"
         id="path18" /></clipPath></defs><path
     d="m 4.5,0.28125 c -1.2875106,0 -2.3125,1.0572669 -2.3125,2.34375 l 0,24.9375 c 0,1.286483 1.0249894,2.3125 2.3125,2.3125 l 12.3125,0 0,7.5 c -0.0031,0.913485 0.515551,1.743782 1.34375,2.125 0.312373,0.141801 0.637881,0.21875 0.96875,0.21875 0.546652,0 1.100709,-0.191557 1.53125,-0.5625 l 10.75,-9.28125 4.09375,0 c 1.287511,0 2.3125,-1.026017 2.3125,-2.3125 l 0,-24.9375 c 0,-1.2864831 -1.024989,-2.34375 -2.3125,-2.34375 l -31,0 z m 2.34375,4.65625 26.3125,0 0,20.28125 -2.625,0 c -0.556928,0.0021 -1.078708,0.19875 -1.5,0.5625 l -7.5625,6.5 L 21.5,27.5625 c 0.0021,-0.619608 -0.249767,-1.216462 -0.6875,-1.65625 -0.436706,-0.437733 -1.036642,-0.6875 -1.65625,-0.6875 l -12.3125,0 0,-20.28125 z M 11.875,9.03125 c -0.875466,0 -1.90625,1.026017 -1.90625,2.3125 0,1.28751 1.030784,2.34375 1.90625,2.34375 l 16.25,0 c 1.699555,0 2.75,-1.05624 2.75,-2.34375 0,-1.286483 -1.050445,-2.3125 -2.75,-2.3125 l -16.25,0 z m 0,7.40625 c -1.286483,0 -2.3125,1.056239 -2.3125,2.34375 0,1.286483 1.026017,2.34375 2.3125,2.34375 l 16.25,0 c 1.288538,0 2.3125,-1.057267 2.3125,-2.34375 0,-1.287511 -1.023962,-2.34375 -2.3125,-2.34375 l -16.25,0 z"
     id="path22"
     style="fill:#000000;fill-opacity:1;fill-rule:nonzero;stroke:none" /></svg>