<?xml version="1.0" encoding="UTF-8" standalone="no"?>
<!-- Created with Inkscape (http://www.inkscape.org/) -->

<svg
   xmlns:dc="http://purl.org/dc/elements/1.1/"
   xmlns:cc="http://creativecommons.org/ns#"
   xmlns:rdf="http://www.w3.org/1999/02/22-rdf-syntax-ns#"
   xmlns:svg="http://www.w3.org/2000/svg"
   xmlns="http://www.w3.org/2000/svg"
   version="1.1"
   width="40"
   height="40"
   id="svg2"
   xml:space="preserve"><metadata
     id="metadata8"><rdf:RDF><cc:Work
         rdf:about=""><dc:format>image/svg+xml</dc:format><dc:type
           rdf:resource="http://purl.org/dc/dcmitype/StillImage" /><dc:title></dc:title></cc:Work></rdf:RDF></metadata><defs
     id="defs6"><clipPath
       id="clipPath16"><path
         d="M 0,55 55,55 55,0 0,0 0,55 z"
         id="path18" /></clipPath></defs><g
     transform="matrix(1.25,0,0,-1.25,-12.69575,50.396375)"
     id="g10"><g
       id="g12"><g
         clip-path="url(#clipPath16)"
         id="g14"><g
           transform="translate(19.5957,33.6426)"
           id="g20" /><g
           transform="translate(19.5957,26.4189)"
           id="g24" /><g
           transform="translate(40.3066,22.4121)"
           id="g28"><g
             transform="matrix(0.8220339,0,0,0.8220339,-3.6222118,-2.2775085)"
             id="g2995"><path
               d="m 0,0 15.807,0 c 1.654,0 2.67,1.015 2.67,2.268 0,1.252 -1.016,2.267 -2.67,2.267 L 0,4.535 C -0.852,4.535 -1.867,3.52 -1.867,2.268 -1.867,1.015 -0.852,0 0,0"
               transform="translate(-20.7109,11.2305)"
               id="path22"
               style="fill:#3b393c;fill-opacity:1;fill-rule:nonzero;stroke:none" /><path
               d="m 0,0 15.807,0 c 1.254,0 2.269,1.016 2.269,2.268 0,1.253 -1.015,2.268 -2.269,2.268 L 0,4.536 C -1.252,4.536 -2.268,3.521 -2.268,2.268 -2.268,1.016 -1.252,0 0,0"
               transform="translate(-20.7109,4.0068)"
               id="path26"
               style="fill:#3b393c;fill-opacity:1;fill-rule:nonzero;stroke:none" /><path
               d="M 0,0 -2.558,-0.002 C -3.1,-0.004 -3.623,-0.197 -4.033,-0.551 l -7.337,-6.316 0.016,4.592 c 0.002,0.603 -0.236,1.181 -0.662,1.609 C -12.441,-0.24 -13.019,0 -13.622,0 l -11.993,0 0,19.735 L 0,19.735 0,0 z m 2.268,24.271 -30.15,0 c -1.253,0 -2.268,-1.016 -2.268,-2.268 l 0,-24.271 c 0,-1.252 1.015,-2.267 2.268,-2.267 l 11.985,0 -0.025,-7.283 c -0.003,-0.889 0.512,-1.698 1.318,-2.069 0.304,-0.138 0.627,-0.208 0.949,-0.208 0.532,0 1.06,0.189 1.479,0.55 l 10.467,9.01 3.977,0 c 1.253,0 2.268,1.015 2.268,2.267 l 0,24.271 c 0,1.252 -1.015,2.268 -2.268,2.268"
               id="path30"
               style="fill:#3b393c;fill-opacity:1;fill-rule:nonzero;stroke:none" /></g></g></g></g></g></svg>