<?xml version="1.0" encoding="UTF-8" standalone="no"?>
<!-- Created with Inkscape (http://www.inkscape.org/) -->

<svg
   xmlns:dc="http://purl.org/dc/elements/1.1/"
   xmlns:cc="http://creativecommons.org/ns#"
   xmlns:rdf="http://www.w3.org/1999/02/22-rdf-syntax-ns#"
   xmlns:svg="http://www.w3.org/2000/svg"
   xmlns="http://www.w3.org/2000/svg"
   version="1.1"
   width="40"
   height="40"
   id="svg2"
   xml:space="preserve"><metadata
     id="metadata8"><rdf:RDF><cc:Work
         rdf:about=""><dc:format>image/svg+xml</dc:format><dc:type
           rdf:resource="http://purl.org/dc/dcmitype/StillImage" /><dc:title></dc:title></cc:Work></rdf:RDF></metadata><defs
     id="defs6"><clipPath
       id="clipPath16"><path
         d="M 0,55 55,55 55,0 0,0 0,55 z"
         id="path18" /></clipPath></defs><g
     transform="matrix(1.25,0,0,-1.25,-8.1337899,55.880127)"
     id="g10"><g
       id="g12"><g
         clip-path="url(#clipPath16)"
         id="g14"><g
           transform="translate(18.459,12.7041)"
           id="g20"><path
             d="m -2.8016132,4.7898004 c -0.070462,0 -0.1401665,0.00379 -0.2113863,0.00833 -0.6349164,0.057582 -1.2198275,0.3712518 -1.618355,0.86979 l -6.7120815,8.3872616 c -0.80842,1.010714 -0.644766,2.484356 0.365191,3.294291 1.0107136,0.809178 2.4851137,0.644766 3.2935335,-0.367463 l 5.1876763,-6.482512 18.5701692,16.13506 c 0.981166,0.853121 2.459354,0.743261 3.305657,-0.231843 0.848576,-0.97662 0.744777,-2.456324 -0.231085,-3.304142 L -1.2650852,5.3633466 C -1.6931613,4.9920948 -2.2386742,4.7898004 -2.8016132,4.7898004"
             id="path22"
             style="fill:#373535;fill-opacity:1;fill-rule:nonzero;stroke:none" /></g></g></g></g></svg>