<?xml version="1.0" encoding="UTF-8" standalone="no"?>
<!-- Created with Inkscape (http://www.inkscape.org/) -->

<svg
   xmlns:dc="http://purl.org/dc/elements/1.1/"
   xmlns:cc="http://creativecommons.org/ns#"
   xmlns:rdf="http://www.w3.org/1999/02/22-rdf-syntax-ns#"
   xmlns:svg="http://www.w3.org/2000/svg"
   xmlns="http://www.w3.org/2000/svg"
   version="1.1"
   width="40"
   height="40"
   id="svg2"
   xml:space="preserve"><metadata
     id="metadata8"><rdf:RDF><cc:Work
         rdf:about=""><dc:format>image/svg+xml</dc:format><dc:type
           rdf:resource="http://purl.org/dc/dcmitype/StillImage" /><dc:title></dc:title></cc:Work></rdf:RDF></metadata><defs
     id="defs6"><clipPath
       id="clipPath16"><path
         d="M 0,55 55,55 55,0 0,0 0,55 z"
         id="path18" /></clipPath></defs><path
     d="m 11.437943,34.012751 c -0.08808,0 -0.175208,-0.0047 -0.264232,-0.01041 -0.793646,-0.07198 -1.5247848,-0.464065 -2.0229441,-1.087237 L 0.760665,22.431025 C -0.24986,21.167632 -0.0452925,19.32558 1.2171537,18.313161 2.4805457,17.301688 4.3235459,17.507203 5.3340706,18.77249 L 11.818666,26.87563 35.031377,6.7068045 c 1.226458,-1.0664012 3.074193,-0.9290762 4.132072,0.2898038 1.06072,1.220775 0.930971,3.0704047 -0.288857,4.1301777 L 13.358603,33.295819 c -0.535095,0.464064 -1.216986,0.716932 -1.92066,0.716932"
     id="path22"
     style="fill:#000000;fill-opacity:1;fill-rule:nonzero;stroke:none" /></svg>