<?xml version="1.0" encoding="UTF-8" standalone="no"?>
<!-- Created with Inkscape (http://www.inkscape.org/) -->

<svg
   xmlns:dc="http://purl.org/dc/elements/1.1/"
   xmlns:cc="http://creativecommons.org/ns#"
   xmlns:rdf="http://www.w3.org/1999/02/22-rdf-syntax-ns#"
   xmlns:svg="http://www.w3.org/2000/svg"
   xmlns="http://www.w3.org/2000/svg"
   version="1.1"
   width="40"
   height="40"
   id="svg2"
   xml:space="preserve"><metadata
     id="metadata8"><rdf:RDF><cc:Work
         rdf:about=""><dc:format>image/svg+xml</dc:format><dc:type
           rdf:resource="http://purl.org/dc/dcmitype/StillImage" /><dc:title></dc:title></cc:Work></rdf:RDF></metadata><defs
     id="defs6"><clipPath
       id="clipPath16"><path
         d="M 0,55 55,55 55,0 0,0 0,55 z"
         id="path18" /></clipPath></defs><path
     d="M 37.4375,5 C 36.764598,4.9636573 36.070271,5.2019315 35.53125,5.6875 L 19.4375,20.125 15.03125,14.5 C 14.139043,13.354018 12.490731,13.165297 11.34375,14.0625 10.196769,14.957704 9.9807943,16.605017 10.875,17.75 L 17,25.59375 c 0.447602,0.57449 1.118395,0.93606 1.84375,1 0.07693,0.008 0.17307,0.03125 0.25,0.03125 0.647425,0 1.26643,-0.251887 1.75,-0.6875 L 39.0625,9.59375 C 40.145537,8.622613 40.222137,6.9580376 39.25,5.875 38.763932,5.3339808 38.110402,5.0363427 37.4375,5 z M 4.09375,6.1875 C 2.0721392,6.3935185 0.27994906,8.0413391 0.125,10.125 0.07308613,16.781326 0.10846693,23.436255 0.09375,30.09375 c -0.26166648,2.345183 1.5526551,4.702781 3.9375,4.875 7.373237,0.04967 14.750682,0.01714 22.125,0.03125 1.365909,0.0123 2.718437,-0.687112 3.53125,-1.78125 1.216284,-1.539695 0.79573,-3.534879 0.875,-5.34375 -0.09912,-1.223652 0.27686,-2.606326 -0.53125,-3.65625 -1.057333,-1.424248 -3.573972,-0.81526 -3.84375,0.9375 -0.09862,1.809553 -0.0069,3.623322 -0.03125,5.4375 -7.226912,0.0013 -14.460589,-0.0013 -21.6875,0 l 0,-20.03125 19.5,0 c 1.253858,-0.09865 2.747955,0.356797 3.75,-0.625 1.319983,-1.1902583 0.430842,-3.658781 -1.34375,-3.75 -7.134396,-0.026437 -14.271377,0.00759 -21.40625,0 -0.2929782,-0.032727 -0.5861985,-0.029431 -0.875,0 z"
     id="path22"
     style="fill:#000000;fill-opacity:1;fill-rule:nonzero;stroke:none" /></svg>