<?xml version="1.0" encoding="UTF-8" standalone="no"?>
<!-- Created with Inkscape (http://www.inkscape.org/) -->

<svg
   xmlns:dc="http://purl.org/dc/elements/1.1/"
   xmlns:cc="http://creativecommons.org/ns#"
   xmlns:rdf="http://www.w3.org/1999/02/22-rdf-syntax-ns#"
   xmlns:svg="http://www.w3.org/2000/svg"
   xmlns="http://www.w3.org/2000/svg"
   version="1.1"
   width="40"
   height="40"
   id="svg2"
   xml:space="preserve"><metadata
     id="metadata8"><rdf:RDF><cc:Work
         rdf:about=""><dc:format>image/svg+xml</dc:format><dc:type
           rdf:resource="http://purl.org/dc/dcmitype/StillImage" /><dc:title></dc:title></cc:Work></rdf:RDF></metadata><defs
     id="defs6"><clipPath
       id="clipPath16"><path
         d="M 0,55 55,55 55,0 0,0 0,55 z"
         id="path18" /></clipPath></defs><g
     transform="matrix(1.25,0,0,-1.25,-9.355125,56.154751)"
     id="g10"><g
       id="g12"><g
         clip-path="url(#clipPath16)"
         id="g14"><g
           transform="translate(26.4946,21.3115)"
           id="g20" /><g
           transform="translate(33.5771,12.9238)"
           id="g24"><g
             transform="matrix(0.79928977,0,0,0.79928977,-5.1626557,4.0054074)"
             id="g2993"><path
               d="m 0,0 c -0.077,0 -0.155,0.003 -0.232,0.011 -0.726,0.064 -1.396,0.427 -1.844,1.002 l -6.143,7.863 c -0.895,1.146 -0.694,2.803 0.454,3.699 1.148,0.898 2.806,0.694 3.699,-0.453 l 4.405,-5.641 16.13,14.474 c 1.079,0.972 2.747,0.882 3.72,-0.201 0.973,-1.084 0.883,-2.75 -0.201,-3.722 L 1.759,0.673 C 1.275,0.237 0.648,0 0,0"
               transform="translate(-7.0825,8.3877)"
               id="path22"
               style="fill:#373535;fill-opacity:1;fill-rule:nonzero;stroke:none" /><path
               d="m 0,0 c -7.3808703,0.01412743 -14.763461,-0.02833559 -22.14325,0.021375 -2.386964,0.17237239 -4.211649,2.5238156 -3.94975,4.8710822 0.01473,6.6634108 -0.02958,13.3286778 0.02238,19.9909178 0.177242,2.383443 2.525174,4.207677 4.871082,3.945625 7.141213,-0.0076 14.2831899,0.01511 21.42392532,-0.01135 C 2.0005561,28.72635 2.8731562,26.271941 1.552,25.080625 0.54906414,24.097956 -0.92667526,24.536739 -2.1816481,24.438 c -6.5071173,0 -13.0142349,0 -19.5213519,0 10e-4,-6.683 0.002,-13.366 0.003,-20.049 C -14.466667,4.39033 -7.2333333,4.39167 0,4.393 0.0243946,6.2087904 -0.06101952,8.0314625 0.03769336,9.842623 0.30771098,11.596941 2.8275977,12.22245 3.8858696,10.796936 4.6946982,9.7460799 4.2887907,8.3591825 4.388,7.1344424 4.3086623,5.3239645 4.7369898,3.3055319 3.519625,1.7644688 2.7060897,0.66935835 1.367123,-0.01231471 0,0 z"
               id="path26"
               style="fill:#373535;fill-opacity:1;fill-rule:nonzero;stroke:none" /></g></g></g></g></g></svg>