<?xml version="1.0" encoding="UTF-8" standalone="no"?>
<!-- Created with Inkscape (http://www.inkscape.org/) -->

<svg
   xmlns:dc="http://purl.org/dc/elements/1.1/"
   xmlns:cc="http://creativecommons.org/ns#"
   xmlns:rdf="http://www.w3.org/1999/02/22-rdf-syntax-ns#"
   xmlns:svg="http://www.w3.org/2000/svg"
   xmlns="http://www.w3.org/2000/svg"
   version="1.1"
   width="40"
   height="40"
   id="svg2"
   xml:space="preserve"><metadata
     id="metadata8"><rdf:RDF><cc:Work
         rdf:about=""><dc:format>image/svg+xml</dc:format><dc:type
           rdf:resource="http://purl.org/dc/dcmitype/StillImage" /><dc:title></dc:title></cc:Work></rdf:RDF></metadata><defs
     id="defs6"><clipPath
       id="clipPath16"><path
         d="M 0,55 55,55 55,0 0,0 0,55 z"
         id="path18" /></clipPath></defs><path
     d="M 35.872866,15.020936 C 31.089049,10.247523 26.327504,5.4506742 21.52975,0.6919269 20.387069,-0.30317038 18.676064,0.18751454 17.843142,1.3253064 13.219201,5.9607971 8.5715803,10.57376 3.9624529,15.223342 c -1.3042763,1.442367 -0.080209,4.013859 1.8608083,3.913909 1.6001442,-0.03568 2.4227412,-1.605539 3.5256607,-2.532102 2.7533331,-2.753333 5.5066661,-5.506666 8.2600001,-8.2599996 0.0083,9.7834776 -0.01652,19.5677876 0.01238,29.3507446 0.09875,1.942041 2.78165,2.896592 4.0839,1.451713 1.106442,-1.156682 0.578873,-2.848194 0.703225,-4.28328 0,-8.841406 0,-17.682811 0,-26.5242159 3.420776,3.4098279 6.818862,6.8435119 10.253854,10.2383869 1.442433,1.30389 4.014062,0.08111 3.913428,-1.860653 0.0028,-0.629565 -0.255043,-1.254004 -0.702847,-1.696909 z"
     id="path22"
     style="fill:#000000;fill-opacity:1;fill-rule:nonzero;stroke:none" /></svg>