<?xml version="1.0" encoding="UTF-8" standalone="no"?>
<!-- Created with Inkscape (http://www.inkscape.org/) -->

<svg
   xmlns:dc="http://purl.org/dc/elements/1.1/"
   xmlns:cc="http://creativecommons.org/ns#"
   xmlns:rdf="http://www.w3.org/1999/02/22-rdf-syntax-ns#"
   xmlns:svg="http://www.w3.org/2000/svg"
   xmlns="http://www.w3.org/2000/svg"
   version="1.1"
   width="40"
   height="40"
   id="svg2"
   xml:space="preserve"><metadata
     id="metadata8"><rdf:RDF><cc:Work
         rdf:about=""><dc:format>image/svg+xml</dc:format><dc:type
           rdf:resource="http://purl.org/dc/dcmitype/StillImage" /><dc:title></dc:title></cc:Work></rdf:RDF></metadata><defs
     id="defs6"><clipPath
       id="clipPath16"><path
         d="M 0,55 55,55 55,0 0,0 0,55 z"
         id="path18" /></clipPath></defs><g
     transform="matrix(1.0076659,0,0,-1.0076659,-7.7106998,47.944303)"
     id="g10"><g
       id="g12"><g
         clip-path="url(#clipPath16)"
         id="g14"><g
           transform="translate(43.252,32.6729)"
           id="g20"><path
             d="m 0,0 c -4.7474237,4.7370989 -9.4727446,9.4974553 -14.234,14.22 -1.133988,0.987527 -2.831976,0.500575 -3.658561,-0.628561 C -22.481325,8.9912132 -27.093589,4.413344 -31.667652,-0.20086597 -32.962006,-1.63226 -31.747251,-4.1841892 -29.821,-4.085 c 1.587971,0.035407 2.40431,1.5933245 3.498839,2.5128386 2.732387,2.7323872 5.464774,5.4647743 8.197161,8.1971614 0.0082,-9.7090487 -0.01639,-19.418924 0.01229,-29.127456 0.098,-1.927267 2.760489,-2.874556 4.052832,-1.440669 1.098024,1.147882 0.574469,2.826526 0.697875,4.250694 0,8.774144 0,17.5482875 0,26.322431 C -9.9672515,3.2461123 -6.5950167,-0.16144946 -3.1861563,-3.530498 -1.7546968,-4.8244684 0.79736865,-3.6109949 0.6975,-1.684 0.70026065,-1.0592245 0.44439717,-0.43953526 0,0 z"
             id="path22"
             style="fill:#3b393c;fill-opacity:1;fill-rule:nonzero;stroke:none" /></g></g></g></g></svg>