<?xml version="1.0" encoding="UTF-8" standalone="no"?>
<!-- Created with Inkscape (http://www.inkscape.org/) -->

<svg
   xmlns:dc="http://purl.org/dc/elements/1.1/"
   xmlns:cc="http://creativecommons.org/ns#"
   xmlns:rdf="http://www.w3.org/1999/02/22-rdf-syntax-ns#"
   xmlns:svg="http://www.w3.org/2000/svg"
   xmlns="http://www.w3.org/2000/svg"
   version="1.1"
   width="40"
   height="40"
   id="svg2"
   xml:space="preserve"><metadata
     id="metadata8"><rdf:RDF><cc:Work
         rdf:about=""><dc:format>image/svg+xml</dc:format><dc:type
           rdf:resource="http://purl.org/dc/dcmitype/StillImage" /><dc:title></dc:title></cc:Work></rdf:RDF></metadata><defs
     id="defs6"><clipPath
       id="clipPath16"><path
         d="M 0,55 55,55 55,0 0,0 0,55 z"
         id="path18" /></clipPath></defs><path
     d="m 16.5,0.1875 c -0.499608,0 -0.90625,0.40558797 -0.90625,0.90625 C 15.59375,1.5933581 16.000392,2 16.5,2 l 7.71875,0 C 24.717304,2 25.125,1.5933581 25.125,1.09375 25.125,0.59308797 24.717304,0.1875 24.21875,0.1875 l -7.71875,0 z M 7.875,3.75 c -1.5694438,0 -2.84375,1.2743062 -2.84375,2.84375 0,1.5704978 1.2743062,2.84375 2.84375,2.84375 l 24.25,0 c 1.570498,0 2.84375,-1.2732522 2.84375,-2.84375 C 34.96875,5.0243062 33.695498,3.75 32.125,3.75 l -24.25,0 z m 2.34375,8.21875 c -1.4376904,0 -2.625,1.157113 -2.625,2.59375 l 0,18.96875 c 0,3.460366 2.820884,6.28125 6.28125,6.28125 l 12.96875,0 c 3.458257,0 6.28125,-2.820884 6.28125,-6.28125 l 0,-18.96875 c 0,-1.436637 -1.187309,-2.59375 -2.625,-2.59375 l -20.28125,0 z m 2.59375,5.21875 15.09375,0 0,16.34375 c 0,0.591308 -0.472246,1.09375 -1.0625,1.09375 l -12.96875,0 c -0.590254,0 -1.0625,-0.502442 -1.0625,-1.09375 l 0,-16.34375 z m 3.5625,3.25 c -0.359027,0.01449 -0.714359,0.183111 -1,0.46875 -0.571281,0.570228 -0.616548,1.445953 -0.09375,1.96875 l 3,3.03125 -3,3 c -0.522796,0.524904 -0.477529,1.397468 0.09375,1.96875 0.571282,0.570227 1.447008,0.615492 1.96875,0.09375 l 3,-3 3.03125,3 c 0.523851,0.520689 1.397468,0.477528 1.96875,-0.09375 0.56812,-0.571281 0.616547,-1.448062 0.09375,-1.96875 l -3,-3 3,-3.03125 C 25.960297,22.356419 25.91187,21.477532 25.34375,20.90625 24.772468,20.334968 23.898851,20.291807 23.375,20.8125 l -3.03125,3 -3,-3 C 17.082879,20.551102 16.734027,20.423008 16.375,20.4375 z"
     id="path22"
     style="fill:#000000;fill-opacity:1;fill-rule:nonzero;stroke:none" /></svg>