<?xml version="1.0" encoding="UTF-8" standalone="no"?>
<!-- Created with Inkscape (http://www.inkscape.org/) -->

<svg
   xmlns:dc="http://purl.org/dc/elements/1.1/"
   xmlns:cc="http://creativecommons.org/ns#"
   xmlns:rdf="http://www.w3.org/1999/02/22-rdf-syntax-ns#"
   xmlns:svg="http://www.w3.org/2000/svg"
   xmlns="http://www.w3.org/2000/svg"
   version="1.1"
   width="40"
   height="40"
   id="svg2"
   xml:space="preserve"><metadata
     id="metadata8"><rdf:RDF><cc:Work
         rdf:about=""><dc:format>image/svg+xml</dc:format><dc:type
           rdf:resource="http://purl.org/dc/dcmitype/StillImage" /><dc:title></dc:title></cc:Work></rdf:RDF></metadata><defs
     id="defs6"><clipPath
       id="clipPath16"><path
         d="M 0,55 55,55 55,0 0,0 0,55 z"
         id="path18" /></clipPath></defs><path
     d="m 14.78125,0.1875 c -0.584064,1.258e-4 -1.179688,0.21093752 -1.625,0.65625 -0.891631,0.8916313 -0.891631,2.359375 0,3.25 l 3.5625,3.53125 -12.34375,0 c -1.260964,0 -2.28125,1.0212924 -2.28125,2.28125 l 0,21.84375 c 0,1.259957 1.020286,2.28125 2.28125,2.28125 l 31.25,0 c 1.259957,0 2.28125,-1.021293 2.28125,-2.28125 l 0,-21.84375 C 37.90625,8.6462924 36.884957,7.625 35.625,7.625 l -12.34375,0 3.5625,-3.53125 c 0.891632,-0.8916314 0.890632,-2.359375 0,-3.25 -0.891632,-0.89163133 -2.360381,-0.89163133 -3.25,0 L 20,4.46875 16.40625,0.84375 C 15.960434,0.39793433 15.365314,0.1873742 14.78125,0.1875 z m -8.125,12 26.6875,0 0,17.28125 -26.6875,0 0,-17.28125 z M 11.125,35.25 c -1.2609635,0 -2.28125,1.020286 -2.28125,2.28125 0,1.259957 1.0202865,2.28125 2.28125,2.28125 l 17.75,0 c 1.259958,0 2.28125,-1.021293 2.28125,-2.28125 0,-1.260964 -1.021292,-2.28125 -2.28125,-2.28125 l -17.75,0 z"
     id="path20"
     style="fill:#000000;fill-opacity:1;fill-rule:nonzero;stroke:none" /></svg>