<?xml version="1.0" encoding="UTF-8" standalone="no"?>
<!-- Created with Inkscape (http://www.inkscape.org/) -->

<svg
   xmlns:dc="http://purl.org/dc/elements/1.1/"
   xmlns:cc="http://creativecommons.org/ns#"
   xmlns:rdf="http://www.w3.org/1999/02/22-rdf-syntax-ns#"
   xmlns:svg="http://www.w3.org/2000/svg"
   xmlns="http://www.w3.org/2000/svg"
   version="1.1"
   width="40"
   height="40"
   id="svg2"
   xml:space="preserve"><metadata
     id="metadata8"><rdf:RDF><cc:Work
         rdf:about=""><dc:format>image/svg+xml</dc:format><dc:type
           rdf:resource="http://purl.org/dc/dcmitype/StillImage" /><dc:title></dc:title></cc:Work></rdf:RDF></metadata><defs
     id="defs6"><clipPath
       id="clipPath16"><path
         d="M 0,55 55,55 55,0 0,0 0,55 z"
         id="path18" /></clipPath></defs><g
     transform="matrix(1.25,0,0,-1.25,-12.795,49.760876)"
     id="g10"><g
       id="g12"><g
         clip-path="url(#clipPath16)"
         id="g14"><g
           transform="translate(36.8594,12.3447)"
           id="g22"><g
             transform="matrix(0.80508475,0,0,0.80508475,-3.5141796,-0.73697808)"
             id="g2991"><path
               d="m 41.286,18.096 -26.515,0 0,17.163 26.515,0 0,-17.163 z m 2.269,21.697 -12.262,0 3.526,3.526 c 0.886,0.886 0.886,2.322 10e-4,3.207 -0.886,0.886 -2.323,0.886 -3.207,0 l -3.585,-3.584 -3.582,3.582 c -0.886,0.886 -2.322,0.885 -3.207,0 -0.886,-0.886 -0.886,-2.322 0,-3.207 l 3.524,-3.524 -12.259,0 c -1.253,0 -2.268,-1.015 -2.268,-2.267 l 0,-21.698 c 0,-1.252 1.015,-2.267 2.268,-2.267 l 31.051,0 c 1.252,0 2.267,1.015 2.267,2.267 l 0,21.698 c 0,1.252 -1.015,2.267 -2.267,2.267"
               transform="translate(-36.8594,-12.3447)"
               id="path20"
               style="fill:#3b393c;fill-opacity:1;fill-rule:nonzero;stroke:none" /><path
               d="m 0,0 -17.661,0 c -1.253,0 -2.268,-1.016 -2.268,-2.269 0,-1.252 1.015,-2.267 2.268,-2.267 l 17.661,0 c 1.252,0 2.268,1.015 2.268,2.267 C 2.268,-1.016 1.252,0 0,0"
               id="path24"
               style="fill:#3b393c;fill-opacity:1;fill-rule:nonzero;stroke:none" /></g></g></g></g></g></svg>