<?xml version="1.0" encoding="UTF-8" standalone="no"?>
<!-- Created with Inkscape (http://www.inkscape.org/) -->

<svg
   xmlns:dc="http://purl.org/dc/elements/1.1/"
   xmlns:cc="http://creativecommons.org/ns#"
   xmlns:rdf="http://www.w3.org/1999/02/22-rdf-syntax-ns#"
   xmlns:svg="http://www.w3.org/2000/svg"
   xmlns="http://www.w3.org/2000/svg"
   version="1.1"
   width="40"
   height="40"
   id="svg2"
   xml:space="preserve"><metadata
     id="metadata8"><rdf:RDF><cc:Work
         rdf:about=""><dc:format>image/svg+xml</dc:format><dc:type
           rdf:resource="http://purl.org/dc/dcmitype/StillImage" /><dc:title></dc:title></cc:Work></rdf:RDF></metadata><defs
     id="defs6"><clipPath
       id="clipPath16"><path
         d="M 0,55 55,55 55,0 0,0 0,55 z"
         id="path18" /></clipPath></defs><g
     transform="matrix(1.25,0,0,-1.25,-15.08375,50.043875)"
     id="g10"><g
       id="g12"><g
         clip-path="url(#clipPath16)"
         id="g14"><g
           transform="translate(42.999,12.4551)"
           id="g20"><path
             d="m -2.6116272,-0.73917806 c 0,-1.76130504 -1.7589152,-3.52101694 -3.5202203,-3.52101694 l -10.5598645,0 c -5.279932,0 -10.560661,3.52101694 -10.560661,10.560661 l 0,17.600305 c 0,1.759712 1.760508,3.519424 3.52022,3.519424 1.760509,0 3.520221,-1.759712 3.520221,-3.519424 l 0,-5.280729 14.0800845,0 c 1.7613051,0 3.5202203,-1.759712 3.5202203,-3.52022 0,-1.759712 -1.7589152,-3.52022 -3.5202203,-3.52022 l -14.0800845,0 0,-5.279136 c 0,-1.7605085 1.760508,-3.5202203 3.499508,-3.5202203 l 10.5805765,0 c 1.7613051,0 3.5202203,-1.7613051 3.5202203,-3.51942376"
             id="path22"
             style="fill:#292929;fill-opacity:1;fill-rule:nonzero;stroke:none" /></g></g></g></g></svg>