<?xml version="1.0" encoding="UTF-8" standalone="no"?>
<!-- Created with Inkscape (http://www.inkscape.org/) -->

<svg
   xmlns:dc="http://purl.org/dc/elements/1.1/"
   xmlns:cc="http://creativecommons.org/ns#"
   xmlns:rdf="http://www.w3.org/1999/02/22-rdf-syntax-ns#"
   xmlns:svg="http://www.w3.org/2000/svg"
   xmlns="http://www.w3.org/2000/svg"
   version="1.1"
   width="40"
   height="40"
   id="svg2"
   xml:space="preserve"><metadata
     id="metadata8"><rdf:RDF><cc:Work
         rdf:about=""><dc:format>image/svg+xml</dc:format><dc:type
           rdf:resource="http://purl.org/dc/dcmitype/StillImage" /><dc:title></dc:title></cc:Work></rdf:RDF></metadata><defs
     id="defs6"><clipPath
       id="clipPath16"><path
         d="M 0,55 55,55 55,0 0,0 0,55 z"
         id="path18" /></clipPath></defs><path
     d="m 35.400466,35.398973 c 0,2.201631 -2.198644,4.401271 -4.400275,4.401271 l -13.199831,0 c -6.599915,0 -13.2008262,-4.401271 -13.2008262,-13.200826 l 0,-22.0003817 c 0,-2.19964 2.200635,-4.39928005 4.400275,-4.39928005 2.2006362,0 4.4002762,2.19964005 4.4002762,4.39928005 l 0,6.6009117 17.600106,0 c 2.201631,0 4.400275,2.19964 4.400275,4.400275 0,2.19964 -2.198644,4.400275 -4.400275,4.400275 l -17.600106,0 0,6.59892 c 0,2.200635 2.200635,4.400275 4.374385,4.400275 l 13.225721,0 c 2.201631,0 4.400275,2.201631 4.400275,4.39928"
     id="path22"
     style="fill:#000000;fill-opacity:1;fill-rule:nonzero;stroke:none" /></svg>