<?xml version="1.0" encoding="UTF-8" standalone="no"?>
<!-- Created with Inkscape (http://www.inkscape.org/) -->

<svg
   xmlns:dc="http://purl.org/dc/elements/1.1/"
   xmlns:cc="http://creativecommons.org/ns#"
   xmlns:rdf="http://www.w3.org/1999/02/22-rdf-syntax-ns#"
   xmlns:svg="http://www.w3.org/2000/svg"
   xmlns="http://www.w3.org/2000/svg"
   version="1.1"
   width="40"
   height="40"
   id="svg7504">
  <metadata
     id="metadata7510">
    <rdf:RDF>
      <cc:Work
         rdf:about="">
        <dc:format>image/svg+xml</dc:format>
        <dc:type
           rdf:resource="http://purl.org/dc/dcmitype/StillImage" />
        <dc:title></dc:title>
      </cc:Work>
    </rdf:RDF>
  </metadata>
  <defs
     id="defs7508" />
  <path
     d="M 3.15625,7.28125 C 1.8531819,7.3889907 0.52897279,8.5873505 0.21875,9.84375 l 0,20 c 0.19207776,1.272229 1.3188914,2.445423 2.5625,2.78125 4.1726373,0.163056 8.354576,0.03872 12.53125,0.0625 1.570961,0.186676 2.893866,-1.176564 3.40625,-2.5625 l 0,-20 C 18.567792,8.7939878 17.376535,7.7351418 16.15625,7.28125 l -13,0 z M 23.875,7.3125 c -3.221744,0.568544 -2.414117,4.360512 -0.15625,4.53125 0.351486,0.04529 14.111216,0.05151 14.375,0 C 40.371675,11.140872 40.372491,7.9388816 37.96875,7.375 37.656564,7.344589 24.086044,7.346341 23.875,7.3125 z m -19.03125,4.59375 9.25,0 0,16.1875 -9.25,-0.09375 0,-16.09375 z m 19.03125,2.3125 c -3.221744,0.568544 -2.414117,4.360511 -0.15625,4.53125 0.351486,0.04529 14.111216,0.05151 14.375,0 2.277925,-0.702879 2.278741,-3.904869 -0.125,-4.46875 C 37.656564,14.25083 24.086044,14.25259 23.875,14.21875 z m 0,6.9375 c -3.221744,0.568544 -2.414117,4.391761 -0.15625,4.5625 0.351486,0.04529 14.111216,0.02026 14.375,-0.03125 2.277925,-0.702878 2.278741,-3.904868 -0.125,-4.46875 C 37.656564,21.18834 24.086044,21.19009 23.875,21.15625 z m 0,6.90625 c -3.221744,0.568544 -2.414117,4.391762 -0.15625,4.5625 0.351486,0.04529 14.111216,0.02026 14.375,-0.03125 2.277925,-0.702878 2.278741,-3.904868 -0.125,-4.46875 C 37.656564,28.09459 24.086044,28.09634 23.875,28.0625 z"
     id="path7514"
     style="fill:#000000;fill-opacity:1" />
</svg>
