<?xml version="1.0" encoding="UTF-8" standalone="no"?>
<!-- Created with Inkscape (http://www.inkscape.org/) -->

<svg
   xmlns:dc="http://purl.org/dc/elements/1.1/"
   xmlns:cc="http://creativecommons.org/ns#"
   xmlns:rdf="http://www.w3.org/1999/02/22-rdf-syntax-ns#"
   xmlns:svg="http://www.w3.org/2000/svg"
   xmlns="http://www.w3.org/2000/svg"
   version="1.1"
   width="40"
   height="40"
   id="svg6910">
  <metadata
     id="metadata6916">
    <rdf:RDF>
      <cc:Work
         rdf:about="">
        <dc:format>image/svg+xml</dc:format>
        <dc:type
           rdf:resource="http://purl.org/dc/dcmitype/StillImage" />
        <dc:title></dc:title>
      </cc:Work>
    </rdf:RDF>
  </metadata>
  <defs
     id="defs6914" />
  <g
     transform="matrix(0.0962945,0,0,0.0962945,0.22144822,28.751106)"
     id="g2991">
    <path
       d="m 253.83923,39.981479 c -15.90359,-0.17543 -31.27419,-14.31261 -32.86463,-25.44635 -0.76224,-5.3360201 0.016,-200.139239 0,-207.770509 -0.0199,-9.48997 14.82041,-27.79053 29.45973,-28.31256 4.85194,-0.17301 113.69189,-0.62312 134.11517,0.76478 8.39674,0.57062 26.20374,15.92683 26.21001,30.03392 0.0309,69.48421 0.15121,195.7013189 -0.38239,204.327789 -0.55339,8.94641 -17.01149,26.21001 -27.73957,25.82762 -11.74574,0.0184 -116.12404,0.71512 -128.79832,0.57531 z M 363.02649,-173.43253 c -31.56709,0 -63.13417,0 -94.70126,0 0,55.1627 0,110.325379 0,165.4880689 31.56709,0 63.13417,0 94.70126,0 0,-55.1626899 0,-110.3253689 0,-165.4880689 z"
       id="right"
       style="fill:#000000;fill-opacity:1" />
    <path
       d="M 33.199876,39.981479 C 17.296286,39.806049 1.9256857,25.668869 0.33524567,14.535129 c -0.76224,-5.3360201 0.016,-200.139239 0,-207.770509 -0.0199,-9.48997 14.82041033,-27.79053 29.45973033,-28.31256 4.85194,-0.17301 113.691884,-0.62312 134.115164,0.76478 8.39674,0.57062 26.20374,15.92683 26.21001,30.03392 0.0309,69.48421 0.15121,195.7013189 -0.38239,204.327789 -0.55339,8.94641 -17.01149,26.21001 -27.73957,25.82762 -11.74574,0.0184 -116.124034,0.71512 -128.798314,0.57531 z M 142.38713,-173.43252 c -31.56709,0 -63.134164,0 -94.701254,0 0,55.16269 0,110.325369 0,165.4880589 31.56709,0 63.134164,0 94.701254,0 0,-55.1626899 0,-110.3253689 0,-165.4880589 z"
       id="left"
       style="fill:#000000;fill-opacity:1" />
  </g>
</svg>
