<?xml version="1.0" encoding="UTF-8" standalone="no"?>
<!-- Created with Inkscape (http://www.inkscape.org/) -->

<svg
   xmlns:dc="http://purl.org/dc/elements/1.1/"
   xmlns:cc="http://creativecommons.org/ns#"
   xmlns:rdf="http://www.w3.org/1999/02/22-rdf-syntax-ns#"
   xmlns:svg="http://www.w3.org/2000/svg"
   xmlns="http://www.w3.org/2000/svg"
   version="1.1"
   width="40"
   height="40"
   id="svg6910">
  <metadata
     id="metadata6916">
    <rdf:RDF>
      <cc:Work
         rdf:about="">
        <dc:format>image/svg+xml</dc:format>
        <dc:type
           rdf:resource="http://purl.org/dc/dcmitype/StillImage" />
        <dc:title></dc:title>
      </cc:Work>
    </rdf:RDF>
  </metadata>
  <defs
     id="defs6914" />
  <path
     d="m 3.09375,7.40625 c -1.409686,0.050269 -2.84566626,1.8361678 -2.84375,2.75 0.001541,0.734849 -0.0733995,19.486171 0,20 0.15315063,1.072118 1.6248217,2.420607 3.15625,2.4375 1.2204634,0.01346 11.2752,-0.0607 12.40625,-0.0625 1.033055,0.03682 2.63421,-1.60726 2.6875,-2.46875 C 18.55138,29.231818 18.53425,17.065948 18.53125,10.375 18.530646,9.0165651 16.80856,7.554948 16,7.5 14.033351,7.3663529 3.5609652,7.3895901 3.09375,7.40625 z m 21.25,0 c -1.409686,0.050269 -2.84565,1.8361678 -2.84375,2.75 0.0015,0.734849 -0.0734,19.486171 0,20 0.15315,1.072118 1.624822,2.42061 3.15625,2.4375 1.220463,0.01346 11.2752,-0.0607 12.40625,-0.0625 1.033055,0.03682 2.63421,-1.60726 2.6875,-2.46875 C 39.80138,29.231818 39.78425,17.065948 39.78125,10.375 39.780646,9.0165651 38.05856,7.554948 37.25,7.5 35.283351,7.366353 24.810965,7.38959 24.34375,7.40625 z M 4.8125,12.0625 l 9.125,0 0,15.9375 -9.125,0 0,-15.9375 z m 21.25,0 9.125,0 0,15.9375 -9.125,0 0,-15.9375 z"
     id="right"
     style="fill:#000000;fill-opacity:1" />
</svg>
