<?xml version="1.0" encoding="UTF-8" standalone="no"?>
<!-- Created with Inkscape (http://www.inkscape.org/) -->

<svg
   xmlns:dc="http://purl.org/dc/elements/1.1/"
   xmlns:cc="http://creativecommons.org/ns#"
   xmlns:rdf="http://www.w3.org/1999/02/22-rdf-syntax-ns#"
   xmlns:svg="http://www.w3.org/2000/svg"
   xmlns="http://www.w3.org/2000/svg"
   version="1.1"
   width="40"
   height="40"
   id="svg7504">
  <metadata
     id="metadata7510">
    <rdf:RDF>
      <cc:Work
         rdf:about="">
        <dc:format>image/svg+xml</dc:format>
        <dc:type
           rdf:resource="http://purl.org/dc/dcmitype/StillImage" />
        <dc:title></dc:title>
      </cc:Work>
    </rdf:RDF>
  </metadata>
  <defs
     id="defs7508" />
  <g
     transform="matrix(0.09753814,0,0,0.09753814,0.21991764,28.807621)"
     id="g2985">
    <path
       d="M 26.364339,39.146789 C 13.614366,35.703759 1.969258,23.719609 0,10.676209 0,-57.706571 0,-126.08935 0,-194.47214 c 3.180528,-12.88111 16.626786,-25.02177 29.986361,-26.12637 44.515128,0 89.030249,0 133.545379,0 12.51085,4.65348 24.57869,15.37529 26.12637,29.02136 0,68.38279 0,136.765569 0,205.148349 -5.25316,14.20917 -18.7052,28.06116 -34.81132,26.14728 -42.82093,-0.24379 -85.702906,1.10005 -128.482451,-0.57169 z m 115.879241,-212.330769 -94.829051,0 -0.03477,164.7505193 94.806861,1.23888 z m 98.70006,-0.62646 c -23.14856,-1.75047 -31.38984,-40.79091 1.64077,-46.61985 2.16371,0.34695 141.11799,0.25134 144.31865,0.56312 24.64411,5.78114 24.71459,38.63721 1.3604,45.8434 -2.70442,0.52811 -143.71625,0.67769 -147.31982,0.21333 z"
       id="path7514"
       style="fill:#000000;fill-opacity:1" />
    <path
       d="M 26.364339,39.146789 C 13.614366,35.703759 1.969258,23.719609 0,10.676209 0,-57.706571 0,-126.08935 0,-194.47214 c 3.180528,-12.88111 16.626786,-25.02177 29.986361,-26.12637 44.515128,0 89.030249,0 133.545379,0 12.51085,4.65348 24.57869,15.37529 26.12637,29.02136 0,68.38279 0,136.765569 0,205.148349 -5.25316,14.20917 -18.7052,28.06116 -34.81132,26.14728 -42.82093,-0.24379 -85.702906,1.10005 -128.482451,-0.57169 z m 115.879241,-212.330769 -94.829051,0 -0.03477,164.7505193 94.806861,1.23888 z m 98.70006,70.17382 c -23.14856,-1.75048 -31.38984,-40.79092 1.64077,-46.61986 2.16371,0.34695 141.11799,0.25134 144.31865,0.56312 24.64411,5.78114 24.71459,38.63721 1.3604,45.8434 -2.70442,0.52811 -143.71625,0.67769 -147.31982,0.21334 z"
       id="path8026"
       style="fill:#000000;fill-opacity:1" />
    <path
       d="M 26.364339,39.146789 C 13.614366,35.703759 1.969258,23.719609 0,10.676209 0,-57.706571 0,-126.08935 0,-194.47214 c 3.180528,-12.88111 16.626786,-25.02177 29.986361,-26.12637 44.515128,0 89.030249,0 133.545379,0 12.51085,4.65348 24.57869,15.37529 26.12637,29.02136 0,68.38279 0,136.765569 0,205.148349 -5.25316,14.20917 -18.7052,28.06116 -34.81132,26.14728 -42.82093,-0.24379 -85.702906,1.10005 -128.482451,-0.57169 z m 115.879241,-212.330769 -94.829051,0 -0.03477,164.7505193 94.806861,1.23888 z m 98.70006,141.373819 c -23.14856,-1.75048 -31.38984,-40.79092 1.64077,-46.61986 2.16371,0.34695 141.11799,0.25134 144.31865,0.56312 24.64411,5.78114 24.71459,38.63721 1.3604,45.8434 -2.70442,0.52811 -143.71625,0.67769 -147.31982,0.21334 z"
       id="path8028"
       style="fill:#000000;fill-opacity:1" />
    <path
       d="M 26.364339,39.146789 C 13.614366,35.703759 1.969258,23.719609 0,10.676209 0,-57.706571 0,-126.08935 0,-194.47214 c 3.180528,-12.88111 16.626786,-25.02177 29.986361,-26.12637 44.515128,0 89.030249,0 133.545379,0 12.51085,4.65348 24.57869,15.37529 26.12637,29.02136 0,68.38279 0,136.765569 0,205.148349 -5.25316,14.20917 -18.7052,28.06116 -34.81132,26.14728 -42.82093,-0.24379 -85.702906,1.10005 -128.482451,-0.57169 z m 115.879241,-212.330769 -94.829051,0 -0.03477,164.7505193 94.806861,1.23888 z m 98.70006,212.273819 c -23.14856,-1.75048 -31.38984,-40.7909197 1.64077,-46.6198597 2.16371,0.34695 141.11799,0.25134 144.31865,0.56312 24.64411,5.78114 24.71459,38.6372097 1.3604,45.8433997 -2.70442,0.52811 -143.71625,0.67769 -147.31982,0.21334 z"
       id="path8030"
       style="fill:#000000;fill-opacity:1" />
  </g>
</svg>
