<?xml version="1.0" encoding="UTF-8" standalone="no"?>
<!-- Created with Inkscape (http://www.inkscape.org/) -->

<svg
   xmlns:dc="http://purl.org/dc/elements/1.1/"
   xmlns:cc="http://creativecommons.org/ns#"
   xmlns:rdf="http://www.w3.org/1999/02/22-rdf-syntax-ns#"
   xmlns:svg="http://www.w3.org/2000/svg"
   xmlns="http://www.w3.org/2000/svg"
   version="1.1"
   width="40"
   height="40"
   id="svg8086">
  <metadata
     id="metadata8092">
    <rdf:RDF>
      <cc:Work
         rdf:about="">
        <dc:format>image/svg+xml</dc:format>
        <dc:type
           rdf:resource="http://purl.org/dc/dcmitype/StillImage" />
        <dc:title></dc:title>
      </cc:Work>
    </rdf:RDF>
  </metadata>
  <defs
     id="defs8090" />
  <path
     d="M 7.4985837,28.879732 C 4.660525,28.350374 2.3196759,26.594105 1.0312707,24.027504 0.26182826,22.494714 0.0992855,21.790052 0.0992855,19.987121 c 0,-1.773345 0.16047576,-2.489845 0.8883942,-3.966542 0.9083084,-1.842646 2.215931,-3.158393 4.0391412,-4.064238 1.5281665,-0.759256 2.340311,-0.949504 4.0403812,-0.946478 1.5167279,0.0027 2.1601969,0.119393 3.4093989,0.618293 2.06179,0.823425 3.876002,2.554067 4.820613,4.598553 0.587704,1.272012 0.753657,2.101337 0.752478,3.760412 -8.1e-4,1.135821 -0.04162,1.624235 -0.178065,2.130997 -0.22603,0.839477 -0.644992,1.855569 -1.009086,2.447299 -0.156741,0.254734 -0.284982,0.483903 -0.284982,0.509261 0,0.02536 1.540098,0.0461 3.422441,0.0461 1.882342,0 3.422441,-0.02074 3.422441,-0.0461 0,-0.02536 -0.130032,-0.257434 -0.288958,-0.515722 -0.750534,-1.219774 -1.140911,-2.594744 -1.203548,-4.239097 -0.05535,-1.453259 0.133615,-2.579077 0.635118,-3.783741 0.903972,-2.17144 2.796229,-4.044469 4.958345,-4.907962 1.249203,-0.4989 1.892672,-0.615591 3.409399,-0.618293 1.700071,-0.0031 2.512215,0.187222 4.040381,0.946478 1.823211,0.905845 3.130833,2.221592 4.039141,4.064238 0.72792,1.476697 0.888395,2.193197 0.888395,3.966542 0,1.773347 -0.160474,2.489847 -0.888395,3.966544 -0.908508,1.843053 -2.216334,3.15888 -4.039141,4.063852 -0.57516,0.285552 -1.387989,0.616441 -1.806287,0.735311 l -0.760542,0.216125 -12.121146,0.01745 c -9.628615,0.01387 -12.2579895,-0.0081 -12.7866193,-0.106674 z m 3.0936523,-4.048123 c 1.483699,-0.428483 2.757977,-1.682895 3.335466,-3.283466 0.287609,-0.797135 0.287609,-2.324908 0,-3.122043 -0.57458,-1.592509 -1.818679,-2.822625 -3.332556,-3.295105 -0.7192108,-0.224465 -1.9676035,-0.266693 -2.7162377,-0.09188 -0.8574709,0.200228 -1.6671144,0.670944 -2.3767486,1.381809 -1.0402334,1.04204 -1.4712941,2.086868 -1.4712941,3.566198 0,1.347959 0.3904674,2.401397 1.2458182,3.361079 1.3521145,1.517039 3.3085449,2.063019 5.3155522,1.483409 z m 21.522972,0.09033 c 0.81565,-0.159865 1.660328,-0.645062 2.382633,-1.368621 1.040233,-1.042039 1.471294,-2.086867 1.471294,-3.566198 0,-1.479331 -0.431061,-2.524159 -1.471294,-3.566199 -1.06122,-1.063062 -2.12632,-1.496324 -3.660111,-1.48886 -2.16159,0.01052 -3.99665,1.356249 -4.764525,3.494037 -0.295449,0.822536 -0.296924,2.23634 -0.0033,3.100211 0.508065,1.494445 1.723876,2.752773 3.15472,3.265042 0.860392,0.308037 1.774457,0.349333 2.890515,0.130588 z"
     id="path8096"
     style="fill:#000000;fill-opacity:1" />
</svg>
