<?xml version="1.0" encoding="UTF-8" standalone="no"?>
<!-- Created with Inkscape (http://www.inkscape.org/) -->

<svg
   xmlns:dc="http://purl.org/dc/elements/1.1/"
   xmlns:cc="http://creativecommons.org/ns#"
   xmlns:rdf="http://www.w3.org/1999/02/22-rdf-syntax-ns#"
   xmlns:svg="http://www.w3.org/2000/svg"
   xmlns="http://www.w3.org/2000/svg"
   version="1.1"
   width="40"
   height="40"
   id="svg2"
   xml:space="preserve"><metadata
     id="metadata8"><rdf:RDF><cc:Work
         rdf:about=""><dc:format>image/svg+xml</dc:format><dc:type
           rdf:resource="http://purl.org/dc/dcmitype/StillImage" /><dc:title></dc:title></cc:Work></rdf:RDF></metadata><defs
     id="defs6"><clipPath
       id="clipPath16"><path
         d="M 0,55 55,55 55,0 0,0 0,55 z"
         id="path18" /></clipPath></defs><path
     d="M 25.15625,0.09375 C 23.957346,0.04375133 22.849476,1.316977 23.25,2.53125 23.656869,3.8580548 25.250737,4.1054292 26.15625,5 c 5.388609,4.0059553 8.159939,11.159748 6.875,17.75 -0.06726,1.297848 -1.019513,2.51285 -0.625,3.8125 0.439219,1.358105 2.452031,1.665612 3.28125,0.5 0.647668,-1.146399 0.84967,-2.472331 1.125,-3.75 0.05392,-0.304206 0.08528,-0.631114 0.125,-0.9375 C 37.962423,15.18291 35.108459,7.6027486 29.59375,2.875 28.388344,1.8521517 27.116579,0.87237917 25.6875,0.1875 25.516811,0.12286232 25.327522,0.10089267 25.15625,0.09375 z M 12.21875,0.25 c -0.295388,0.0268891 -0.590535,0.0903272 -0.875,0.1875 l -5.78125,2 C 4.2020807,2.9045564 3.2276853,4.0758437 3.03125,5.5 2.9309425,6.217825 0.74010952,23.273594 14.84375,38.6875 c 0.717825,0.783652 1.721753,1.21875 2.78125,1.21875 0.430486,0 0.868526,-0.07352 1.28125,-0.21875 l 5.625,-2 c 1.103382,-0.391826 1.937392,-1.237234 2.3125,-2.34375 0.374063,-1.106516 0.23321,-2.300118 -0.40625,-3.28125 L 22.96875,26.75 c -0.700062,-1.080394 -1.866882,-1.71875 -3.15625,-1.71875 -0.5193,0 -1.047476,0.102481 -1.53125,0.3125 L 18.0625,25.4375 c -1.532823,-2.259009 -3.941572,-6.558046 -4.3125,-11.75 1.648803,-0.477505 2.753231,-1.985313 2.71875,-3.71875 l -0.125,-6 C 16.316583,2.7619264 15.738446,1.6271134 14.75,0.9375 14.0118,0.42264085 13.104913,0.16933286 12.21875,0.25 z M 12.25,4.5 12.34375,9.78125 9.65625,10.4375 9.625,10.6875 c -0.7972348,11.150841 6.952885,19.57266 7.03125,19.65625 L 16.8125,30.5 l 2.875,-1.25 3.0625,4.6875 -5.03125,1.78125 C 5.8793403,22.651619 6.9067185,8.1182256 7.09375,6.25 L 12.25,4.5 z m 11.4375,1.40625 c -1.001309,0.1536021 -1.857061,1.1498373 -1.625,2.21875 0.204829,1.2376881 1.585874,1.6258243 2.3125,2.5 2.879875,2.70388 4.13392,6.892199 3.34375,10.75 -0.452367,1.106869 0.08847,2.575479 1.34375,2.8125 1.291603,0.334437 2.408486,-0.876068 2.40625,-2.125 0.188797,-0.987938 0.281413,-1.994242 0.28125,-3 0.06616,-5.16265 -2.681109,-10.232838 -7.03125,-13 C 24.392507,5.8993905 24.02127,5.8550493 23.6875,5.90625 z m -1.15625,5.4375 c -1.189041,-0.142394 -2.390813,1.042783 -2.09375,2.28125 0.291601,1.256647 1.79358,1.743571 2.09375,3.03125 0.631829,1.158744 -0.137612,2.523624 0.46875,3.65625 0.688638,1.307781 2.826629,1.193569 3.375,-0.1875 0.358492,-1.084314 0.292732,-2.289433 0.125,-3.40625 C 26.105631,14.628071 24.887011,12.620118 23.0625,11.5 22.89757,11.42253 22.701113,11.364092 22.53125,11.34375 z"
     id="path22"
     style="fill:#000000;fill-opacity:1;fill-rule:nonzero;stroke:none" /></svg>