<?xml version="1.0" encoding="UTF-8" standalone="no"?>
<!-- Created with Inkscape (http://www.inkscape.org/) -->

<svg
   xmlns:dc="http://purl.org/dc/elements/1.1/"
   xmlns:cc="http://creativecommons.org/ns#"
   xmlns:rdf="http://www.w3.org/1999/02/22-rdf-syntax-ns#"
   xmlns:svg="http://www.w3.org/2000/svg"
   xmlns="http://www.w3.org/2000/svg"
   version="1.1"
   width="40"
   height="40"
   id="svg2"
   xml:space="preserve"><metadata
     id="metadata8"><rdf:RDF><cc:Work
         rdf:about=""><dc:format>image/svg+xml</dc:format><dc:type
           rdf:resource="http://purl.org/dc/dcmitype/StillImage" /><dc:title></dc:title></cc:Work></rdf:RDF></metadata><defs
     id="defs6"><clipPath
       id="clipPath16"><path
         d="M 0,55 55,55 55,0 0,0 0,55 z"
         id="path18" /></clipPath></defs><g
     transform="matrix(1.25,0,0,-1.25,-14.33846,51.027873)"
     id="g10"><g
       id="g12"><g
         clip-path="url(#clipPath16)"
         id="g14"><g
           transform="translate(24.6748,17.9863)"
           id="g20" /><g
           transform="translate(44.1123,25.5947)"
           id="g24" /><g
           transform="translate(39.1436,28.7705)"
           id="g28" /><g
           transform="translate(34.1113,31.0283)"
           id="g32"><g
             transform="matrix(0.83589513,0,0,0.83589513,-1.4400596,-3.5734328)"
             id="g3001"><path
               d="M 0,0 0.153,-0.164 2.912,1.041 5.844,-3.456 1.039,-5.165 C -10.292,7.341 -9.324,21.253 -9.145,23.041 l 4.937,1.694 0.104,-5.059 -2.583,-0.634 -0.017,-0.23 C -7.467,8.14 -0.075,0.08 0,0 M 9.367,-1.64 6.069,3.418 C 5.399,4.452 4.262,5.067 3.028,5.067 2.531,5.067 2.043,4.965 1.58,4.764 L 1.373,4.674 c -1.467,2.162 -3.784,6.302 -4.139,11.271 1.578,0.457 2.646,1.898 2.613,3.557 l -0.118,5.748 c -0.026,1.155 -0.604,2.24 -1.55,2.9 -0.942,0.657 -2.167,0.831 -3.256,0.459 l -5.538,-1.9 c -1.302,-0.447 -2.228,-1.573 -2.416,-2.936 -0.096,-0.687 -2.198,-17.005 11.3,-31.757 0.687,-0.75 1.663,-1.18 2.677,-1.18 0.412,0 0.821,0.071 1.216,0.21 l 5.38,1.914 c 1.056,0.375 1.865,1.198 2.224,2.257 0.358,1.059 0.213,2.204 -0.399,3.143"
               transform="translate(-9.4365,-13.042)"
               id="path22"
               style="fill:#373535;fill-opacity:1;fill-rule:nonzero;stroke:none" /><path
               d="m 0,0 c 0.98091021,6.883246 -1.7609081,14.149915 -7.0388035,18.674644 -1.1536438,0.978925 -2.3795302,1.908157 -3.7472415,2.563626 -1.306876,0.494896 -2.75879,-0.892372 -2.320705,-2.22052 0.389398,-1.269829 1.910517,-1.51058 2.777145,-2.366736 5.1572107,-3.833931 7.8114907,-10.6888861 6.58173,-16.996139 -0.064373,-1.2421156 -0.9858749,-2.4124139 -0.6083027,-3.6562542 0.4203573,-1.2997856 2.3453128,-1.6003858 3.1389238,-0.4848278 0.61985552,1.0971703 0.8189843,2.3867355 1.08249023,3.60953903 C -0.08316016,-0.58552557 -0.03801839,-0.29322912 0,0 z"
               transform="translate(10.001,-5.4336)"
               id="path26"
               style="fill:#373535;fill-opacity:1;fill-rule:nonzero;stroke:none" /><path
               d="M 0,0 C 0.06331567,4.9409544 -2.5823258,9.8098689 -6.7456621,12.458203 -7.994597,13.082624 -9.5778781,11.85064 -9.28175,10.486625 -9.0857166,9.3020858 -7.7735001,8.9256429 -7.0780762,8.0890059 -4.3218694,5.5012367 -3.1029082,1.4733982 -3.8591465,-2.2187402 -4.2920876,-3.2780787 -3.7853747,-4.6821571 -2.584,-4.909 c 1.2361388,-0.3200753 2.31589772,0.8432484 2.31375781,2.0385488 C -0.08955317,-1.9249375 1.5629879e-4,-0.9625684 0,0 z"
               transform="translate(5.0323,-2.2578)"
               id="path30"
               style="fill:#373535;fill-opacity:1;fill-rule:nonzero;stroke:none" /><path
               d="M 0,0 C -0.377434,2.0009006 -1.5563903,3.9179025 -3.3025535,4.9899199 -4.5653358,5.5830688 -6.1141751,4.3157943 -5.7892522,2.9611831 -5.5101735,1.7584987 -4.0782796,1.2873838 -3.791,0.055 -3.1863035,-1.053985 -3.9377394,-2.3529021 -3.3574155,-3.4368909 -2.698349,-4.6885127 -0.65094725,-4.5875444 -0.126125,-3.2657813 0.21697244,-2.2280302 0.16052963,-1.0688585 0,0 z"
               id="path34"
               style="fill:#373535;fill-opacity:1;fill-rule:nonzero;stroke:none" /></g></g></g></g></g></svg>