<?xml version="1.0" encoding="UTF-8" standalone="no"?>
<!-- Created with Inkscape (http://www.inkscape.org/) -->

<svg
   xmlns:dc="http://purl.org/dc/elements/1.1/"
   xmlns:cc="http://creativecommons.org/ns#"
   xmlns:rdf="http://www.w3.org/1999/02/22-rdf-syntax-ns#"
   xmlns:svg="http://www.w3.org/2000/svg"
   xmlns="http://www.w3.org/2000/svg"
   version="1.1"
   width="40"
   height="40"
   id="svg8660">
  <metadata
     id="metadata8666">
    <rdf:RDF>
      <cc:Work
         rdf:about="">
        <dc:format>image/svg+xml</dc:format>
        <dc:type
           rdf:resource="http://purl.org/dc/dcmitype/StillImage" />
        <dc:title></dc:title>
      </cc:Work>
    </rdf:RDF>
  </metadata>
  <defs
     id="defs8664" />
  <path
     d="m 18.783161,38.099651 c -0.18521,-0.09443 -2.71332,-2.192554 -5.618024,-4.662508 l -5.2812785,-4.490827 -3.182658,-0.04734 c -3.138433,-0.04668 -3.188132,-0.05047 -3.5765972,-0.27305 -0.44236246,-0.253458 -0.70399607,-0.567854 -0.86779424,-1.042792 -0.15835904,-0.459169 -0.15835904,-14.707151 0,-15.166319 0.16379817,-0.474939 0.42543178,-0.789334 0.86779424,-1.042793 0.3884751,-0.222584 0.4381004,-0.226371 3.5777468,-0.27305 l 3.1838075,-0.04733 5.2797574,-4.4906376 c 2.903865,-2.4698494 5.431458,-4.5679785 5.616872,-4.6625082 0.866859,-0.4419497 2.006451,-0.017657 2.437197,0.9074155 l 0.224793,0.48277 0,16.7092963 0,16.709296 -0.224793,0.48277 c -0.43066,0.924887 -1.570338,1.349366 -2.436823,0.907606 z m -1.146326,-24.23707 -0.02435,-6.1373994 -3.976149,3.3970614 c -2.186883,1.868384 -4.1465569,3.479033 -4.3548315,3.579223 -0.3437069,0.165338 -0.6081968,0.182354 -2.8637744,0.184242 l -2.4850936,0.0021 0,5.112193 0,5.112193 2.4850936,0.0021 c 2.2547666,0.0019 2.5201912,0.01895 2.8637744,0.184093 0.2082746,0.100109 2.1679485,1.711422 4.3548315,3.580699 l 3.976149,3.398685 0.02435,-6.138874 c 0.01339,-3.376382 0.01339,-8.900705 0,-12.276274 z m 13.277788,22.864161 c -0.449688,-0.143206 -1.099354,-0.813146 -1.22406,-1.262259 -0.24993,-0.900091 -0.06252,-1.523269 0.693287,-2.305342 3.681068,-3.808988 5.625635,-8.900852 5.423139,-14.200534 C 35.625285,14.203094 33.94351,10.12893 30.662697,6.4963586 29.789206,5.5292146 29.587788,5.1636698 29.589192,4.5481041 c 0.0031,-1.3515034 1.307846,-2.3104922 2.614862,-1.9218977 0.414593,0.1232639 0.615577,0.2798758 1.372718,1.0696558 3.235666,3.3751483 5.355545,7.7834798 6.110374,12.7066478 0.235509,1.536044 0.232523,5.004887 -0.0057,6.579581 -0.718056,4.747223 -2.66969,8.88811 -5.876089,12.467619 -1.161074,1.296181 -1.860458,1.605141 -2.890772,1.277032 z m -4.47618,-5.397278 c -0.838446,-0.260801 -1.388434,-1.022143 -1.392268,-1.927302 -0.0028,-0.655974 0.07581,-0.832193 0.786656,-1.763836 1.200175,-1.572974 1.956519,-3.106898 2.459262,-4.98758 0.27689,-1.035802 0.291196,-1.178418 0.294385,-2.934777 0.0031,-1.691009 -0.01774,-1.929564 -0.247809,-2.840108 -0.478702,-1.894592 -1.237824,-3.44639 -2.546999,-5.206571 -0.689596,-0.927158 -0.799116,-1.22932 -0.72503,-2.0003414 0.0593,-0.617168 0.457259,-1.196231 1.016486,-1.4790815 0.550873,-0.2786241 1.375575,-0.2890395 1.895221,-0.023935 0.664258,0.3388785 2.091,2.3091359 2.982316,4.1184229 2.714228,5.509623 2.266252,11.668858 -1.22908,16.898636 -0.924462,1.383199 -1.478369,1.955498 -2.059756,2.128151 -0.56304,0.167205 -0.746003,0.169924 -1.233384,0.01832 z"
     id="path8670"
     style="fill:#000000;fill-opacity:1" />
</svg>
