<?xml version="1.0" encoding="UTF-8" standalone="no"?>
<!-- Created with Inkscape (http://www.inkscape.org/) -->

<svg
   xmlns:dc="http://purl.org/dc/elements/1.1/"
   xmlns:cc="http://creativecommons.org/ns#"
   xmlns:rdf="http://www.w3.org/1999/02/22-rdf-syntax-ns#"
   xmlns:svg="http://www.w3.org/2000/svg"
   xmlns="http://www.w3.org/2000/svg"
   version="1.1"
   width="40"
   height="40"
   id="svg2"
   xml:space="preserve"><metadata
     id="metadata8"><rdf:RDF><cc:Work
         rdf:about=""><dc:format>image/svg+xml</dc:format><dc:type
           rdf:resource="http://purl.org/dc/dcmitype/StillImage" /><dc:title></dc:title></cc:Work></rdf:RDF></metadata><defs
     id="defs6"><clipPath
       id="clipPath16"><path
         d="M 0,55 55,55 55,0 0,0 0,55 z"
         id="path18" /></clipPath></defs><path
     d="m 34.874243,17.776378 c -0.925541,2.442079 -2.747075,4.382867 -5.130054,5.454047 -0.0306,0.01583 -0.07176,0.02427 -0.105535,0.03483 L 27.378096,14.201909 C 27.086819,13.016752 25.8795,12.293837 24.698563,12.58828 l -8.736183,2.176131 c -0.06226,-1.314966 0.134029,-2.64154 0.613157,-3.910071 0.927653,-2.4441891 2.747075,-4.3807556 5.127944,-5.4540461 1.273807,-0.5772763 2.627821,-0.869608 4.01455,-0.869608 3.840416,0 7.345232,2.2616141 8.924035,5.7632641 1.075402,2.381924 1.158774,5.038239 0.232177,7.482428 M 26.836702,30.345592 8.1749545,34.996517 4.9550832,22.073762 l 7.8000888,-1.940788 4.453575,-1.109173 6.410194,-1.597799 0.597327,2.395644 -5.410777,1.307578 -0.786235,0.189963 c -0.519233,0.126642 -0.9667,0.458021 -1.240037,0.918154 -0.272279,0.458022 -0.34721,1.008914 -0.206847,1.528146 l 0.446413,1.642124 0.60366,2.217289 c 0.238508,0.87594 1.037408,1.454272 1.909127,1.454272 0.150915,0 0.311328,-0.01373 0.46752,-0.05276 l 3.822476,-0.925541 2.320714,-0.561446 0.186796,0.760907 0.507624,2.045268 z M 38.684055,8.4703058 C 36.386559,3.3866869 31.298719,0.099273 25.718031,0.099273 c -2.020994,0 -3.985,0.423195 -5.838194,1.2611427 -3.460491,1.560862 -6.105197,4.3733687 -7.446546,7.9235645 -0.807343,2.1307508 -1.078568,4.3702028 -0.834781,6.5695508 l -9.8664642,2.456854 c -0.5698888,0.141417 -1.0616813,0.506568 -1.3635113,1.00997 -0.30183,0.504457 -0.39259,1.106006 -0.2490625,1.67695 L 4.4136895,38.22061 c 0.13825,0.569889 0.5034013,1.061682 1.0099688,1.363512 0.346155,0.203682 0.7398,0.316605 1.1387225,0.316605 0.180465,0 0.3577637,-0.02428 0.5361175,-0.0686 L 30.059739,34.104744 c 1.190434,-0.296552 1.911238,-1.499651 1.614684,-2.682699 l -0.956146,-3.838306 c 0.292332,-0.09709 0.583608,-0.194184 0.848501,-0.315549 3.462602,-1.558752 6.107308,-4.374424 7.451823,-7.923565 1.345571,-3.550196 1.224206,-7.41172 -0.334546,-10.8743218"
     id="path22"
     style="fill:#000000;fill-opacity:1;fill-rule:nonzero;stroke:none" /></svg>