<?xml version="1.0" encoding="UTF-8" standalone="no"?>
<!-- Created with Inkscape (http://www.inkscape.org/) -->

<svg
   xmlns:dc="http://purl.org/dc/elements/1.1/"
   xmlns:cc="http://creativecommons.org/ns#"
   xmlns:rdf="http://www.w3.org/1999/02/22-rdf-syntax-ns#"
   xmlns:svg="http://www.w3.org/2000/svg"
   xmlns="http://www.w3.org/2000/svg"
   version="1.1"
   width="40"
   height="40"
   id="svg2"
   xml:space="preserve"><metadata
     id="metadata8"><rdf:RDF><cc:Work
         rdf:about=""><dc:format>image/svg+xml</dc:format><dc:type
           rdf:resource="http://purl.org/dc/dcmitype/StillImage" /><dc:title></dc:title></cc:Work></rdf:RDF></metadata><defs
     id="defs6"><clipPath
       id="clipPath16"><path
         d="M 0,55 55,55 55,0 0,0 0,55 z"
         id="path18" /></clipPath></defs><g
     transform="matrix(1.25,0,0,-1.25,-10.419958,50.803623)"
     id="g10"><g
       id="g12"><g
         clip-path="url(#clipPath16)"
         id="g14"><g
           transform="translate(41.3311,29.6069)"
           id="g20"><path
             d="m -5.095739,-3.1851044 c -0.7404332,-1.9536631 -2.1976599,-3.5062934 -4.1040434,-4.3632373 -0.024484,-0.012664 -0.057411,-0.019418 -0.084428,-0.027861 l -1.8084466,7.25067367 c -0.233021,0.94812606 -1.198877,1.52645763 -2.143626,1.2909036 l -6.988947,-1.74090465 c -0.04981,1.05197245 0.107224,2.11323198 0.490526,3.12805608 0.742122,1.9553517 2.19766,3.5046049 4.102355,4.3632373 1.019046,0.461821 2.102257,0.6956864 3.21164,0.6956864 3.0723334,0 5.8761861,-1.8092913 7.1392285,-4.6106112 0.860321,-1.90553915 0.927019,-4.030591 0.1857415,-5.9859427 m -6.430033,-10.0553708 -14.929398,-3.72074 -2.575897,10.338204 6.240071,1.5526303 3.56286,0.8873379 5.128155,1.2782394 0.477862,-1.9165148 -4.328622,-1.0460625 -0.628988,-0.1519703 c -0.415386,-0.1013136 -0.77336,-0.3664174 -0.992029,-0.7345233 -0.217824,-0.3664174 -0.277768,-0.8071314 -0.165478,-1.222517 l 0.35713,-1.3136991 0.482928,-1.7738316 c 0.190807,-0.700752 0.829927,-1.163417 1.527302,-1.163417 0.120732,0 0.249062,0.01098 0.374016,0.04221 l 3.057981,0.740433 1.856571,0.449157 0.149437,-0.608726 0.406099,-1.636214 z M -2.0478894,4.2597538 C -3.8858862,8.3266489 -7.9561585,10.95658 -12.420709,10.95658 c -1.616795,0 -3.188,-0.338556 -4.670555,-1.0089142 -2.768393,-1.2486896 -4.884158,-3.4986949 -5.957237,-6.3388516 -0.645874,-1.7046007 -0.862854,-3.49616209 -0.667825,-5.2556409 l -7.893171,-1.965483 c -0.455911,-0.1131335 -0.849345,-0.4052543 -1.090809,-0.8079757 -0.241464,-0.4035656 -0.314072,-0.884805 -0.19925,-1.3415603 l 3.435374,-13.7786443 c 0.1106,-0.455911 0.402721,-0.849345 0.807975,-1.090809 0.276924,-0.162946 0.59184,-0.253284 0.910978,-0.253284 0.144372,0 0.286211,0.01942 0.428894,0.05488 l 18.3689922,4.581906 c 0.9523475,0.237242 1.5289905,1.199721 1.2917479,2.146159 l -0.7649174,3.070645 c 0.2338655,0.07767 0.4668867,0.155347 0.6788009,0.252439 2.7700815,1.2470016 4.8858463,3.4995397 5.9614586,6.3388522 1.07645656,2.8401568 0.9793644,5.929376 -0.2676366,8.6994576"
             id="path22"
             style="fill:#373535;fill-opacity:1;fill-rule:nonzero;stroke:none" /></g></g></g></g></svg>