<?xml version="1.0" encoding="UTF-8" standalone="no"?>
<!-- Created with Inkscape (http://www.inkscape.org/) -->

<svg
   xmlns:dc="http://purl.org/dc/elements/1.1/"
   xmlns:cc="http://creativecommons.org/ns#"
   xmlns:rdf="http://www.w3.org/1999/02/22-rdf-syntax-ns#"
   xmlns:svg="http://www.w3.org/2000/svg"
   xmlns="http://www.w3.org/2000/svg"
   version="1.1"
   width="40"
   height="40"
   id="svg2"
   xml:space="preserve"><metadata
     id="metadata8"><rdf:RDF><cc:Work
         rdf:about=""><dc:format>image/svg+xml</dc:format><dc:type
           rdf:resource="http://purl.org/dc/dcmitype/StillImage" /><dc:title></dc:title></cc:Work></rdf:RDF></metadata><defs
     id="defs6"><clipPath
       id="clipPath16"><path
         d="M 0,55 55,55 55,0 0,0 0,55 z"
         id="path18" /></clipPath></defs><g
     transform="matrix(1.25,0,0,-1.25,-8.9118026,48.501126)"
     id="g10"><g
       id="g12"><g
         clip-path="url(#clipPath16)"
         id="g14"><g
           transform="translate(27.4253,34.0542)"
           id="g20" /><g
           transform="translate(30.2158,14.8438)"
           id="g24" /><g
           transform="translate(13.0806,11.3359)"
           id="g28"><g
             transform="matrix(0.78177967,0,0,0.78177967,-1.1555402,-0.88008197)"
             id="g2995"><path
               d="m 0,0 c -1.343,0 -2.436,-1.104 -2.436,-2.46 0,-0.042 10e-4,-0.085 0.006,-0.128 l 0.981,-10.935 c 0.065,-0.743 0.689,-1.314 1.437,-1.314 0.749,0 1.372,0.571 1.438,1.314 L 2.404,-2.588 C 2.409,-2.545 2.411,-2.502 2.411,-2.46 2.411,-1.104 1.331,0 0,0"
               transform="translate(14.3447,22.7183)"
               id="path22"
               style="fill:#373535;fill-opacity:1;fill-rule:nonzero;stroke:none" /><path
               d="m 0,0 c 0,-1.549 -1.255,-2.802 -2.804,-2.802 -1.548,0 -2.803,1.253 -2.803,2.802 0,1.548 1.255,2.805 2.803,2.805 C -1.255,2.805 0,1.548 0,0"
               transform="translate(17.1352,3.5079)"
               id="path26"
               style="fill:#373535;fill-opacity:1;fill-rule:nonzero;stroke:none" /><path
               d="M 0,0 28.701,0 14.509,28.769 0,0 z m 32.347,-4.535 -36.031,0 c -0.787,0 -1.518,0.408 -1.931,1.078 -0.412,0.671 -0.448,1.508 -0.093,2.211 l 18.215,36.117 c 0.387,0.768 1.159,1.242 2.035,1.246 0.859,-0.003 1.643,-0.493 2.023,-1.264 L 34.38,-1.265 c 0.348,-0.703 0.307,-1.535 -0.107,-2.2 -0.414,-0.666 -1.143,-1.07 -1.926,-1.07"
               id="path30"
               style="fill:#373535;fill-opacity:1;fill-rule:nonzero;stroke:none" /></g></g></g></g></g></svg>