<?xml version="1.0" encoding="UTF-8" standalone="no"?>
<!-- Created with Inkscape (http://www.inkscape.org/) -->

<svg
   xmlns:dc="http://purl.org/dc/elements/1.1/"
   xmlns:cc="http://creativecommons.org/ns#"
   xmlns:rdf="http://www.w3.org/1999/02/22-rdf-syntax-ns#"
   xmlns:svg="http://www.w3.org/2000/svg"
   xmlns="http://www.w3.org/2000/svg"
   version="1.1"
   width="40"
   height="40"
   id="svg2"
   xml:space="preserve"><metadata
     id="metadata8"><rdf:RDF><cc:Work
         rdf:about=""><dc:format>image/svg+xml</dc:format><dc:type
           rdf:resource="http://purl.org/dc/dcmitype/StillImage" /><dc:title></dc:title></cc:Work></rdf:RDF></metadata><defs
     id="defs6"><clipPath
       id="clipPath16"><path
         d="M 0,55 55,55 55,0 0,0 0,55 z"
         id="path18" /></clipPath></defs><path
     d="m 20.21875,0.125 c -0.856049,0.003909 -1.621814,0.46824154 -2,1.21875 L 0.40625,36.65625 C 0.05933527,37.343239 0.09738347,38.156783 0.5,38.8125 0.90359375,39.467241 1.6371743,39.875 2.40625,39.875 l 35.1875,0 c 0.765167,0 1.501679,-0.411668 1.90625,-1.0625 0.404571,-0.649854 0.433824,-1.469261 0.09375,-2.15625 L 22.1875,1.375 C 21.816155,0.62155981 21.058186,0.127932 20.21875,0.125 z M 20.1875,7.3125 34.03125,35.4375 6,35.4375 20.1875,7.3125 z M 20,13.21875 c -1.312413,0 -2.375,1.081134 -2.375,2.40625 0,0.04104 -0.0049,0.08297 0,0.125 l 0.96875,10.6875 c 0.06352,0.726078 0.675286,1.28125 1.40625,1.28125 0.731942,0 1.341753,-0.555172 1.40625,-1.28125 L 22.375,15.75 c 0.0049,-0.04202 0,-0.08395 0,-0.125 0,-1.325116 -1.074314,-2.40625 -2.375,-2.40625 z M 20,29.25 c -1.512743,0 -2.75,1.237256 -2.75,2.75 0,1.513721 1.237257,2.75 2.75,2.75 1.513721,0 2.75,-1.236279 2.75,-2.75 0,-1.512744 -1.236279,-2.75 -2.75,-2.75 z"
     id="path22"
     style="fill:#000000;fill-opacity:1;fill-rule:nonzero;stroke:none" /></svg>