<?xml version="1.0" encoding="UTF-8" standalone="no"?>
<!-- Created with Inkscape (http://www.inkscape.org/) -->

<svg
   xmlns:dc="http://purl.org/dc/elements/1.1/"
   xmlns:cc="http://creativecommons.org/ns#"
   xmlns:rdf="http://www.w3.org/1999/02/22-rdf-syntax-ns#"
   xmlns:svg="http://www.w3.org/2000/svg"
   xmlns="http://www.w3.org/2000/svg"
   version="1.1"
   width="40"
   height="40"
   id="svg2"
   xml:space="preserve"><metadata
     id="metadata8"><rdf:RDF><cc:Work
         rdf:about=""><dc:format>image/svg+xml</dc:format><dc:type
           rdf:resource="http://purl.org/dc/dcmitype/StillImage" /><dc:title></dc:title></cc:Work></rdf:RDF></metadata><defs
     id="defs6"><clipPath
       id="clipPath16"><path
         d="M 0,55 55,55 55,0 0,0 0,55 z"
         id="path18" /></clipPath></defs><g
     transform="matrix(1.25,0,0,-1.25,-9.85375,50.265876)"
     id="g10"><g
       id="g12"><g
         clip-path="url(#clipPath16)"
         id="g14"><g
           transform="translate(41.168,27.8237)"
           id="g20" /><g
           transform="translate(27.5308,37.9438)"
           id="g24" /><g
           transform="translate(33.2568,37.9438)"
           id="g28"><g
             transform="matrix(0.81723088,0,0,0.81723088,-4.5347308,-5.3340723)"
             id="g2996"><path
               d="m 0,0 c -0.629,-1.22 -1.549,-2.342 -2.734,-3.334 -1.22,-1.017 -2.662,-1.851 -4.293,-2.48 -1.698,-0.657 -3.526,-1.057 -5.434,-1.184 -0.477,-0.035 -0.931,-0.214 -1.299,-0.505 l -6.833,-5.459 -1.094,6.539 c -0.13,0.783 -0.647,1.445 -1.372,1.756 -1.095,0.482 -2.02,1.021 -2.756,1.605 -0.679,0.537 -1.21,1.127 -1.622,1.793 -0.399,0.64 -0.689,1.351 -0.883,2.178 -0.198,0.839 -0.293,1.783 -0.293,2.88 0,1.382 0.356,2.732 1.056,4.005 0.706,1.286 1.731,2.45 3.042,3.463 1.361,1.047 2.955,1.872 4.74,2.452 1.877,0.612 3.876,0.921 5.942,0.921 2.062,0 4.062,-0.309 5.938,-0.921 1.786,-0.58 3.38,-1.405 4.741,-2.452 1.31,-1.013 2.34,-2.178 3.046,-3.463 C 0.592,6.518 0.945,5.171 0.945,3.789 0.945,2.486 0.628,1.21 0,0 m -0.304,14.959 c -1.783,1.374 -3.852,2.448 -6.144,3.197 -4.687,1.527 -10.088,1.527 -14.771,0 -2.297,-0.75 -4.364,-1.823 -6.145,-3.197 -1.83,-1.408 -3.273,-3.063 -4.29,-4.915 -1.081,-1.971 -1.631,-4.076 -1.631,-6.255 0,-1.462 0.136,-2.753 0.418,-3.951 0.311,-1.31 0.799,-2.516 1.465,-3.58 0.693,-1.109 1.589,-2.107 2.673,-2.972 0.777,-0.623 1.645,-1.174 2.633,-1.68 l 1.554,-9.264 c 0.136,-0.816 0.694,-1.502 1.469,-1.795 0.273,-0.109 0.554,-0.158 0.834,-0.158 0.524,0 1.038,0.176 1.461,0.518 l 9.381,7.492 c 2.108,0.209 4.142,0.685 6.055,1.422 2.108,0.818 3.995,1.916 5.606,3.26 1.664,1.39 2.97,2.999 3.888,4.769 0.973,1.884 1.468,3.881 1.468,5.939 0,2.178 -0.55,4.284 -1.635,6.255 -1.018,1.855 -2.463,3.509 -4.289,4.915"
               transform="translate(7.9112,-10.1201)"
               id="path22"
               style="fill:#3b393c;fill-opacity:1;fill-rule:nonzero;stroke:none" /><path
               d="m 0,0 c -0.959,0 -1.74,-0.787 -1.74,-1.754 l 0,-2.684 -3.167,0 0,2.684 c 0,0.983 -0.765,1.754 -1.74,1.754 -0.96,0 -1.742,-0.787 -1.742,-1.754 l 0,-8.805 c 0,-0.967 0.782,-1.754 1.742,-1.754 0.975,0 1.74,0.77 1.74,1.754 l 0,2.684 3.167,0 0,-2.684 c 0,-0.95 0.797,-1.754 1.74,-1.754 0.977,0 1.741,0.77 1.741,1.754 l 0,8.805 C 1.741,-0.771 0.977,0 0,0"
               transform="translate(-5.726,0)"
               id="path26"
               style="fill:#3b393c;fill-opacity:1;fill-rule:nonzero;stroke:none" /><path
               d="m 0,0 c -0.958,0 -1.74,-0.787 -1.74,-1.754 l 0,-8.805 c 0,-0.967 0.782,-1.754 1.74,-1.754 0.977,0 1.742,0.77 1.742,1.754 l 0,8.805 C 1.742,-0.771 0.977,0 0,0"
               id="path30"
               style="fill:#3b393c;fill-opacity:1;fill-rule:nonzero;stroke:none" /></g></g></g></g></g></svg>