<?xml version="1.0" encoding="UTF-8" standalone="no"?>
<!-- Created with Inkscape (http://www.inkscape.org/) -->

<svg
   xmlns:dc="http://purl.org/dc/elements/1.1/"
   xmlns:cc="http://creativecommons.org/ns#"
   xmlns:rdf="http://www.w3.org/1999/02/22-rdf-syntax-ns#"
   xmlns:svg="http://www.w3.org/2000/svg"
   xmlns="http://www.w3.org/2000/svg"
   version="1.1"
   width="40"
   height="40"
   id="svg2"
   xml:space="preserve"><metadata
     id="metadata8"><rdf:RDF><cc:Work
         rdf:about=""><dc:format>image/svg+xml</dc:format><dc:type
           rdf:resource="http://purl.org/dc/dcmitype/StillImage" /><dc:title></dc:title></cc:Work></rdf:RDF></metadata><defs
     id="defs6"><clipPath
       id="clipPath16"><path
         d="M 0,55 55,55 55,0 0,0 0,55 z"
         id="path18" /></clipPath></defs><path
     d="m 20,0.125 c -2.57581,0 -5.139317,0.37630527 -7.53125,1.15625 C 10.122276,2.0474039 8.0068603,3.1589059 6.1875,4.5625 4.3180844,6.0008263 2.8201547,7.7018605 1.78125,9.59375 0.67696673,11.607203 0.125,13.742818 0.125,15.96875 c 0,1.49349 0.14942612,2.807447 0.4375,4.03125 0.31769851,1.338216 0.8196553,2.569333 1.5,3.65625 0.7079262,1.132887 1.6114021,2.147619 2.71875,3.03125 0.7937355,0.636419 1.6782199,1.201851 2.6875,1.71875 L 9.0625,37.875 c 0.1389292,0.833575 0.7083075,1.54444 1.5,1.84375 0.27888,0.111348 0.557719,0.15625 0.84375,0.15625 0.535286,0 1.067889,-0.181883 1.5,-0.53125 L 22.5,31.6875 c 2.153403,-0.213501 4.233296,-0.684626 6.1875,-1.4375 2.153403,-0.835618 4.073052,-1.970803 5.71875,-3.34375 1.69984,-1.419939 3.030978,-3.066877 3.96875,-4.875 0.993957,-1.924579 1.5,-3.960173 1.5,-6.0625 0,-2.224911 -0.57913,-4.361547 -1.6875,-6.375 C 37.147574,7.6987959 35.67783,5.9987833 33.8125,4.5625 31.991097,3.1589059 29.872617,2.0463824 27.53125,1.28125 25.137275,0.50130527 22.57581,0.125 20,0.125 z m 0,4.78125 c 2.106412,0 4.146093,0.3123184 6.0625,0.9375 1.824468,0.5924924 3.453436,1.4304491 4.84375,2.5 1.338216,1.0348186 2.403794,2.218573 3.125,3.53125 0.715077,1.303483 1.0625,2.681984 1.0625,4.09375 0,1.331065 -0.327224,2.638938 -0.96875,3.875 -0.642548,1.246277 -1.570726,2.392883 -2.78125,3.40625 -1.246277,1.038904 -2.74012,1.888703 -4.40625,2.53125 -1.734572,0.671151 -3.582155,1.089015 -5.53125,1.21875 -0.487274,0.03575 -0.967824,0.202732 -1.34375,0.5 l -6.96875,5.59375 -1.125,-6.6875 C 11.83595,25.606386 11.303116,24.911448 10.5625,24.59375 9.4439157,24.101368 8.5018525,23.565329 7.75,22.96875 7.0563753,22.420184 6.5146239,21.805345 6.09375,21.125 5.6861561,20.471216 5.3856785,19.751063 5.1875,18.90625 4.9852354,18.04918 4.90625,17.089378 4.90625,15.96875 c 0,-1.411766 0.347423,-2.793331 1.0625,-4.09375 0.7212063,-1.313698 1.7857629,-2.4964314 3.125,-3.53125 1.390314,-1.0695509 3.020304,-1.9075076 4.84375,-2.5 C 15.854928,5.2185684 17.889501,4.90625 20,4.90625 z M 13.40625,9.5 c -0.980677,0 -1.78125,0.793422 -1.78125,1.78125 l 0,9 c 0,0.987828 0.800573,1.8125 1.78125,1.8125 0.996,0 1.78125,-0.807306 1.78125,-1.8125 l 0,-2.71875 3.25,0 0,2.71875 c 0,0.970462 0.786689,1.8125 1.75,1.8125 0.998043,0 1.78125,-0.807306 1.78125,-1.8125 l 0,-9 C 21.96875,10.277078 21.185543,9.5 20.1875,9.5 c -0.979656,0 -1.75,0.793422 -1.75,1.78125 l 0,2.75 -3.25,0 0,-2.75 C 15.1875,10.277078 14.40225,9.5 13.40625,9.5 z m 12.65625,0 c -0.978634,0 -1.78125,0.793422 -1.78125,1.78125 l 0,9 c 0,0.987828 0.802616,1.8125 1.78125,1.8125 0.998043,0 1.78125,-0.807306 1.78125,-1.8125 l 0,-9 C 27.84375,10.277078 27.060543,9.5 26.0625,9.5 z"
     id="path22"
     style="fill:#000000;fill-opacity:1;fill-rule:nonzero;stroke:none" /></svg>