<?xml version="1.0" encoding="UTF-8" standalone="no"?>
<!-- Created with Inkscape (http://www.inkscape.org/) -->

<svg
   xmlns:dc="http://purl.org/dc/elements/1.1/"
   xmlns:cc="http://creativecommons.org/ns#"
   xmlns:rdf="http://www.w3.org/1999/02/22-rdf-syntax-ns#"
   xmlns:svg="http://www.w3.org/2000/svg"
   xmlns="http://www.w3.org/2000/svg"
   version="1.1"
   width="40"
   height="40"
   id="svg2"
   xml:space="preserve"><metadata
     id="metadata8"><rdf:RDF><cc:Work
         rdf:about=""><dc:format>image/svg+xml</dc:format><dc:type
           rdf:resource="http://purl.org/dc/dcmitype/StillImage" /><dc:title></dc:title></cc:Work></rdf:RDF></metadata><defs
     id="defs6"><clipPath
       id="clipPath16"><path
         d="M 0,55 55,55 55,0 0,0 0,55 z"
         id="path18" /></clipPath></defs><g
     transform="matrix(1.25,0,0,-1.25,-11.55275,56.380125)"
     id="g10"><g
       id="g12"><g
         clip-path="url(#clipPath16)"
         id="g14"><g
           transform="translate(43.5977,29.5698)"
           id="g20" /><g
           transform="translate(37.8389,24.71)"
           id="g24" /><g
           transform="translate(22.6831,19.5059)"
           id="g28" /><g
           transform="translate(30.2217,15.8281)"
           id="g32"><g
             transform="matrix(0.86864407,0,0,0.86864407,-2.615268,3.7222399)"
             id="g3000"><path
               d="m 0,0 c -0.553,0 -1.105,0.21 -1.525,0.632 -1.895,1.893 -4.098,3.38 -6.553,4.418 -5.079,2.15 -10.959,2.148 -16.041,0 -2.453,-1.038 -4.658,-2.525 -6.549,-4.418 -0.845,-0.844 -2.211,-0.844 -3.056,0 -0.842,0.845 -0.842,2.211 0,3.056 2.288,2.287 4.954,4.083 7.923,5.339 6.153,2.603 13.256,2.603 19.406,0 C -3.424,7.771 -0.76,5.975 1.527,3.688 2.371,2.843 2.371,1.477 1.527,0.632 1.105,0.21 0.553,0 0,0"
               transform="translate(13.376,13.7417)"
               id="path22"
               style="fill:#373535;fill-opacity:1;fill-rule:nonzero;stroke:none" /><path
               d="M 0,0 C -1.3333352,0.0175166 -2.113697,1.3031121 -3.2408047,1.8332324 -6.8354051,4.106264 -11.526808,4.5468111 -15.444109,2.8527187 -16.994603,2.2413017 -18.348714,1.2529353 -19.6626,0.25231641 c -1.346896,-0.79917807 -3.242378,0.3331875 -3.178065,1.89776389 -0.04509,1.3319061 1.229393,2.0237144 2.154037,2.7157722 C -16.520147,7.8386564 -11.052321,8.9784582 -6.078,7.674 -3.2701967,6.9650016 -0.6461069,5.5631842 1.5428435,3.6727007 2.6729487,2.6237081 2.1535832,0.53604186 0.6879375,0.111375 0.46658735,0.03761304 0.23330566,-5.2326007e-5 0,0 z"
               transform="translate(7.6172,8.8819)"
               id="path26"
               style="fill:#373535;fill-opacity:1;fill-rule:nonzero;stroke:none" /><path
               d="M 0,0 C -1.4978115,-0.06034824 -2.6501107,1.6856824 -1.9745232,3.0386665 -1.3173243,4.216076 0.03594319,4.7825969 1.1936875,5.3595781 4.1930697,6.699396 7.8150629,6.1682405 10.440404,4.2465918 11.676132,3.6554977 12.260513,1.9531543 11.346,0.842 10.56365,-0.24574701 8.8929236,-0.23279028 7.9882363,0.69047461 6.4438799,1.8593948 4.2512671,2.168973 2.5224922,1.2168652 1.6552052,0.84657848 1.020822,-0.04811673 0,0 z"
               transform="translate(-7.5386,3.6778)"
               id="path30"
               style="fill:#373535;fill-opacity:1;fill-rule:nonzero;stroke:none" /><path
               d="m 0,0 c 0,1.503 -1.216,2.723 -2.721,2.723 -1.501,0 -2.723,-1.22 -2.723,-2.723 0,-1.505 1.222,-2.724 2.723,-2.724 C -1.216,-2.724 0,-1.505 0,0"
               id="path34"
               style="fill:#373535;fill-opacity:1;fill-rule:nonzero;stroke:none" /></g></g></g></g></g></svg>