<?xml version="1.0" encoding="UTF-8" standalone="no"?>
<!-- Created with Inkscape (http://www.inkscape.org/) -->

<svg
   xmlns:dc="http://purl.org/dc/elements/1.1/"
   xmlns:cc="http://creativecommons.org/ns#"
   xmlns:rdf="http://www.w3.org/1999/02/22-rdf-syntax-ns#"
   xmlns:svg="http://www.w3.org/2000/svg"
   xmlns="http://www.w3.org/2000/svg"
   version="1.1"
   width="40"
   height="40"
   id="svg2"
   xml:space="preserve"><metadata
     id="metadata8"><rdf:RDF><cc:Work
         rdf:about=""><dc:format>image/svg+xml</dc:format><dc:type
           rdf:resource="http://purl.org/dc/dcmitype/StillImage" /><dc:title></dc:title></cc:Work></rdf:RDF></metadata><defs
     id="defs6"><clipPath
       id="clipPath16"><path
         d="M 0,55 55,55 55,0 0,0 0,55 z"
         id="path18" /></clipPath></defs><path
     d="m 20,5.09375 c -3.597951,0 -7.190771,0.7118246 -10.53125,2.125 -3.2237553,1.3637712 -6.1094279,3.329264 -8.59375,5.8125 -0.9142479,0.917505 -0.9142479,2.394995 0,3.3125 0.9175053,0.91642 2.3949947,0.91642 3.3125,0 2.0532574,-2.055429 4.4302699,-3.685434 7.09375,-4.8125 5.518061,-2.3323091 11.922696,-2.3344807 17.4375,0 2.665652,1.127066 5.03615,2.757071 7.09375,4.8125 0.456038,0.45821 1.0558,0.6875 1.65625,0.6875 0.60045,0 1.198041,-0.22929 1.65625,-0.6875 0.91642,-0.917505 0.91642,-2.394995 0,-3.3125 C 36.641764,10.548014 33.757177,8.5825212 30.53125,7.21875 27.1924,5.8055746 23.597951,5.09375 20,5.09375 z m -0.53125,8.3125 C 15.656059,13.52831 11.860241,14.780828 8.75,17 c -1.0039832,0.751439 -2.361459,1.522559 -2.3125,2.96875 -0.069831,1.698825 1.9750335,2.930251 3.4375,2.0625 1.426624,-1.086478 2.910215,-2.17987 4.59375,-2.84375 4.253425,-1.839454 9.346964,-1.343069 13.25,1.125 1.223819,0.575607 2.052258,1.98098 3.5,2 0.253324,5.7e-5 0.509657,-0.04491 0.75,-0.125 1.591406,-0.461105 2.164574,-2.735999 0.9375,-3.875 -2.376773,-2.052697 -5.232523,-3.573916 -8.28125,-4.34375 -1.687857,-0.442621 -3.423209,-0.617982 -5.15625,-0.5625 z m 0.46875,7.90625 c -1.318696,0.0017 -2.653721,0.266957 -3.875,0.8125 -1.257085,0.626489 -2.72391,1.252813 -3.4375,2.53125 -0.733557,1.469077 0.529919,3.34678 2.15625,3.28125 1.108414,0.05224 1.777045,-0.910441 2.71875,-1.3125 1.877112,-1.033804 4.26063,-0.706719 5.9375,0.5625 0.982314,1.002486 2.80677,1.024831 3.65625,-0.15625 0.992983,-1.206497 0.34176,-3.045687 -1,-3.6875 C 24.312119,22.039665 22.135327,21.30968 19.9375,21.3125 z M 20,29 c -1.629793,0 -2.96875,1.305535 -2.96875,2.9375 0,1.634137 1.338957,2.96875 2.96875,2.96875 1.634137,0 2.96875,-1.334613 2.96875,-2.96875 C 22.96875,30.305535 21.634137,29 20,29 z"
     id="path22"
     style="fill:#000000;fill-opacity:1;fill-rule:nonzero;stroke:none" /></svg>