<?xml version="1.0" encoding="UTF-8" standalone="no"?>
<!-- Created with Inkscape (http://www.inkscape.org/) -->

<svg
   xmlns:dc="http://purl.org/dc/elements/1.1/"
   xmlns:cc="http://creativecommons.org/ns#"
   xmlns:rdf="http://www.w3.org/1999/02/22-rdf-syntax-ns#"
   xmlns:svg="http://www.w3.org/2000/svg"
   xmlns="http://www.w3.org/2000/svg"
   version="1.1"
   width="40"
   height="40"
   id="svg2"
   xml:space="preserve"><metadata
     id="metadata8"><rdf:RDF><cc:Work
         rdf:about=""><dc:format>image/svg+xml</dc:format><dc:type
           rdf:resource="http://purl.org/dc/dcmitype/StillImage" /><dc:title></dc:title></cc:Work></rdf:RDF></metadata><defs
     id="defs6"><clipPath
       id="clipPath20"><path
         d="M 0,55 55,55 55,0 0,0 0,55 z"
         id="path22" /></clipPath></defs><g
     transform="matrix(1.25,0,0,-1.25,-13.920423,50.296176)"
     id="g10"><g
       transform="translate(16.0757,47.5898)"
       id="g12" /><g
       id="g16"><g
         clip-path="url(#clipPath20)"
         id="g18"><g
           transform="translate(25.8022,35.2529)"
           id="g24" /><g
           transform="translate(37.209,43.6772)"
           id="g28" /><g
           transform="translate(39.748,21.3984)"
           id="g32" /><g
           transform="translate(31.1777,14.209)"
           id="g36" /><g
           transform="translate(42.0645,20.3857)"
           id="g40"><g
             transform="matrix(0.80084745,0,0,0.80084745,-3.6600155,-2.1772752)"
             id="g3004"><path
               d="m 0,0 2.32,0 1.494,-5.961 0.145,0 1.425,5.961 2.34,0 -2.68,-8.725 0,-6.19 -2.305,0 0,5.911 L 0,0 z"
               transform="translate(-25.9888,27.2041)"
               id="path14"
               style="fill:#373535;fill-opacity:1;fill-rule:nonzero;stroke:none" /><path
               d="M 0,0 C 0,-0.303 0.071,-0.538 0.218,-0.704 0.363,-0.868 0.57,-0.95 0.843,-0.95 c 0.274,0 0.497,0.088 0.66,0.254 0.161,0.17 0.243,0.399 0.243,0.696 l 0,5.993 c 0,0.24 -0.083,0.432 -0.251,0.582 C 1.331,6.719 1.113,6.795 0.843,6.795 0.592,6.795 0.387,6.719 0.231,6.575 0.078,6.425 0,6.233 0,5.993 L 0,0 z m -2.106,5.909 c 0,0.851 0.275,1.53 0.826,2.032 0.551,0.508 1.291,0.762 2.221,0.762 C 1.785,8.703 2.481,8.435 3.02,7.9 3.561,7.371 3.833,6.684 3.833,5.846 l 0,-5.682 c 0,-0.942 -0.268,-1.679 -0.796,-2.216 -0.531,-0.534 -1.26,-0.804 -2.191,-0.804 -0.894,0 -1.61,0.278 -2.145,0.832 -0.538,0.55 -0.807,1.295 -0.807,2.232 l 0,5.701 z"
               transform="translate(-16.2623,14.8672)"
               id="path26"
               style="fill:#373535;fill-opacity:1;fill-rule:nonzero;stroke:none" /><path
               d="m 0,0 0,-11.002 -2.046,0 0,1.213 c -0.376,-0.447 -0.769,-0.785 -1.176,-1.02 -0.409,-0.234 -0.804,-0.352 -1.188,-0.352 -0.473,0 -0.83,0.164 -1.069,0.492 -0.243,0.327 -0.36,0.82 -0.36,1.472 l 0,9.197 2.047,0 0,-8.435 c 0,-0.26 0.04,-0.448 0.126,-0.565 0.086,-0.115 0.226,-0.177 0.42,-0.177 0.149,0 0.34,0.079 0.57,0.234 0.229,0.153 0.439,0.352 0.63,0.592 L -2.046,0 0,0 z"
               transform="translate(-4.8555,23.2915)"
               id="path30"
               style="fill:#373535;fill-opacity:1;fill-rule:nonzero;stroke:none" /><path
               d="m 0,0 c -0.141,0.197 -0.369,0.297 -0.682,0.297 -0.326,0 -0.559,-0.1 -0.699,-0.297 -0.144,-0.199 -0.213,-0.533 -0.213,-0.994 l 0,-0.955 1.805,0 0,0.955 C 0.211,-0.533 0.141,-0.199 0,0"
               transform="translate(-2.3165,1.0127)"
               id="path34"
               style="fill:#373535;fill-opacity:1;fill-rule:nonzero;stroke:none" /><path
               d="m 0,0 c 0.154,-0.081 0.318,-0.12 0.494,-0.12 0.248,0 0.432,0.079 0.551,0.233 0.117,0.155 0.178,0.408 0.178,0.758 l 0,5.522 C 1.223,6.764 1.148,7.047 1.004,7.238 0.856,7.43 0.646,7.527 0.368,7.527 0.221,7.527 0.078,7.489 -0.064,7.419 -0.206,7.346 -0.347,7.236 -0.484,7.083 l 0,-6.698 C -0.32,0.208 -0.158,0.076 0,0"
               transform="translate(-10.8868,-6.1767)"
               id="path38"
               style="fill:#373535;fill-opacity:1;fill-rule:nonzero;stroke:none" /><path
               d="m 0,0 0,-2.641 0,-0.161 -3.91,0 0,-1.916 c 0,-0.578 0.064,-0.978 0.2,-1.203 0.136,-0.223 0.366,-0.336 0.694,-0.336 0.336,0 0.575,0.096 0.709,0.285 0.135,0.188 0.202,0.608 0.202,1.254 l 0,0.608 0,0.157 2.105,0 0,-0.157 0,-0.666 0,-0.162 c 0,-1.129 -0.256,-1.977 -0.77,-2.547 -0.511,-0.571 -1.276,-0.858 -2.296,-0.858 -0.914,0 -1.636,0.303 -2.161,0.908 -0.527,0.607 -0.791,1.438 -0.791,2.497 l 0,0.162 0,4.776 0,0.161 c 0,0.953 0.291,1.73 0.87,2.332 0.576,0.601 1.324,0.901 2.239,0.901 0.934,0 1.651,-0.278 2.156,-0.834 C -0.249,2.003 0,1.2 0,0.161 L 0,0 z m -7.562,0.341 0,-5.947 0,-0.159 c 0,-0.781 -0.159,-1.381 -0.479,-1.795 -0.318,-0.416 -0.783,-0.621 -1.388,-0.621 -0.401,0 -0.757,0.078 -1.07,0.239 -0.314,0.161 -0.606,0.41 -0.872,0.746 l 0,-0.688 0,-0.158 -2.068,0 0,0.158 0,14.754 0,0.161 2.068,0 0,-0.161 0,-4.643 c 0.273,0.338 0.566,0.592 0.877,0.766 0.308,0.174 0.623,0.265 0.94,0.265 0.648,0 1.142,-0.237 1.484,-0.706 0.341,-0.473 0.508,-1.155 0.508,-2.055 l 0,-0.156 z m -7.869,2.617 0,-10.842 0,-0.158 -2.048,0 0,0.158 0,1.056 c -0.377,-0.448 -0.769,-0.789 -1.177,-1.021 -0.407,-0.236 -0.805,-0.354 -1.187,-0.354 -0.474,0 -0.829,0.163 -1.069,0.493 -0.24,0.327 -0.36,0.818 -0.36,1.471 l 0,0.161 0,9.036 0,0.158 2.046,0 0,-0.158 0,-8.271 c 0,-0.266 0.041,-0.454 0.128,-0.569 0.085,-0.118 0.224,-0.178 0.418,-0.178 0.15,0 0.341,0.081 0.57,0.235 0.229,0.153 0.439,0.349 0.631,0.592 l 0,8.191 0,0.158 2.048,0 0,-0.158 z m -8.196,-10.842 0,-0.158 -2.303,0 0,0.158 0,12.587 -2.385,0 0,0.161 0,2.006 0,0.161 7.071,0 0,-0.161 0,-2.006 0,-0.161 -2.383,0 0,-12.587 z M 2.563,5.511 c 0,2.66 -2.179,4.813 -4.87,4.813 -3.836,0.161 -7.759,0.235 -11.762,0.226 -4.004,0.009 -7.928,-0.065 -11.765,-0.226 -2.686,0 -4.867,-2.153 -4.867,-4.813 -0.161,-2.104 -0.231,-4.206 -0.227,-6.309 -0.004,-2.105 0.066,-4.211 0.227,-6.314 0,-2.659 2.181,-4.817 4.867,-4.817 3.837,-0.157 7.761,-0.228 11.765,-0.219 4.003,-0.009 7.926,0.062 11.762,0.219 2.691,0 4.87,2.158 4.87,4.817 0.161,2.103 0.232,4.209 0.224,6.314 0.008,2.103 -0.063,4.205 -0.224,6.309"
               id="path42"
               style="fill:#373535;fill-opacity:1;fill-rule:nonzero;stroke:none" /></g></g></g></g></g></svg>