<?xml version="1.0" encoding="UTF-8" standalone="no"?>
<!-- Created with Inkscape (http://www.inkscape.org/) -->

<svg
   xmlns:dc="http://purl.org/dc/elements/1.1/"
   xmlns:cc="http://creativecommons.org/ns#"
   xmlns:rdf="http://www.w3.org/1999/02/22-rdf-syntax-ns#"
   xmlns:svg="http://www.w3.org/2000/svg"
   xmlns="http://www.w3.org/2000/svg"
   version="1.1"
   width="40"
   height="40"
   id="svg2"
   xml:space="preserve"><metadata
     id="metadata8"><rdf:RDF><cc:Work
         rdf:about=""><dc:format>image/svg+xml</dc:format><dc:type
           rdf:resource="http://purl.org/dc/dcmitype/StillImage" /><dc:title></dc:title></cc:Work></rdf:RDF></metadata><defs
     id="defs6"><clipPath
       id="clipPath20"><path
         d="M 0,55 55,55 55,0 0,0 0,55 z"
         id="path22" /></clipPath></defs><path
     d="m 8.0625,0.3125 2.75,9 0,5.90625 2.3125,0 0,-6.1875 2.6875,-8.71875 -2.34375,0 -1.4375,5.96875 -0.15625,0 -1.46875,-5.96875 -2.34375,0 z M 18.75,3.9375 c -0.930985,0 -1.667166,0.2727119 -2.21875,0.78125 C 15.979666,5.2212818 15.6875,5.8980985 15.6875,6.75 l 0,5.6875 c 0,0.937992 0.27393,1.699417 0.8125,2.25 0.535567,0.554587 1.261303,0.8125 2.15625,0.8125 0.931986,0 1.655938,-0.246685 2.1875,-0.78125 0.528559,-0.537569 0.8125,-1.275752 0.8125,-2.21875 l 0,-5.6875 c 0,-0.8388877 -0.270927,-1.5329396 -0.8125,-2.0625 C 20.304179,4.2144333 19.594894,3.9375 18.75,3.9375 z m 4.625,0.28125 0,9.21875 c 0,0.65269 0.131743,1.141404 0.375,1.46875 0.239253,0.328347 0.588999,0.5 1.0625,0.5 0.384407,0 0.778067,-0.140752 1.1875,-0.375 0.407431,-0.235249 0.811101,-0.552527 1.1875,-1 l 0,1.1875 2.03125,0 0,-11 -2.03125,0 0,8.375 c -0.191203,0.240254 -0.427007,0.440588 -0.65625,0.59375 -0.230243,0.155167 -0.413343,0.21875 -0.5625,0.21875 -0.194206,0 -0.32016,-0.07238 -0.40625,-0.1875 -0.08609,-0.117124 -0.125,-0.302224 -0.125,-0.5625 l 0,-8.4375 -2.0625,0 z m -4.71875,1.625 c 0.270286,0 0.492076,0.074598 0.65625,0.21875 0.168176,0.1501589 0.25,0.3534958 0.25,0.59375 l 0,6 c 0,0.297315 -0.08883,0.51732 -0.25,0.6875 -0.163173,0.166179 -0.38196,0.25 -0.65625,0.25 -0.273289,0 -0.479846,-0.08583 -0.625,-0.25 -0.147151,-0.166176 -0.21875,-0.384179 -0.21875,-0.6875 l 0,-6 c 0,-0.2402542 0.06559,-0.4435911 0.21875,-0.59375 0.156165,-0.144153 0.373734,-0.21875 0.625,-0.21875 z M 20,16.96875 c -4.008242,-0.009 -7.940185,0.05758 -11.78125,0.21875 -2.6888452,0 -4.875,2.180932 -4.875,4.84375 -0.1611705,2.106229 -0.2227543,4.207273 -0.21875,6.3125 -0.004,2.10723 0.05758,4.207272 0.21875,6.3125 0,2.661816 2.1861548,4.8125 4.875,4.8125 3.841065,0.157167 7.773008,0.22776 11.78125,0.21875 4.00724,0.009 7.941187,-0.06159 11.78125,-0.21875 2.693851,0 4.875,-2.150684 4.875,-4.8125 0.161171,-2.105228 0.226759,-4.20527 0.21875,-6.3125 0.008,-2.105227 -0.05758,-4.206271 -0.21875,-6.3125 0,-2.662818 -2.181149,-4.84375 -4.875,-4.84375 C 27.941187,17.026329 24.00724,16.959741 20,16.96875 z M 5.75,20.5 l 7.0625,0 0,0.15625 0,2 0,0.15625 -2.375,0 0,12.625 0,0.15625 -2.3125,0 0,-0.15625 0,-12.625 -2.375,0 0,-0.15625 0,-2 0,-0.15625 z m 14.875,0 2.0625,0 0,0.15625 0,4.65625 c 0.273289,-0.338358 0.59492,-0.607066 0.90625,-0.78125 0.308326,-0.174185 0.620165,-0.25 0.9375,-0.25 0.648687,0 1.126388,0.218003 1.46875,0.6875 0.341362,0.473501 0.5,1.161546 0.5,2.0625 l 0,0.15625 0,5.96875 0,0.15625 c 0,0.781827 -0.148411,1.366812 -0.46875,1.78125 -0.318337,0.416441 -0.769359,0.625 -1.375,0.625 -0.401425,0 -0.780418,-0.05758 -1.09375,-0.21875 -0.314332,-0.161171 -0.608719,-0.413644 -0.875,-0.75 l 0,0.6875 0,0.15625 -2.0625,0 0,-0.15625 0,-14.78125 0,-0.15625 z m 10.5625,3.625 c 0.93499,0 1.650715,0.287161 2.15625,0.84375 0.504534,0.55759 0.75,1.36615 0.75,2.40625 l 0,0.15625 0,2.65625 0,0.15625 -3.9375,0 0,1.90625 c 0,0.578612 0.08261,0.993512 0.21875,1.21875 0.136144,0.223236 0.359153,0.34375 0.6875,0.34375 0.336356,0 0.584608,-0.123298 0.71875,-0.3125 0.135143,-0.188199 0.1875,-0.603316 0.1875,-1.25 l 0,-0.59375 0,-0.15625 2.125,0 0,0.15625 0,0.65625 0,0.15625 c 0,1.130196 -0.266705,1.991896 -0.78125,2.5625 -0.511541,0.571605 -1.260169,0.84375 -2.28125,0.84375 -0.914968,0 -1.661944,-0.300609 -2.1875,-0.90625 -0.527558,-0.607643 -0.78125,-1.439878 -0.78125,-2.5 l 0,-0.15625 0,-4.78125 0,-0.15625 c 0,-0.954009 0.295386,-1.741112 0.875,-2.34375 0.57661,-0.601636 1.334031,-0.90625 2.25,-0.90625 z m -18.40625,0.28125 2.0625,0 0,0.15625 0,8.28125 c 0,0.266282 0.03791,0.478628 0.125,0.59375 0.08509,0.118125 0.212045,0.15625 0.40625,0.15625 0.150159,0 0.364507,-0.06459 0.59375,-0.21875 0.229243,-0.153162 0.432797,-0.350492 0.625,-0.59375 l 0,-8.21875 0,-0.15625 2.03125,0 0,0.15625 0,10.875 0,0.15625 -2.03125,0 0,-0.15625 0,-1.0625 c -0.377399,0.448474 -0.779068,0.799005 -1.1875,1.03125 -0.407431,0.23625 -0.805095,0.34375 -1.1875,0.34375 -0.474502,0 -0.822246,-0.16965 -1.0625,-0.5 -0.240254,-0.327346 -0.375,-0.815058 -0.375,-1.46875 l 0,-0.15625 0,-9.0625 0,-0.15625 z M 23.5625,26.1875 c -0.147156,0 -0.295349,0.02368 -0.4375,0.09375 -0.14215,0.07308 -0.300355,0.190588 -0.4375,0.34375 l 0,6.71875 c 0.164174,0.177188 0.341833,0.298919 0.5,0.375 0.154163,0.08109 0.323814,0.125 0.5,0.125 0.248263,0 0.412124,-0.09583 0.53125,-0.25 0.117124,-0.155164 0.1875,-0.399629 0.1875,-0.75 l 0,-5.53125 c 0,-0.371393 -0.0746,-0.652548 -0.21875,-0.84375 -0.148157,-0.192204 -0.346706,-0.28125 -0.625,-0.28125 z m 7.53125,0.03125 c -0.326346,0 -0.578602,0.115291 -0.71875,0.3125 -0.144152,0.199211 -0.21875,0.538512 -0.21875,1 l 0,0.9375 1.8125,0 0,-0.9375 c 0,-0.461488 -0.04635,-0.800789 -0.1875,-1 -0.141149,-0.197209 -0.374169,-0.3125 -0.6875,-0.3125 z"
     id="path14"
     style="fill:#000000;fill-opacity:1;fill-rule:nonzero;stroke:none" /></svg>